<?xml version="1.0" standalone="no"?>
<!DOCTYPE svg PUBLIC "-//W3C//DTD SVG 20010904//EN"
 "http://www.w3.org/TR/2001/REC-SVG-20010904/DTD/svg10.dtd">
<svg version="1.0" xmlns="http://www.w3.org/2000/svg"
 width="240.000000pt" height="260.000000pt" viewBox="0 0 240.000000 260.000000"
 preserveAspectRatio="xMidYMid meet">
<metadata>
Created by potrace 1.16, written by Peter Selinger 2001-2019
</metadata>
<g transform="translate(0.000000,260.000000) scale(0.100000,-0.100000)"
fill="#000000" stroke="none">
<path d="M285 2531 c-3 -2 -5 -19 -5 -38 0 -31 -2 -33 -21 -23 -27 15 -32 9
-19 -24 9 -24 7 -30 -20 -53 -19 -15 -30 -34 -30 -50 0 -16 -13 -38 -32 -58
-32 -30 -92 -161 -82 -177 7 -10 76 18 90 37 12 16 133 53 199 62 53 6 73 -10
177 -145 45 -59 146 -172 224 -252 137 -141 224 -253 224 -292 0 -10 -12 -42
-26 -70 -36 -71 -30 -123 25 -218 l41 -73 -39 -51 c-21 -28 -75 -90 -119 -139
-49 -53 -87 -105 -98 -133 -17 -44 -17 -46 6 -90 22 -44 22 -51 16 -247 -4
-111 -9 -232 -12 -269 l-6 -68 36 0 c24 0 36 5 36 14 0 7 10 26 22 41 20 26
20 29 5 59 -33 66 -44 494 -14 552 24 46 68 84 156 136 l79 46 15 -36 c24 -60
36 -112 46 -206 7 -58 19 -105 34 -135 18 -34 26 -70 31 -141 4 -52 14 -131
21 -175 12 -69 12 -89 0 -140 -8 -33 -14 -71 -15 -84 0 -22 3 -23 45 -18 26 2
48 7 51 10 13 13 6 146 -15 287 -16 108 -21 182 -18 245 3 64 -2 134 -19 245
-13 85 -24 172 -24 193 l0 37 54 -44 c79 -64 126 -79 234 -75 l90 4 27 -75
c38 -108 44 -138 45 -208 0 -78 -23 -149 -90 -272 -29 -52 -61 -114 -73 -138
-11 -24 -33 -53 -49 -65 -35 -26 -58 -66 -58 -102 0 -22 4 -25 34 -25 26 0 43
9 70 35 20 19 36 43 36 52 0 27 95 219 141 288 23 33 55 69 72 80 43 29 60
101 53 225 l-6 95 67 -70 c36 -38 83 -92 103 -120 38 -50 151 -267 165 -315 4
-14 23 -54 43 -90 31 -55 36 -75 37 -129 0 -73 13 -89 56 -73 22 9 27 18 32
62 7 59 2 71 -74 191 -66 103 -100 195 -108 301 -7 81 -11 91 -62 175 -82 132
-83 135 -83 317 0 159 1 161 23 164 28 4 47 -11 74 -62 19 -37 22 -62 28 -236
5 -157 9 -201 23 -227 21 -39 34 -49 49 -34 7 7 6 47 -6 138 -9 70 -19 168
-22 218 -8 137 -62 228 -176 300 -22 15 -55 42 -72 62 -37 42 -89 76 -158 103
-60 24 -196 100 -261 147 -26 19 -68 63 -93 98 -55 78 -97 104 -232 144 -56
16 -117 38 -135 47 -103 53 -305 205 -467 352 -51 46 -112 92 -137 102 -25 11
-44 26 -44 35 0 20 -10 19 -26 -2 -12 -16 -13 -14 -14 19 0 20 -5 40 -12 44
-14 9 -57 12 -63 5z"/>
</g>
</svg>
