<?xml version="1.0" standalone="no"?>
<!DOCTYPE svg PUBLIC "-//W3C//DTD SVG 20010904//EN"
 "http://www.w3.org/TR/2001/REC-SVG-20010904/DTD/svg10.dtd">
<svg version="1.0" xmlns="http://www.w3.org/2000/svg"
 width="180.000000pt" height="270.000000pt" viewBox="0 0 180.000000 270.000000"
 preserveAspectRatio="xMidYMid meet">
<metadata>
Created by potrace 1.16, written by Peter Selinger 2001-2019
</metadata>
<g transform="translate(0.000000,270.000000) scale(0.100000,-0.100000)"
fill="#000000" stroke="none">
<path d="M319 2608 c-10 -19 -12 -20 -21 -4 -14 25 -35 4 -43 -45 -5 -30 -11
-39 -26 -39 -26 0 -69 -44 -69 -71 0 -11 -12 -35 -27 -53 -27 -32 -73 -122
-73 -143 0 -18 51 -16 74 2 11 8 34 15 51 15 18 0 53 11 80 25 45 24 48 25 61
8 29 -39 79 -152 125 -285 69 -199 130 -339 194 -445 61 -103 65 -122 35 -209
-25 -71 -21 -106 20 -163 29 -39 30 -45 30 -150 0 -128 -19 -236 -60 -350 -17
-45 -30 -92 -30 -104 0 -40 -66 -200 -142 -344 -101 -190 -98 -173 -32 -173
69 0 94 12 94 48 1 84 31 189 85 301 32 64 67 126 78 138 14 16 22 43 27 97 4
42 16 91 27 113 37 69 58 103 65 103 3 0 11 -24 18 -52 6 -29 29 -91 50 -138
48 -108 93 -299 94 -405 1 -70 -2 -86 -26 -127 -16 -26 -28 -51 -28 -56 0 -11
58 -22 78 -15 6 3 12 17 12 32 0 16 10 37 25 51 32 30 32 66 1 167 -45 143
-56 200 -56 291 0 64 -6 109 -21 154 -11 34 -23 104 -26 154 l-6 91 109 -27
c153 -39 182 -54 196 -104 6 -23 12 -117 14 -211 3 -154 1 -179 -22 -268 -30
-120 -66 -217 -93 -254 -12 -15 -25 -43 -30 -60 -9 -33 -9 -33 24 -33 19 0 45
5 59 11 30 14 56 74 56 130 0 60 57 274 88 331 15 27 37 67 49 89 l21 40 41
-53 c22 -30 52 -79 66 -109 40 -88 96 -314 95 -385 0 -47 3 -63 16 -68 27 -10
71 21 84 60 11 32 10 39 -8 63 -25 34 -72 142 -119 276 -33 90 -36 109 -35
195 2 127 2 117 -6 355 -7 200 -8 213 -34 268 -48 103 -148 192 -321 287 -65
35 -84 51 -113 99 -55 85 -102 129 -185 171 -41 21 -91 56 -110 77 -36 40
-161 236 -240 377 -24 44 -65 102 -90 130 l-47 51 25 35 24 35 -35 3 c-19 2
-49 -4 -65 -13 -29 -15 -31 -15 -31 4 0 10 7 32 15 47 8 16 15 35 15 42 0 20
-39 13 -51 -10z"/>
</g>
</svg>
