<?xml version="1.0" standalone="no"?>
<!DOCTYPE svg PUBLIC "-//W3C//DTD SVG 20010904//EN"
 "http://www.w3.org/TR/2001/REC-SVG-20010904/DTD/svg10.dtd">
<svg version="1.0" xmlns="http://www.w3.org/2000/svg"
 width="158.000000pt" height="273.000000pt" viewBox="0 0 158.000000 273.000000"
 preserveAspectRatio="xMidYMid meet">
<metadata>
Created by potrace 1.16, written by Peter Selinger 2001-2019
</metadata>
<g transform="translate(0.000000,273.000000) scale(0.100000,-0.100000)"
fill="#000000" stroke="none">
<path d="M140 2676 c-8 -10 -9 -33 -4 -73 7 -57 6 -58 -13 -40 -21 19 -83 24
-83 6 0 -6 13 -24 30 -39 33 -31 41 -82 16 -109 -8 -9 -18 -28 -21 -43 -6 -23
-3 -29 18 -39 19 -9 29 -8 48 5 14 8 39 17 58 18 l33 3 34 -95 c50 -137 81
-257 103 -400 14 -84 36 -169 67 -255 l46 -130 -7 -105 -6 -106 35 -67 c41
-79 56 -176 56 -364 0 -68 7 -191 16 -275 9 -84 14 -198 12 -253 -3 -89 -7
-107 -36 -163 -37 -72 -41 -108 -13 -117 21 -6 52 3 63 19 4 6 8 25 8 42 0 29
3 32 31 30 27 -1 32 4 46 39 17 44 18 52 7 206 -4 63 -2 145 5 201 9 82 9 102
-6 149 -9 30 -15 78 -14 106 3 67 47 244 64 255 19 12 66 9 137 -8 36 -9 98
-17 137 -17 68 -2 73 -4 82 -28 5 -14 39 -61 75 -105 70 -83 119 -172 158
-289 21 -63 23 -88 23 -251 l0 -181 -32 -37 c-18 -20 -33 -46 -33 -56 0 -17 7
-20 55 -20 44 0 57 4 67 20 7 11 23 20 36 20 13 0 25 8 28 17 3 10 10 26 15
35 14 27 11 58 -21 246 -27 160 -28 176 -14 214 17 49 11 76 -43 183 -36 69
-36 69 -29 165 4 52 11 124 15 160 7 61 8 63 19 38 25 -59 41 -137 47 -228 4
-52 10 -108 15 -125 5 -16 14 -95 20 -175 10 -132 19 -174 36 -157 3 3 8 52
11 109 5 88 2 114 -17 178 -15 52 -24 117 -29 215 -7 129 -10 146 -40 207 -23
49 -54 89 -114 149 -95 94 -148 122 -262 139 -102 15 -122 26 -187 102 -29 34
-103 114 -164 178 -121 126 -133 146 -208 349 -56 149 -93 222 -143 287 -55
69 -60 95 -24 122 16 11 31 32 33 46 4 22 2 26 -19 26 -13 0 -35 -11 -49 -25
-34 -34 -47 -23 -39 34 5 37 3 50 -10 61 -21 18 -35 0 -35 -46 0 -35 -22 -51
-40 -29 -6 7 -14 29 -17 49 -6 39 -14 44 -33 22z"/>
</g>
</svg>
