<?xml version="1.0" standalone="no"?>
<!DOCTYPE svg PUBLIC "-//W3C//DTD SVG 20010904//EN"
 "http://www.w3.org/TR/2001/REC-SVG-20010904/DTD/svg10.dtd">
<svg version="1.0" xmlns="http://www.w3.org/2000/svg"
 width="2000.000000pt" height="540.000000pt" viewBox="0 0 2000.000000 540.000000"
 preserveAspectRatio="xMidYMid meet">
<metadata>
Created by potrace 1.16, written by Peter Selinger 2001-2019
</metadata>
<g transform="translate(0.000000,540.000000) scale(0.100000,-0.100000)"
fill="#000000" stroke="none">
<path d="M3293 5324 c-7 -3 -9 -12 -6 -20 4 -11 -9 -14 -72 -14 -68 0 -77 -2
-82 -20 -5 -17 -14 -20 -60 -20 -46 0 -56 -3 -60 -20 -5 -17 -14 -20 -58 -20
-45 0 -55 -3 -60 -20 -5 -17 -15 -20 -57 -20 -41 0 -51 -3 -55 -20 -4 -15 -14
-20 -39 -20 -27 0 -34 -4 -34 -20 0 -13 -7 -20 -20 -20 -11 0 -20 -4 -20 -10
0 -5 -9 -10 -20 -10 -11 0 -20 -4 -20 -10 0 -5 -9 -10 -20 -10 -11 0 -20 -4
-20 -10 0 -5 -9 -10 -20 -10 -11 0 -20 -4 -20 -10 0 -5 -5 -10 -11 -10 -6 0
-9 15 -7 38 l3 37 -295 3 c-261 2 -296 0 -307 -14 -6 -8 -31 -18 -55 -21 -24
-3 -51 -14 -61 -24 -11 -12 -32 -19 -56 -19 -35 0 -47 -8 -125 -85 -64 -63
-86 -92 -86 -111 0 -17 -6 -28 -20 -31 -11 -3 -20 -11 -20 -18 0 -8 -9 -17
-20 -20 -15 -5 -20 -15 -20 -40 0 -24 -5 -34 -20 -38 -14 -3 -20 -14 -20 -32
0 -19 -4 -26 -14 -22 -15 6 -26 -12 -26 -43 0 -10 -9 -20 -20 -23 -15 -4 -20
-14 -20 -40 0 -26 -5 -36 -20 -40 -17 -4 -20 -14 -20 -56 0 -37 -4 -51 -14
-51 -16 0 -26 -21 -26 -56 0 -13 -6 -24 -13 -24 -7 0 -21 -25 -32 -55 -10 -30
-24 -55 -31 -55 -18 0 -37 -38 -30 -57 4 -9 -1 -17 -14 -20 -11 -3 -20 -14
-20 -24 0 -12 -7 -19 -20 -19 -16 0 -20 -7 -20 -36 0 -27 -5 -37 -20 -41 -15
-4 -20 -14 -20 -38 0 -24 -5 -34 -20 -38 -15 -4 -20 -14 -20 -36 0 -20 -7 -34
-20 -41 -13 -7 -20 -21 -20 -40 0 -20 -6 -31 -20 -35 -15 -5 -20 -15 -20 -40
0 -24 -5 -34 -20 -38 -17 -4 -20 -14 -20 -60 0 -46 -3 -55 -20 -60 -17 -4 -20
-14 -20 -60 0 -46 -3 -55 -20 -60 -18 -5 -20 -14 -20 -89 0 -72 -3 -86 -21
-101 -19 -17 -20 -26 -17 -252 3 -205 5 -236 20 -247 13 -10 17 -33 20 -98 l3
-85 -29 -3 c-16 -2 -41 -18 -59 -38 -22 -23 -41 -34 -60 -34 -15 0 -30 -7 -33
-15 -4 -8 -17 -15 -30 -15 -13 0 -33 -9 -44 -20 -11 -11 -31 -20 -45 -20 -14
0 -30 -9 -37 -20 -10 -15 -24 -20 -60 -20 -37 0 -50 -4 -58 -20 -9 -17 -21
-20 -76 -20 -57 0 -67 -3 -71 -20 -3 -11 -11 -20 -19 -20 -17 0 -34 -32 -34
-64 0 -43 24 -56 103 -56 85 0 117 7 117 26 0 11 21 14 99 14 108 0 131 5 131
26 0 11 16 14 64 14 73 0 96 6 96 26 0 10 14 14 50 14 39 0 52 4 60 20 16 30
50 26 50 -6 0 -26 48 -84 69 -84 6 0 11 -16 11 -35 0 -25 4 -35 16 -35 9 0 18
-9 21 -20 3 -11 14 -20 24 -20 12 0 19 -7 19 -20 0 -13 7 -20 20 -20 13 0 20
-7 20 -20 0 -16 7 -20 36 -20 27 0 37 -5 41 -20 4 -15 14 -20 38 -20 24 0 34
-5 38 -20 5 -19 14 -20 166 -20 154 0 161 1 161 20 0 17 7 20 40 20 33 0 40 3
40 20 0 12 7 20 16 20 9 0 18 9 21 20 3 11 12 20 20 20 8 0 17 9 20 20 3 11
12 20 20 20 8 0 17 9 20 20 3 11 14 20 24 20 13 0 19 9 21 38 2 25 8 37 18 37
10 0 16 12 18 32 2 20 11 37 23 43 16 9 19 22 19 78 0 56 3 69 20 80 18 11 20
23 20 122 0 99 -2 111 -20 122 -15 10 -20 24 -20 60 0 37 -4 50 -20 58 -13 7
-20 21 -20 41 0 22 -6 32 -20 36 -10 3 -22 13 -25 24 -4 11 -12 16 -21 12 -11
-4 -14 4 -14 32 0 28 -5 38 -20 42 -37 10 -20 23 29 23 36 0 53 5 63 18 7 10
24 19 38 19 14 1 31 11 39 23 7 11 19 20 26 20 15 0 25 22 25 56 0 15 6 24 15
24 14 0 17 5 19 40 1 21 28 55 49 63 9 3 17 13 17 22 0 13 13 15 88 13 60 -2
86 -7 85 -15 -2 -6 6 -15 17 -18 11 -4 20 -13 20 -21 0 -8 7 -14 15 -14 8 0
15 -4 15 -9 0 -17 31 -41 53 -41 13 0 30 -9 40 -20 9 -11 28 -20 41 -20 13 0
26 -7 30 -15 3 -9 18 -15 40 -15 25 0 35 -5 39 -20 4 -15 14 -20 41 -20 25 0
36 -4 36 -15 0 -8 7 -15 15 -15 13 0 15 -33 15 -240 0 -198 -2 -240 -14 -240
-20 0 -27 -41 -25 -137 1 -65 -2 -87 -15 -101 -13 -15 -16 -43 -16 -156 0
-129 -1 -138 -20 -143 -18 -5 -20 -14 -20 -74 0 -58 -3 -70 -20 -79 -16 -8
-20 -21 -20 -59 0 -40 -3 -50 -20 -54 -15 -4 -20 -14 -20 -40 0 -26 -5 -36
-20 -40 -15 -4 -20 -14 -20 -41 0 -25 -6 -38 -20 -46 -16 -8 -20 -21 -20 -59
0 -40 -3 -50 -20 -54 -17 -4 -20 -14 -20 -55 0 -41 -3 -51 -20 -55 -18 -5 -20
-14 -20 -94 0 -77 -2 -90 -20 -101 -19 -12 -20 -23 -20 -230 0 -205 -1 -219
-20 -235 -16 -13 -20 -29 -20 -77 0 -47 -4 -64 -21 -81 -12 -12 -18 -27 -14
-39 4 -13 -1 -22 -15 -30 -13 -7 -20 -21 -20 -40 0 -20 -7 -33 -21 -41 -15 -8
-20 -18 -16 -35 3 -17 -1 -28 -14 -35 -16 -8 -19 -22 -19 -78 0 -49 4 -72 15
-81 8 -7 15 -28 15 -46 0 -28 5 -36 25 -44 14 -5 25 -16 25 -25 0 -13 39 -15
316 -15 307 0 316 1 321 20 3 11 12 20 20 20 8 0 17 9 20 19 3 11 13 21 24 24
17 5 19 15 19 122 0 108 -1 117 -20 122 -17 4 -20 14 -20 55 0 41 -3 51 -20
55 -15 4 -20 14 -20 40 0 26 -5 36 -20 40 -18 5 -20 14 -20 88 0 74 2 83 20
88 18 5 20 14 20 115 0 100 2 110 19 115 15 4 20 15 23 48 2 24 7 42 12 41 12
-5 26 18 26 44 0 13 8 24 20 27 15 4 20 14 20 37 0 31 30 72 61 82 6 2 12 16
12 32 0 15 6 30 13 33 8 3 14 11 14 18 0 7 9 15 20 18 11 3 20 12 20 20 0 8 9
17 20 20 11 3 20 12 20 20 0 8 9 17 20 20 11 3 20 12 20 20 0 8 9 17 20 20 11
3 20 12 20 20 0 8 9 17 20 20 11 3 20 12 20 20 0 8 9 17 20 20 11 3 20 12 20
21 0 9 8 16 20 16 18 0 20 -7 20 -56 0 -47 3 -57 20 -61 14 -4 20 -14 20 -34
0 -18 8 -34 20 -41 15 -10 20 -24 20 -60 0 -37 4 -50 20 -58 16 -8 20 -21 20
-60 0 -43 3 -50 20 -50 17 0 20 -7 20 -40 0 -33 3 -40 20 -40 18 0 20 -7 20
-76 0 -67 2 -76 20 -81 17 -4 20 -14 20 -54 0 -38 4 -52 20 -61 17 -11 20 -24
20 -87 0 -51 5 -79 14 -90 10 -11 15 -45 17 -115 1 -82 -1 -100 -15 -108 -11
-6 -16 -23 -16 -57 0 -40 -3 -50 -20 -54 -11 -3 -20 -12 -20 -20 0 -8 -9 -17
-20 -20 -18 -5 -20 -14 -20 -111 l0 -106 40 0 c33 0 40 -3 40 -20 0 -17 7 -20
46 -20 37 0 47 4 51 20 5 19 14 20 254 20 242 0 249 1 249 20 0 13 7 20 20 20
19 0 20 7 20 124 0 115 -1 124 -20 129 -17 4 -20 14 -20 55 0 41 -3 51 -20 55
-18 5 -20 14 -20 101 0 89 -1 96 -20 96 -19 0 -20 7 -20 146 0 127 -2 148 -17
159 -15 11 -17 27 -14 94 3 94 -5 141 -25 141 -11 0 -14 21 -14 105 0 88 -3
105 -17 114 -15 8 -17 22 -14 89 2 70 0 83 -18 101 -18 18 -21 33 -21 101 0
68 -3 83 -20 97 -16 14 -20 30 -20 81 0 55 -3 65 -20 69 -17 5 -20 14 -20 60
0 46 -3 56 -20 60 -13 3 -20 14 -20 29 0 30 23 31 51 3 17 -17 30 -20 65 -16
38 4 44 2 44 -14 0 -17 9 -19 104 -19 113 0 136 -4 136 -26 0 -11 28 -14 150
-14 143 0 150 -1 150 -20 0 -19 7 -20 229 -20 220 0 229 -1 234 -20 5 -19 14
-20 237 -20 223 0 232 1 237 20 5 19 14 20 184 20 l179 0 0 -30 c0 -19 7 -34
20 -42 11 -7 20 -22 20 -34 0 -13 -8 -24 -20 -27 -19 -5 -20 -14 -20 -217 0
-195 -1 -211 -17 -208 -17 3 -18 -15 -21 -251 -2 -212 -5 -252 -16 -248 -22 9
-26 -15 -26 -141 0 -106 -2 -118 -20 -130 -16 -9 -20 -23 -20 -61 0 -34 -4
-51 -15 -55 -9 -3 -15 -18 -15 -35 0 -20 -7 -34 -20 -41 -12 -7 -20 -21 -20
-38 0 -16 -8 -32 -20 -40 -18 -11 -20 -23 -20 -125 0 -147 3 -157 47 -157 26
0 36 -5 40 -20 5 -19 14 -20 320 -20 301 0 315 1 320 19 3 11 13 21 24 24 17
5 19 15 19 121 0 105 -2 116 -20 126 -13 7 -20 21 -20 41 0 22 -5 32 -20 36
-16 4 -20 14 -20 48 0 34 4 44 20 48 19 5 20 14 20 151 0 135 1 146 20 156 18
10 20 21 20 147 0 74 -5 152 -11 173 -9 31 -8 43 9 81 20 43 57 87 67 78 2 -3
7 -42 11 -87 6 -71 9 -82 25 -82 15 0 19 -8 19 -40 0 -33 3 -40 20 -40 17 0
20 -7 20 -40 0 -33 3 -40 20 -40 18 0 20 -7 20 -56 0 -47 3 -57 20 -61 15 -4
18 -11 14 -28 -4 -17 0 -27 15 -37 12 -7 21 -23 21 -38 0 -16 13 -36 35 -55
20 -17 35 -39 35 -52 0 -32 10 -53 26 -53 10 0 14 -14 14 -50 0 -39 4 -53 20
-62 18 -12 20 -24 20 -156 0 -133 1 -144 19 -149 11 -3 21 -13 24 -24 3 -10
12 -19 20 -19 8 0 17 -9 20 -20 5 -18 14 -20 90 -20 76 0 85 2 90 20 3 11 12
20 20 20 8 0 17 9 20 20 3 11 12 20 20 20 8 0 17 9 20 20 3 11 12 20 21 20 11
0 16 9 16 27 0 24 50 83 72 83 4 0 8 13 8 30 0 28 39 80 60 80 5 0 12 9 15 20
3 11 12 20 20 20 21 0 25 25 25 161 0 109 -2 131 -16 136 -9 3 -49 39 -89 79
-41 41 -79 74 -85 74 -5 0 -10 6 -10 14 0 7 -9 16 -20 19 -11 3 -20 12 -20 20
0 8 -9 17 -20 20 -11 3 -20 12 -20 20 0 8 -9 17 -20 20 -16 4 -19 11 -14 36 6
26 3 32 -20 41 -14 5 -26 16 -26 25 0 8 -7 15 -16 15 -11 0 -13 6 -9 20 8 24
-11 60 -30 60 -8 0 -15 6 -15 14 0 8 -7 16 -15 20 -9 3 -15 18 -15 37 0 22 -5
32 -19 36 -14 4 -21 15 -23 42 -2 28 -7 35 -20 33 -14 -2 -18 4 -18 33 0 28
-5 38 -20 42 -17 5 -20 14 -20 60 0 46 -3 56 -20 60 -17 5 -20 14 -20 60 0 46
-3 56 -20 60 -19 5 -20 14 -20 123 0 109 1 118 20 123 11 3 20 12 20 20 0 8 9
17 20 20 15 4 20 14 20 40 0 26 5 36 19 40 16 4 20 15 23 58 2 40 7 54 18 54
11 0 16 14 18 52 2 40 8 55 23 63 16 9 19 22 19 78 0 56 3 69 20 80 15 9 20
23 20 57 0 32 6 51 20 65 15 15 20 32 18 61 -1 30 3 44 15 50 13 8 17 24 17
73 0 51 4 66 21 82 14 12 18 25 14 41 -3 13 -1 23 4 23 5 0 11 -9 14 -20 3
-11 12 -20 21 -20 9 0 16 -7 16 -15 0 -9 7 -18 15 -21 8 -4 15 -17 15 -30 0
-13 7 -29 15 -36 42 -34 55 -54 55 -81 0 -20 6 -30 20 -34 15 -4 20 -14 20
-40 0 -26 5 -36 20 -40 15 -4 20 -14 20 -40 0 -26 5 -36 20 -40 18 -5 20 -14
20 -80 0 -66 2 -75 20 -80 16 -4 20 -15 22 -77 2 -48 7 -71 16 -72 25 -3 26
-6 5 -14 -13 -5 -23 -16 -23 -25 0 -8 -6 -15 -14 -15 -8 0 -17 -9 -21 -19 -3
-10 -15 -21 -25 -24 -19 -5 -20 -14 -20 -157 l0 -152 31 -29 c17 -16 35 -29
40 -29 5 0 9 -4 9 -9 0 -5 7 -17 16 -26 14 -13 38 -16 144 -14 117 2 129 4
133 21 5 16 13 19 49 16 41 -3 43 -5 46 -36 2 -18 7 -30 12 -27 10 6 54 -35
63 -59 4 -9 13 -16 21 -16 7 0 16 -9 19 -20 3 -11 12 -20 20 -20 8 0 17 -9 20
-20 3 -11 12 -20 20 -20 8 0 17 -9 20 -20 4 -15 14 -20 40 -20 26 0 36 -5 40
-20 5 -19 14 -20 202 -20 188 0 197 1 202 20 4 15 14 20 39 20 24 0 34 4 34
16 0 9 9 18 20 21 11 3 20 12 20 20 0 8 9 17 20 20 11 3 20 12 20 20 0 8 9 17
20 20 11 3 20 12 20 20 0 8 9 17 20 20 11 3 20 12 20 20 0 8 9 17 20 20 14 4
20 14 20 34 0 18 7 32 20 39 13 7 20 21 20 40 0 20 6 31 20 35 17 5 20 15 20
60 0 44 3 53 20 58 17 4 20 14 20 60 0 46 3 55 20 60 18 5 20 14 20 111 0 95
2 106 20 116 17 9 20 21 20 76 0 62 2 67 37 100 22 21 38 46 38 60 1 13 16 37
33 54 18 17 32 35 32 40 0 6 5 10 10 10 6 0 10 -25 10 -55 l0 -55 50 0 c43 0
50 3 50 20 0 13 7 20 20 20 13 0 20 7 20 19 0 10 9 21 20 24 11 3 20 12 20 21
0 9 7 16 15 16 8 0 19 9 25 20 6 11 15 18 19 15 5 -3 11 2 15 10 3 8 14 15 25
15 30 0 51 11 51 25 0 9 14 15 38 17 29 2 36 7 34 21 -2 13 4 17 33 17 28 0
38 5 42 20 4 15 14 20 40 20 26 0 36 5 40 19 3 11 13 21 24 24 10 3 19 12 19
21 0 11 9 16 30 16 26 0 29 2 18 14 -13 14 -39 6 -63 -20 -22 -24 -76 -55 -90
-52 -8 2 21 27 66 58 78 52 82 53 95 35 17 -22 18 -41 4 -50 -26 -16 10 -25
102 -25 91 0 100 2 105 20 3 11 11 20 19 20 16 0 34 31 34 59 0 14 6 21 20 21
16 0 20 -7 20 -36 0 -27 5 -37 20 -41 19 -5 20 -14 20 -164 0 -152 -1 -159
-20 -159 -19 0 -20 -7 -20 -169 0 -160 -1 -169 -20 -174 -19 -5 -20 -14 -20
-290 0 -276 -1 -285 -20 -290 -19 -5 -20 -14 -20 -120 0 -106 -1 -115 -20
-120 -19 -5 -20 -14 -20 -170 0 -156 -1 -165 -20 -170 -18 -5 -20 -14 -20
-111 0 -95 -2 -106 -20 -116 -18 -10 -20 -21 -20 -119 0 -100 -2 -109 -20
-114 -15 -4 -20 -14 -20 -36 0 -24 -10 -42 -41 -72 -22 -22 -44 -37 -50 -34
-14 9 -49 -4 -49 -18 0 -7 -18 -28 -40 -47 l-40 -35 0 -96 c0 -88 2 -97 20
-102 11 -3 20 -12 20 -20 0 -8 9 -17 20 -20 11 -3 20 -12 20 -21 0 -13 13 -16
70 -16 59 0 71 -3 80 -20 10 -19 21 -20 246 -20 224 0 236 1 241 19 3 11 13
21 24 24 10 3 19 12 19 20 0 8 9 17 20 20 18 5 20 14 20 101 0 85 -2 96 -20
106 -18 10 -20 21 -20 129 0 110 1 119 20 124 18 5 20 14 20 95 0 81 2 90 20
95 18 4 20 14 20 74 0 57 3 70 20 81 17 10 20 23 20 82 0 53 3 70 14 70 18 0
26 22 26 72 0 27 6 45 18 54 14 10 17 28 17 91 0 63 4 82 18 96 12 12 17 28
14 43 -3 18 0 24 14 24 15 0 19 8 19 40 0 33 3 40 20 40 16 0 20 7 20 36 0 27
5 37 19 41 11 3 21 13 24 24 3 10 12 19 21 19 11 0 16 9 16 30 0 19 7 33 20
40 13 7 20 21 20 40 0 20 6 31 20 35 14 4 20 15 20 35 0 28 39 80 60 80 6 0
10 4 10 8 0 16 57 72 73 72 13 0 17 -9 17 -36 0 -27 5 -37 20 -41 15 -4 20
-14 20 -40 0 -26 5 -36 19 -40 11 -3 21 -13 24 -24 3 -10 12 -19 21 -19 11 0
16 -9 16 -30 0 -19 7 -33 20 -40 12 -7 20 -21 20 -38 0 -16 8 -32 19 -39 13
-8 17 -19 13 -38 -3 -21 0 -27 17 -32 18 -5 21 -13 21 -59 0 -39 4 -56 15 -60
8 -4 15 -17 15 -30 0 -13 9 -33 20 -44 12 -12 20 -33 20 -54 0 -44 9 -66 25
-66 9 0 15 -14 17 -37 2 -30 7 -37 21 -35 14 2 17 -5 17 -53 0 -48 3 -58 20
-62 15 -4 20 -14 20 -40 0 -26 5 -36 20 -40 15 -4 20 -14 20 -40 0 -26 5 -36
20 -40 15 -4 20 -14 20 -40 0 -26 5 -36 20 -40 17 -4 20 -14 20 -54 0 -38 4
-51 20 -59 13 -7 20 -21 20 -39 0 -20 6 -30 20 -34 17 -4 20 -14 20 -61 0 -49
2 -56 20 -56 18 0 20 -7 20 -80 0 -69 -3 -81 -20 -90 -13 -7 -20 -21 -20 -39
0 -20 -6 -30 -20 -34 -15 -4 -20 -14 -20 -40 0 -26 -5 -36 -20 -40 -17 -4 -20
-14 -20 -71 0 -59 2 -66 20 -66 13 0 20 -7 20 -20 0 -20 7 -20 300 -20 293 0
300 0 300 20 0 18 7 20 56 20 47 0 57 3 61 20 3 11 14 20 24 20 18 0 19 10 19
141 0 130 -1 141 -19 146 -11 3 -21 14 -24 24 -3 11 -11 18 -19 17 -9 -2 -14
10 -16 35 -3 29 -7 37 -23 37 -16 0 -19 7 -19 40 0 33 -3 40 -20 40 -17 0 -20
7 -20 40 0 32 -4 40 -18 40 -15 0 -18 8 -18 51 0 37 -5 55 -17 64 -9 7 -17 20
-17 30 0 10 -8 27 -17 37 -10 11 -18 37 -18 60 -1 26 -7 45 -18 53 -9 7 -17
21 -17 33 0 31 -11 52 -26 52 -10 0 -14 14 -14 50 0 39 -4 53 -20 62 -16 10
-20 24 -20 70 0 67 -7 89 -26 81 -12 -4 -14 45 -14 330 l0 335 42 43 c33 33
49 42 80 43 31 2 38 -1 38 -16 0 -17 24 -18 519 -18 l519 0 15 23 16 22 7 -22
c5 -19 13 -23 49 -23 48 0 75 -8 75 -21 0 -5 31 -40 68 -77 38 -38 71 -76 75
-85 3 -9 13 -17 22 -17 10 0 15 -10 15 -30 0 -19 7 -33 20 -40 13 -7 20 -21
20 -41 0 -22 5 -32 20 -36 17 -5 20 -14 20 -59 0 -47 2 -54 20 -54 18 0 20 -7
20 -76 0 -67 2 -76 20 -81 20 -5 20 -14 20 -414 0 -402 0 -409 -20 -409 -18 0
-20 -7 -20 -56 0 -47 -3 -57 -20 -61 -11 -3 -20 -12 -20 -19 0 -8 -7 -14 -16
-14 -9 0 -18 -9 -21 -20 -3 -11 -11 -20 -18 -20 -7 0 -15 -7 -19 -15 -3 -8
-16 -15 -30 -15 -50 0 -57 -20 -54 -163 l3 -132 76 -3 c67 -2 78 -5 82 -22 5
-19 16 -20 321 -20 309 0 316 0 316 20 0 13 7 20 20 20 13 0 20 7 20 20 0 13
7 20 20 20 18 0 20 7 20 66 0 57 -3 67 -20 71 -17 4 -20 14 -20 54 0 38 -4 51
-20 59 -19 10 -20 21 -20 279 0 260 1 269 20 274 19 5 20 14 20 230 0 216 1
225 20 230 15 4 20 14 20 41 0 20 5 36 10 36 6 0 10 -9 10 -20 0 -11 5 -20 10
-20 6 0 10 -11 10 -25 0 -14 9 -33 20 -42 11 -10 20 -25 20 -34 0 -28 11 -49
25 -49 9 0 15 -14 17 -37 2 -30 7 -37 21 -35 13 2 17 -4 17 -33 0 -28 5 -38
20 -42 15 -4 20 -14 20 -40 0 -26 5 -36 20 -40 15 -4 20 -14 20 -40 0 -26 5
-36 20 -40 15 -4 20 -14 20 -40 0 -26 5 -36 20 -40 17 -4 20 -14 20 -54 0 -38
4 -51 20 -59 13 -7 20 -21 20 -40 0 -19 5 -30 14 -30 23 0 26 -24 26 -226 0
-168 2 -195 16 -201 8 -3 20 -16 25 -29 7 -19 16 -24 44 -24 24 0 35 -5 35
-14 0 -31 82 -30 94 0 3 8 16 14 28 14 28 0 42 9 51 32 3 10 13 18 22 18 8 0
15 6 15 14 0 8 9 18 20 21 11 4 18 11 15 16 -4 5 5 14 19 20 14 7 22 17 19 25
-4 11 5 14 36 14 33 0 41 3 41 19 0 10 9 21 20 24 11 3 20 12 20 20 0 8 9 17
20 20 11 3 20 12 20 20 0 8 9 17 20 20 11 3 20 12 20 20 0 8 9 17 20 20 11 3
20 12 20 21 0 9 8 16 20 16 17 0 20 7 20 40 0 33 3 40 20 40 18 0 20 7 20 64
0 56 -3 66 -20 71 -14 4 -20 15 -20 34 0 33 -16 51 -47 51 -13 0 -36 13 -51
28 -15 16 -35 31 -45 35 -11 4 -17 17 -17 41 0 25 -5 35 -20 39 -11 3 -20 12
-20 21 0 9 -7 16 -15 16 -10 0 -15 11 -15 35 0 29 -5 37 -25 45 -14 5 -25 16
-25 25 0 8 -7 15 -15 15 -8 0 -15 7 -15 15 0 9 -7 18 -15 21 -8 4 -15 17 -15
31 0 17 -14 38 -39 62 -26 23 -41 46 -43 66 -2 22 -8 29 -20 27 -11 -2 -18 5
-20 20 -2 15 -9 22 -20 20 -15 -2 -18 5 -18 38 0 33 -3 40 -20 40 -12 0 -20 7
-20 16 0 9 -9 18 -20 21 -15 4 -20 14 -20 40 0 26 -5 36 -20 40 -17 5 -20 14
-20 60 0 46 -3 56 -20 60 -17 4 -20 14 -20 54 0 38 -4 51 -19 59 -16 8 -19 17
-14 44 8 48 -5 106 -22 106 -12 0 -15 20 -15 105 0 87 -3 108 -17 123 -14 13
-18 35 -18 96 0 62 -4 80 -18 91 -15 11 -17 32 -17 174 0 133 2 161 14 161 18
0 30 72 24 140 -4 42 -2 49 15 54 17 4 19 12 16 95 -2 50 -1 91 4 91 4 0 7
-15 7 -34 0 -25 5 -35 20 -39 15 -4 20 -14 20 -40 0 -26 5 -36 20 -40 12 -3
19 -13 18 -24 -3 -36 2 -53 17 -53 11 0 15 -11 15 -36 0 -27 5 -37 20 -41 11
-3 19 -13 18 -22 -3 -35 3 -51 17 -51 9 0 15 -9 15 -24 0 -33 10 -56 24 -56
26 -1 56 -39 56 -70 0 -23 5 -33 20 -37 15 -4 20 -14 20 -40 0 -26 5 -36 20
-40 11 -3 20 -12 20 -20 0 -8 9 -17 20 -20 17 -5 20 -14 20 -60 0 -46 3 -56
20 -60 15 -4 20 -14 20 -39 0 -19 4 -34 8 -34 5 0 23 -13 40 -28 29 -26 32
-34 32 -85 0 -51 -2 -57 -20 -57 -20 0 -21 -5 -18 -107 3 -103 4 -108 26 -111
12 -2 22 -9 22 -17 0 -21 24 -25 141 -25 l109 0 0 -25 c0 -40 61 -95 104 -95
43 0 56 20 56 84 0 35 -5 48 -20 56 -11 6 -20 15 -20 19 0 5 9 7 20 4 11 -3
20 -12 20 -20 0 -8 9 -17 20 -20 11 -3 20 -12 20 -19 0 -8 7 -17 15 -20 20 -8
105 -90 105 -102 0 -12 25 -22 56 -22 14 0 24 -6 24 -14 0 -23 24 -26 201 -26
156 0 171 2 189 20 14 14 33 20 65 20 34 0 48 5 57 20 8 12 24 20 40 20 17 0
33 8 40 20 7 11 23 20 36 20 22 0 82 51 82 70 0 4 9 10 20 13 11 3 20 12 20
20 0 8 9 17 21 20 12 3 18 10 14 17 -4 7 2 14 14 17 12 3 21 13 21 24 0 12 7
19 20 19 13 0 20 7 20 20 0 13 7 20 20 20 13 0 20 7 20 20 0 11 5 20 10 20 6
0 10 -9 10 -20 0 -11 7 -20 15 -20 10 0 15 -15 17 -57 l3 -58 48 -3 c42 -3 49
0 54 17 4 16 13 21 38 21 25 0 35 5 40 20 4 14 15 20 35 20 19 0 33 7 40 20
15 29 85 29 93 0 4 -15 14 -20 40 -20 26 0 36 -5 40 -20 4 -15 14 -20 41 -20
26 0 36 -4 36 -15 0 -9 7 -18 15 -21 8 -4 15 -13 15 -20 0 -8 7 -17 15 -20 10
-4 15 -20 15 -44 0 -48 8 -70 26 -70 11 0 14 -22 14 -105 0 -83 -3 -105 -14
-105 -21 0 -26 -23 -26 -110 0 -65 -3 -81 -17 -89 -15 -8 -18 -24 -18 -95 0
-73 -3 -86 -17 -90 -16 -4 -18 -21 -18 -187 0 -160 -2 -185 -17 -202 -16 -16
-18 -43 -20 -195 -1 -148 -4 -177 -17 -184 -9 -5 -16 -22 -16 -37 0 -20 -6
-30 -20 -34 -11 -3 -20 -12 -20 -20 0 -8 -9 -17 -20 -20 -18 -5 -20 -14 -20
-111 l0 -106 218 0 c204 0 218 1 229 19 7 12 26 21 45 23 l33 3 3 302 c2 293
3 303 23 313 19 11 20 19 17 115 -3 92 -1 105 15 109 12 3 17 14 17 40 0 20 5
36 10 36 6 0 10 -16 10 -35 0 -22 6 -38 15 -41 11 -5 15 -22 15 -70 0 -48 4
-65 16 -72 11 -6 17 -25 19 -57 1 -31 7 -52 18 -60 13 -9 17 -28 17 -79 0 -55
3 -68 20 -78 18 -12 20 -24 20 -125 0 -100 -2 -115 -20 -133 -31 -31 -26 -130
6 -130 7 0 18 -9 24 -20 10 -18 21 -20 126 -20 93 0 116 3 120 15 5 11 22 15
63 15 73 0 98 8 104 31 3 10 12 19 21 19 13 0 16 14 16 84 0 75 -2 84 -20 89
-15 4 -20 14 -20 36 0 20 -7 34 -20 41 -18 9 -20 21 -20 100 0 83 -1 90 -20
90 -19 0 -20 7 -20 110 0 94 -3 111 -17 121 -16 9 -18 24 -15 116 3 99 2 105
-17 110 -19 5 -21 13 -21 84 0 104 13 119 104 119 55 0 64 -3 69 -20 5 -19 14
-20 129 -20 112 0 124 -2 136 -20 9 -16 23 -20 62 -20 28 0 50 -4 50 -10 0 -5
7 -10 15 -10 8 0 16 -6 16 -12 1 -7 2 -17 4 -23 1 -5 3 -18 3 -27 1 -10 9 -18
17 -18 10 0 15 -11 15 -35 0 -29 5 -37 25 -45 14 -5 25 -16 25 -25 0 -8 5 -15
10 -15 6 0 10 -20 10 -45 0 -33 5 -50 20 -62 14 -12 20 -30 20 -58 0 -41 11
-67 26 -66 5 1 10 -22 12 -50 3 -41 7 -52 23 -56 16 -5 19 -14 19 -60 0 -46 3
-56 20 -60 17 -5 20 -14 20 -58 0 -45 3 -55 20 -60 26 -8 26 -41 0 -55 -17 -9
-20 -21 -20 -90 0 -73 2 -80 20 -80 11 0 20 -7 20 -15 0 -8 9 -19 19 -25 36
-18 65 -11 96 25 18 21 39 35 52 35 14 0 43 20 74 51 28 28 53 49 55 47 7 -8
-21 -58 -33 -58 -19 0 -33 -35 -33 -85 0 -39 3 -47 25 -55 14 -5 25 -16 25
-25 0 -12 17 -15 100 -15 89 0 100 2 110 20 10 18 21 20 120 20 103 0 110 1
110 20 0 13 7 20 20 20 19 0 20 7 20 159 0 150 -1 159 -20 164 -19 5 -20 14
-20 280 0 266 1 275 20 280 18 5 20 14 20 111 0 95 2 106 20 116 18 10 20 21
20 119 0 100 2 109 20 114 19 5 20 14 20 171 0 155 1 166 20 176 18 10 20 21
20 146 0 127 -1 136 -20 141 -19 5 -20 14 -20 135 0 121 -1 130 -20 135 -15 4
-20 14 -20 38 0 24 -5 34 -20 38 -15 4 -20 14 -20 41 0 29 -4 36 -20 36 -13 0
-20 7 -20 20 0 13 -7 20 -20 20 -13 0 -20 7 -20 20 0 13 -7 20 -20 20 -13 0
-20 7 -20 20 0 13 -7 20 -20 20 -13 0 -20 7 -20 19 0 16 -8 20 -37 23 -25 2
-37 7 -35 16 1 8 -6 16 -17 19 -10 3 -21 13 -24 24 -4 13 -14 19 -36 19 -20 0
-34 7 -41 20 -7 12 -21 20 -38 20 -16 0 -32 8 -40 20 -7 12 -23 20 -40 20 -16
0 -32 8 -40 20 -7 11 -23 20 -37 20 -14 0 -34 9 -46 21 -15 15 -31 20 -61 18
-29 -3 -42 1 -49 14 -7 12 -23 17 -59 17 -39 0 -51 4 -60 21 -10 19 -20 20
-133 18 -105 -1 -122 1 -125 15 -3 14 -21 16 -129 16 -111 0 -125 -2 -129 -17
-5 -16 -18 -18 -124 -15 -96 3 -120 6 -120 18 0 11 -18 14 -90 14 -79 0 -91 2
-100 20 -9 17 -21 20 -79 20 -60 0 -69 2 -74 20 -5 18 -14 20 -81 20 -69 0
-76 2 -76 20 0 18 -7 20 -60 20 -53 0 -60 2 -60 20 0 17 -7 20 -50 20 -39 0
-52 4 -60 20 -9 18 -21 20 -99 20 -80 0 -89 2 -94 20 -5 19 -14 20 -145 20
-131 0 -141 -1 -147 -20 -5 -16 -17 -20 -78 -22 -56 -2 -72 -6 -72 -18 0 -11
-14 -16 -57 -18 -50 -3 -58 -6 -58 -22 0 -16 -7 -20 -36 -20 -27 0 -37 -5 -41
-19 -3 -11 -13 -21 -24 -24 -10 -3 -19 -12 -19 -20 0 -8 -9 -17 -20 -20 -11
-3 -20 -12 -20 -20 0 -8 -9 -17 -20 -20 -11 -3 -20 -12 -20 -20 0 -8 -9 -17
-20 -20 -15 -4 -20 -14 -20 -42 0 -29 -4 -35 -17 -33 -14 2 -19 -5 -21 -33 -2
-27 -9 -38 -23 -42 -15 -4 -19 -14 -19 -54 0 -37 -4 -51 -20 -61 -12 -7 -20
-23 -20 -40 0 -16 -8 -32 -20 -40 -15 -9 -20 -23 -20 -57 0 -32 -6 -51 -21
-66 -17 -17 -20 -29 -16 -60 4 -32 1 -41 -14 -49 -12 -7 -19 -21 -19 -38 0
-17 -8 -32 -21 -40 -15 -10 -19 -20 -15 -37 4 -17 1 -24 -14 -28 -15 -4 -20
-14 -20 -40 0 -26 -5 -36 -20 -40 -15 -4 -20 -14 -20 -40 0 -26 -5 -36 -20
-40 -11 -3 -20 -12 -20 -21 0 -9 -8 -16 -20 -16 -16 0 -20 -7 -20 -35 0 -31
-3 -35 -25 -35 -14 0 -33 -8 -43 -18 -21 -20 -89 -25 -96 -5 -3 7 -12 13 -21
13 -8 0 -15 7 -15 16 0 9 -9 18 -20 21 -11 3 -20 12 -20 20 0 8 -9 17 -20 20
-11 3 -20 12 -20 20 0 8 -9 17 -20 20 -11 3 -20 12 -20 20 0 8 -9 17 -20 20
-11 3 -20 12 -20 20 0 8 -9 17 -20 20 -11 3 -20 12 -20 20 0 8 -9 17 -19 20
-11 3 -21 13 -24 24 -4 14 -14 19 -42 19 -29 0 -35 4 -33 18 3 15 -9 17 -104
20 -97 2 -110 5 -133 26 -14 13 -25 30 -25 39 0 9 -9 21 -20 27 -11 6 -20 19
-20 29 0 10 -9 21 -20 24 -15 4 -20 14 -20 40 0 26 -5 36 -20 40 -12 3 -19 13
-18 24 3 36 -2 53 -17 53 -11 0 -15 11 -15 36 0 26 -5 37 -18 41 -13 3 -19 14
-19 35 0 18 -6 34 -16 40 -9 5 -17 17 -17 28 0 29 -11 50 -26 50 -9 0 -14 11
-14 31 0 22 -5 32 -20 36 -15 4 -20 14 -20 40 0 26 -5 36 -20 40 -15 4 -20 14
-20 40 0 26 -5 36 -20 40 -17 5 -20 14 -20 60 0 44 -3 56 -18 60 -10 2 -23 16
-30 31 -6 15 -25 48 -41 73 -40 64 -60 121 -44 126 7 3 13 20 13 39 0 27 -4
34 -20 34 -18 0 -20 7 -20 60 0 53 -2 60 -20 60 -16 0 -20 7 -20 36 0 27 -5
37 -20 41 -15 4 -18 11 -14 28 4 17 -1 29 -15 42 -15 12 -21 29 -21 58 0 33
-6 45 -35 70 -20 17 -35 39 -35 52 0 29 -10 53 -22 53 -22 0 -58 51 -58 81 0
22 -6 32 -20 36 -10 3 -22 14 -25 24 -4 10 -10 19 -15 19 -11 0 -100 89 -100
101 0 5 -4 9 -10 9 -5 0 -62 52 -127 116 -65 64 -127 116 -138 117 -21 2 -115
90 -115 108 0 5 -7 9 -15 9 -8 0 -15 7 -15 16 0 9 -9 18 -19 21 -11 3 -21 13
-24 24 -4 14 -14 19 -41 19 -26 0 -36 4 -36 16 0 9 -9 18 -19 21 -11 3 -21 13
-24 24 -4 13 -14 19 -36 19 -30 0 -72 31 -84 64 -4 10 -19 16 -42 16 -24 0
-35 5 -35 14 0 16 -34 31 -49 22 -4 -3 -16 3 -26 14 -12 13 -31 20 -57 20 -25
0 -45 7 -58 20 -19 19 -33 20 -341 20 -312 0 -321 -1 -326 -20 -5 -19 -14 -20
-118 -20 -99 0 -114 -2 -119 -17 -5 -16 -16 -18 -80 -15 -65 3 -77 1 -95 -17
-17 -17 -34 -21 -80 -21 -68 0 -91 -6 -91 -26 0 -11 -32 -14 -178 -14 -166 0
-178 1 -190 20 -11 18 -23 20 -137 20 -100 0 -125 3 -125 14 0 21 -23 26 -110
26 -60 0 -79 3 -84 15 -4 11 -22 15 -75 15 -60 0 -72 3 -81 20 -10 19 -21 20
-274 20 -222 0 -266 2 -276 15 -7 9 -29 15 -55 15 -26 0 -48 -6 -55 -15 -9
-11 -33 -15 -91 -15 -62 0 -83 -4 -97 -17 -40 -41 -71 -53 -132 -53 -49 0 -62
-4 -72 -20 -11 -18 -24 -20 -110 -20 -105 0 -128 -5 -128 -26 0 -10 -14 -14
-51 -14 -42 0 -52 -3 -56 -20 -5 -19 -14 -20 -175 -20 -161 0 -170 -1 -175
-20 -5 -18 -14 -20 -75 -20 -61 0 -71 -2 -75 -20 -5 -18 -14 -20 -80 -20 -66
0 -75 -2 -80 -20 -5 -17 -14 -20 -58 -20 -45 0 -55 -3 -60 -20 -3 -11 -13 -20
-21 -20 -8 0 -14 -4 -14 -9 0 -12 -96 -111 -108 -111 -14 0 -22 -26 -22 -75 0
-29 -5 -45 -15 -49 -8 -3 -15 -18 -15 -33 0 -17 -8 -33 -20 -41 -17 -10 -20
-23 -20 -77 0 -50 -3 -65 -14 -65 -17 0 -32 -95 -21 -130 5 -17 2 -23 -14 -27
-19 -5 -21 -13 -21 -88 0 -92 -5 -115 -26 -115 -11 0 -14 -20 -14 -89 0 -80
-2 -89 -20 -94 -18 -5 -20 -14 -20 -115 0 -101 -2 -110 -20 -115 -18 -4 -20
-14 -20 -75 0 -61 -2 -70 -20 -75 -19 -5 -20 -14 -20 -120 0 -106 -1 -115 -20
-120 -20 -5 -20 -14 -20 -460 0 -446 0 -455 -20 -460 -17 -4 -20 -14 -20 -60
0 -46 -3 -56 -19 -60 -14 -3 -21 -15 -23 -38 -2 -19 -7 -33 -13 -31 -5 2 -12
-6 -17 -17 -4 -12 -14 -21 -22 -21 -10 0 -13 -6 -10 -15 10 -25 -41 -18 -70 9
-15 13 -26 28 -26 34 0 5 -13 15 -29 20 -16 6 -34 19 -39 29 -6 10 -54 63
-106 116 -53 54 -96 102 -96 108 0 5 -6 9 -14 9 -8 0 -18 9 -21 20 -3 11 -12
20 -20 20 -7 0 -15 9 -18 20 -3 11 -12 20 -20 20 -8 0 -17 9 -20 20 -5 18 -14
20 -100 20 l-94 0 4 24 c4 17 -1 28 -16 38 -18 11 -21 23 -21 80 0 52 -4 69
-17 76 -13 8 -16 22 -14 70 2 50 -1 64 -18 81 -12 12 -21 30 -21 41 0 11 -9
29 -20 40 -11 11 -20 31 -20 45 0 14 -8 29 -19 35 -12 6 -21 23 -23 43 -2 20
-8 32 -18 32 -10 0 -16 12 -18 34 -2 22 -10 35 -22 38 -10 3 -20 13 -23 24 -3
10 -12 19 -21 19 -12 0 -16 10 -16 36 0 27 -5 37 -19 41 -11 3 -21 13 -24 24
-3 10 -12 19 -21 19 -12 0 -16 10 -16 36 0 27 -5 37 -19 41 -11 3 -21 13 -24
24 -3 10 -12 19 -21 19 -11 0 -16 9 -16 30 0 17 -7 33 -17 38 -13 8 -16 23
-14 75 2 57 0 67 -18 77 -19 10 -21 20 -21 101 0 78 -2 92 -17 95 -14 4 -18
16 -18 55 0 38 -4 53 -17 60 -10 6 -18 18 -18 29 0 29 -11 50 -26 50 -9 0 -14
11 -14 31 0 22 -5 32 -20 36 -15 4 -20 14 -20 40 0 26 -5 36 -20 40 -15 4 -20
14 -20 40 0 26 -5 36 -20 40 -11 3 -20 12 -20 20 0 8 -9 17 -20 20 -12 3 -20
14 -20 27 0 25 -13 48 -26 46 -5 0 -10 9 -12 20 -2 12 -10 24 -18 27 -18 7
-104 92 -104 103 0 10 -26 20 -53 20 -13 0 -35 15 -52 35 -19 22 -39 35 -55
35 -14 0 -31 9 -38 20 -7 11 -23 20 -36 20 -13 0 -26 7 -30 15 -3 9 -18 15
-40 15 -25 0 -35 5 -39 20 -5 18 -14 20 -81 20 -69 0 -76 2 -76 20 0 18 -7 20
-74 20 -65 0 -74 2 -79 20 -5 18 -14 20 -95 20 -81 0 -90 2 -95 20 -5 19 -14
20 -121 20 -109 0 -116 1 -116 20 0 19 -7 20 -209 20 -200 0 -209 1 -214 20
-5 20 -14 20 -440 20 -426 0 -435 0 -440 20 -5 18 -14 20 -80 20 -66 0 -75 2
-80 20 -4 17 -14 20 -60 20 -46 0 -55 3 -60 20 -4 16 -14 20 -51 20 -31 0 -48
5 -54 16 -6 10 -28 18 -58 21 -27 3 -53 12 -57 19 -4 8 -24 14 -42 14 -33 0
-35 2 -35 35 0 28 -4 35 -20 35 -17 0 -20 7 -20 40 0 33 -3 40 -20 40 -11 0
-20 7 -20 15 0 9 -7 18 -15 21 -8 4 -15 15 -15 26 0 29 -18 58 -36 58 -10 0
-14 6 -11 14 3 8 -5 18 -19 25 -14 6 -23 15 -19 20 3 5 -3 12 -14 16 -10 3
-21 15 -24 25 -5 18 -14 20 -79 19 -40 0 -78 -3 -85 -5z m-1783 -2420 c0 -17
6 -28 20 -31 14 -4 20 -14 20 -34 0 -18 8 -34 20 -41 17 -11 20 -24 20 -79 0
-58 3 -67 20 -72 16 -4 20 -14 20 -51 0 -39 -3 -46 -20 -46 -16 0 -20 -7 -20
-36 0 -27 -5 -37 -20 -41 -11 -3 -20 -12 -20 -19 0 -8 -7 -14 -15 -14 -9 0
-18 -7 -21 -15 -8 -19 -24 -20 -24 -1 0 14 -29 29 -46 24 -5 -1 -19 4 -31 12
-16 11 -23 25 -23 48 0 25 -5 35 -20 39 -17 4 -20 14 -20 57 -1 28 -5 71 -9
96 -8 38 -6 47 10 61 10 9 19 24 19 33 0 9 7 16 16 16 11 0 13 -6 9 -19 -7
-23 12 -38 28 -22 9 9 8 16 -1 31 -16 27 -15 30 9 30 16 0 20 5 16 20 -3 12 5
30 21 49 33 37 42 38 42 5z m17721 -1711 c10 -8 31 -15 48 -15 23 -1 31 -6 31
-19 0 -28 11 -49 26 -49 10 0 14 -14 14 -50 0 -39 4 -53 20 -62 19 -12 20 -24
20 -214 0 -197 0 -202 -20 -197 -15 4 -20 14 -20 40 0 26 -5 36 -20 40 -15 4
-20 14 -20 40 0 26 -5 36 -20 40 -15 4 -20 14 -20 40 0 26 -5 36 -20 40 -16 4
-20 14 -20 52 0 35 -5 49 -20 59 -13 8 -20 23 -20 42 0 20 -5 30 -15 30 -17 0
-18 5 -15 68 1 36 -2 44 -19 49 -17 4 -21 13 -21 47 l0 41 48 -3 c26 -2 54
-11 63 -19z"/>
</g>
</svg>
