<?xml version="1.0" standalone="no"?>
<!DOCTYPE svg PUBLIC "-//W3C//DTD SVG 20010904//EN"
 "http://www.w3.org/TR/2001/REC-SVG-20010904/DTD/svg10.dtd">
<svg version="1.0" xmlns="http://www.w3.org/2000/svg"
 width="2000.000000pt" height="540.000000pt" viewBox="0 0 2000.000000 540.000000"
 preserveAspectRatio="xMidYMid meet">
<metadata>
Created by potrace 1.16, written by Peter Selinger 2001-2019
</metadata>
<g transform="translate(0.000000,540.000000) scale(0.100000,-0.100000)"
fill="#000000" stroke="none">
<path d="M3344 5270 c-12 -5 -25 -13 -29 -19 -3 -6 -34 -11 -69 -11 -50 0 -67
-4 -81 -20 -11 -13 -31 -20 -52 -20 -20 0 -46 -9 -60 -20 -15 -11 -41 -20 -60
-20 -20 0 -46 -9 -60 -20 -15 -12 -41 -20 -63 -20 -24 0 -43 -7 -55 -20 -12
-13 -31 -20 -55 -20 -21 0 -42 -6 -48 -13 -6 -7 -34 -19 -62 -27 -27 -7 -50
-17 -50 -22 0 -4 -6 -8 -13 -8 -20 0 -107 -94 -107 -115 0 -11 -18 -37 -40
-58 -24 -22 -40 -46 -40 -60 0 -24 -47 -67 -74 -67 -15 0 -26 21 -26 48 0 36
88 190 129 227 23 21 40 42 39 47 -2 5 -102 9 -223 9 -133 1 -225 5 -232 11
-17 14 -119 3 -168 -17 -47 -20 -109 -64 -101 -73 3 -3 -31 -43 -76 -88 -73
-75 -158 -183 -176 -224 -4 -8 -33 -54 -64 -102 -32 -48 -67 -108 -79 -135
-13 -26 -35 -64 -50 -83 -14 -19 -44 -68 -65 -109 -22 -41 -51 -97 -66 -125
-15 -28 -27 -59 -28 -68 0 -9 -4 -19 -9 -22 -5 -3 -7 -15 -4 -26 3 -12 -2 -29
-11 -39 -9 -10 -19 -28 -21 -41 -2 -13 -11 -30 -20 -40 -8 -9 -15 -23 -15 -32
0 -8 -9 -27 -20 -41 -11 -14 -20 -34 -20 -45 0 -10 -9 -27 -20 -37 -11 -10
-20 -28 -20 -39 0 -12 -9 -29 -20 -39 -14 -11 -20 -29 -20 -55 0 -26 -7 -45
-20 -57 -14 -13 -20 -31 -20 -60 0 -29 -6 -47 -20 -60 -17 -15 -20 -31 -20
-96 0 -56 -4 -82 -15 -93 -22 -22 -22 -398 0 -416 11 -9 15 -32 15 -82 0 -38
4 -78 10 -88 8 -15 2 -26 -33 -59 -23 -23 -45 -41 -50 -41 -4 0 -32 -16 -62
-35 -47 -30 -170 -97 -185 -100 -3 -1 -16 -6 -30 -12 -41 -18 -64 -26 -90 -30
-13 -2 -30 -9 -37 -15 -7 -6 -13 -8 -13 -4 0 4 -18 -3 -40 -14 -21 -11 -49
-19 -62 -17 -15 1 -23 -4 -24 -13 0 -8 -6 -28 -13 -43 -6 -16 -9 -32 -7 -36 6
-9 76 0 226 29 100 19 289 77 443 136 54 22 80 13 85 -28 2 -14 21 -42 43 -64
21 -21 39 -47 39 -58 0 -24 122 -146 146 -146 9 0 25 -7 34 -15 10 -9 27 -18
40 -20 13 -2 30 -11 40 -20 23 -21 232 -22 249 -1 7 8 26 18 42 21 34 8 189
160 189 186 0 9 9 26 20 39 11 13 20 31 20 42 0 10 9 26 20 35 16 14 20 30 20
77 0 42 5 65 17 78 26 28 27 141 2 172 -11 14 -19 40 -19 63 0 26 -6 44 -20
56 -11 9 -20 27 -20 39 0 14 -16 37 -40 58 -22 19 -40 42 -40 50 0 8 -9 29
-20 45 -38 57 -21 95 40 95 23 0 46 8 60 20 13 11 32 20 44 20 28 0 62 37 70
77 4 17 14 34 22 37 8 3 14 16 14 29 0 14 19 42 53 75 l53 52 101 0 102 0 56
-55 c33 -33 68 -58 86 -62 17 -3 33 -12 36 -18 2 -7 19 -16 38 -19 18 -4 36
-13 39 -21 3 -8 16 -15 29 -15 13 0 32 -9 42 -20 10 -11 28 -20 40 -20 11 0
35 -15 53 -33 26 -27 32 -41 32 -75 0 -29 5 -45 15 -48 8 -4 15 -16 15 -29 0
-12 -7 -28 -15 -35 -12 -10 -15 -44 -15 -185 0 -159 -1 -173 -20 -190 -18 -16
-20 -31 -20 -124 0 -89 -3 -111 -20 -136 -17 -26 -20 -47 -20 -148 0 -104 -3
-122 -20 -144 -14 -18 -20 -41 -20 -78 0 -32 -5 -57 -14 -64 -7 -6 -16 -32
-19 -58 -3 -26 -12 -52 -21 -58 -9 -7 -16 -22 -16 -34 0 -12 -9 -29 -20 -38
-12 -10 -20 -30 -20 -48 0 -16 -9 -43 -20 -60 -11 -16 -20 -39 -20 -51 0 -11
-9 -29 -20 -39 -14 -13 -20 -31 -20 -59 0 -29 -6 -47 -20 -59 -17 -14 -20 -29
-20 -99 0 -64 -4 -86 -17 -101 -16 -17 -18 -46 -21 -230 -2 -158 -7 -216 -16
-227 -8 -8 -16 -41 -18 -72 -3 -34 -11 -65 -21 -76 -9 -10 -17 -26 -17 -35 0
-9 -9 -26 -20 -37 -11 -11 -20 -29 -20 -40 0 -11 -9 -28 -20 -37 -11 -10 -20
-29 -20 -43 0 -14 -7 -34 -15 -44 -19 -25 -19 -50 0 -66 9 -7 15 -29 15 -50 0
-30 6 -44 31 -64 l31 -26 254 0 255 0 49 46 50 47 0 68 c0 57 -4 72 -20 86
-14 12 -20 30 -20 59 0 28 -6 46 -20 59 -11 10 -20 28 -20 40 0 12 -9 30 -20
40 -18 16 -20 31 -20 120 0 89 2 104 20 120 17 16 20 31 20 119 0 89 2 104 20
119 13 11 20 29 20 53 0 29 9 46 40 80 22 24 40 52 40 62 0 10 16 33 35 52 19
19 35 43 35 54 0 19 294 326 331 346 28 16 79 -42 79 -89 0 -25 7 -44 20 -56
11 -10 20 -28 20 -40 0 -12 9 -30 20 -40 14 -13 20 -31 20 -60 0 -29 6 -47 20
-60 14 -13 20 -31 20 -59 0 -29 6 -47 20 -59 11 -9 20 -26 20 -38 0 -12 7 -27
16 -34 10 -7 19 -32 22 -66 2 -30 11 -63 18 -74 8 -11 14 -38 14 -61 0 -26 7
-51 20 -67 14 -18 20 -40 20 -80 0 -40 5 -60 20 -77 18 -21 20 -37 20 -160 0
-123 -2 -139 -20 -160 -12 -14 -20 -37 -20 -60 0 -28 -8 -43 -35 -70 -32 -31
-35 -39 -35 -91 0 -32 5 -61 11 -65 6 -4 133 -6 282 -5 262 2 271 3 298 24 26
20 28 27 28 95 1 59 -3 79 -19 99 -11 14 -20 37 -20 52 0 14 -7 35 -15 45 -10
14 -15 45 -15 101 0 69 -3 85 -20 100 -18 16 -20 31 -20 155 0 124 -2 139 -20
155 -17 16 -20 31 -20 115 0 83 -3 100 -20 120 -16 19 -20 37 -20 102 0 59 -5
87 -20 115 -15 28 -20 57 -20 111 0 59 -4 79 -20 99 -16 21 -20 41 -20 101 0
56 -4 78 -15 86 -11 8 -16 29 -16 69 -1 40 -7 64 -20 81 -11 14 -19 40 -19 60
0 24 -7 42 -20 53 -11 10 -20 26 -20 36 0 10 -9 30 -21 46 -48 65 7 130 71 83
16 -12 36 -22 43 -22 8 0 26 -9 40 -20 14 -11 40 -20 60 -20 20 0 44 -8 57
-20 20 -17 37 -20 117 -20 74 0 101 -4 130 -20 32 -17 57 -20 157 -20 93 0
123 -3 136 -15 14 -13 55 -16 228 -18 184 -2 212 -4 229 -20 17 -15 42 -17
188 -17 146 0 171 2 188 18 17 15 46 17 227 20 223 4 250 0 250 -42 0 -13 9
-31 20 -41 15 -13 20 -31 20 -65 0 -33 -6 -54 -20 -70 -18 -21 -20 -37 -20
-211 0 -171 -2 -192 -20 -221 -18 -30 -20 -51 -20 -252 0 -190 -2 -222 -17
-238 -13 -14 -16 -41 -17 -132 -1 -94 -4 -117 -18 -133 -10 -11 -18 -35 -18
-56 0 -24 -7 -44 -20 -57 -11 -11 -20 -29 -20 -40 0 -11 -9 -28 -20 -37 -11
-10 -20 -27 -20 -39 0 -11 -9 -29 -20 -39 -19 -17 -20 -29 -18 -114 3 -96 3
-96 29 -99 15 -2 35 -12 45 -23 16 -18 32 -19 275 -19 l257 0 31 26 c29 24 31
30 31 93 0 54 -4 73 -20 91 -11 13 -20 33 -20 44 0 12 -9 29 -20 39 -16 14
-20 29 -20 82 0 53 4 68 20 82 18 16 20 30 20 154 0 122 2 138 20 159 18 21
20 37 20 155 0 98 3 135 13 144 8 6 20 29 27 51 7 22 19 45 27 51 7 6 13 17
13 23 0 7 13 12 30 12 24 0 30 -4 30 -21 0 -11 9 -28 20 -38 11 -9 20 -27 20
-40 0 -12 9 -30 20 -40 11 -9 20 -25 20 -36 0 -10 7 -24 15 -31 8 -7 15 -20
15 -30 0 -9 8 -28 19 -41 10 -13 20 -43 24 -66 3 -23 12 -50 21 -58 9 -9 16
-27 16 -39 0 -13 9 -31 20 -41 11 -10 20 -28 20 -39 0 -12 16 -36 35 -53 20
-18 38 -46 41 -62 4 -16 12 -32 20 -35 9 -3 14 -21 14 -49 0 -31 6 -49 20 -62
18 -16 20 -31 20 -154 l0 -137 48 -47 c68 -67 90 -65 170 16 34 34 62 70 62
80 0 10 18 37 40 61 22 24 40 51 40 60 0 9 18 35 39 57 78 78 81 84 81 173 l0
81 -155 155 c-100 100 -155 162 -155 175 0 12 -18 39 -40 60 -22 21 -40 47
-40 57 0 10 -16 34 -35 54 -19 19 -35 44 -35 54 0 11 -9 28 -20 37 -11 10 -20
28 -20 40 0 13 -9 31 -20 40 -11 10 -20 27 -20 39 0 11 -9 29 -20 39 -14 13
-20 31 -20 60 0 29 -6 47 -20 60 -17 15 -20 29 -19 71 1 29 -3 59 -9 67 -8 9
-12 53 -13 113 -1 152 6 200 33 234 12 16 33 43 46 59 14 19 22 43 22 68 0 26
6 44 20 56 14 11 20 29 20 55 0 25 7 48 20 62 15 17 20 37 20 80 0 37 5 62 14
69 7 6 16 32 19 58 3 26 12 52 21 58 10 8 16 27 16 54 0 29 6 46 20 58 16 14
20 30 20 83 0 48 5 73 20 95 11 17 20 42 20 57 0 15 4 29 9 33 15 9 192 -196
191 -222 0 -5 10 -21 22 -38 12 -16 20 -30 18 -30 -3 0 5 -13 18 -29 12 -16
22 -35 22 -42 0 -7 12 -39 27 -71 14 -32 30 -71 34 -88 5 -16 19 -66 33 -110
24 -80 31 -113 42 -190 5 -37 2 -44 -40 -89 l-46 -49 0 -103 0 -104 45 -45 44
-46 123 -4 c68 -3 148 -5 178 -5 l54 1 111 -110 c64 -64 121 -113 137 -116 15
-4 32 -13 39 -21 9 -11 45 -14 161 -14 135 0 152 2 175 20 14 11 33 20 42 20
21 0 211 190 211 211 0 9 9 28 20 42 11 14 20 34 20 45 0 10 9 27 20 37 14 13
20 31 20 60 0 29 6 47 20 60 13 12 20 31 20 55 0 24 7 43 20 55 17 16 20 31
20 119 0 89 2 104 20 119 16 13 20 29 20 75 0 53 3 61 34 91 19 18 36 45 39
59 3 15 26 48 50 75 33 36 51 47 73 47 40 0 54 -16 54 -62 0 -21 4 -38 9 -38
4 0 47 38 94 85 47 47 94 85 105 85 10 0 27 9 37 20 10 11 28 20 40 20 12 0
30 9 40 20 10 11 28 20 40 20 12 0 30 9 40 20 10 11 28 20 40 20 12 0 34 13
50 30 16 16 36 30 45 30 8 0 25 7 37 15 14 10 24 12 28 5 4 -6 10 -8 14 -5 5
2 16 -4 26 -15 28 -30 124 -28 153 3 12 13 22 31 22 40 0 21 58 87 76 87 20 0
64 -51 71 -82 3 -15 12 -33 19 -39 11 -9 14 -52 14 -199 0 -174 -1 -188 -20
-205 -18 -17 -20 -31 -20 -170 0 -121 -3 -155 -15 -165 -12 -10 -15 -61 -17
-290 -3 -248 -5 -280 -20 -297 -15 -16 -18 -38 -18 -119 0 -81 -4 -105 -20
-132 -17 -28 -20 -50 -20 -166 0 -120 -2 -135 -20 -151 -17 -16 -20 -31 -20
-115 0 -83 -3 -100 -20 -120 -17 -20 -20 -37 -20 -119 0 -84 -3 -99 -20 -114
-11 -9 -20 -25 -20 -36 0 -25 -98 -121 -124 -121 -11 0 -39 -21 -63 -46 -38
-41 -43 -52 -43 -93 0 -43 4 -51 48 -94 46 -45 50 -47 108 -47 47 0 63 -4 77
-20 16 -19 29 -20 200 -20 l183 0 47 48 c44 44 47 51 47 98 0 38 -5 55 -20 69
-11 10 -20 31 -20 46 0 15 -9 43 -20 62 l-20 34 20 26 c14 18 20 40 20 77 0
37 6 59 20 77 16 21 20 41 20 102 0 64 3 79 20 94 16 13 20 29 20 74 0 37 5
62 16 74 10 11 17 40 18 78 2 37 9 68 18 79 9 9 18 37 21 61 3 25 12 48 21 53
12 7 16 26 16 87 0 63 4 83 20 104 11 14 20 32 20 40 0 7 9 24 20 37 11 13 20
30 20 37 0 8 9 26 20 40 11 14 20 33 20 42 0 10 16 32 35 51 19 19 35 41 35
51 0 9 9 28 20 42 11 14 20 34 20 45 0 10 9 27 20 37 11 10 20 27 20 38 0 12
29 50 68 89 65 66 68 68 118 68 53 0 74 -12 74 -43 0 -10 9 -30 20 -44 11 -14
20 -33 20 -42 0 -10 16 -32 35 -51 19 -19 35 -42 35 -52 0 -10 9 -26 20 -35
11 -10 20 -27 20 -39 0 -11 9 -29 20 -39 11 -10 20 -27 20 -37 0 -11 9 -31 20
-45 12 -15 20 -41 20 -63 0 -24 7 -43 20 -55 11 -10 20 -27 20 -38 0 -11 7
-25 16 -32 9 -6 18 -32 21 -61 3 -27 12 -53 19 -57 8 -4 14 -18 14 -31 0 -13
9 -31 20 -41 12 -11 20 -31 20 -50 0 -18 9 -44 20 -58 11 -14 20 -36 20 -50 0
-13 9 -32 20 -42 11 -10 20 -26 20 -35 0 -9 9 -27 20 -40 11 -13 20 -31 20
-42 0 -10 9 -27 20 -38 13 -13 20 -33 20 -59 0 -21 6 -44 14 -50 8 -7 18 -25
21 -41 3 -16 13 -34 21 -41 8 -6 14 -28 14 -49 0 -23 8 -46 20 -60 17 -20 20
-37 20 -125 0 -88 -3 -105 -20 -125 -11 -13 -20 -31 -20 -41 0 -10 -7 -24 -15
-32 -7 -8 -17 -26 -20 -40 -4 -15 -13 -31 -21 -38 -22 -18 -17 -47 12 -74 l27
-25 239 0 c226 0 239 1 255 20 12 13 30 20 54 20 26 0 47 8 68 26 30 25 31 27
31 116 l0 91 -40 43 c-22 24 -40 51 -40 59 0 9 -7 23 -15 31 -8 9 -15 23 -15
33 0 10 -9 26 -20 36 -11 10 -20 28 -20 40 0 12 -9 30 -20 40 -13 12 -20 31
-20 55 0 22 -8 48 -20 63 -11 14 -20 34 -20 45 0 10 -9 27 -20 37 -14 13 -20
31 -20 59 0 29 -6 47 -20 59 -11 9 -20 24 -20 34 0 9 -7 24 -16 34 -10 11 -16
35 -16 58 1 26 -5 45 -19 57 -13 11 -19 30 -19 58 0 24 -8 53 -20 71 -19 29
-20 48 -20 393 l0 362 50 50 c50 49 51 50 114 50 49 0 68 -5 86 -20 22 -19 37
-20 472 -20 435 0 451 1 475 20 35 27 103 27 128 0 13 -14 31 -20 59 -20 39 0
47 -6 149 -108 67 -67 107 -115 107 -128 0 -12 9 -29 20 -39 11 -10 20 -27 20
-37 0 -11 9 -31 20 -45 11 -15 20 -41 20 -61 0 -21 7 -40 17 -47 12 -9 18 -32
21 -79 3 -39 10 -70 18 -77 21 -17 21 -875 -1 -898 -8 -9 -16 -33 -18 -54 -5
-42 -61 -110 -139 -168 -53 -39 -58 -50 -58 -140 0 -76 3 -79 81 -79 30 0 64
-8 86 -20 35 -18 57 -20 280 -20 l242 0 45 43 c48 45 56 69 31 97 -8 9 -16 36
-18 59 -2 27 -10 47 -20 53 -15 8 -17 39 -17 310 0 273 2 303 18 321 15 17 17
46 20 231 3 159 7 215 17 226 7 8 17 27 20 43 8 32 37 51 65 42 27 -8 80 -72
80 -95 0 -11 4 -20 10 -20 5 0 14 -18 20 -39 5 -21 17 -42 25 -45 8 -3 15 -16
15 -29 0 -13 9 -32 20 -42 11 -10 20 -28 20 -40 0 -12 9 -30 20 -40 11 -10 20
-28 20 -40 0 -12 9 -30 20 -40 11 -10 20 -28 20 -40 0 -12 9 -30 20 -40 11
-10 20 -29 20 -42 0 -13 7 -26 15 -29 8 -3 17 -22 21 -42 3 -21 12 -47 20 -59
8 -12 14 -33 14 -46 0 -13 9 -32 20 -42 19 -17 20 -31 20 -210 0 -185 1 -193
23 -218 12 -14 40 -30 62 -36 68 -18 107 0 189 85 41 42 80 74 91 74 24 0 225
198 225 221 0 9 9 28 20 42 25 31 25 39 0 62 -11 10 -20 29 -20 41 0 18 -7 25
-27 30 -35 8 -123 92 -123 116 0 10 -18 38 -40 62 -22 24 -40 52 -40 62 0 11
-24 44 -54 73 -30 30 -57 65 -61 80 -4 14 -21 39 -38 55 -18 17 -39 47 -48 66
-9 20 -28 49 -43 64 -14 16 -26 36 -26 45 0 10 -16 32 -35 51 -19 18 -37 46
-40 61 -4 15 -13 33 -21 40 -8 6 -14 28 -14 49 0 22 -8 48 -20 63 -11 14 -20
40 -20 60 0 20 -8 44 -20 57 -15 17 -20 37 -20 80 0 44 -4 61 -20 75 -17 16
-20 31 -20 112 0 80 -3 99 -20 120 -15 20 -20 41 -20 92 0 49 -5 74 -20 96
-18 27 -20 47 -20 201 0 156 2 174 20 197 16 20 20 40 20 95 0 54 4 75 20 95
17 21 20 40 20 120 0 53 3 102 6 111 8 22 44 21 44 -1 0 -10 17 -47 36 -83 38
-68 64 -120 116 -230 39 -83 44 -93 99 -187 59 -102 59 -101 119 -223 29 -58
67 -123 84 -145 18 -22 41 -56 51 -75 10 -19 33 -54 52 -78 l35 -43 -21 -23
c-11 -12 -21 -32 -21 -43 0 -11 -7 -26 -15 -33 -10 -8 -15 -31 -15 -70 0 -56
1 -59 29 -65 16 -3 35 -13 42 -21 9 -11 30 -15 77 -13 l64 2 83 -89 c68 -72
87 -86 97 -76 10 10 10 16 0 30 -6 9 -32 57 -57 107 l-44 89 21 23 c12 13 28
23 35 23 7 0 71 -58 141 -129 92 -93 136 -131 159 -135 17 -4 34 -14 37 -22 4
-11 34 -14 157 -14 136 0 153 2 176 20 15 12 41 20 63 20 21 0 43 7 50 15 7 8
20 15 30 15 9 0 29 9 43 20 14 11 33 20 44 20 10 0 77 60 152 135 152 152 165
158 219 102 25 -25 32 -42 32 -71 l0 -38 25 16 c13 9 31 16 38 16 8 0 20 6 26
14 7 8 25 18 41 21 16 3 34 13 41 21 16 20 152 20 168 0 7 -8 26 -18 43 -21
52 -12 127 -55 146 -83 9 -15 25 -35 35 -44 10 -11 17 -33 17 -57 0 -22 6 -44
15 -51 12 -10 15 -40 15 -147 0 -110 -3 -135 -15 -139 -12 -5 -15 -24 -15 -84
0 -62 -4 -82 -20 -103 -16 -20 -20 -40 -20 -95 0 -54 -4 -75 -20 -95 -18 -23
-20 -40 -20 -196 0 -152 -2 -176 -20 -211 -17 -34 -20 -59 -20 -195 0 -143 -2
-157 -20 -172 -11 -10 -20 -27 -20 -38 0 -12 -16 -37 -35 -55 -34 -33 -36 -38
-33 -95 l3 -60 166 0 c141 0 170 3 185 17 11 9 30 18 44 20 l25 3 5 296 c4
264 7 297 23 313 14 14 17 35 17 115 0 85 3 100 20 116 11 10 20 28 20 40 0
24 48 75 72 75 17 0 28 -20 28 -53 0 -12 9 -35 20 -52 12 -18 20 -47 20 -73 0
-23 9 -59 20 -79 11 -21 20 -57 20 -80 0 -29 5 -45 17 -51 12 -7 18 -27 21
-76 3 -39 10 -70 18 -77 21 -17 20 -301 -1 -319 -22 -18 -18 -52 9 -77 31 -30
108 -32 151 -3 23 15 47 20 99 20 57 0 72 4 92 22 27 26 33 88 10 107 -8 7
-18 25 -21 41 -3 16 -13 34 -21 41 -10 8 -14 34 -14 90 0 67 -3 82 -20 96 -18
15 -20 30 -20 118 0 88 -2 103 -20 118 -17 15 -20 29 -20 115 0 86 -3 101 -20
117 -18 16 -20 31 -20 120 0 100 1 103 30 134 29 30 33 31 116 31 71 0 90 -4
111 -20 22 -17 41 -20 138 -20 88 0 115 -3 125 -15 7 -9 29 -15 51 -15 46 0
109 -49 109 -84 0 -13 9 -31 20 -41 11 -10 20 -27 20 -38 0 -11 18 -39 40 -63
31 -34 40 -51 40 -80 0 -22 6 -41 16 -49 11 -7 16 -26 16 -52 -1 -28 5 -46 19
-59 13 -12 19 -30 19 -59 0 -29 6 -47 20 -60 14 -13 20 -31 20 -61 0 -33 5
-46 20 -54 15 -8 20 -21 20 -49 0 -23 8 -48 20 -64 27 -35 27 -107 0 -132 -28
-25 -26 -76 3 -103 l23 -21 37 34 c21 19 46 35 55 35 10 0 54 37 100 83 81 81
82 83 82 133 0 38 -5 55 -20 69 -11 10 -20 27 -20 37 0 11 -9 31 -20 45 -11
14 -20 34 -20 43 0 10 -7 23 -15 30 -8 7 -15 21 -15 31 0 9 -7 25 -16 34 -9 9
-21 37 -25 62 -5 26 -16 54 -24 63 -8 9 -15 26 -15 37 0 11 -9 28 -20 38 -14
13 -20 31 -20 60 0 29 -6 47 -20 60 -26 24 -29 135 -4 159 24 24 163 22 195
-2 13 -11 36 -22 51 -25 19 -5 28 -15 33 -36 3 -16 13 -35 21 -42 8 -6 14 -21
14 -33 0 -12 9 -38 20 -59 19 -35 20 -56 20 -358 l0 -322 -34 -32 c-18 -17
-37 -45 -40 -61 -4 -16 -22 -43 -41 -59 -42 -34 -43 -50 -8 -87 22 -23 35 -28
73 -28 34 0 52 5 65 20 16 18 31 20 120 20 95 0 103 2 125 24 21 23 23 34 22
136 0 88 -3 115 -16 129 -14 15 -16 55 -16 317 0 248 3 304 15 320 10 13 14
45 15 105 0 71 4 91 20 112 17 21 20 40 20 115 0 74 3 94 20 115 18 23 20 40
20 179 0 136 2 156 20 183 28 42 28 141 0 192 -16 31 -20 57 -20 146 0 94 -3
112 -20 134 -11 14 -20 35 -20 46 0 11 -7 28 -15 37 -9 10 -18 27 -20 39 -6
32 -157 181 -183 181 -12 0 -38 18 -58 40 -22 23 -46 40 -59 40 -12 0 -30 9
-40 20 -10 11 -28 20 -40 20 -12 0 -30 9 -40 20 -10 11 -28 20 -40 20 -12 0
-30 9 -40 20 -10 11 -28 20 -40 20 -13 0 -28 7 -35 15 -7 9 -29 15 -51 15 -27
0 -45 6 -56 20 -13 15 -30 20 -63 20 -28 0 -56 8 -75 20 -20 13 -47 20 -79 20
-35 0 -52 5 -61 17 -11 15 -33 18 -177 18 -160 0 -231 -7 -255 -27 -13 -10
-48 -6 -133 15 -30 8 -72 15 -93 15 -21 1 -67 11 -104 22 -36 11 -78 22 -92
25 -14 2 -53 13 -86 23 -128 40 -162 50 -205 55 -14 2 -35 9 -47 15 -12 7 -46
12 -76 12 -41 0 -58 5 -72 20 -15 17 -31 20 -97 20 -66 0 -81 3 -95 20 -15 17
-30 20 -109 20 -78 0 -93 -3 -109 -20 -14 -16 -31 -20 -79 -20 -49 0 -65 -4
-79 -20 -11 -14 -29 -20 -56 -20 -23 0 -44 -6 -51 -16 -8 -8 -29 -22 -48 -29
-42 -18 -182 -152 -182 -175 0 -10 -9 -29 -20 -43 -11 -14 -20 -33 -20 -42 0
-9 -9 -28 -20 -42 -11 -14 -20 -40 -20 -58 0 -18 -6 -38 -14 -44 -8 -7 -18
-25 -21 -41 -3 -16 -13 -34 -21 -41 -8 -6 -14 -28 -14 -49 0 -22 -8 -48 -20
-63 -12 -14 -20 -40 -20 -61 0 -24 -7 -42 -20 -53 -11 -10 -20 -27 -20 -39 0
-11 -9 -29 -20 -39 -11 -10 -20 -28 -20 -40 0 -12 -9 -30 -20 -40 -11 -10 -20
-28 -20 -40 0 -12 -9 -30 -20 -40 -11 -10 -20 -28 -20 -40 0 -11 -15 -36 -34
-54 -19 -18 -36 -46 -40 -62 -4 -21 -13 -30 -33 -35 -15 -4 -39 -15 -52 -26
-17 -13 -41 -18 -84 -18 l-60 0 -154 152 c-96 96 -164 156 -182 160 -16 5 -34
15 -41 23 -9 11 -34 15 -93 15 l-81 0 -45 48 c-29 30 -66 88 -100 157 -30 61
-64 123 -75 140 -12 16 -27 40 -33 53 -41 78 -53 102 -76 152 -13 30 -50 108
-81 172 -31 65 -56 122 -56 128 0 6 -6 21 -14 33 -8 12 -24 51 -36 87 -12 36
-25 74 -30 85 -4 11 -14 40 -21 65 -7 25 -23 65 -36 90 -13 25 -23 48 -23 52
0 4 -18 44 -39 90 -22 46 -42 100 -46 120 -4 21 -13 42 -21 49 -8 6 -14 17
-14 23 0 7 -16 29 -35 50 -20 22 -38 50 -42 65 -3 14 -21 39 -39 56 -17 17
-34 41 -36 53 -4 29 -395 422 -420 422 -10 0 -61 43 -114 95 -53 52 -105 95
-114 95 -10 0 -37 18 -60 40 -23 22 -50 40 -59 40 -10 0 -32 16 -51 35 -18 19
-46 37 -61 40 -15 4 -33 13 -40 21 -6 8 -19 14 -29 14 -9 0 -29 9 -43 20 -15
12 -40 20 -65 20 -26 0 -45 6 -57 20 -17 19 -31 20 -300 20 -269 0 -283 -1
-300 -20 -16 -17 -31 -20 -112 -20 -80 0 -99 -3 -120 -20 -20 -16 -41 -20 -96
-20 -51 0 -75 -4 -89 -17 -11 -10 -40 -17 -79 -19 -38 -2 -68 -9 -79 -19 -24
-21 -415 -23 -446 -1 -13 9 -56 15 -131 18 -88 2 -115 7 -130 21 -15 13 -37
17 -95 17 -62 0 -78 3 -93 20 -14 16 -31 20 -75 20 -42 0 -64 5 -83 20 -18 15
-40 20 -82 20 -38 0 -62 5 -69 14 -9 12 -68 15 -308 20 -164 2 -300 1 -303 -4
-3 -5 -20 -12 -38 -15 -17 -4 -54 -18 -82 -30 -76 -36 -155 -65 -155 -59 0 4
-7 1 -15 -6 -16 -13 -73 -30 -117 -34 -16 -2 -37 -11 -47 -20 -11 -10 -35 -18
-55 -18 -20 0 -47 -8 -60 -19 -21 -17 -42 -19 -178 -19 -141 0 -155 -2 -171
-20 -13 -16 -29 -20 -75 -20 -46 0 -63 -4 -77 -20 -14 -16 -31 -20 -80 -20
-49 0 -66 -4 -80 -20 -12 -13 -31 -20 -55 -20 -33 0 -46 -9 -117 -79 -73 -72
-81 -83 -86 -127 -3 -28 -11 -51 -21 -56 -9 -5 -16 -19 -16 -32 0 -13 -9 -35
-20 -49 -14 -18 -20 -40 -20 -80 0 -41 -5 -58 -20 -72 -15 -14 -20 -31 -20
-72 0 -40 -6 -62 -20 -80 -16 -21 -20 -41 -20 -104 0 -60 -5 -88 -20 -116 -13
-25 -20 -57 -20 -94 0 -38 -5 -61 -15 -69 -11 -9 -15 -35 -15 -105 0 -77 -3
-96 -20 -118 -14 -18 -20 -40 -20 -80 0 -39 -6 -61 -20 -80 -17 -21 -20 -40
-20 -120 0 -81 -3 -96 -20 -112 -19 -18 -20 -31 -20 -460 0 -429 -1 -442 -20
-460 -14 -13 -20 -31 -20 -60 0 -29 -6 -47 -20 -60 -11 -10 -20 -28 -20 -39 0
-13 -20 -42 -48 -69 -44 -43 -52 -47 -96 -47 -43 0 -53 4 -83 36 -18 20 -46
39 -61 43 -17 5 -31 18 -37 36 -6 16 -81 100 -170 187 l-160 158 -78 0 c-86 0
-91 4 -98 81 -2 19 -9 45 -16 59 -7 14 -13 41 -13 60 0 35 -25 125 -53 190 -8
19 -20 53 -27 75 -6 22 -27 66 -46 98 -19 32 -34 65 -34 74 0 8 -14 36 -32 61
-17 26 -45 67 -61 92 -61 91 -110 150 -143 171 -22 13 -34 28 -34 43 0 12 -9
29 -20 39 -16 13 -20 29 -20 75 0 46 -4 63 -20 77 -17 15 -20 31 -20 99 0 69
-3 84 -20 99 -14 11 -20 29 -20 56 0 22 -6 44 -15 51 -8 7 -15 20 -15 30 0 9
-9 29 -20 43 -11 14 -20 32 -20 40 0 8 -9 26 -20 40 -11 14 -20 34 -20 45 0
10 -9 27 -20 37 -11 10 -20 28 -20 39 0 13 -22 44 -54 75 -30 30 -57 65 -61
78 -8 32 -118 139 -151 147 -14 4 -40 22 -57 41 -18 20 -41 35 -55 35 -12 0
-30 9 -39 20 -10 11 -27 20 -39 20 -11 0 -29 9 -39 20 -10 11 -28 20 -40 20
-12 0 -30 9 -40 20 -14 16 -31 20 -76 20 -41 0 -63 5 -74 17 -12 11 -36 17
-76 18 -39 1 -65 7 -77 18 -14 13 -37 17 -94 17 -62 0 -78 3 -93 20 -16 17
-31 20 -117 20 -85 0 -101 3 -118 20 -19 19 -33 20 -213 20 -181 0 -195 1
-212 20 -18 19 -31 20 -445 20 -414 0 -427 1 -445 20 -14 15 -31 20 -72 20
-40 0 -62 6 -80 20 -15 11 -41 20 -61 20 -20 0 -44 7 -54 16 -10 9 -37 18 -60
19 -24 2 -46 9 -53 19 -8 10 -27 16 -52 16 -27 0 -46 6 -58 20 -10 11 -28 20
-40 20 -25 0 -45 18 -45 41 0 9 -9 28 -20 42 -11 14 -20 32 -20 41 0 8 -18 34
-40 57 -22 23 -40 50 -40 59 0 22 -127 150 -148 149 -9 0 -27 -4 -38 -9z
m7261 -385 l79 -5 69 -67 c38 -38 71 -80 74 -95 3 -14 20 -41 39 -59 19 -18
34 -41 34 -50 0 -10 16 -35 36 -56 20 -21 42 -51 49 -68 8 -16 27 -45 44 -63
17 -18 31 -40 31 -48 0 -8 10 -28 21 -44 18 -24 21 -38 17 -91 -3 -42 -10 -66
-21 -74 -9 -7 -17 -21 -17 -31 0 -25 -219 -244 -244 -244 -12 0 -51 -32 -93
-75 -42 -44 -80 -75 -92 -75 -11 0 -35 -15 -53 -34 -18 -19 -49 -40 -68 -49
-44 -18 -180 -154 -180 -179 0 -10 -9 -27 -20 -38 -11 -11 -20 -29 -20 -40 0
-11 -9 -28 -20 -37 -11 -10 -20 -27 -20 -38 0 -12 -18 -39 -40 -60 -22 -22
-40 -49 -40 -61 0 -33 -25 -49 -55 -36 -25 12 -34 45 -15 57 6 3 10 16 10 29
0 13 9 33 20 46 11 13 20 30 20 37 0 8 9 26 20 40 11 14 20 34 20 43 0 10 6
23 14 29 8 7 18 25 21 41 3 16 13 34 21 41 8 6 14 21 14 32 0 27 207 237 234
237 11 0 55 34 102 80 45 44 90 80 100 80 11 0 70 51 138 119 113 113 118 120
121 164 3 33 -2 53 -14 69 -10 13 -21 33 -25 46 -4 12 -32 49 -62 81 -30 32
-54 67 -54 76 0 10 -18 37 -40 61 -22 24 -40 52 -40 63 0 10 -7 24 -15 31 -8
7 -15 21 -15 31 0 10 -19 39 -43 64 l-44 45 -95 0 c-73 0 -99 -4 -108 -15 -7
-8 -22 -15 -34 -15 -11 0 -36 -9 -54 -20 -18 -11 -45 -20 -61 -20 -15 0 -36
-9 -46 -20 -10 -11 -28 -20 -39 -20 -12 0 -29 -9 -39 -20 -9 -11 -26 -20 -37
-20 -11 0 -29 -9 -40 -20 -21 -21 -45 -18 -54 6 -7 17 92 114 116 114 10 0 26
9 35 20 10 11 27 20 39 20 11 0 29 9 39 20 10 11 27 20 38 20 12 0 30 9 42 20
17 16 36 21 85 21 36 1 73 5 85 9 11 5 27 7 35 5 8 -3 51 -7 95 -10z m-6901
-101 c3 -9 6 -39 6 -68 0 -40 5 -57 20 -71 12 -11 20 -31 20 -49 0 -17 10 -51
21 -76 36 -75 47 -104 54 -137 3 -17 13 -37 21 -44 9 -7 14 -31 14 -69 0 -42
5 -64 20 -83 17 -21 20 -40 20 -116 0 -72 -3 -92 -16 -99 -10 -5 -18 -27 -21
-53 -3 -24 -11 -51 -18 -59 -7 -8 -16 -26 -20 -40 -10 -36 -95 -120 -121 -120
-11 0 -29 -9 -39 -20 -10 -11 -28 -20 -40 -20 -12 0 -30 -9 -40 -20 -14 -15
-31 -20 -73 -20 -38 0 -61 -5 -74 -17 -13 -11 -42 -19 -83 -21 -38 -3 -69 -10
-76 -18 -6 -8 -19 -14 -29 -14 -9 0 -29 -9 -43 -20 -14 -11 -32 -20 -40 -20
-7 0 -24 -9 -37 -20 -13 -11 -31 -20 -40 -20 -9 0 -27 -9 -40 -20 -13 -11 -31
-20 -41 -20 -10 0 -21 -5 -24 -10 -4 -6 -26 -20 -49 -31 -51 -24 -100 -73
-113 -114 -14 -43 -46 -45 -81 -4 -15 18 -45 51 -67 73 -79 80 -147 165 -140
175 9 16 41 13 55 -5 8 -8 28 -21 46 -29 19 -8 56 -34 82 -59 27 -25 53 -46
58 -46 5 0 52 43 104 95 60 60 102 95 116 95 11 0 29 9 39 20 10 11 28 20 40
20 12 0 30 9 40 20 10 11 27 20 37 20 11 0 31 9 45 20 14 11 37 20 52 20 14 0
40 9 56 20 17 11 46 20 66 20 20 0 42 7 49 15 8 10 31 15 70 15 42 0 64 5 83
20 14 11 32 20 40 20 22 0 107 86 107 108 0 10 9 27 20 37 18 17 20 31 20 170
0 139 -2 153 -20 170 -13 12 -20 31 -20 56 0 21 -7 45 -15 53 -9 9 -21 42 -27
73 -5 32 -14 66 -19 75 -11 21 -15 231 -5 247 10 16 43 14 50 -5z m-1641 -582
c30 -28 36 -72 12 -92 -36 -30 -88 -49 -107 -39 -10 5 -23 7 -28 4 -18 -11
-59 26 -65 59 -5 26 -1 38 22 63 16 17 38 33 48 36 36 10 90 -4 118 -31z
m7754 -502 c2 -8 -12 -31 -30 -51 l-34 -37 -6 -201 c-6 -167 -4 -214 9 -275 9
-41 14 -82 10 -92 -6 -16 -8 -16 -25 0 -25 23 -61 119 -61 164 -1 21 -7 48
-15 62 -10 18 -14 62 -15 159 0 152 6 168 89 248 46 43 73 51 78 23z m-612
-28 c34 -25 45 -48 39 -79 -6 -30 -50 -63 -84 -63 -23 0 -72 21 -82 35 -32 44
27 143 78 131 15 -4 37 -15 49 -24z m-7691 -317 c11 -8 29 -15 39 -15 28 0
157 -134 157 -162 0 -25 -28 -76 -60 -108 -11 -11 -20 -26 -20 -33 0 -6 -16
-25 -35 -41 -37 -31 -45 -65 -21 -85 8 -7 18 -25 21 -41 3 -16 13 -31 21 -34
10 -4 14 -23 14 -69 0 -51 4 -68 20 -82 16 -15 20 -31 20 -82 0 -50 -5 -71
-20 -90 -11 -14 -20 -33 -20 -42 0 -9 -22 -39 -50 -66 -53 -52 -103 -65 -122
-32 -5 10 -19 17 -31 17 -14 0 -28 11 -39 31 -11 18 -22 27 -29 23 -7 -4 -9
-3 -5 4 3 6 -1 29 -10 52 -13 32 -15 59 -11 121 4 48 3 79 -3 79 -6 0 -10 -4
-10 -9 0 -13 -88 -104 -122 -125 -30 -19 -48 -14 -48 12 0 10 39 58 88 107
100 104 142 152 142 162 0 5 25 34 55 65 30 31 55 65 55 75 0 10 27 45 60 78
72 71 78 104 30 150 -37 35 -52 29 -85 -32 -25 -47 -34 -57 -238 -268 -126
-130 -149 -149 -164 -139 -36 22 -25 43 66 133 50 49 91 93 91 98 0 4 18 25
40 47 22 21 40 42 40 47 0 5 27 38 60 75 57 63 60 68 60 118 0 71 23 92 64 61z
m11884 -48 c2 -16 -4 -39 -12 -52 -9 -13 -16 -40 -16 -58 0 -19 -9 -46 -20
-60 -11 -14 -20 -40 -20 -60 0 -19 -9 -45 -20 -60 -12 -15 -20 -40 -20 -64 0
-21 -9 -51 -20 -68 -16 -24 -20 -47 -20 -108 0 -64 -4 -84 -20 -104 -15 -20
-20 -41 -20 -93 0 -54 4 -70 20 -85 16 -14 20 -31 20 -77 0 -43 5 -66 20 -86
20 -26 20 -30 5 -65 -15 -36 -35 -42 -35 -11 0 8 -4 14 -9 14 -5 0 -26 15 -45
34 -30 27 -36 40 -36 73 0 27 -6 46 -20 58 -19 17 -20 31 -20 220 0 189 1 203
20 220 14 13 20 31 20 60 0 29 6 47 19 59 14 13 20 31 19 59 0 25 5 45 14 51
9 6 18 25 22 43 4 17 14 34 22 37 8 3 14 15 14 28 0 27 98 130 120 126 8 -2
16 -16 18 -31z m-7548 -167 c19 -12 20 -189 1 -265 -7 -27 -16 -83 -20 -124
-6 -52 -13 -76 -24 -83 -26 -14 -24 -151 3 -209 11 -25 20 -66 20 -93 0 -28 6
-56 14 -65 8 -9 17 -30 21 -48 5 -25 2 -36 -14 -52 -12 -12 -25 -21 -30 -21
-19 0 -61 43 -61 62 0 11 -9 31 -20 45 -11 14 -20 33 -20 41 0 9 -8 24 -17 35
-16 16 -18 45 -21 208 -3 177 -2 192 17 223 12 18 21 45 21 60 0 14 9 43 20
63 11 21 20 49 20 62 0 13 7 32 16 42 9 10 18 37 21 61 8 61 23 77 53 58z
m11953 -145 c17 -19 41 -35 52 -35 12 0 64 -45 132 -112 l113 -113 0 -58 c0
-54 -3 -62 -40 -106 -22 -26 -40 -53 -40 -61 0 -7 -27 -41 -60 -76 -33 -34
-60 -71 -60 -81 0 -11 -16 -34 -35 -53 -19 -19 -35 -41 -35 -50 0 -9 -11 -31
-25 -50 -14 -19 -25 -38 -25 -42 0 -24 -165 -188 -189 -188 -10 0 -24 -7 -31
-15 -7 -8 -23 -15 -35 -15 -13 0 -25 7 -29 15 -3 8 -16 15 -28 15 -15 0 -53
30 -115 92 -86 85 -93 96 -93 132 0 25 -6 43 -17 52 -14 9 -19 31 -22 95 -2
59 -8 87 -18 94 -22 17 -13 59 15 63 12 2 22 -1 22 -7 0 -6 11 -21 25 -33 14
-12 25 -30 25 -41 0 -10 9 -30 20 -44 15 -19 20 -41 20 -85 0 -42 4 -60 14
-64 8 -3 17 -18 21 -33 7 -32 50 -81 71 -81 9 0 27 -9 41 -20 14 -11 37 -20
51 -20 32 0 82 46 82 75 0 11 18 39 40 60 22 21 40 49 40 60 0 12 16 36 35 55
19 19 35 42 35 52 0 10 18 37 40 59 22 22 40 49 40 59 0 11 34 52 75 93 42 41
75 82 75 93 0 25 -271 294 -297 294 -42 0 -58 45 -20 59 42 17 96 3 130 -34z
m-13796 23 c26 -33 21 -187 -6 -196 -6 -2 -11 -12 -11 -21 0 -10 -11 -35 -25
-55 -14 -21 -25 -51 -25 -70 0 -20 -8 -40 -20 -51 -11 -10 -20 -28 -20 -39 0
-12 -9 -29 -20 -39 -11 -9 -20 -25 -20 -36 0 -10 -7 -24 -15 -31 -8 -7 -15
-20 -15 -30 0 -9 -9 -29 -20 -43 -11 -14 -20 -32 -20 -40 0 -8 -9 -26 -20 -40
-12 -15 -20 -40 -20 -65 0 -26 -6 -45 -20 -57 -13 -12 -20 -31 -20 -55 0 -23
-8 -46 -20 -60 -12 -13 -20 -37 -20 -57 0 -20 -9 -46 -20 -60 -11 -14 -20 -33
-20 -42 0 -21 -90 -111 -111 -111 -9 0 -28 -9 -42 -20 -33 -26 -46 -25 -56 2
-11 31 4 79 31 100 49 35 78 68 78 88 0 11 9 28 20 37 14 12 20 30 20 59 0 26
7 51 20 67 14 18 20 40 20 79 0 41 5 58 20 71 14 11 20 29 20 56 0 22 6 44 15
51 8 7 15 20 15 30 0 9 9 29 20 43 11 14 20 32 20 40 0 8 9 26 20 40 11 14 20
34 20 44 0 10 18 37 40 58 22 21 40 48 40 60 0 11 9 28 20 38 11 9 20 28 20
41 0 13 6 26 14 29 8 3 17 19 21 36 3 16 13 35 21 42 8 6 14 29 14 53 0 57 32
86 57 54z m8001 -190 c9 -9 12 -73 12 -228 0 -203 -1 -218 -20 -240 -12 -14
-20 -37 -20 -60 0 -28 -8 -43 -35 -70 -29 -28 -37 -31 -50 -20 -22 19 -20 102
5 142 15 24 20 51 20 99 0 47 4 70 15 79 12 10 15 38 15 136 0 67 4 134 10
148 10 28 29 33 48 14z m-1325 -176 c15 -15 27 -35 27 -44 0 -8 9 -25 20 -38
11 -13 20 -31 20 -40 0 -9 9 -27 20 -40 11 -13 20 -32 20 -42 0 -11 16 -34 35
-52 19 -19 35 -40 35 -48 0 -9 9 -27 20 -41 11 -14 20 -33 20 -43 0 -10 10
-28 22 -41 27 -29 16 -56 -25 -61 -31 -4 -97 51 -97 80 0 12 -18 40 -40 64
-22 24 -40 51 -40 60 0 9 -9 27 -20 41 -11 14 -20 34 -20 43 0 10 -7 23 -15
30 -8 7 -15 27 -15 45 0 18 -9 44 -20 58 -19 24 -27 77 -13 90 14 14 40 6 66
-21z m3745 -344 c17 -17 15 -123 -3 -138 -7 -6 -17 -33 -21 -58 -3 -26 -12
-57 -20 -69 -8 -12 -14 -42 -14 -66 0 -29 -7 -53 -20 -70 -11 -14 -20 -40 -20
-60 0 -19 -9 -45 -20 -60 -12 -15 -20 -40 -20 -65 0 -48 -17 -64 -62 -60 -25
2 -34 8 -36 24 -2 11 4 27 13 34 10 8 15 30 15 70 0 42 5 64 20 83 14 18 20
40 20 80 0 41 5 58 20 72 13 12 20 31 20 55 0 22 8 48 20 63 13 16 20 40 20
66 0 28 5 44 15 48 9 3 22 18 31 34 16 32 24 35 42 17z m4524 -305 c14 -16 29
-46 33 -68 3 -22 15 -66 26 -97 10 -32 19 -70 19 -85 0 -15 7 -37 15 -47 8
-11 15 -29 15 -40 0 -30 47 -116 81 -148 24 -22 29 -35 29 -72 0 -43 -2 -46
-25 -46 -14 0 -36 11 -48 23 -41 44 -80 97 -92 124 -7 16 -19 45 -28 66 -10
21 -17 43 -17 50 0 7 -8 24 -17 37 -10 14 -24 48 -31 75 -19 68 -37 218 -29
239 10 24 40 19 69 -11z m-12294 -126 c7 -18 12 -46 12 -61 0 -29 -35 -120
-55 -146 -7 -8 -16 -26 -20 -40 -4 -14 -13 -32 -20 -40 -7 -8 -15 -28 -19 -43
-10 -40 -55 -105 -78 -113 -29 -9 -42 10 -48 69 -5 54 -6 51 87 245 15 30 32
56 40 59 7 3 13 14 13 25 0 25 40 77 60 77 9 1 21 -13 28 -32z m11586 -14 c3
-10 8 -39 11 -64 8 -57 -7 -89 -67 -144 -25 -22 -48 -51 -51 -65 -4 -14 -65
-83 -137 -154 -73 -73 -130 -138 -130 -148 0 -16 -61 -88 -74 -88 -2 0 -12 7
-20 16 -23 22 -20 59 9 104 14 22 25 42 25 44 0 3 25 31 55 62 30 32 55 65 55
74 0 8 43 58 96 110 93 92 134 150 134 187 0 25 51 83 72 83 9 0 19 -8 22 -17z"/>
</g>
</svg>
