<?xml version="1.0" standalone="no"?>
<!DOCTYPE svg PUBLIC "-//W3C//DTD SVG 20010904//EN"
 "http://www.w3.org/TR/2001/REC-SVG-20010904/DTD/svg10.dtd">
<svg version="1.0" xmlns="http://www.w3.org/2000/svg"
 width="500.000000pt" height="500.000000pt" viewBox="0 0 500.000000 500.000000"
 preserveAspectRatio="xMidYMid meet">
<metadata>
Created by potrace 1.16, written by Peter Selinger 2001-2019
</metadata>
<g transform="translate(0.000000,500.000000) scale(0.100000,-0.100000)"
fill="#000000" stroke="none">
<path d="M1705 4969 c-44 -24 -111 -45 -191 -61 -47 -9 -57 -7 -106 16 -30 14
-61 26 -69 26 -25 0 -61 -31 -75 -65 -15 -37 -61 -95 -75 -95 -6 0 -34 -18
-63 -39 -54 -40 -83 -86 -105 -167 -12 -44 -42 -77 -81 -89 -39 -12 -76 -44
-128 -109 -26 -34 -68 -82 -94 -107 -34 -33 -51 -60 -60 -94 -7 -27 -26 -61
-46 -82 -77 -79 -98 -162 -70 -282 9 -41 8 -64 -7 -133 -9 -46 -28 -103 -41
-128 -20 -37 -24 -59 -24 -133 0 -113 12 -140 105 -239 62 -66 78 -89 91 -136
25 -94 46 -135 94 -187 25 -27 67 -78 93 -112 33 -43 56 -63 77 -68 40 -9 133
12 164 36 16 13 48 22 90 26 55 5 69 3 99 -16 40 -25 67 -26 110 -7 149 68
172 76 221 76 48 -1 53 -3 78 -40 43 -61 101 -95 162 -93 36 1 58 -4 78 -19
34 -24 36 -49 8 -162 l-21 -83 26 -54 c14 -30 52 -92 85 -139 111 -157 153
-251 163 -362 3 -26 14 -65 26 -88 23 -45 26 -71 11 -98 -6 -9 -19 -42 -29
-72 -11 -30 -33 -93 -50 -140 -48 -132 -41 -213 29 -353 12 -25 47 -73 76
-107 l54 -61 0 -109 c0 -70 5 -123 14 -147 8 -21 20 -63 27 -93 6 -30 21 -73
32 -95 25 -50 86 -137 103 -148 9 -5 14 -28 14 -69 0 -68 21 -113 70 -148 57
-41 167 -35 231 12 24 18 44 21 126 22 91 1 102 3 153 33 61 35 107 77 193
175 63 72 101 153 112 240 10 78 11 81 64 121 72 55 95 115 88 226 -4 53 -2
91 5 105 26 50 101 126 220 223 145 118 149 126 153 261 2 46 8 103 15 127 17
60 6 107 -35 151 -26 27 -35 46 -35 71 0 19 -7 67 -15 107 -19 90 -16 99 66
209 34 45 68 98 76 117 17 38 36 61 157 192 45 47 93 110 107 140 55 110 111
231 124 269 8 22 21 54 29 72 9 17 29 74 47 126 33 101 34 138 4 198 -32 65
-97 65 -193 -2 -27 -18 -71 -41 -99 -51 -48 -17 -50 -17 -76 2 -14 10 -31 31
-38 46 -11 27 -65 80 -147 146 -23 18 -50 52 -60 75 -11 23 -42 67 -70 97 -69
77 -128 172 -136 219 -3 22 -24 69 -46 104 -22 35 -46 88 -53 118 -10 45 -22
63 -68 109 -31 30 -58 65 -61 76 -3 12 -2 63 3 113 7 77 6 101 -9 143 -31 92
-92 113 -241 83 l-89 -18 -113 56 c-104 51 -207 87 -250 87 -28 0 -78 -48
-104 -99 -35 -70 -50 -79 -83 -52 -15 12 -34 24 -42 27 -9 3 -20 15 -25 27
-15 32 -71 65 -123 72 -26 3 -63 12 -82 19 -33 11 -35 14 -37 63 -1 28 -10 65
-20 83 -10 18 -24 43 -31 56 -7 12 -26 34 -43 48 -25 22 -41 26 -90 26 -32 0
-76 -7 -98 -16 -36 -14 -43 -14 -85 0 -63 21 -94 20 -141 -5z m349 -59 c14 -5
32 -23 41 -40 14 -28 14 -33 -4 -69 -11 -21 -26 -60 -32 -87 -7 -27 -19 -64
-26 -82 -16 -39 -29 -37 -99 10 -41 27 -64 30 -64 7 0 -6 23 -32 50 -59 l50
-49 -42 -25 c-60 -35 -31 -42 74 -17 81 19 158 54 158 71 0 21 -13 38 -26 33
-8 -3 -14 -3 -14 0 0 5 19 53 25 65 1 1 26 -8 56 -21 30 -12 60 -23 67 -23 6
-1 26 -2 43 -2 22 -2 46 -17 87 -55 31 -30 76 -65 99 -78 l42 -25 -22 -26
c-13 -16 -43 -33 -75 -42 -43 -12 -112 -54 -142 -86 -3 -3 -18 -11 -35 -19
-16 -7 -38 -17 -47 -22 -10 -5 -61 -14 -114 -19 -106 -11 -124 -18 -148 -54
-31 -49 -52 -52 -319 -48 -147 2 -245 7 -242 13 4 5 19 9 35 9 16 0 31 4 34 8
3 5 60 12 127 16 138 8 159 14 132 38 -28 25 -94 57 -130 64 -43 8 -42 24 1
24 19 0 37 4 40 9 3 5 45 12 93 15 114 9 145 15 140 29 -5 16 -118 24 -334 27
-95 1 -173 4 -173 7 0 3 9 18 21 34 12 17 23 48 26 70 6 38 8 40 32 34 14 -4
37 -8 51 -9 14 -2 39 -9 57 -15 31 -12 32 -14 17 -36 -18 -27 -6 -39 28 -30
30 8 78 71 78 104 0 14 7 35 15 45 23 31 18 46 -15 46 -23 0 -30 5 -30 19 0
19 -72 61 -104 61 -18 0 -32 -20 -19 -29 13 -9 83 -97 83 -105 0 -4 -10 -2
-22 5 -14 7 -47 9 -97 5 l-76 -7 -23 41 c-23 41 -83 80 -122 80 -26 0 -26 16
0 32 12 7 35 35 52 61 26 41 35 47 52 41 37 -13 172 -16 230 -5 30 6 81 22
111 36 53 24 60 25 118 14 51 -9 74 -9 127 4 82 19 74 19 104 7z m851 -344
c127 -67 148 -71 277 -50 147 25 143 29 143 -156 0 -136 0 -139 -23 -152 -32
-16 -52 -3 -79 54 -38 78 -121 99 -187 47 l-26 -20 0 28 c-1 40 -26 128 -36
128 -5 0 -35 -4 -68 -8 -81 -10 -170 8 -191 39 -11 16 -25 24 -45 24 -35 0
-38 12 -10 47 11 14 20 31 20 37 0 7 9 22 20 33 18 20 22 21 69 8 28 -7 89
-34 136 -59z m-1746 -200 c33 -24 72 -42 118 -52 37 -9 76 -20 85 -25 10 -5
26 -10 35 -11 10 0 -9 -4 -42 -9 -85 -10 -236 -38 -247 -45 -5 -4 -8 -15 -5
-25 5 -18 -2 -19 -127 -19 l-132 0 -29 30 -28 29 74 82 c45 50 89 88 114 99
22 10 49 25 60 33 19 14 22 13 48 -18 15 -18 49 -50 76 -69z m2302 -332 c7
-30 18 -59 26 -65 7 -6 13 -16 13 -22 0 -6 13 -31 29 -56 16 -25 32 -64 36
-86 3 -22 17 -57 31 -77 13 -21 24 -40 24 -42 0 -3 9 -16 20 -28 84 -95 160
-198 160 -217 0 -5 18 -24 41 -42 70 -58 149 -138 149 -152 0 -19 -54 -47 -93
-47 -28 0 -43 9 -86 54 -28 30 -51 62 -51 70 0 9 -4 16 -10 16 -5 0 -10 6 -10
13 0 25 -70 86 -106 93 -48 9 -127 -1 -196 -24 -32 -11 -59 -15 -60 -10 -2 6
-25 12 -51 15 -40 5 -51 2 -68 -16 -11 -11 -24 -21 -29 -21 -6 0 -10 -9 -10
-20 0 -16 7 -20 35 -20 21 0 52 -11 75 -25 35 -22 40 -30 40 -63 0 -28 -6 -41
-22 -52 -28 -17 -74 -14 -107 7 -37 24 -121 13 -161 -21 -30 -24 -39 -27 -104
-24 l-71 3 -7 50 c-11 74 -33 121 -85 176 l-46 49 6 67 c4 52 14 85 42 138 46
88 59 102 104 115 20 6 52 20 73 31 28 15 42 17 63 9 42 -16 73 -12 116 17
l40 26 30 -22 c27 -20 38 -22 85 -16 39 5 57 12 65 26 12 23 3 59 -14 59 -6 0
6 12 28 27 22 14 42 27 43 29 2 1 -6 30 -18 63 -24 64 -21 103 5 81 7 -6 19
-36 26 -66z m-1869 56 l249 0 14 -35 c8 -19 25 -39 36 -46 26 -13 94 -4 126
16 12 8 24 11 27 6 9 -14 -16 -28 -61 -36 -55 -9 -85 -44 -81 -94 3 -33 6 -36
36 -39 19 -2 50 6 77 19 l45 22 56 -27 57 -28 96 12 c169 22 272 -9 304 -89
25 -63 58 -203 67 -284 6 -58 15 -88 33 -115 14 -20 31 -50 38 -67 6 -16 16
-40 22 -52 14 -31 -8 -73 -39 -73 -32 0 -134 -32 -134 -42 0 -4 -75 -8 -166
-8 -97 0 -173 -4 -185 -11 -11 -5 -81 -11 -157 -13 -132 -3 -192 -14 -192 -36
0 -7 126 -10 377 -10 319 0 386 -3 435 -16 33 -10 55 -21 51 -25 -4 -4 -39 -9
-78 -11 -70 -3 -86 -14 -46 -33 11 -5 21 -13 21 -16 0 -11 -58 -19 -130 -19
-37 0 -108 -3 -158 -6 -81 -6 -92 -9 -92 -25 0 -16 8 -19 43 -19 31 0 45 -5
55 -20 7 -11 21 -20 32 -20 22 0 27 -15 9 -26 -8 -4 -3 -12 12 -20 20 -11 -25
-13 -293 -14 -174 0 -323 3 -332 6 -9 3 -16 12 -16 20 0 7 -15 24 -33 38 -29
22 -45 26 -103 26 -41 1 -79 7 -94 15 -23 13 -16 14 81 15 77 0 110 4 118 13
18 23 2 27 -100 27 -92 0 -149 12 -149 32 0 4 26 8 58 8 145 0 312 13 312 25
0 12 -167 25 -316 25 -37 0 -67 6 -80 15 -17 13 -10 14 72 15 66 0 95 4 103
14 17 21 2 26 -83 27 -85 1 -94 13 -30 38 32 13 102 17 384 21 334 5 345 6
345 25 0 31 -141 85 -223 85 -35 0 -72 -4 -82 -10 -10 -5 -42 -12 -71 -15
l-54 -6 -18 40 c-21 46 -24 40 58 122 27 27 51 45 53 39 6 -18 27 -11 55 18
28 29 34 51 18 68 -16 17 -40 110 -35 132 7 25 -35 72 -65 72 -11 0 -23 5 -26
10 -5 8 -11 7 -21 -1 -11 -9 -19 -8 -34 6 -17 15 -20 16 -25 2 -5 -11 -16 -14
-48 -10 -23 3 -50 10 -60 15 -12 6 -19 5 -23 -7 -4 -9 -19 -15 -40 -15 -23 0
-34 -5 -34 -14 0 -8 -9 -18 -21 -21 -15 -5 -18 -10 -10 -18 6 -6 11 -15 11
-19 0 -13 -59 -9 -88 6 -19 10 -70 15 -157 17 -127 3 -131 3 -168 -23 -21 -15
-42 -28 -47 -30 -15 -5 -31 -106 -24 -149 4 -26 16 -48 35 -64 34 -28 36 -40
9 -55 -14 -8 -20 -21 -20 -45 l0 -35 -48 0 c-26 0 -74 -7 -105 -15 l-57 -15
-85 35 c-85 35 -134 43 -178 26 -35 -14 -47 0 -56 64 -9 67 -2 115 27 170 33
64 45 155 38 295 l-7 125 31 43 c18 23 35 42 40 42 4 0 15 -11 23 -23 9 -13
29 -30 47 -37 40 -17 33 -36 -14 -33 -30 2 -36 -1 -36 -18 0 -28 37 -79 58
-79 9 0 29 15 44 34 17 21 39 36 60 40 22 4 40 16 53 37 11 17 32 37 48 45 15
8 27 18 27 23 0 15 -49 33 -74 27 -20 -5 -26 -3 -26 10 0 16 19 17 227 11 124
-4 338 -7 475 -7z m-233 -708 c19 -7 54 -12 77 -12 47 0 49 -1 35 -28 -5 -9
-14 -29 -20 -44 -6 -16 -21 -30 -36 -34 -14 -3 -25 -10 -25 -14 0 -5 -9 -6
-20 -3 -11 3 -20 1 -20 -5 0 -34 -123 -1 -134 36 -7 22 16 92 41 126 17 23 19
23 43 6 14 -9 40 -22 59 -28z m-267 -220 c2 -5 23 -16 48 -24 43 -15 38 -16
-159 -17 -112 -1 -214 -4 -227 -7 -13 -3 -24 -2 -24 2 0 5 -3 19 -6 32 l-6 22
185 0 c102 0 187 -4 189 -8z m62 -108 c3 -9 6 -18 6 -20 0 -2 -34 -4 -75 -4
-67 0 -75 -2 -75 -19 0 -17 12 -19 123 -26 170 -12 110 -22 -129 -24 -217 -1
-227 2 -240 72 l-6 37 195 0 c168 0 196 -2 201 -16z m2429 -8 c18 -8 55 -21
82 -29 83 -25 118 -44 156 -84 35 -36 93 -133 85 -141 -3 -2 -43 26 -90 62
l-85 66 -186 0 -187 0 -45 30 c-45 31 -73 35 -80 14 -2 -7 21 -33 52 -59 67
-57 104 -66 276 -64 105 1 120 -1 157 -22 23 -13 42 -28 42 -34 0 -5 43 -53
96 -106 90 -91 95 -98 82 -118 -11 -20 -19 -22 -63 -17 -27 2 -84 12 -125 21
-103 22 -292 29 -353 13 -60 -15 -68 -11 -130 73 -77 104 -90 118 -129 144
-42 28 -72 31 -108 10 -34 -19 -455 -21 -509 -2 -52 17 -62 29 -45 52 11 15
34 20 116 27 95 8 140 12 161 16 17 4 -5 22 -36 31 -29 8 -30 9 -7 10 14 1 35
8 48 16 12 9 32 15 44 14 13 -1 58 -1 101 -1 68 2 77 4 77 21 0 25 -19 31
-104 31 -78 0 -92 5 -75 27 17 20 738 19 782 -1z m703 -2 c20 -14 22 -18 10
-28 -7 -6 -17 -24 -21 -41 -3 -16 -13 -37 -20 -45 -8 -8 -26 -28 -39 -45 -14
-16 -35 -41 -46 -55 l-21 -25 6 103 c3 57 8 109 12 117 5 14 49 32 81 34 7 1
24 -6 38 -15z m-2877 -159 c30 -12 56 -27 58 -31 1 -5 -25 -22 -57 -38 -59
-29 -59 -29 -87 -10 -22 15 -46 19 -113 19 -83 -1 -130 -14 -222 -65 -23 -13
-43 -4 -55 23 -6 12 -31 45 -57 73 -25 29 -46 54 -46 55 0 2 118 3 262 1 248
-3 265 -4 317 -27z m1571 -139 c0 -8 -25 -40 -56 -72 -71 -72 -83 -120 -38
-149 23 -15 33 -16 59 -6 17 6 50 11 73 11 40 0 41 -1 52 -42 6 -24 15 -51 20
-60 6 -10 10 -27 10 -38 0 -23 27 -144 39 -175 23 -59 41 -123 41 -147 0 -15
5 -30 10 -33 14 -8 13 -46 -2 -78 l-13 -27 -137 0 c-76 0 -138 2 -138 5 0 2
17 9 38 15 21 5 49 21 62 35 25 26 26 24 -26 40 -13 4 -14 8 -3 21 10 13 9 16
-9 21 -15 3 -24 16 -28 39 -6 33 -53 84 -77 84 -7 0 -25 7 -42 16 -20 11 -89
22 -202 32 -197 18 -224 14 -291 -44 -49 -41 -54 -74 -20 -111 19 -20 20 -27
10 -43 -16 -27 -15 -55 3 -70 27 -22 18 -42 -16 -38 -36 3 -41 11 -65 91 -9
31 -20 57 -25 57 -4 0 -11 10 -14 23 -4 12 -18 38 -32 58 -30 45 -32 96 -8
176 18 58 84 143 112 143 7 0 13 3 13 8 0 4 34 15 76 26 125 30 174 61 174
108 0 34 -10 35 -63 4 -25 -15 -81 -32 -138 -42 -105 -18 -121 -28 -201 -123
l-38 -45 0 46 c0 35 6 54 27 80 49 61 138 150 179 178 l41 29 308 1 c170 0
311 2 313 5 10 10 22 5 22 -9z m694 -232 c9 -8 53 -23 99 -32 45 -9 84 -20 85
-24 2 -5 11 -8 19 -8 13 0 15 -9 10 -51 -4 -28 -13 -64 -21 -81 -9 -17 -13
-34 -10 -39 3 -5 1 -9 -5 -9 -6 0 -18 -16 -27 -35 -9 -19 -20 -35 -24 -35 -5
0 -14 -16 -21 -35 -7 -19 -17 -35 -22 -35 -5 0 -7 -11 -5 -25 3 -14 1 -25 -5
-25 -10 0 -3 -42 16 -90 21 -52 17 -55 -68 -58 l-81 -3 -2 63 c-1 35 2 77 7
93 8 27 9 26 10 -21 1 -44 4 -52 25 -62 20 -9 25 -8 30 4 3 9 4 20 0 25 -3 5
-1 9 5 9 5 0 14 21 19 46 8 36 7 56 -5 88 -9 27 -15 85 -16 169 -1 70 -4 127
-8 127 -4 0 -12 14 -18 30 -11 34 -9 37 13 14z m-221 -264 c-3 -11 0 -20 6
-20 6 0 11 -8 12 -17 0 -10 9 -31 20 -48 41 -66 42 -107 3 -193 l-19 -42 -75
2 -75 3 -3 59 c-2 32 1 78 6 102 6 25 6 44 1 44 -13 0 -11 48 2 56 6 3 9 15 6
25 -4 15 0 19 24 19 16 0 29 4 29 9 0 5 9 7 20 4 11 -3 20 0 20 6 0 6 6 11 14
11 9 0 12 -7 9 -20z m-1135 -400 c7 -11 21 -20 32 -20 14 0 18 -5 13 -16 -9
-25 24 -44 79 -44 45 0 47 -1 36 -20 -7 -10 -9 -22 -6 -26 12 -11 496 -10 508
2 21 21 0 44 -44 45 -22 1 -32 3 -21 5 11 3 38 9 60 14 22 5 53 12 70 15 29 6
29 7 11 21 -16 11 -62 14 -210 14 -152 0 -188 3 -178 13 17 16 492 24 492 8 0
-6 9 -11 20 -11 11 0 20 -4 20 -10 0 -5 -4 -10 -10 -10 -22 0 -8 -26 21 -39
30 -13 30 -13 10 -28 -31 -21 -27 -50 9 -58 35 -8 39 -20 9 -28 -16 -4 -19
-11 -14 -26 6 -21 3 -21 -137 -21 -163 0 -188 -4 -188 -31 0 -22 13 -23 240
-20 150 2 192 -6 145 -27 -14 -6 -25 -18 -25 -27 0 -13 39 -15 288 -17 281 -3
287 -3 284 -23 -6 -43 -25 -71 -67 -102 -41 -31 -45 -32 -72 -18 -35 19 -76
19 -116 1 -35 -16 -111 -27 -169 -26 -28 1 -38 -4 -43 -20 -5 -16 -15 -20 -53
-20 -34 0 -58 -7 -84 -25 -22 -15 -49 -24 -66 -23 -37 3 -102 -46 -102 -77 0
-33 26 -52 51 -37 24 15 52 15 67 0 7 -7 43 -11 97 -11 l86 1 22 -46 c18 -38
22 -64 22 -137 -1 -80 -4 -95 -29 -140 -16 -27 -34 -57 -42 -65 -16 -19 -33
-93 -34 -146 0 -44 -31 -111 -78 -170 -26 -33 -30 -34 -93 -34 l-66 0 -1 52
c0 30 5 60 14 72 18 26 18 86 0 111 -10 14 -12 56 -9 190 4 170 3 173 -22 221
-31 57 -62 93 -92 105 -12 4 -38 36 -58 71 -20 35 -40 70 -46 78 -16 25 -42
93 -46 120 -16 106 -24 145 -37 171 -11 21 -12 38 -5 62 5 17 9 33 9 35 0 9
-127 -11 -140 -22 -8 -7 -28 -18 -43 -24 -21 -9 -28 -18 -25 -35 3 -19 11 -23
57 -29 83 -10 85 -14 91 -196 5 -121 10 -165 23 -191 10 -19 13 -37 8 -40 -5
-3 -10 -15 -12 -26 -4 -17 -12 -20 -68 -20 -76 0 -93 8 -52 25 51 21 58 102
11 108 -18 2 -29 12 -37 32 -8 22 -18 30 -35 30 -13 0 -29 9 -36 21 -12 19
-19 20 -73 14 -49 -6 -60 -4 -65 9 -4 12 -19 16 -55 16 -38 0 -52 4 -61 20 -7
11 -19 20 -26 20 -18 0 -8 47 23 115 12 28 28 68 35 90 7 22 16 44 21 50 17
17 10 105 -10 133 -10 15 -22 42 -26 60 -5 27 -4 32 12 32 10 0 24 -9 31 -20z
m1460 -16 c2 -21 13 -40 33 -54 16 -13 29 -29 29 -36 0 -7 6 -15 13 -17 9 -4
9 -8 1 -14 -7 -4 -15 -36 -19 -71 -4 -34 -10 -64 -14 -67 -4 -2 -45 0 -92 4
-46 5 -69 9 -51 10 17 0 32 5 32 10 0 4 12 6 26 3 23 -4 25 -2 22 24 -2 16
-10 30 -18 31 -8 1 -60 5 -115 9 -111 8 -100 21 18 23 57 1 67 4 67 19 0 24
-16 46 -28 38 -6 -3 -12 -2 -14 3 -1 5 -43 12 -92 15 -100 6 -128 16 -44 16
66 0 118 16 118 37 0 16 -18 37 -40 46 -8 3 26 5 75 4 l90 -2 3 -31z m-1050
-1011 c24 -44 -2 -373 -33 -423 -3 -6 -39 -10 -79 -10 -80 0 -84 3 -138 85
-27 41 -71 168 -82 240 -6 34 -4 44 16 62 13 11 35 27 50 34 27 14 88 84 88
102 0 5 13 7 29 4 21 -5 34 -1 47 14 10 12 32 26 49 33 l30 13 6 -67 c4 -37
11 -76 17 -87z m102 -187 c6 -6 10 -20 10 -33 0 -13 3 -23 8 -23 4 0 6 -40 4
-90 l-3 -90 -39 0 c-21 0 -40 5 -42 11 -7 20 14 214 24 220 5 3 8 34 7 67 -1
34 1 65 4 69 4 3 8 27 9 52 1 25 4 -3 5 -64 2 -60 8 -114 13 -119z"/>
</g>
</svg>
