<?xml version="1.0" standalone="no"?>
<!DOCTYPE svg PUBLIC "-//W3C//DTD SVG 20010904//EN"
 "http://www.w3.org/TR/2001/REC-SVG-20010904/DTD/svg10.dtd">
<svg version="1.0" xmlns="http://www.w3.org/2000/svg"
 width="1000.000000pt" height="1000.000000pt" viewBox="0 0 1000.000000 1000.000000"
 preserveAspectRatio="xMidYMid meet">
<metadata>
Created by potrace 1.16, written by Peter Selinger 2001-2019
</metadata>
<g transform="translate(0.000000,1000.000000) scale(0.100000,-0.100000)"
fill="#000000" stroke="none">
<path d="M3510 9930 c-63 -35 -185 -90 -200 -90 -10 0 -22 -4 -25 -10 -3 -5
-21 -10 -39 -10 -17 0 -37 -5 -43 -11 -21 -21 -262 -47 -297 -32 -12 5 -46 21
-76 35 -107 50 -112 51 -165 31 -50 -19 -60 -30 -119 -145 -13 -25 -44 -66
-68 -91 -46 -47 -141 -117 -159 -117 -6 0 -45 -33 -86 -72 -75 -73 -133 -165
-133 -213 0 -12 -7 -30 -15 -41 -8 -10 -15 -33 -15 -51 0 -72 -42 -111 -204
-193 -49 -25 -102 -58 -118 -75 -50 -50 -118 -135 -118 -146 0 -6 -59 -71
-132 -145 -120 -123 -134 -140 -155 -202 -14 -37 -27 -78 -30 -92 -7 -32 -60
-104 -113 -155 -52 -49 -90 -107 -90 -137 -1 -13 -7 -34 -15 -48 -19 -33 -19
-160 0 -233 18 -68 21 -267 4 -284 -6 -6 -12 -48 -15 -94 -2 -46 -9 -88 -14
-93 -6 -6 -10 -18 -10 -27 0 -10 -17 -53 -39 -96 -21 -43 -43 -94 -50 -114
-14 -44 -15 -345 -1 -354 6 -3 10 -19 10 -34 0 -57 57 -142 183 -271 147 -153
177 -192 177 -237 0 -18 4 -41 9 -51 22 -44 41 -94 41 -110 1 -64 65 -168 169
-273 47 -48 96 -100 108 -116 23 -31 91 -136 109 -168 24 -43 69 -57 172 -57
109 1 162 17 264 79 21 13 48 23 60 23 13 0 32 7 42 15 31 24 225 21 257 -3
95 -72 148 -77 252 -26 16 8 34 14 40 14 7 0 56 23 110 50 55 28 106 50 115
50 10 0 26 7 36 15 11 8 37 15 57 15 21 0 41 5 45 11 6 10 38 9 112 -7 25 -5
41 -19 67 -59 19 -29 35 -56 35 -62 0 -19 77 -81 138 -111 60 -30 71 -32 170
-32 l106 0 58 -57 58 -57 0 -61 c-1 -33 -7 -71 -15 -85 -8 -14 -14 -39 -15
-55 0 -17 -5 -36 -11 -42 -6 -6 -11 -66 -12 -144 -2 -133 -2 -134 28 -183 17
-26 35 -57 41 -67 6 -10 18 -27 26 -36 9 -10 23 -31 32 -48 9 -16 30 -48 47
-70 45 -60 159 -232 159 -239 0 -3 13 -25 30 -47 38 -53 111 -203 123 -254 5
-22 12 -87 16 -145 4 -58 13 -118 20 -135 7 -16 29 -62 47 -101 48 -101 47
-193 -3 -311 -7 -17 -13 -35 -13 -40 0 -5 -11 -33 -25 -61 -14 -29 -25 -56
-25 -62 0 -10 -5 -21 -34 -77 -9 -17 -16 -40 -16 -51 0 -12 -4 -24 -10 -27 -6
-3 -10 -16 -10 -28 0 -13 -6 -31 -14 -42 -20 -30 -28 -85 -33 -244 -3 -93 0
-148 6 -154 6 -6 11 -24 11 -39 0 -16 4 -36 9 -46 26 -47 71 -150 71 -160 0
-7 5 -12 10 -12 6 0 10 -6 10 -14 0 -8 11 -28 25 -44 14 -17 25 -33 25 -37 0
-12 61 -88 154 -191 l55 -60 4 -225 c4 -223 10 -282 30 -308 6 -7 15 -36 19
-65 13 -89 20 -120 34 -141 8 -11 14 -30 14 -42 0 -13 4 -31 10 -41 5 -9 22
-44 38 -77 55 -112 99 -176 186 -270 l46 -50 0 -107 c0 -60 4 -116 9 -126 6
-9 12 -29 15 -43 13 -59 160 -179 221 -179 11 0 26 -5 32 -11 7 -7 27 -9 50
-6 21 4 56 9 78 12 64 10 189 70 235 112 29 26 58 29 86 8 27 -21 242 -21 270
0 10 8 29 15 40 15 12 0 63 21 113 47 86 44 105 60 278 233 185 187 210 218
258 320 14 30 30 63 35 72 6 10 10 28 10 40 0 13 7 32 15 42 10 13 15 44 15
94 0 112 30 208 76 239 108 75 216 203 229 273 13 65 17 262 6 273 -6 6 -11
39 -11 74 0 54 4 69 33 110 17 26 34 50 37 53 3 3 27 32 52 65 47 61 147 162
178 180 10 6 46 35 80 65 34 30 70 59 79 64 9 5 34 24 55 43 22 18 45 33 51
33 6 0 43 31 82 70 67 65 113 136 113 173 0 9 4 19 10 22 6 4 10 81 10 199 0
153 3 196 15 212 8 10 15 31 15 46 0 15 8 43 17 62 15 32 15 38 1 73 -9 21
-22 53 -29 71 -6 18 -33 54 -58 80 -81 82 -81 82 -81 227 -1 98 -4 135 -15
149 -8 11 -15 30 -15 42 0 13 -4 26 -10 29 -22 14 -1 128 28 157 7 7 12 18 12
26 0 15 19 42 98 135 28 34 52 67 52 73 0 6 9 19 20 29 11 10 30 39 42 64 12
25 27 53 34 61 6 8 24 38 38 66 15 29 36 60 46 69 11 10 20 23 20 29 1 6 61
74 135 151 74 77 135 144 135 148 0 4 29 39 65 77 36 38 65 73 65 78 0 5 11
22 25 38 31 35 51 74 60 114 4 16 11 32 16 35 5 4 9 14 9 24 0 23 46 117 76
158 13 17 24 35 24 38 0 4 15 39 34 78 18 40 41 97 51 127 10 30 21 62 26 70
24 43 61 134 80 195 6 22 18 52 25 67 8 14 14 35 14 46 0 11 10 42 21 69 34
75 58 228 40 246 -6 6 -11 24 -11 40 0 33 -59 128 -95 151 -40 26 -137 21
-185 -9 -22 -14 -41 -25 -43 -25 -2 0 -41 -25 -87 -56 -144 -96 -269 -140
-316 -112 -69 42 -103 70 -109 89 -19 59 -137 187 -249 269 -92 68 -127 105
-162 175 -20 38 -45 79 -55 91 -11 11 -19 25 -19 30 0 6 -14 23 -31 40 -17 16
-40 45 -51 64 -12 19 -51 67 -87 106 -36 40 -76 85 -89 102 -41 55 -92 159
-92 188 0 16 -7 38 -15 48 -8 11 -15 32 -15 46 0 15 -7 42 -16 61 -22 45 -86
143 -96 147 -4 2 -8 12 -8 22 0 9 -7 23 -15 30 -8 7 -15 18 -15 25 0 7 -7 26
-15 41 -8 16 -15 39 -15 51 0 12 -4 25 -10 28 -5 3 -10 22 -10 41 0 47 -41
125 -85 160 -83 67 -136 118 -150 147 -17 34 -21 162 -5 172 12 8 14 318 1
343 -5 9 -19 40 -31 67 -13 28 -30 58 -39 69 -23 26 -87 66 -108 66 -10 0 -37
8 -61 17 -38 14 -50 15 -86 4 -22 -7 -63 -16 -91 -21 -73 -12 -139 -30 -149
-41 -17 -16 -142 -11 -156 6 -7 8 -20 15 -29 16 -9 0 -29 9 -46 19 -16 11 -46
29 -65 40 -19 11 -42 24 -50 30 -32 20 -169 80 -182 80 -8 0 -23 7 -34 15 -10
8 -31 15 -46 15 -16 0 -28 5 -28 10 0 6 -13 10 -28 10 -16 0 -37 7 -48 15 -13
10 -45 14 -99 15 l-81 0 -46 -47 c-26 -27 -66 -82 -89 -123 -37 -66 -56 -95
-100 -147 -35 -44 -170 38 -262 160 -31 41 -141 107 -180 107 -14 0 -29 5 -32
10 -3 6 -34 10 -69 10 -39 0 -69 5 -82 15 -10 8 -28 15 -40 15 -11 0 -30 10
-42 23 -19 20 -22 35 -22 105 0 45 -4 90 -9 100 -5 9 -16 33 -25 52 -57 121
-137 224 -198 255 -36 17 -253 22 -263 5 -3 -5 -14 -10 -24 -10 -10 0 -32 -7
-47 -15 -51 -26 -109 -20 -260 26 -37 11 -104 11 -124 -1z m654 -123 c22 -12
44 -31 50 -42 6 -11 21 -34 33 -52 30 -41 29 -81 -2 -127 -14 -20 -25 -43 -25
-51 0 -8 -4 -16 -9 -19 -4 -3 -11 -28 -13 -55 -3 -28 -14 -62 -27 -80 -13 -18
-25 -50 -28 -72 -3 -22 -10 -42 -14 -45 -5 -3 -9 -22 -9 -43 0 -45 -14 -61
-55 -61 -38 0 -146 55 -193 98 -40 35 -50 39 -58 18 -14 -37 71 -156 112 -156
8 0 14 -4 14 -9 0 -5 10 -11 23 -13 28 -4 35 -42 13 -67 -9 -10 -36 -26 -59
-37 -60 -25 -71 -35 -55 -45 21 -14 101 -10 128 6 14 8 36 15 50 15 14 0 34 7
44 15 11 8 34 15 52 15 18 0 36 5 39 10 3 6 14 10 25 10 10 0 42 16 71 35 29
20 59 39 67 44 22 13 -13 61 -44 61 -42 0 -43 24 -5 85 11 17 20 37 20 46 1 9
10 24 21 34 19 17 20 16 51 -9 49 -42 111 -67 170 -70 30 -1 64 -8 76 -14 12
-7 37 -12 56 -12 53 0 86 -22 178 -118 47 -49 97 -95 111 -103 15 -8 56 -29
93 -48 37 -19 69 -41 72 -48 3 -7 -6 -32 -19 -55 -25 -46 -84 -86 -130 -87
-15 -1 -29 -5 -33 -10 -3 -5 -20 -13 -37 -17 -18 -3 -49 -17 -70 -30 -21 -13
-42 -24 -48 -24 -18 0 -83 -46 -119 -84 -19 -20 -40 -36 -47 -36 -6 0 -28 -13
-49 -30 -21 -16 -48 -30 -61 -30 -12 0 -26 -4 -29 -10 -3 -5 -27 -10 -53 -10
-26 -1 -58 -7 -72 -15 -16 -9 -55 -14 -112 -15 -48 0 -90 -4 -93 -10 -3 -5
-27 -10 -53 -10 -56 0 -83 -16 -146 -87 -26 -29 -73 -66 -104 -83 -53 -29 -62
-31 -127 -25 -38 4 -265 9 -503 11 -372 4 -434 7 -439 19 -10 27 17 45 66 45
25 0 59 7 75 15 19 10 58 15 122 15 51 0 96 4 99 10 4 6 66 10 154 10 130 0
150 2 164 18 14 15 15 21 4 35 -16 21 -142 87 -166 87 -10 0 -24 7 -31 15 -7
8 -22 15 -33 15 -21 0 -107 38 -107 47 0 2 5 13 10 24 9 15 22 19 65 19 29 0
57 5 60 10 3 6 43 10 89 10 52 0 87 5 94 12 8 8 56 15 115 19 125 8 171 19
175 42 4 18 -62 21 -428 22 -58 0 -125 6 -150 12 -28 8 -119 13 -237 13 -225
0 -221 -3 -153 102 22 34 40 72 40 84 0 13 5 26 10 29 6 3 10 21 10 38 0 52
11 60 66 53 27 -4 78 -10 114 -14 36 -4 74 -13 85 -19 11 -7 37 -15 58 -18 29
-5 37 -10 37 -27 0 -12 -10 -32 -21 -44 -32 -34 -19 -58 28 -51 37 6 93 51 93
74 0 7 11 19 25 25 22 10 25 17 25 67 0 44 6 65 25 93 14 20 25 43 25 50 0 8
5 19 11 25 6 6 8 16 5 22 -9 15 -49 14 -64 -1 -17 -17 -50 16 -54 55 -3 35
-61 81 -113 91 -16 3 -45 8 -64 12 -49 10 -54 -10 -13 -54 36 -39 132 -179
132 -193 0 -19 -24 -19 -63 -1 -44 20 -192 28 -203 11 -3 -5 -36 -9 -74 -9
-68 0 -68 0 -91 38 -13 20 -29 43 -36 50 -8 8 -20 27 -28 43 -9 16 -19 29 -24
29 -4 0 -30 15 -57 33 -37 24 -63 33 -109 37 -87 7 -85 26 10 120 41 41 75 81
75 90 1 8 13 33 28 55 40 57 68 59 164 9 38 -20 301 -20 317 0 7 8 35 16 64
19 71 7 103 15 164 43 28 13 57 24 63 24 6 0 32 12 57 26 50 28 63 28 203 4
96 -17 232 -11 255 11 5 5 20 9 35 9 14 1 36 7 50 15 36 21 79 18 124 -8z
m1371 -547 c3 -5 19 -10 34 -10 15 0 36 -7 47 -15 10 -8 27 -15 36 -15 15 0
78 -24 175 -67 18 -7 35 -18 38 -23 3 -6 13 -10 21 -10 8 0 36 -15 62 -33 26
-19 65 -42 87 -51 22 -10 48 -22 57 -27 10 -5 29 -9 43 -9 13 0 40 -7 59 -17
32 -15 38 -15 78 0 24 10 60 17 80 17 20 0 40 5 43 10 3 6 23 10 43 10 20 0
46 7 56 15 13 10 43 15 88 15 61 0 70 -3 103 -31 64 -57 68 -72 65 -274 -2
-99 -2 -219 -1 -267 2 -83 1 -87 -23 -103 -37 -25 -92 -34 -130 -24 -37 10
-67 46 -106 123 -32 63 -88 115 -146 138 -44 16 -51 16 -96 1 -47 -15 -90 -44
-136 -90 -33 -34 -52 -20 -52 37 0 27 -5 61 -10 76 -6 14 -13 60 -17 100 -3
42 -12 79 -19 85 -8 7 -37 8 -81 4 -103 -10 -262 -9 -318 2 -63 12 -87 25
-152 87 -48 45 -55 48 -91 44 -71 -10 -95 27 -47 72 14 13 25 28 25 33 0 6 16
34 35 63 19 29 35 57 35 63 0 6 14 26 31 46 30 34 71 46 84 25z m-3365 -366
c20 -51 71 -114 105 -128 19 -8 53 -32 77 -54 24 -21 61 -47 83 -56 22 -10 48
-22 57 -27 10 -5 28 -9 41 -9 13 0 32 -7 43 -15 10 -8 36 -15 56 -15 20 0 40
-4 43 -10 3 -5 20 -10 37 -10 16 0 44 -6 61 -14 33 -15 62 -22 132 -34 26 -5
40 -12 40 -22 0 -12 -25 -16 -145 -20 -80 -3 -152 -9 -160 -15 -8 -5 -51 -13
-95 -17 -128 -12 -194 -23 -207 -36 -7 -7 -23 -12 -38 -12 -14 0 -36 -9 -50
-20 -21 -17 -23 -21 -10 -30 8 -5 23 -10 32 -10 9 0 19 -4 22 -8 15 -24 -21
-30 -224 -36 -118 -3 -245 -9 -282 -12 l-68 -6 -70 67 c-41 40 -70 77 -70 88
0 11 28 51 63 88 78 86 125 143 163 196 16 23 40 47 54 52 14 6 41 19 60 29
19 11 52 28 73 38 21 11 46 26 56 35 23 22 72 47 94 48 10 1 22 -10 27 -25z
m-630 -607 c0 -87 2 -95 25 -117 19 -18 25 -33 23 -55 -4 -45 -39 -45 -88 -1
-22 20 -45 36 -50 36 -6 0 -15 12 -21 26 -7 20 -6 32 6 50 8 13 15 32 15 42 0
16 21 63 43 100 5 6 17 12 28 12 17 0 19 -8 19 -93z m5415 -97 c24 -26 45 -85
45 -126 0 -16 7 -39 15 -50 8 -10 15 -26 15 -34 0 -19 65 -148 85 -171 8 -8
15 -18 15 -21 0 -3 18 -37 40 -74 24 -42 40 -81 40 -101 0 -17 5 -35 10 -38 6
-3 10 -18 10 -33 0 -54 100 -222 186 -312 29 -30 62 -68 75 -85 12 -16 39 -48
60 -70 36 -38 61 -79 118 -190 14 -27 47 -70 72 -95 57 -56 168 -148 194 -162
29 -16 85 -70 85 -83 0 -6 16 -30 35 -52 19 -23 35 -49 35 -60 0 -10 -21 -37
-47 -60 -40 -36 -55 -43 -90 -43 -23 0 -54 -5 -69 -10 -34 -13 -72 -1 -120 37
-72 57 -164 162 -164 187 0 9 -4 16 -10 16 -5 0 -10 6 -10 14 0 7 -13 30 -30
51 -16 21 -30 43 -30 49 0 23 -124 134 -157 141 -18 4 -35 11 -38 16 -10 15
-157 10 -185 -6 -14 -8 -35 -14 -48 -15 -22 0 -29 -3 -89 -34 -17 -9 -45 -16
-61 -16 -17 0 -34 -4 -37 -10 -12 -19 -92 -11 -136 15 -53 30 -88 31 -137 6
-47 -24 -116 -96 -108 -110 4 -6 38 -11 79 -11 62 -1 80 -5 130 -34 97 -54 97
-55 97 -145 0 -87 -5 -111 -25 -111 -8 0 -27 -11 -43 -25 -20 -16 -42 -25 -65
-25 -53 0 -144 26 -174 50 -42 33 -143 28 -219 -10 -33 -16 -73 -43 -89 -60
l-29 -30 -163 0 c-193 0 -189 -3 -192 124 -2 60 -8 90 -26 125 -13 25 -26 57
-29 71 -3 14 -17 38 -31 54 -14 16 -25 33 -25 39 0 5 -31 41 -68 81 -38 39
-76 82 -85 96 -22 32 -23 146 -2 174 8 11 15 32 15 48 0 15 5 28 10 28 6 0 10
5 10 12 0 6 29 71 65 145 75 153 144 238 201 249 19 3 37 10 40 15 3 5 15 9
27 9 12 0 58 18 102 40 44 22 86 40 93 40 7 0 33 -11 58 -25 49 -27 102 -32
137 -12 12 6 41 29 64 50 59 51 111 52 194 1 48 -30 64 -35 91 -30 18 4 49 9
68 12 19 3 50 12 68 20 28 13 32 20 32 53 0 25 -7 44 -20 56 -11 10 -20 24
-20 31 0 16 103 94 125 94 22 0 19 42 -5 86 -47 82 -63 179 -40 238 12 32 49
35 75 6z m-3810 -45 c303 -3 560 -7 573 -10 12 -3 22 -12 22 -19 0 -35 54
-110 96 -135 51 -31 89 -26 189 24 50 25 96 45 103 45 9 0 12 -14 10 -47 l-3
-48 -45 -5 c-25 -3 -55 -11 -67 -18 -12 -7 -34 -12 -50 -12 -30 0 -64 -27
-108 -84 -21 -27 -26 -43 -23 -78 3 -38 7 -45 40 -63 33 -18 41 -18 70 -6 18
7 47 16 63 18 17 3 39 13 50 23 24 20 83 50 100 50 16 0 51 -18 92 -47 17 -13
35 -23 40 -23 5 0 14 -5 21 -12 29 -29 134 -49 147 -28 3 6 25 10 49 10 23 0
48 6 54 13 9 8 63 13 176 15 135 3 169 1 194 -12 17 -9 40 -16 52 -16 18 0 37
-7 80 -32 8 -4 24 -12 35 -17 28 -13 90 -80 109 -118 9 -18 16 -56 16 -86 0
-31 6 -61 15 -73 8 -10 15 -30 15 -44 0 -29 21 -91 36 -111 27 -35 44 -125 44
-230 0 -61 4 -110 10 -114 6 -3 10 -19 10 -34 0 -32 21 -77 65 -141 71 -102
107 -192 112 -280 4 -55 1 -70 -17 -93 -19 -23 -29 -27 -75 -27 -30 0 -57 -4
-60 -10 -3 -5 -26 -10 -49 -10 -51 0 -129 -32 -150 -61 -14 -20 -22 -21 -339
-19 -215 0 -328 -3 -332 -10 -3 -5 -22 -10 -41 -10 -19 0 -47 -6 -62 -14 -22
-11 -80 -14 -274 -14 -171 1 -251 -2 -261 -10 -7 -6 -31 -15 -52 -20 -21 -4
-40 -13 -43 -20 -3 -9 163 -12 760 -12 657 0 767 -2 792 -15 15 -8 38 -15 49
-15 20 0 65 -12 115 -31 28 -11 40 -38 21 -50 -8 -5 -73 -9 -145 -9 -112 0
-133 -2 -138 -16 -9 -22 10 -42 42 -46 21 -2 27 -8 27 -28 0 -40 -52 -60 -160
-61 -49 0 -204 -6 -343 -12 -204 -10 -255 -15 -262 -27 -7 -11 -4 -20 11 -32
16 -14 39 -18 95 -18 69 0 74 -1 80 -24 6 -27 41 -46 85 -46 39 0 50 -27 20
-51 l-22 -18 40 -21 c23 -11 41 -27 41 -35 0 -13 -82 -15 -667 -13 l-667 3
-40 59 c-28 39 -57 68 -91 87 -48 27 -56 28 -180 29 -120 0 -134 2 -187 28
-37 17 -57 33 -55 42 2 16 45 21 315 36 94 5 132 11 132 19 0 22 -27 25 -225
25 -107 0 -196 4 -199 9 -3 5 -21 12 -40 15 -18 4 -41 15 -50 25 -15 16 -15
19 -1 31 17 14 61 16 480 28 239 6 280 9 280 22 0 13 -33 16 -215 21 -468 13
-559 24 -600 73 -25 31 0 36 169 36 139 0 171 3 181 15 7 9 11 17 9 19 -2 2
-71 8 -154 14 -157 11 -185 17 -185 36 1 10 104 66 123 66 4 0 30 11 59 25
l52 25 666 0 c586 0 668 2 688 16 31 21 28 37 -10 55 -132 63 -218 99 -237 99
-9 0 -22 5 -28 11 -21 21 -339 -2 -406 -29 -16 -7 -43 -12 -60 -12 -18 0 -38
-4 -46 -9 -16 -10 -71 12 -71 29 0 5 -17 37 -39 72 -40 64 -65 136 -40 111 21
-20 27 -16 63 40 19 28 47 64 63 79 15 14 48 47 73 72 45 45 76 56 97 35 20
-20 57 -1 96 49 44 58 45 74 12 127 -13 22 -25 50 -25 62 0 12 -11 43 -25 69
-28 52 -31 84 -13 113 18 29 -17 89 -62 108 -19 8 -55 23 -80 35 -34 16 -48
18 -62 9 -25 -15 -36 -14 -65 9 -38 30 -54 26 -46 -10 7 -36 -2 -37 -56 -8
-36 19 -43 20 -66 8 -21 -11 -30 -12 -45 -2 -11 7 -26 12 -34 12 -7 0 -19 7
-26 15 -18 21 -29 19 -40 -10 -9 -22 -15 -25 -63 -25 -55 0 -76 -12 -91 -53
-3 -11 -15 -21 -26 -24 -26 -7 -26 -30 0 -38 11 -3 20 -13 20 -21 0 -11 -21
-14 -110 -14 -61 0 -118 4 -128 9 -73 40 -81 41 -316 41 l-231 -1 -59 -33
c-85 -48 -124 -82 -141 -122 -19 -45 -22 -271 -5 -305 18 -35 62 -80 88 -90
36 -14 30 -62 -13 -102 -31 -28 -35 -37 -35 -82 0 -28 -5 -56 -12 -63 -7 -7
-45 -12 -98 -12 -55 -1 -94 -6 -110 -15 -14 -8 -44 -14 -67 -15 -23 0 -45 -4
-48 -10 -7 -12 -168 -13 -193 -2 -9 5 -33 17 -52 27 -136 72 -119 69 -313 67
-160 -1 -178 1 -183 16 -3 9 -10 25 -15 34 -5 10 -9 31 -9 48 0 17 -7 47 -15
67 -19 45 -19 130 0 163 8 14 14 35 15 47 0 12 16 57 36 100 57 125 62 136 69
168 16 71 23 236 17 456 -3 129 -2 247 2 262 6 27 105 141 137 157 21 12 49 3
49 -15 0 -31 98 -105 140 -105 22 0 40 -20 40 -45 0 -36 -20 -45 -96 -45 -79
0 -91 -7 -69 -36 8 -10 15 -25 15 -33 0 -7 8 -21 18 -30 11 -9 24 -26 31 -38
15 -29 78 -33 88 -5 12 30 64 102 81 111 9 5 40 12 67 16 58 9 76 22 120 91
24 36 46 58 79 74 26 12 45 27 43 34 -2 6 -21 19 -43 30 -32 15 -44 16 -70 7
-17 -6 -39 -11 -49 -11 -23 0 -44 28 -45 58 l0 23 418 -5 c229 -3 665 -8 967
-11z m1578 -87 c87 -59 150 -138 159 -198 8 -55 3 -60 -67 -60 l-63 0 -21 43
c-24 50 -98 91 -189 104 -18 3 -37 13 -42 23 -13 25 -1 58 24 65 82 22 103 28
121 35 32 13 45 11 78 -12z m267 -5 c146 -23 140 -21 140 -45 0 -27 -27 -58
-51 -58 -9 0 -38 -23 -63 -51 -52 -58 -76 -60 -76 -6 0 39 -37 111 -75 147
-33 31 -32 44 3 35 15 -3 70 -13 122 -22z m279 -40 c52 -30 52 -66 0 -97 -39
-23 -55 -62 -37 -94 17 -32 82 -62 134 -62 23 0 46 -6 51 -12 6 -7 13 -38 16
-69 3 -31 10 -65 15 -75 42 -78 54 -153 32 -195 -25 -45 -70 -9 -137 108 -92
162 -179 253 -240 253 -24 0 -63 32 -63 52 0 16 40 58 56 58 22 0 104 90 104
114 0 41 20 46 69 19z m447 -168 c21 -29 33 -35 63 -35 40 0 67 -13 57 -28 -3
-5 -30 -21 -60 -35 -58 -28 -186 -144 -186 -170 0 -21 -25 -38 -44 -31 -9 3
-16 16 -16 28 -1 11 -7 32 -15 46 -8 14 -14 52 -15 86 0 67 10 82 83 119 20
11 40 28 43 37 10 32 59 23 90 -17z m434 17 c91 -10 91 -27 -2 -118 -40 -40
-97 -88 -127 -108 -50 -34 -58 -36 -130 -36 -52 0 -83 -5 -97 -15 -10 -8 -29
-15 -42 -15 -12 0 -34 -7 -47 -16 -25 -16 -45 -12 -45 10 0 21 83 91 143 122
53 26 157 126 157 150 0 4 8 16 17 27 14 15 26 18 63 13 25 -4 74 -10 110 -14z
m-3878 -722 c-1 -14 -7 -34 -13 -46 -11 -21 -7 -129 6 -191 6 -25 4 -34 -9
-39 -21 -8 -46 13 -46 40 0 11 -7 30 -15 40 -19 25 -19 103 0 140 8 15 15 33
15 39 0 18 33 48 49 44 10 -2 15 -12 13 -27z m363 -340 c19 -21 71 -50 90 -50
6 0 16 -5 23 -12 32 -32 211 -54 227 -28 9 15 45 12 51 -4 3 -7 -6 -39 -20
-71 -15 -32 -26 -69 -26 -84 -1 -39 -37 -76 -110 -111 -36 -17 -77 -37 -92
-45 -14 -8 -39 -15 -55 -15 -16 0 -34 -5 -40 -11 -18 -18 -138 3 -203 35 -25
12 -40 29 -49 54 -29 83 -28 85 38 222 62 128 71 140 111 140 24 0 43 -7 55
-20z m623 -116 c5 -42 29 -64 70 -64 40 0 97 -38 108 -72 3 -12 22 -44 41 -71
49 -69 43 -75 -69 -70 -51 2 -102 8 -113 12 -67 26 -128 41 -168 41 -45 0 -57
10 -57 47 0 8 18 36 40 62 22 26 40 51 40 56 0 15 83 96 95 92 5 -2 12 -17 13
-33z m4209 -86 c13 -12 23 -26 23 -31 0 -5 11 -22 25 -39 14 -16 25 -35 25
-42 0 -17 105 -116 123 -116 19 0 50 -36 42 -49 -4 -7 -49 -11 -115 -11 l-108
0 -4 109 c-3 104 -4 110 -30 135 -31 28 -31 27 -22 50 8 21 13 20 41 -6z
m-233 -118 c20 -22 36 -42 36 -45 0 -22 -31 -56 -80 -87 -52 -34 -65 -38 -123
-38 -50 0 -66 4 -71 16 -8 20 -8 102 1 133 8 32 74 59 144 60 54 1 59 -1 93
-39z m157 -10 c10 -6 19 -17 19 -25 0 -9 6 -25 13 -36 11 -19 8 -25 -33 -60
-37 -32 -53 -39 -87 -39 -58 0 -64 17 -20 54 21 17 37 36 37 41 0 13 38 75 46
75 3 0 14 -5 25 -10z m-5114 -205 c26 -13 69 -33 96 -44 34 -15 47 -26 47 -41
0 -20 -5 -20 -222 -20 -123 0 -279 -6 -348 -12 -69 -7 -183 -12 -254 -13
l-129 0 -29 50 c-39 69 -41 73 -34 90 5 13 60 15 415 15 l409 0 49 -25z m68
-185 c3 -5 25 -10 48 -10 84 0 188 -53 160 -81 -5 -5 -110 -10 -233 -11 -203
-3 -225 -5 -228 -20 -3 -16 16 -18 220 -21 240 -4 301 -12 306 -40 3 -13 -3
-17 -25 -17 -15 0 -37 -7 -47 -15 -11 -8 -32 -15 -47 -15 -15 0 -31 -4 -34
-10 -4 -6 -159 -10 -434 -10 l-427 0 -37 34 c-20 18 -37 42 -37 53 0 10 -6 27
-14 38 -15 23 -30 118 -19 128 11 11 841 8 848 -3z m4905 -29 c19 -8 49 -20
65 -26 17 -7 48 -18 70 -25 22 -7 55 -19 73 -26 18 -8 41 -14 52 -14 10 0 22
-4 25 -10 3 -5 17 -10 31 -10 13 0 43 -12 67 -26 65 -41 184 -168 208 -221 11
-27 33 -74 49 -105 31 -60 31 -88 -1 -88 -24 0 -86 39 -118 74 -14 14 -30 26
-37 26 -7 0 -33 17 -58 38 -142 118 -112 112 -532 112 -309 0 -363 2 -374 15
-7 8 -16 15 -21 15 -5 0 -32 15 -61 33 -90 56 -128 66 -128 36 0 -13 69 -79
82 -79 5 0 35 -24 66 -54 54 -51 60 -54 122 -61 36 -3 193 -8 350 -11 216 -4
288 -8 300 -18 8 -8 30 -21 47 -30 18 -9 75 -67 127 -129 52 -61 149 -166 215
-232 110 -109 121 -123 121 -155 -1 -55 -30 -104 -64 -108 -16 -2 -33 1 -39 7
-6 6 -36 11 -66 11 -31 1 -74 7 -96 15 -22 8 -68 15 -102 15 -34 0 -65 5 -68
10 -3 6 -23 10 -43 10 -21 0 -47 7 -59 15 -17 12 -50 15 -152 14 -105 -1 -134
2 -152 15 -30 21 -167 22 -212 2 -18 -7 -48 -21 -69 -30 -112 -50 -207 6 -297
174 -13 25 -37 60 -53 78 -15 18 -28 38 -28 44 0 22 -159 168 -183 168 -13 0
-32 7 -43 15 -24 18 -55 19 -96 1 -83 -36 -107 -37 -588 -33 -272 2 -496 8
-523 14 -37 8 -60 21 -94 55 -47 47 -49 68 -8 68 20 0 24 5 22 23 -2 18 4 23
28 25 17 2 34 8 39 13 6 5 57 9 115 9 66 1 121 6 146 15 23 8 76 15 123 15 53
0 81 4 77 10 -3 6 -20 10 -36 10 -41 0 -69 16 -69 40 0 26 29 40 83 40 31 0
55 8 81 25 36 24 41 25 225 25 158 0 191 3 201 15 27 32 -4 40 -176 45 -151 5
-167 7 -180 25 -21 29 -14 67 16 82 39 20 1551 14 1600 -6z m865 9 l26 -10 -5
-102 c-3 -57 -9 -139 -13 -183 -8 -78 -9 -80 -35 -83 -16 -2 -28 2 -28 8 0 5
-18 40 -40 76 -22 36 -40 68 -40 70 0 1 -14 23 -30 48 -36 53 -73 84 -109 93
-14 3 -30 9 -36 13 -5 4 -23 10 -40 13 -16 3 -47 11 -67 19 -97 37 -56 48 184
48 114 0 218 -4 233 -10z m592 -13 c34 -34 10 -122 -67 -237 -6 -8 -14 -24
-19 -35 -5 -11 -19 -29 -31 -40 -13 -11 -38 -42 -55 -70 -18 -27 -47 -63 -64
-79 -17 -17 -31 -35 -31 -42 0 -20 -68 -74 -86 -67 -13 5 -15 17 -9 67 3 33 9
117 14 186 14 221 37 311 84 330 12 5 72 9 134 7 92 -2 116 -5 130 -20z
m-6533 -278 c27 -5 169 -9 317 -9 168 0 270 -4 274 -10 3 -5 18 -10 33 -10 30
0 132 -47 163 -75 39 -36 26 -52 -92 -110 -124 -61 -162 -67 -217 -33 -50 31
-105 41 -207 40 -119 -1 -191 -11 -206 -28 -6 -8 -22 -14 -34 -14 -12 0 -49
-16 -81 -35 -32 -19 -65 -35 -74 -35 -9 0 -31 -7 -48 -16 -41 -20 -102 -15
-116 10 -35 62 -76 124 -90 135 -9 7 -16 19 -16 25 0 6 -25 36 -56 66 -69 68
-80 86 -63 107 12 13 42 14 239 8 124 -4 247 -11 274 -16z m1843 -322 c22 -10
24 -16 21 -66 -4 -65 -22 -77 -61 -38 -46 47 -79 57 -189 57 -84 0 -107 4
-127 19 -46 35 -20 42 161 40 100 0 181 -5 195 -12z m2027 -6 c10 -11 16 -25
15 -30 -4 -10 -55 -68 -201 -228 -55 -60 -68 -81 -68 -107 0 -34 39 -79 93
-106 25 -12 30 -11 59 10 31 23 71 34 170 46 44 6 49 4 76 -26 17 -18 33 -46
35 -64 3 -17 13 -60 23 -96 9 -36 19 -87 21 -115 3 -27 11 -59 19 -70 8 -11
14 -29 14 -40 0 -11 11 -51 25 -89 14 -38 25 -86 25 -107 0 -21 5 -41 10 -44
6 -3 10 -23 10 -44 0 -20 7 -46 15 -57 8 -10 15 -27 15 -36 0 -10 5 -18 10
-18 6 0 10 -8 10 -18 0 -10 6 -24 12 -30 13 -13 25 -96 34 -236 7 -92 -10
-164 -41 -176 -16 -6 -758 -7 -787 -1 -5 0 -8 7 -8 15 0 8 -11 28 -25 44 -21
25 -25 40 -25 95 0 36 4 68 8 71 5 3 32 -10 61 -29 29 -19 58 -35 65 -35 15 0
59 -46 75 -77 11 -21 19 -23 85 -23 60 0 76 4 91 20 10 11 27 22 39 26 27 8
56 34 56 49 0 7 -17 15 -39 19 -49 7 -70 30 -53 57 18 28 15 38 -13 49 -19 7
-25 17 -25 38 0 15 -5 33 -11 39 -6 6 -14 26 -18 44 -5 26 -21 44 -71 80 -37
27 -76 48 -92 48 -15 1 -30 6 -33 11 -3 6 -16 10 -29 10 -12 0 -31 7 -42 15
-10 8 -33 15 -51 15 -17 0 -35 5 -38 10 -4 6 -53 10 -115 10 -60 0 -121 5
-137 11 -28 12 -142 26 -290 35 -102 7 -201 -24 -248 -76 -10 -11 -24 -20 -30
-20 -7 0 -31 -18 -54 -40 -38 -37 -41 -44 -41 -95 0 -46 3 -55 18 -55 11 0 24
-14 35 -38 22 -50 21 -74 -3 -114 -27 -45 -25 -58 13 -104 19 -21 40 -50 47
-63 11 -22 10 -27 -8 -41 -17 -14 -31 -15 -89 -8 -75 10 -103 28 -103 67 0 29
-21 91 -57 171 -14 30 -30 66 -36 80 -7 14 -27 50 -47 80 -46 74 -90 158 -90
174 0 8 -7 27 -15 42 -8 16 -15 34 -15 39 0 6 7 23 15 39 8 15 15 43 15 60 0
18 7 41 15 52 8 10 15 36 15 56 0 20 5 40 10 43 6 3 10 17 10 31 0 16 17 44
50 78 28 29 50 58 50 64 0 28 125 102 174 102 11 0 30 7 40 15 11 8 30 15 42
15 13 0 26 5 29 10 3 6 21 10 40 10 19 0 36 4 39 9 3 5 22 12 42 16 37 6 44 9
101 39 17 9 40 16 50 16 51 0 111 140 67 157 -10 4 -33 -12 -68 -46 -47 -47
-56 -51 -98 -51 -26 0 -50 -4 -53 -10 -3 -5 -23 -10 -43 -10 -20 0 -50 -7 -66
-15 -15 -8 -47 -15 -70 -15 -22 0 -50 -7 -60 -15 -11 -8 -37 -15 -58 -15 -56
0 -84 -18 -168 -107 -92 -98 -126 -143 -151 -200 -14 -32 -24 -44 -36 -41 -14
3 -17 12 -15 43 1 22 5 83 8 135 6 90 8 97 40 132 19 21 34 43 34 48 0 15 291
301 330 325 19 11 49 30 69 42 36 23 36 23 541 23 278 1 523 5 545 9 22 5 90
9 151 10 98 1 113 -1 128 -18z m-1526 -23 c2 -11 -15 -28 -50 -51 -29 -18 -59
-41 -67 -50 -7 -10 -21 -17 -31 -17 -30 0 -173 -103 -201 -145 -15 -22 -33
-40 -39 -40 -34 0 -66 190 -36 214 10 8 16 29 16 52 0 26 6 41 18 48 10 7 89
10 202 8 164 -2 185 -4 188 -19z m2909 -434 c38 -14 81 -32 96 -40 16 -7 38
-14 50 -14 12 0 31 -7 41 -15 11 -8 39 -15 62 -15 24 0 46 -4 49 -10 3 -5 23
-10 44 -10 21 0 52 -7 67 -15 16 -8 39 -15 51 -15 31 0 41 -43 19 -80 -9 -16
-16 -38 -16 -50 0 -19 -15 -74 -40 -145 -13 -38 -28 -90 -35 -121 -3 -17 -21
-46 -40 -64 -19 -19 -35 -41 -35 -49 0 -8 -11 -26 -24 -40 -14 -15 -43 -61
-66 -104 -41 -75 -42 -82 -42 -168 0 -69 3 -94 16 -108 9 -10 16 -29 16 -42 0
-14 5 -30 11 -36 6 -6 9 -25 7 -44 -4 -45 -28 -50 -223 -47 l-160 3 -8 75
c-14 136 -4 235 31 313 23 51 28 96 13 125 -44 86 -52 147 -26 192 8 14 14 37
15 52 0 33 13 43 30 23 9 -11 11 -34 6 -78 -5 -48 -3 -68 9 -82 8 -11 15 -30
15 -42 0 -12 5 -25 10 -28 6 -4 10 -69 10 -161 0 -147 7 -194 30 -194 6 0 10
9 10 21 0 11 6 33 14 47 55 106 58 171 12 255 -14 25 -26 56 -26 69 0 13 -5
29 -11 35 -7 7 -9 35 -5 79 14 153 18 346 7 357 -6 6 -11 19 -11 29 0 10 -10
35 -23 56 -47 78 -53 92 -37 102 19 12 9 14 87 -16z m-441 -512 c5 -4 18 -29
28 -57 10 -27 29 -67 42 -87 13 -21 24 -43 24 -49 0 -6 10 -25 23 -42 45 -64
57 -96 57 -154 -1 -32 -7 -69 -15 -83 -8 -14 -14 -38 -15 -54 0 -15 -11 -49
-24 -75 -13 -25 -29 -59 -37 -75 -7 -15 -24 -32 -37 -37 -33 -13 -299 -11
-323 1 -18 10 -19 23 -19 178 0 115 4 172 12 180 9 9 9 18 0 37 -19 42 -15
215 5 245 24 36 29 38 111 46 41 3 86 13 101 20 29 15 51 17 67 6z m-403 -189
c17 -20 24 -98 32 -353 4 -117 2 -149 -10 -164 -21 -28 -45 -13 -45 28 0 19
-4 38 -10 41 -5 3 -10 39 -10 78 0 135 13 387 20 387 4 0 14 -8 23 -17z
m-1576 -354 c15 -15 340 -16 356 0 17 17 67 14 74 -6 3 -9 2 -32 -3 -52 -6
-23 -6 -46 0 -64 12 -32 -3 -65 -26 -58 -7 2 -88 4 -181 5 -166 2 -167 3 -195
29 -16 15 -32 27 -37 27 -5 0 -19 10 -32 22 -22 21 -33 85 -16 101 10 11 48 8
60 -4z m-332 -286 c14 -32 50 -46 139 -52 50 -4 81 -11 84 -18 2 -8 -5 -13
-18 -13 -34 0 -82 -29 -78 -48 3 -14 19 -18 84 -23 120 -9 214 -29 214 -45 0
-8 -7 -14 -15 -14 -9 0 -30 -7 -47 -16 -28 -15 -29 -17 -14 -32 14 -14 53 -18
254 -25 130 -4 298 -11 372 -13 78 -4 171 -1 220 6 122 16 135 21 135 50 l0
25 -150 7 c-201 9 -385 25 -393 33 -18 18 41 25 214 25 140 0 204 4 240 15 27
8 83 15 124 15 48 0 82 6 93 15 18 13 17 14 -12 29 -26 14 -86 16 -436 16
-382 0 -406 1 -403 18 2 12 15 18 43 20 22 2 44 8 49 13 6 5 24 9 40 9 17 1
42 7 56 15 21 12 103 14 468 15 l443 0 25 -25 c14 -14 36 -25 50 -25 34 0 41
-26 15 -54 -26 -27 -27 -46 -3 -46 27 0 108 -41 121 -62 9 -15 8 -20 -6 -24
-66 -22 -104 -41 -109 -56 -9 -28 4 -38 47 -38 51 0 101 -25 97 -48 -2 -9 -18
-25 -37 -34 -45 -22 -54 -38 -34 -60 8 -9 13 -24 10 -33 -6 -13 -45 -15 -295
-15 -236 0 -296 -3 -326 -15 -20 -8 -38 -15 -41 -15 -23 0 -26 -2 -23 -12 4
-10 96 -14 399 -18 351 -4 397 -7 426 -23 43 -23 35 -40 -38 -73 -33 -15 -58
-33 -56 -38 3 -8 182 -11 576 -12 l573 -2 15 -22 c13 -19 14 -28 5 -55 -7 -17
-12 -42 -12 -54 0 -13 -11 -36 -25 -53 -14 -16 -25 -36 -25 -44 0 -8 -7 -14
-15 -14 -9 0 -34 -17 -58 -37 -58 -52 -80 -63 -127 -63 -39 0 -47 2 -97 28
-27 14 -99 16 -107 3 -8 -12 -54 -21 -151 -30 -78 -8 -123 -20 -178 -48 -24
-12 -30 -12 -56 3 -40 24 -70 12 -109 -42 -34 -45 -35 -46 -80 -40 -26 3 -63
8 -82 11 -31 5 -41 1 -85 -36 -62 -51 -82 -59 -151 -59 -56 0 -118 -23 -144
-55 -7 -9 -26 -23 -42 -31 -26 -14 -29 -20 -26 -57 l3 -42 45 -3 c25 -2 62 2
82 9 32 10 42 9 80 -8 37 -18 65 -21 207 -21 110 -1 168 -5 177 -13 17 -14 84
-150 84 -171 0 -7 5 -19 10 -24 14 -14 8 -321 -7 -379 -15 -60 -89 -208 -118
-235 -53 -50 -64 -90 -83 -315 -5 -49 -13 -99 -19 -110 -7 -11 -25 -49 -42
-85 -21 -45 -52 -86 -99 -133 l-68 -68 -145 3 -144 3 -3 106 -3 107 41 75 c22
42 40 83 40 93 0 10 -18 44 -40 75 -42 60 -48 90 -28 145 9 26 9 38 -1 57 -9
17 -11 55 -6 138 14 285 16 402 6 412 -6 6 -11 19 -11 29 0 35 -74 154 -134
216 -33 34 -65 62 -71 62 -30 0 -139 148 -189 255 -11 22 -30 53 -42 68 -13
16 -24 36 -24 46 0 9 -10 37 -22 62 -32 66 -40 103 -47 216 -4 60 -11 107 -19
115 -6 6 -12 23 -12 36 0 13 -12 46 -26 72 -23 43 -26 57 -22 130 l3 81 -25
-6 c-14 -4 -56 -10 -95 -14 -54 -5 -86 -15 -140 -45 -140 -77 -142 -106 -8
-119 35 -4 71 -11 80 -16 10 -5 31 -13 47 -17 17 -5 38 -23 50 -44 19 -32 22
-57 28 -285 8 -289 15 -384 32 -405 24 -28 38 -80 33 -112 -16 -88 -20 -104
-35 -115 -22 -18 -114 -16 -138 2 -23 18 -48 19 -77 3 -12 -6 -44 -12 -70 -12
-42 -1 -53 -6 -78 -34 -16 -18 -29 -38 -29 -46 0 -8 -12 -21 -26 -31 -22 -14
-25 -22 -23 -63 2 -26 2 -73 1 -104 -2 -53 -5 -60 -52 -111 -67 -73 -156 -117
-175 -86 -4 6 9 43 28 82 43 90 87 186 87 192 0 2 16 37 35 76 19 40 35 80 35
89 0 33 39 70 74 70 48 0 139 44 191 91 35 32 45 49 45 73 0 49 -24 76 -68 76
-48 0 -58 7 -78 55 -24 59 -42 75 -85 75 -31 0 -43 6 -67 36 -29 34 -32 36
-74 30 -23 -4 -72 -10 -107 -12 l-64 -6 -37 41 -38 41 -88 0 c-89 1 -89 1
-109 32 -11 18 -31 35 -45 38 -31 7 -38 42 -17 85 8 16 20 50 27 75 6 25 23
68 36 95 13 28 24 54 24 58 0 5 7 24 15 43 8 19 22 49 30 68 8 19 15 41 15 49
0 9 5 19 10 22 6 3 10 19 10 35 0 16 5 32 10 35 6 3 10 40 10 81 0 67 -4 84
-41 160 -22 46 -45 86 -50 90 -13 8 -11 78 3 92 7 7 30 12 53 10 30 -2 42 -9
50 -25z m2969 21 c12 -4 16 -20 16 -56 0 -49 2 -53 74 -129 84 -87 99 -125 72
-177 -10 -19 -16 -56 -16 -96 0 -72 -22 -141 -52 -168 -26 -23 -110 -25 -128
-3 -10 12 -39 15 -138 15 -130 0 -276 24 -269 45 2 6 53 12 123 15 65 3 126 9
134 15 8 5 33 12 54 15 22 3 41 11 43 17 8 24 -51 37 -192 43 -139 7 -254 25
-267 44 -13 19 12 44 49 51 21 4 101 10 178 13 113 6 140 10 143 22 3 18 -50
50 -83 50 -13 0 -27 5 -30 10 -4 6 -63 10 -144 10 -100 0 -150 4 -184 16 -57
19 -64 29 -41 55 15 16 31 19 114 19 64 0 110 5 133 15 20 8 48 15 61 15 32 0
51 32 37 59 -11 20 -77 35 -161 36 -36 0 -45 4 -48 19 -2 10 2 22 10 27 15 10
488 12 512 3z m-2762 -1631 c10 -9 18 -22 18 -28 0 -19 -79 -185 -87 -185 -28
1 -73 71 -73 113 0 13 7 32 15 43 8 10 15 28 15 40 0 11 3 24 7 27 13 14 87 7
105 -10z m618 -129 c-12 -151 0 -299 28 -351 8 -15 12 -105 12 -304 0 -286 0
-290 -41 -425 -5 -17 -9 -39 -9 -50 0 -11 -7 -29 -15 -40 -8 -10 -15 -27 -15
-36 0 -38 -37 -48 -184 -48 l-139 0 -46 49 c-70 73 -130 164 -159 241 -5 14
-17 42 -26 63 -9 21 -16 46 -16 57 0 10 -4 22 -10 25 -5 3 -10 23 -10 43 -1
20 -7 48 -15 62 -8 14 -14 42 -15 62 0 20 -4 40 -10 43 -5 3 -10 36 -10 73 l0
67 42 25 c22 14 57 35 77 48 20 12 45 26 56 31 33 15 67 57 146 179 20 30 26
33 63 31 83 -4 94 -1 108 32 12 28 77 68 112 69 29 1 56 39 56 80 0 29 4 40
13 37 8 -3 11 -21 7 -63z m195 -260 c9 -15 20 -53 22 -86 3 -32 10 -61 14 -64
13 -7 11 -201 -1 -209 -16 -10 -12 -52 10 -90 11 -20 20 -46 20 -58 0 -12 6
-32 14 -43 10 -14 16 -57 18 -140 3 -74 9 -131 18 -152 13 -28 13 -36 -2 -65
-10 -17 -18 -43 -20 -57 -3 -25 -5 -25 -100 -28 l-98 -3 -20 33 c-24 39 -25
61 -5 78 12 10 15 42 15 166 0 91 4 155 10 159 6 3 10 18 10 33 1 15 7 38 15
52 10 18 14 62 15 160 0 132 14 313 26 331 9 15 21 10 39 -17z m155 -206 c6
-18 18 -48 26 -66 8 -18 14 -41 14 -51 0 -10 7 -24 15 -31 8 -7 15 -23 15 -36
0 -14 4 -32 9 -42 30 -60 46 -136 59 -287 4 -44 13 -90 20 -102 16 -28 16
-145 0 -161 -13 -13 -56 -16 -82 -6 -9 3 -18 24 -22 50 -3 24 -10 47 -15 50
-5 3 -9 29 -9 59 0 30 -4 57 -10 60 -5 3 -10 21 -10 38 0 18 -7 45 -15 61 -11
21 -15 64 -15 170 -1 108 -4 146 -15 160 -15 20 -22 146 -8 159 15 15 31 5 43
-25z"/>
</g>
</svg>
