<?xml version="1.0" standalone="no"?>
<!DOCTYPE svg PUBLIC "-//W3C//DTD SVG 20010904//EN"
 "http://www.w3.org/TR/2001/REC-SVG-20010904/DTD/svg10.dtd">
<svg version="1.0" xmlns="http://www.w3.org/2000/svg"
 width="2000.000000pt" height="2000.000000pt" viewBox="0 0 2000.000000 2000.000000"
 preserveAspectRatio="xMidYMid meet">
<metadata>
Created by potrace 1.16, written by Peter Selinger 2001-2019
</metadata>
<g transform="translate(0.000000,2000.000000) scale(0.100000,-0.100000)"
fill="#000000" stroke="none">
<path d="M7033 19888 c-13 -6 -23 -15 -23 -20 0 -4 -18 -8 -40 -8 -22 0 -40
-4 -40 -9 0 -11 -160 -91 -182 -91 -10 0 -18 -4 -18 -10 0 -5 -7 -10 -15 -10
-8 0 -15 -6 -15 -14 0 -19 -22 -26 -79 -26 -35 0 -53 -5 -66 -20 -14 -15 -31
-20 -74 -20 -40 0 -63 -6 -81 -20 -14 -11 -33 -20 -42 -20 -9 0 -20 -4 -23
-10 -3 -6 -50 -10 -106 -10 -59 0 -99 -4 -99 -10 0 -5 -7 -10 -15 -10 -8 0
-15 -4 -15 -10 0 -6 -49 -10 -127 -10 -110 0 -133 3 -161 20 -18 11 -38 20
-45 20 -18 0 -154 69 -167 85 -7 9 -29 15 -51 15 -22 0 -39 4 -39 8 0 22 -113
42 -125 22 -3 -5 -17 -10 -31 -10 -13 0 -24 -4 -24 -10 0 -5 -13 -10 -30 -10
-19 0 -34 -7 -42 -20 -7 -11 -20 -20 -29 -20 -19 0 -49 -41 -49 -67 0 -10 -9
-24 -20 -31 -11 -7 -20 -21 -20 -32 0 -10 -9 -24 -20 -30 -11 -6 -20 -20 -20
-30 0 -11 -4 -20 -10 -20 -5 0 -10 -11 -10 -24 0 -14 -4 -28 -10 -31 -5 -3
-10 -14 -10 -23 0 -10 -9 -23 -20 -30 -11 -7 -20 -19 -20 -27 0 -8 -7 -15 -16
-15 -9 0 -18 -9 -21 -20 -3 -11 -12 -20 -19 -20 -8 0 -17 -8 -21 -17 -9 -26
-74 -93 -100 -104 -13 -5 -23 -15 -23 -24 0 -9 -9 -15 -23 -15 -13 0 -32 -9
-42 -20 -10 -11 -22 -20 -27 -20 -5 0 -23 -13 -40 -30 -16 -16 -40 -30 -53
-30 -13 0 -25 -3 -27 -7 -1 -5 -28 -28 -58 -52 -77 -62 -257 -248 -275 -284
-8 -16 -15 -37 -15 -46 0 -9 -9 -22 -20 -29 -13 -8 -20 -23 -20 -45 0 -21 -7
-36 -20 -45 -16 -10 -20 -23 -20 -67 0 -30 -4 -55 -10 -55 -5 0 -10 -6 -10
-13 0 -7 -9 -23 -20 -35 -16 -17 -20 -35 -20 -90 0 -50 -4 -73 -15 -82 -14
-12 -35 -52 -48 -91 -3 -9 -21 -23 -40 -32 -19 -9 -37 -24 -41 -32 -3 -8 -14
-15 -24 -15 -10 0 -27 -9 -37 -20 -10 -11 -27 -20 -38 -20 -12 0 -30 -8 -41
-18 -12 -10 -39 -24 -60 -31 -22 -8 -49 -22 -60 -32 -11 -11 -26 -19 -33 -19
-7 0 -13 -4 -13 -10 0 -5 -9 -10 -20 -10 -10 0 -24 -9 -30 -20 -6 -11 -21 -20
-33 -20 -13 0 -33 -9 -45 -20 -12 -11 -27 -20 -35 -20 -17 0 -87 -72 -87 -90
0 -16 -40 -68 -113 -145 -26 -27 -47 -55 -47 -62 0 -7 -3 -13 -8 -13 -4 0 -15
-18 -25 -40 -12 -28 -97 -120 -272 -295 -230 -229 -255 -257 -255 -287 0 -18
-9 -44 -20 -58 -11 -14 -20 -41 -20 -60 0 -19 -9 -46 -20 -60 -11 -14 -20 -33
-20 -42 0 -9 -4 -20 -10 -23 -5 -3 -10 -22 -10 -41 0 -23 -11 -51 -30 -79 -16
-24 -30 -47 -30 -52 0 -5 -63 -71 -140 -148 -77 -77 -140 -147 -140 -157 0 -9
-4 -20 -10 -23 -6 -3 -10 -13 -10 -21 0 -8 -9 -24 -20 -36 -13 -14 -20 -36
-20 -60 0 -21 -4 -46 -9 -56 -50 -93 -52 -108 -47 -270 5 -171 13 -252 27
-266 5 -6 9 -22 9 -37 0 -15 5 -31 10 -34 6 -4 10 -88 10 -220 l0 -214 -30
-44 c-30 -45 -39 -90 -20 -102 13 -8 13 -82 0 -90 -6 -3 -10 -39 -10 -79 0
-60 -3 -76 -20 -91 -15 -13 -20 -31 -20 -65 0 -32 -6 -53 -20 -68 -11 -12 -20
-26 -20 -32 0 -5 -4 -10 -10 -10 -5 0 -10 -10 -10 -23 0 -13 -9 -33 -20 -45
-11 -12 -20 -27 -20 -35 0 -19 -27 -72 -45 -87 -10 -8 -15 -31 -15 -69 0 -45
-4 -59 -20 -69 -19 -12 -20 -23 -20 -351 0 -325 1 -339 20 -356 16 -14 20 -31
20 -80 0 -49 4 -66 20 -80 11 -10 20 -25 20 -33 0 -7 8 -26 18 -40 10 -15 29
-49 42 -77 18 -36 89 -114 260 -285 149 -148 241 -248 250 -270 7 -19 26 -47
42 -63 15 -15 28 -30 28 -33 0 -2 9 -14 20 -26 16 -18 20 -36 20 -100 0 -67 3
-79 20 -88 15 -8 20 -21 20 -48 0 -24 7 -46 20 -60 11 -12 20 -30 20 -41 0
-11 5 -23 10 -26 6 -3 10 -31 10 -61 0 -30 5 -54 10 -54 6 0 10 -9 10 -19 0
-11 5 -23 10 -26 6 -3 10 -17 10 -31 0 -22 16 -61 31 -74 3 -3 13 -22 23 -43
10 -21 24 -41 32 -44 8 -3 14 -13 14 -23 0 -11 77 -95 180 -198 99 -98 180
-184 180 -191 0 -13 1 -15 60 -79 22 -24 40 -49 40 -55 0 -7 14 -23 30 -37 17
-14 30 -30 30 -35 0 -17 24 -65 33 -65 4 0 7 -6 7 -14 0 -8 9 -18 20 -21 11
-3 20 -15 20 -25 0 -10 5 -22 10 -25 6 -3 10 -16 10 -29 0 -28 60 -85 120
-114 27 -13 73 -23 115 -26 39 -3 89 -8 111 -11 26 -4 44 -3 48 4 5 7 45 11
106 11 81 0 106 4 135 20 20 11 44 20 55 20 11 0 20 5 20 10 0 6 14 10 31 10
22 0 32 5 36 20 4 16 14 20 43 20 30 0 40 5 45 20 3 11 13 20 21 20 17 0 50
18 78 43 13 11 36 17 68 17 35 0 55 6 70 20 12 11 28 20 35 20 7 0 13 5 13 10
0 6 77 10 210 10 133 0 210 -4 210 -10 0 -5 6 -10 13 -10 7 0 26 -14 42 -30
16 -16 37 -30 47 -30 10 0 18 -3 18 -7 0 -9 49 -33 67 -33 7 0 13 -3 13 -7 0
-18 59 -33 127 -33 60 0 78 4 95 20 15 13 36 20 64 20 24 0 51 7 65 18 46 33
69 42 108 42 22 0 41 4 43 8 6 14 66 52 82 52 9 0 26 9 38 20 12 11 34 20 48
20 15 0 35 9 45 20 10 11 28 20 40 20 13 0 28 7 35 15 20 25 71 45 112 45 21
0 38 5 38 10 0 6 7 10 15 10 8 0 15 3 15 8 0 17 59 32 126 32 64 0 73 2 79 20
5 17 15 20 71 20 53 0 66 -3 76 -20 10 -16 24 -20 66 -20 41 0 54 -4 59 -17 4
-10 9 -20 13 -23 3 -3 13 -21 23 -40 9 -19 28 -47 42 -62 14 -15 25 -32 25
-38 0 -5 5 -10 10 -10 6 0 10 -12 10 -28 0 -21 18 -45 78 -105 42 -42 85 -77
95 -77 9 0 17 -4 17 -10 0 -5 9 -10 20 -10 12 0 30 -9 42 -20 12 -11 31 -20
43 -20 12 0 30 -8 41 -17 46 -41 58 -43 282 -43 l218 0 112 -112 112 -112 0
-117 c0 -91 -3 -119 -15 -129 -29 -24 -45 -73 -45 -140 0 -59 -2 -68 -20 -73
-19 -5 -20 -14 -20 -136 0 -81 -4 -131 -10 -131 -6 0 -10 -40 -10 -100 0 -60
4 -100 10 -100 6 0 10 -28 10 -63 0 -59 16 -117 33 -117 4 0 7 -8 7 -18 0 -11
9 -27 20 -37 11 -10 20 -24 20 -31 0 -8 9 -19 20 -26 11 -7 20 -18 20 -25 0
-7 5 -13 10 -13 6 0 10 -11 10 -25 0 -14 5 -25 10 -25 6 0 10 -7 10 -15 0 -8
7 -15 15 -15 9 0 19 -8 22 -17 4 -10 15 -27 25 -37 10 -11 18 -30 18 -43 0
-13 5 -23 10 -23 6 0 10 -6 10 -14 0 -8 18 -30 40 -49 22 -19 40 -39 40 -45 0
-7 5 -12 10 -12 6 0 10 -10 10 -23 0 -14 16 -39 40 -62 22 -21 40 -45 40 -52
0 -7 9 -18 20 -25 11 -7 20 -19 20 -26 0 -19 22 -54 53 -83 15 -14 27 -33 27
-41 0 -8 9 -23 20 -33 11 -10 20 -26 20 -36 0 -10 9 -21 20 -24 11 -3 20 -15
20 -25 0 -10 5 -22 10 -25 6 -3 10 -16 10 -29 0 -12 14 -35 30 -51 17 -16 30
-35 30 -42 0 -7 9 -18 20 -25 11 -7 20 -20 20 -29 0 -9 9 -24 20 -34 11 -10
20 -26 20 -37 0 -21 16 -52 43 -82 9 -11 17 -29 17 -41 0 -12 9 -31 20 -43 11
-12 20 -30 20 -42 0 -11 5 -20 10 -20 6 0 10 -6 10 -13 0 -18 24 -67 33 -67 4
0 7 -24 7 -53 0 -51 17 -107 33 -107 4 0 7 -87 7 -193 0 -184 8 -247 33 -247
4 0 7 -9 7 -19 0 -11 5 -23 10 -26 6 -3 10 -22 10 -41 0 -19 5 -34 10 -34 6 0
10 -7 10 -15 0 -8 5 -15 10 -15 6 0 10 -11 10 -25 0 -14 5 -25 10 -25 6 0 10
-6 10 -13 0 -18 24 -67 33 -67 4 0 7 -8 7 -18 0 -11 9 -27 20 -37 18 -17 20
-31 20 -172 0 -84 -3 -153 -7 -153 -14 0 -33 -53 -33 -90 0 -24 -7 -43 -20
-55 -13 -12 -20 -31 -20 -57 0 -21 -4 -38 -10 -38 -5 0 -10 -11 -10 -25 0 -14
-4 -25 -10 -25 -5 0 -10 -7 -10 -15 0 -8 -4 -15 -10 -15 -5 0 -10 -15 -10 -33
0 -18 -4 -37 -9 -42 -22 -24 -51 -88 -51 -115 0 -17 -4 -30 -10 -30 -5 0 -10
-7 -10 -15 0 -8 -4 -15 -10 -15 -5 0 -10 -16 -10 -36 0 -27 -5 -37 -20 -41
-13 -3 -20 -14 -20 -29 0 -12 -4 -26 -10 -29 -5 -3 -10 -23 -10 -44 0 -25 -7
-44 -20 -56 -14 -13 -20 -31 -20 -61 0 -24 -5 -46 -10 -49 -5 -3 -10 -14 -10
-23 0 -10 -9 -23 -20 -30 -17 -10 -20 -23 -20 -82 0 -39 -3 -70 -7 -70 -27 0
-33 -64 -33 -351 0 -289 1 -298 20 -304 17 -6 20 -15 20 -76 0 -58 3 -71 20
-81 12 -8 20 -24 20 -40 0 -15 5 -30 10 -33 6 -3 10 -17 10 -31 0 -13 5 -24
10 -24 6 0 10 -7 10 -15 0 -8 5 -15 10 -15 6 0 10 -11 10 -25 0 -14 5 -25 10
-25 6 0 10 -8 10 -18 0 -11 9 -27 20 -37 11 -10 20 -31 20 -46 0 -18 8 -34 20
-41 11 -7 20 -21 20 -31 0 -23 19 -56 53 -90 15 -15 27 -32 27 -37 0 -6 5 -10
10 -10 6 0 10 -11 10 -25 0 -14 5 -25 10 -25 6 0 10 -6 10 -14 0 -8 9 -18 20
-21 11 -3 20 -15 20 -25 0 -11 8 -24 18 -29 10 -5 29 -30 41 -55 15 -29 31
-46 45 -48 11 -2 25 -13 31 -25 5 -13 13 -23 17 -23 5 0 8 -8 8 -18 0 -9 45
-62 100 -117 l100 -100 0 -435 c0 -427 4 -490 33 -490 4 0 7 -26 7 -59 0 -39
5 -63 15 -71 31 -26 45 -73 45 -152 0 -45 4 -78 10 -78 6 0 10 -9 10 -19 0
-11 5 -23 10 -26 6 -3 10 -31 10 -61 0 -30 5 -54 10 -54 6 0 10 -7 10 -15 0
-8 3 -15 8 -15 14 0 32 -55 32 -102 0 -37 4 -50 20 -58 11 -6 20 -21 20 -33 0
-29 125 -278 145 -289 8 -5 15 -21 15 -36 0 -19 12 -38 40 -62 22 -19 40 -41
40 -47 0 -7 5 -13 10 -13 6 0 10 -6 10 -13 0 -8 9 -22 20 -32 11 -10 20 -24
20 -32 0 -7 5 -13 10 -13 6 0 10 -6 10 -14 0 -7 9 -16 20 -19 11 -3 20 -12 20
-20 0 -8 9 -17 20 -20 11 -3 20 -12 20 -21 0 -9 5 -16 10 -16 6 0 10 -6 10
-13 0 -14 51 -67 64 -67 5 0 15 -8 22 -17 10 -14 13 -72 14 -244 0 -213 1
-227 20 -244 13 -12 20 -31 20 -57 0 -48 12 -70 73 -131 26 -26 47 -54 47 -61
0 -17 73 -86 91 -86 8 0 25 -13 39 -30 14 -16 32 -30 42 -30 9 0 20 -4 23 -10
3 -5 14 -10 24 -10 10 0 26 -9 36 -20 14 -15 31 -20 72 -20 40 0 59 -5 75 -20
18 -16 36 -20 98 -20 71 0 130 15 130 33 0 4 36 7 79 7 66 0 82 3 93 18 7 11
25 22 41 25 15 4 39 10 55 13 15 4 29 10 32 14 9 13 80 50 95 50 8 0 15 3 15
8 0 4 18 15 40 25 22 9 40 23 40 31 0 7 9 16 20 19 11 3 20 11 20 19 0 14 44
38 72 38 26 0 71 -22 86 -42 12 -16 35 -18 256 -18 252 0 282 4 316 45 8 10
30 15 62 15 35 0 55 6 70 20 12 11 32 20 45 20 13 0 23 5 23 10 0 6 7 10 15
10 8 0 15 3 15 8 0 9 49 32 70 32 9 0 25 9 35 20 10 11 28 20 40 20 12 0 30 9
40 20 10 11 22 20 27 20 5 0 58 49 118 110 61 60 116 110 123 110 16 0 107 92
107 108 0 15 335 352 350 352 5 0 10 7 10 16 0 9 9 18 20 21 11 3 20 12 20 19
0 8 7 17 15 20 17 7 45 59 45 84 0 9 16 32 35 50 41 40 65 83 65 116 0 14 8
25 20 29 15 5 20 15 20 40 0 33 37 115 52 115 4 0 8 24 8 54 0 35 5 58 15 66
38 31 45 69 45 236 0 145 2 167 20 199 11 20 20 54 20 76 0 26 7 47 20 61 11
12 20 30 20 40 0 22 48 78 67 78 7 0 13 5 13 10 0 6 7 10 15 10 8 0 15 5 15
10 0 6 11 10 25 10 14 0 25 5 25 10 0 13 96 110 108 110 5 0 12 9 15 20 3 11
14 20 25 20 23 0 52 30 52 54 0 10 9 20 20 23 11 3 20 12 20 19 0 8 5 14 10
14 6 0 10 6 10 14 0 7 7 19 15 26 8 7 27 37 42 69 15 31 31 58 35 59 4 2 8 30
8 61 0 45 4 62 20 76 19 17 20 31 20 256 0 228 -1 239 -20 249 -18 10 -20 21
-20 141 0 122 1 131 20 136 11 3 20 12 20 19 0 8 5 14 10 14 6 0 10 6 10 13 0
7 8 22 18 33 10 10 25 34 32 52 8 17 18 32 21 32 4 0 26 26 50 58 24 31 47 59
52 60 4 2 7 9 7 15 0 7 9 18 20 25 11 7 20 18 20 25 0 19 163 177 183 177 9 0
17 7 17 15 0 8 5 15 10 15 6 0 10 6 10 13 0 18 58 71 100 90 19 9 53 34 75 57
22 23 50 46 63 51 12 5 22 15 22 24 0 8 5 15 11 15 6 0 29 18 50 40 22 22 43
40 49 40 5 0 10 4 10 8 0 5 16 15 36 22 20 8 40 22 45 32 5 10 16 18 24 18 8
0 15 7 15 16 0 9 9 18 20 21 11 3 20 9 20 14 0 5 6 9 13 9 8 0 22 9 32 20 10
11 26 20 36 20 10 0 51 31 91 70 40 38 78 70 83 70 12 0 65 55 65 67 0 5 17
27 38 49 38 40 82 115 82 139 0 8 9 17 20 20 17 5 20 15 20 58 0 41 4 55 20
65 19 12 20 23 20 402 0 253 4 390 10 390 6 0 10 6 10 13 0 6 9 23 20 37 14
18 20 41 20 82 0 31 4 60 10 63 5 3 10 15 10 26 0 10 3 19 8 19 24 0 44 112
22 125 -5 3 -10 17 -10 31 0 13 -4 24 -10 24 -5 0 -10 9 -10 19 0 11 -4 23
-10 26 -5 3 -10 22 -10 41 0 19 -4 34 -10 34 -5 0 -10 7 -10 15 0 8 -4 15 -10
15 -5 0 -10 11 -10 25 0 14 -4 25 -10 25 -5 0 -10 6 -10 14 0 8 -9 18 -20 21
-11 3 -20 14 -20 24 0 22 -70 91 -93 91 -9 0 -17 4 -17 8 0 5 -11 22 -25 38
-14 16 -31 41 -38 57 -6 15 -15 27 -19 27 -5 0 -8 121 -8 270 0 259 -1 270
-20 282 -11 7 -20 20 -20 30 0 9 -4 20 -10 23 -5 3 -10 25 -10 49 0 30 -6 48
-20 61 -16 14 -20 31 -20 76 0 32 5 61 10 64 6 3 10 15 10 26 0 10 5 19 10 19
6 0 10 15 10 33 0 21 8 41 20 52 11 10 20 24 20 32 0 7 5 13 10 13 6 0 10 16
10 36 0 27 5 37 20 41 11 3 20 10 20 17 0 6 9 17 20 24 11 7 20 21 20 32 0 11
5 20 10 20 6 0 10 6 10 14 0 8 14 28 30 44 17 17 30 35 30 41 0 6 9 11 20 11
13 0 20 7 20 20 0 13 7 20 20 20 13 0 20 7 20 18 0 11 9 27 20 37 11 10 20 26
20 37 0 10 5 18 10 18 6 0 10 6 10 13 0 7 23 35 50 62 29 29 50 58 50 71 0 11
9 29 20 39 11 10 20 26 20 37 0 10 5 18 10 18 6 0 10 11 10 24 0 13 4 26 8 28
12 4 72 95 72 107 0 6 5 11 10 11 6 0 10 8 10 18 0 11 9 27 20 37 11 10 20 28
20 39 0 13 21 42 50 71 28 28 50 58 50 70 0 12 20 41 46 65 25 25 50 56 55 68
5 13 18 26 29 29 11 3 22 14 25 24 4 10 12 19 18 19 14 0 87 73 87 88 0 5 7
12 15 16 8 3 20 17 27 31 6 14 19 25 29 25 10 0 21 9 24 20 3 11 11 20 16 20
5 0 9 5 9 11 0 12 58 69 70 69 4 0 10 9 13 20 3 11 12 20 21 20 9 0 16 6 16
14 0 8 6 16 14 19 8 3 22 23 32 44 10 21 21 40 24 43 4 3 9 13 13 23 3 9 13
17 21 17 7 0 16 9 19 20 3 11 12 20 20 20 8 0 17 9 20 20 3 11 12 20 21 20 9
0 16 6 16 13 0 6 17 27 38 44 21 18 44 48 52 68 8 19 17 35 22 35 4 0 8 9 8
20 0 11 7 20 15 20 9 0 19 10 24 23 5 13 16 29 25 36 9 7 16 22 16 32 0 11 5
19 10 19 6 0 10 6 10 13 0 8 9 22 19 31 10 10 21 34 24 54 10 67 20 97 39 110
13 10 18 26 18 60 0 36 5 50 20 60 12 7 20 23 20 40 0 30 20 82 33 82 4 0 7 7
7 15 0 8 5 15 10 15 6 0 10 6 10 13 0 7 9 23 20 35 11 12 20 26 20 32 0 5 5
10 10 10 6 0 10 5 10 10 0 6 9 20 20 32 11 12 20 34 20 48 0 15 9 35 20 45 11
10 20 25 20 34 0 9 9 27 20 41 11 14 20 33 20 43 0 9 5 17 10 17 6 0 10 15 10
33 0 17 9 43 20 57 11 14 20 33 20 42 0 9 5 20 10 23 5 3 10 20 10 36 0 16 9
39 20 51 14 16 20 36 20 71 0 40 3 50 20 54 11 3 20 12 20 19 0 8 5 14 10 14
6 0 10 8 10 18 0 22 22 72 33 72 4 0 7 13 7 29 0 17 5 33 10 36 6 3 10 14 10
23 0 9 9 28 20 42 12 15 20 41 20 66 0 28 6 47 20 59 14 12 20 31 20 59 0 25
8 51 20 66 11 14 20 33 20 43 0 9 5 17 10 17 6 0 10 22 10 49 0 28 5 53 10 56
5 3 10 15 10 26 0 10 5 19 10 19 6 0 10 9 10 20 0 23 37 107 51 116 5 3 9 41
9 85 0 43 3 79 8 79 35 0 45 187 12 245 -13 24 -20 55 -20 93 -1 48 -5 62 -30
92 -17 19 -30 41 -30 50 0 9 -13 29 -30 45 -16 16 -30 35 -30 42 0 8 -8 17
-17 20 -10 4 -36 24 -58 45 l-40 38 -146 0 c-133 0 -147 -2 -164 -20 -10 -11
-26 -20 -36 -20 -9 0 -19 -3 -21 -7 -6 -16 -68 -53 -86 -53 -10 0 -31 -14 -47
-30 -16 -16 -35 -30 -42 -30 -7 0 -18 -9 -25 -20 -7 -11 -20 -20 -29 -20 -9 0
-24 -9 -34 -20 -10 -11 -24 -20 -31 -20 -8 0 -19 -9 -26 -20 -7 -11 -19 -20
-26 -20 -19 0 -70 -32 -107 -67 -8 -7 -27 -13 -43 -13 -16 0 -37 -9 -47 -20
-12 -13 -31 -20 -55 -20 -37 0 -90 -19 -90 -32 0 -5 -9 -8 -19 -8 -11 0 -23
-4 -26 -10 -3 -5 -26 -10 -50 -10 -24 0 -47 5 -50 10 -3 6 -14 10 -24 10 -9 0
-35 18 -56 40 -21 22 -49 40 -60 40 -33 0 -105 82 -105 119 0 19 -7 34 -19 40
-10 6 -31 36 -46 66 -15 31 -33 59 -41 62 -8 3 -14 11 -14 19 0 8 -7 14 -16
14 -9 0 -18 9 -21 20 -3 11 -12 20 -20 20 -8 0 -17 9 -20 20 -3 11 -12 20 -19
20 -8 0 -18 8 -21 17 -4 9 -27 35 -52 57 -24 23 -54 51 -66 64 -12 12 -27 22
-32 22 -5 0 -18 9 -28 20 -10 11 -25 20 -33 20 -8 0 -31 17 -51 38 -42 45 -93
82 -113 82 -8 0 -27 18 -44 40 -16 22 -32 40 -35 40 -20 0 -69 61 -69 84 0 15
-8 30 -20 36 -11 6 -20 17 -20 25 0 15 -19 55 -31 65 -3 3 -12 22 -20 43 -7
20 -17 37 -21 37 -4 0 -8 6 -8 14 0 7 -18 34 -40 59 -22 25 -40 53 -40 64 0
10 -36 54 -80 98 -44 44 -80 85 -80 91 0 6 -9 19 -20 29 -11 10 -20 26 -20 36
0 11 -9 24 -20 31 -11 7 -20 16 -20 21 0 4 -47 55 -104 112 -63 62 -113 121
-125 147 -10 24 -35 57 -55 73 -20 16 -36 34 -36 40 0 5 -9 21 -20 35 -11 14
-20 34 -20 45 -1 11 -14 36 -30 55 -17 19 -30 42 -30 51 0 9 -9 24 -20 34 -16
15 -20 31 -20 87 0 39 -4 68 -10 68 -5 0 -10 9 -10 20 0 11 -3 20 -7 20 -16 0
-33 56 -33 110 0 44 -4 61 -20 75 -11 10 -20 26 -20 35 0 21 -23 70 -32 70 -5
0 -8 8 -8 18 0 10 -13 31 -30 47 -16 16 -30 35 -30 42 0 7 -4 13 -10 13 -5 0
-10 8 -10 18 0 9 -18 37 -40 61 -22 24 -40 50 -40 57 0 17 -18 50 -42 78 -10
11 -18 31 -18 45 0 14 -9 37 -20 51 -11 14 -20 33 -20 43 0 9 -4 17 -10 17 -5
0 -10 23 -10 50 0 28 -3 50 -7 50 -17 0 -33 57 -33 115 0 88 -62 209 -153 299
-37 36 -75 66 -85 66 -10 0 -37 18 -60 40 -22 22 -46 40 -52 40 -5 0 -10 7
-10 16 0 9 -9 18 -20 21 -11 3 -20 12 -20 20 0 8 -8 17 -18 19 -17 5 -42 47
-42 71 0 8 -9 23 -20 35 -18 19 -20 35 -20 147 0 110 3 129 20 151 18 24 20
43 20 342 0 299 -1 319 -20 353 -11 20 -20 44 -20 55 0 10 -4 22 -10 25 -5 3
-10 17 -10 30 0 14 -9 29 -20 35 -12 6 -20 21 -20 36 0 39 -111 169 -164 194
-24 10 -49 26 -56 35 -9 10 -30 15 -71 15 -33 0 -59 3 -59 8 0 4 -15 14 -32
22 -67 30 -308 12 -308 -22 0 -5 -40 -8 -90 -8 -79 0 -91 -2 -102 -20 -10 -15
-24 -20 -58 -20 -50 0 -102 -16 -143 -43 -36 -23 -248 -25 -267 -2 -17 20 -69
45 -94 45 -12 0 -27 9 -34 20 -7 12 -23 20 -38 20 -15 0 -38 12 -56 30 -16 17
-38 30 -49 30 -10 0 -19 5 -19 10 0 6 -7 10 -15 10 -8 0 -15 5 -15 10 0 6 -5
10 -11 10 -6 0 -24 11 -41 25 -16 14 -42 28 -56 31 -15 4 -39 15 -54 25 -14
11 -38 19 -52 19 -15 0 -36 9 -48 20 -12 11 -30 20 -40 20 -10 0 -18 5 -18 10
0 6 -6 10 -12 10 -7 0 -24 9 -38 20 -14 11 -41 20 -62 20 -20 0 -40 5 -43 10
-3 6 -15 10 -26 10 -10 0 -19 4 -19 8 0 14 -49 32 -88 32 -26 0 -41 6 -50 20
-10 16 -23 20 -72 20 -33 0 -60 4 -60 8 0 5 -18 18 -41 30 -37 20 -56 22 -200
22 -99 0 -159 -4 -159 -10 0 -5 -6 -10 -13 -10 -14 0 -187 -172 -187 -186 0
-5 -9 -20 -20 -34 -11 -14 -20 -32 -20 -41 0 -8 -8 -24 -17 -35 -25 -28 -43
-61 -43 -79 0 -8 -9 -19 -20 -25 -12 -6 -20 -21 -20 -36 0 -16 -16 -41 -47
-73 -45 -44 -63 -72 -77 -113 -4 -14 -17 -18 -61 -18 -61 0 -101 21 -194 102
-24 21 -50 38 -57 38 -17 0 -124 99 -124 116 0 7 -9 18 -20 24 -11 6 -20 19
-20 28 0 23 -110 132 -133 132 -9 0 -17 5 -17 10 0 6 -6 10 -13 10 -8 0 -22 9
-32 20 -10 11 -26 20 -35 20 -9 0 -20 4 -26 9 -29 28 -89 51 -133 51 -35 0
-53 5 -66 20 -16 18 -31 20 -144 20 -110 0 -129 3 -151 20 -14 11 -31 20 -37
20 -7 0 -13 5 -13 10 0 6 -17 10 -38 10 -31 0 -47 8 -80 38 l-42 39 0 175 c0
162 -1 176 -20 193 -11 10 -20 31 -20 48 0 16 -8 41 -18 55 -10 15 -24 39 -32
55 -7 15 -17 27 -22 27 -4 0 -8 7 -8 15 0 8 -4 15 -10 15 -5 0 -10 11 -10 25
0 14 -4 25 -10 25 -5 0 -10 9 -10 20 0 11 -9 25 -20 32 -11 7 -20 21 -20 30 0
10 -9 22 -20 28 -11 6 -20 19 -20 28 0 25 -191 212 -216 212 -12 0 -29 9 -39
20 -17 19 -31 20 -265 20 -234 0 -248 -1 -265 -20 -12 -13 -31 -20 -54 -20
-20 0 -47 -9 -61 -20 -14 -11 -33 -20 -42 -20 -9 0 -20 -4 -23 -10 -3 -6 -52
-10 -110 -10 -58 0 -107 4 -110 10 -3 6 -19 10 -36 10 -16 0 -29 3 -29 8 0 15
-56 32 -110 32 -44 0 -61 4 -75 20 -16 17 -30 20 -114 19 -53 0 -106 -5 -118
-11z m1224 -260 c15 -7 30 -15 33 -18 10 -10 50 -30 61 -30 21 0 69 -58 69
-84 0 -15 8 -31 20 -38 11 -7 20 -18 20 -24 0 -6 13 -24 30 -40 25 -25 29 -37
30 -81 0 -57 -27 -118 -72 -164 -19 -18 -28 -38 -28 -59 0 -17 -9 -40 -20 -52
-16 -18 -20 -36 -20 -94 0 -55 -5 -82 -22 -113 -12 -23 -25 -41 -30 -41 -4 0
-8 -5 -8 -11 0 -6 -9 -23 -19 -38 -11 -15 -24 -61 -31 -106 -8 -54 -18 -86
-31 -98 -15 -14 -19 -32 -19 -87 0 -93 -15 -110 -103 -110 -51 0 -64 3 -75 20
-7 11 -21 20 -31 20 -11 0 -23 5 -26 10 -3 6 -14 10 -24 10 -9 0 -26 8 -37 18
-28 24 -61 42 -79 42 -8 0 -19 9 -25 20 -6 11 -17 20 -24 20 -15 0 -50 37 -59
63 -4 9 -13 17 -22 17 -8 0 -24 6 -35 12 -30 19 -74 -11 -78 -53 -2 -17 1 -36
7 -42 6 -6 11 -24 11 -40 0 -20 6 -30 20 -34 14 -4 20 -14 20 -35 0 -21 13
-42 50 -78 27 -28 53 -50 58 -50 5 0 17 -9 27 -20 10 -11 28 -20 39 -20 12 0
27 -9 34 -20 7 -12 23 -20 40 -20 15 0 33 -5 40 -12 17 -17 14 -60 -6 -84 -22
-27 -76 -64 -94 -64 -8 0 -24 -9 -36 -20 -12 -11 -34 -20 -50 -20 -33 0 -86
-49 -80 -75 5 -25 73 -45 156 -45 71 0 152 17 152 32 0 5 9 8 19 8 11 0 23 5
26 10 3 6 26 10 51 10 34 0 56 8 89 30 37 25 53 30 104 30 34 0 61 4 61 10 0
6 7 10 15 10 8 0 15 5 15 10 0 6 22 10 48 10 42 0 52 5 83 36 18 19 50 43 69
52 19 9 51 28 70 44 19 15 42 28 51 28 29 0 31 32 7 80 -29 57 -51 74 -108 80
-42 5 -45 7 -48 37 -2 24 2 34 17 43 12 6 21 20 21 30 0 11 4 20 8 20 5 0 14
16 22 35 8 19 17 35 22 35 4 0 8 13 8 28 0 19 11 39 33 60 l33 32 33 -40 c18
-22 41 -40 52 -40 10 0 23 -9 29 -20 6 -12 21 -20 35 -20 14 0 25 -4 25 -10 0
-5 8 -10 18 -10 11 0 27 -9 37 -20 13 -14 31 -20 63 -20 25 0 61 -5 79 -12 26
-9 41 -9 64 -1 18 7 38 8 47 4 98 -49 106 -51 178 -51 61 0 79 -4 96 -20 12
-11 30 -20 41 -20 10 0 36 -18 58 -40 22 -22 44 -40 49 -40 6 0 10 -5 10 -11
0 -6 27 -37 60 -69 33 -32 60 -62 60 -68 0 -6 9 -14 20 -17 11 -3 20 -11 20
-18 0 -12 40 -57 51 -57 4 0 23 -16 43 -35 20 -19 48 -38 63 -41 16 -4 40 -20
54 -35 14 -16 35 -29 46 -29 10 0 28 -8 39 -17 29 -26 61 -43 80 -43 9 0 28
-8 42 -18 15 -10 35 -22 45 -25 22 -8 22 -24 -3 -73 -58 -112 -110 -164 -163
-164 -13 0 -32 -9 -42 -20 -13 -15 -31 -20 -65 -20 -32 0 -53 -6 -68 -20 -12
-11 -28 -20 -36 -20 -8 0 -18 -4 -21 -10 -3 -5 -23 -10 -44 -10 -24 0 -47 -8
-61 -20 -13 -11 -29 -20 -37 -20 -7 0 -13 -4 -13 -10 0 -5 -8 -10 -18 -10 -11
0 -27 -9 -37 -20 -11 -12 -31 -20 -51 -20 -23 0 -37 -6 -44 -20 -6 -11 -17
-20 -25 -20 -25 0 -57 -22 -106 -72 -26 -27 -52 -48 -58 -48 -6 0 -11 -5 -11
-11 0 -16 -56 -69 -74 -69 -8 0 -18 -4 -21 -10 -3 -5 -15 -10 -26 -10 -11 0
-44 -22 -73 -50 -49 -47 -56 -50 -104 -50 -41 0 -53 -4 -62 -20 -10 -18 -21
-20 -108 -20 -80 0 -102 -3 -118 -17 -37 -35 -86 -43 -250 -43 -142 0 -162 -2
-184 -20 -20 -16 -41 -20 -106 -20 -82 0 -139 -17 -157 -47 -4 -7 -17 -13 -28
-13 -12 0 -32 -18 -52 -47 -38 -55 -171 -193 -186 -193 -11 0 -51 -20 -61 -30
-3 -3 -16 -11 -29 -18 -13 -8 -39 -22 -58 -33 -58 -33 -333 -21 -333 13 0 5
-380 8 -844 8 -751 0 -845 2 -856 16 -11 13 -10 19 11 39 21 21 40 25 147 36
101 10 125 16 133 31 9 16 27 18 204 18 123 0 195 4 195 10 0 6 7 10 15 10 8
0 15 5 15 10 0 6 100 10 280 10 284 0 309 3 353 40 24 20 24 100 -1 120 -30
24 -61 40 -77 40 -8 0 -15 4 -15 8 0 5 -12 15 -27 22 -16 8 -40 22 -55 32 -14
10 -38 18 -52 18 -15 0 -30 8 -36 20 -8 15 -21 20 -56 20 -37 0 -51 5 -76 30
-25 25 -37 30 -78 30 -34 0 -55 6 -67 18 -10 10 -38 24 -63 32 -62 19 -66 24
-41 59 22 31 22 31 120 31 83 0 100 3 119 20 19 18 35 20 171 20 155 0 149 -1
253 51 10 5 97 9 193 9 96 0 175 3 175 8 0 12 53 32 87 32 50 0 83 26 83 64 0
18 -5 37 -12 44 -9 9 -94 12 -323 12 -206 0 -315 4 -322 11 -10 10 -159 7
-322 -6 -47 -5 -77 -3 -84 4 -6 6 -23 11 -37 11 -14 0 -30 4 -35 9 -20 19
-111 24 -492 28 l-393 3 0 35 c0 24 6 37 20 45 11 6 20 21 20 33 0 12 14 36
30 54 17 18 30 34 30 37 0 3 14 27 30 53 21 32 30 60 30 88 0 29 5 44 20 53
17 10 20 23 20 85 0 43 5 78 12 85 7 7 41 12 84 12 56 0 77 -4 97 -20 22 -17
40 -20 137 -20 113 0 150 -9 179 -44 9 -11 31 -16 67 -16 30 0 54 -4 54 -10 0
-5 11 -10 25 -10 21 0 25 -5 25 -30 0 -16 -8 -38 -18 -48 -89 -89 -78 -162 23
-162 25 0 45 5 45 10 0 6 17 10 38 10 31 0 45 7 73 38 47 48 79 96 79 116 0 8
17 23 38 33 57 26 61 37 62 145 0 81 4 104 22 135 12 21 27 50 35 65 7 14 20
29 28 32 9 3 15 19 15 38 0 18 9 44 20 58 41 53 12 100 -61 100 -57 0 -79 -7
-79 -26 0 -22 -19 -16 -51 15 -25 25 -29 37 -29 82 0 48 -4 57 -37 91 -20 21
-45 38 -54 38 -10 0 -19 3 -21 8 -8 18 -93 52 -131 52 -26 0 -51 8 -67 20 -18
14 -41 20 -82 20 -69 0 -88 -7 -88 -30 0 -10 -5 -20 -11 -22 -18 -6 0 -48 21
-48 10 0 28 -16 41 -36 12 -21 51 -69 86 -108 34 -39 63 -78 63 -87 0 -9 7
-22 15 -29 9 -7 23 -29 32 -49 9 -20 30 -50 46 -68 18 -19 27 -38 24 -47 -9
-22 -30 -20 -52 4 -10 11 -30 20 -44 20 -14 0 -37 9 -51 20 -19 15 -41 20 -92
20 -37 0 -70 -4 -73 -10 -3 -5 -17 -10 -30 -10 -13 0 -27 5 -30 10 -3 6 -35
10 -70 10 -54 0 -66 -3 -75 -20 -10 -19 -19 -20 -142 -18 l-131 3 -28 53 c-15
29 -43 71 -63 95 -20 23 -42 54 -49 70 -6 15 -15 27 -19 27 -5 0 -8 8 -8 18
-1 18 -110 92 -136 92 -9 0 -18 9 -21 20 -3 11 -14 20 -24 20 -11 0 -19 4 -19
8 0 5 -16 14 -35 22 -19 8 -35 17 -35 22 0 4 -46 8 -103 8 -106 0 -127 7 -127
41 0 10 67 86 150 169 120 122 150 158 150 180 0 15 9 35 20 45 11 10 20 26
20 37 0 10 5 18 10 18 6 0 10 5 10 12 0 7 14 27 32 45 28 29 38 33 83 33 39 0
56 -5 70 -20 10 -11 30 -20 45 -20 15 0 35 -9 45 -20 10 -11 26 -20 37 -20 10
0 18 -4 18 -10 0 -6 103 -10 290 -10 187 0 290 4 290 10 0 6 8 10 18 10 11 0
27 9 37 20 16 17 31 20 110 20 77 0 94 3 113 20 16 15 35 20 81 20 45 0 63 4
73 18 17 23 53 42 78 42 10 0 35 9 55 20 20 11 44 20 55 20 10 0 22 5 25 10 3
6 17 10 30 10 14 0 29 9 35 20 7 13 21 20 40 20 19 0 33 7 40 20 10 18 21 20
104 20 80 0 95 -3 111 -20 16 -18 31 -20 120 -20 89 0 104 -2 120 -20 26 -29
158 -29 195 0 20 16 41 20 111 20 73 0 89 3 104 20 13 15 31 20 66 20 44 0
104 23 134 51 13 13 99 11 132 -3z m2803 -1128 c15 -12 41 -20 66 -20 27 0 63
-11 99 -30 31 -16 71 -30 89 -30 17 0 42 -9 56 -20 14 -11 38 -20 53 -20 15 0
37 -9 49 -20 12 -11 30 -20 39 -20 10 0 21 -4 24 -10 3 -5 19 -10 34 -10 15 0
36 -9 46 -20 10 -11 28 -20 39 -20 12 -1 37 -14 56 -30 21 -19 46 -30 64 -30
19 0 38 -10 55 -27 28 -30 64 -53 82 -53 6 0 23 -13 39 -28 15 -15 46 -34 69
-42 22 -7 48 -21 57 -32 11 -11 31 -18 55 -18 28 0 41 -5 49 -20 9 -17 21 -20
83 -20 56 0 78 -5 97 -20 14 -11 31 -20 38 -20 6 0 12 -4 12 -10 0 -5 23 -10
50 -10 28 0 50 5 50 10 0 6 7 10 15 10 8 0 24 5 35 10 11 6 29 15 40 20 11 6
54 10 95 10 62 0 80 4 97 20 18 16 36 20 93 20 57 0 75 4 93 20 12 11 28 20
36 20 8 0 18 5 21 10 9 15 228 13 262 -2 44 -20 121 -103 154 -164 27 -52 29
-64 29 -160 0 -63 4 -104 10 -104 6 0 10 -28 10 -64 0 -36 -4 -68 -10 -71 -6
-4 -10 -78 -10 -190 0 -112 -4 -186 -10 -190 -13 -8 -13 -118 0 -131 7 -7 10
-50 8 -108 -3 -97 -3 -97 -33 -114 -16 -9 -31 -20 -33 -24 -2 -5 -12 -8 -22
-8 -10 0 -22 -4 -25 -10 -3 -5 -23 -10 -44 -10 -20 0 -42 -5 -49 -12 -9 -9
-15 -9 -24 0 -7 7 -22 12 -35 12 -40 0 -100 41 -114 78 -5 12 -14 22 -21 22
-7 0 -24 24 -37 53 -14 28 -33 64 -43 79 -10 14 -18 33 -18 40 0 8 -9 23 -20
33 -11 10 -20 23 -20 30 0 25 -159 165 -188 165 -12 0 -30 4 -40 9 -9 5 -30
14 -47 21 -16 7 -38 16 -47 21 -23 12 -44 11 -68 -1 -11 -5 -29 -14 -40 -20
-11 -5 -29 -10 -40 -10 -11 0 -20 -4 -20 -10 0 -5 -16 -10 -35 -10 -25 0 -35
-4 -35 -15 0 -9 -11 -20 -24 -25 -13 -5 -28 -15 -33 -22 -4 -7 -21 -20 -38
-28 -41 -21 -65 -42 -65 -58 0 -8 -10 -22 -22 -32 -17 -14 -26 -15 -40 -6 -15
9 -18 25 -18 98 0 48 -5 100 -11 115 -6 15 -15 37 -20 48 -10 25 -19 101 -25
227 -5 92 -7 99 -35 128 l-31 30 -128 0 c-111 0 -135 -3 -165 -20 -32 -18 -54
-20 -200 -20 -98 0 -166 4 -170 10 -3 6 -15 10 -26 10 -10 0 -19 5 -19 10 0 6
-30 10 -70 10 -71 0 -110 12 -144 42 -11 10 -28 18 -39 18 -10 0 -62 44 -117
100 l-99 100 -68 0 c-38 0 -74 -5 -80 -11 -8 -8 -19 -8 -42 2 -45 20 -43 61 6
107 37 34 63 74 63 96 1 6 23 40 50 76 28 36 50 72 50 81 0 9 9 24 20 34 11
10 20 27 20 38 0 45 107 157 149 157 14 0 37 -9 51 -20z m-6743 -710 c3 -17
10 -33 14 -36 5 -3 9 -14 9 -24 0 -11 9 -24 20 -30 11 -6 20 -19 20 -29 0 -10
9 -26 20 -36 11 -10 20 -22 20 -27 0 -15 78 -88 93 -88 19 0 72 -28 87 -45 7
-8 19 -15 27 -15 8 0 45 -31 83 -70 38 -38 75 -70 84 -70 8 0 18 -4 21 -10 3
-5 14 -10 23 -10 9 0 28 -9 42 -20 14 -11 39 -20 57 -20 22 0 36 -6 43 -20 9
-16 21 -20 68 -20 41 0 64 -6 82 -20 14 -11 33 -20 42 -20 9 0 20 -4 23 -10 3
-5 32 -10 64 -10 45 0 62 -4 76 -20 14 -16 31 -20 80 -20 65 0 122 -18 145
-44 9 -11 30 -16 71 -16 33 0 59 -3 59 -7 0 -16 56 -33 110 -33 51 0 80 -11
80 -32 0 -4 -123 -8 -274 -8 -247 0 -278 -2 -313 -19 -71 -34 -109 -41 -236
-41 -70 0 -127 -3 -127 -7 0 -18 -59 -33 -125 -33 -72 0 -120 -15 -145 -45 -8
-10 -30 -15 -62 -15 -35 0 -55 -6 -70 -20 -12 -11 -29 -20 -38 -20 -18 0 -50
-34 -50 -53 0 -27 55 -67 91 -67 40 0 50 -6 42 -26 -4 -12 -65 -14 -362 -14
-204 0 -361 -4 -367 -9 -10 -10 -97 -19 -272 -27 -135 -6 -125 -11 -284 148
-87 86 -108 113 -108 135 1 22 28 56 120 152 66 69 120 131 120 138 0 7 36 51
80 97 44 46 80 91 80 100 0 9 7 19 15 22 8 4 22 20 30 38 24 50 72 94 115 106
22 6 40 15 40 20 0 5 11 12 25 16 14 3 25 10 25 15 0 5 8 9 18 9 11 0 27 9 37
20 11 12 31 20 51 20 23 0 37 6 44 20 6 11 17 20 25 20 9 0 25 6 37 13 21 11
31 20 103 81 17 14 39 26 51 26 11 0 29 9 39 20 10 11 31 20 47 20 24 0 30 -5
35 -30z m-1257 -1233 l0 -183 50 -49 c39 -39 50 -56 50 -81 0 -52 -9 -64 -47
-64 -30 0 -44 9 -92 58 -31 31 -77 68 -104 81 -30 16 -50 33 -53 48 -7 25 16
82 41 103 9 8 15 30 15 59 0 31 6 54 18 67 25 29 42 61 42 81 0 23 39 63 62
63 17 0 18 -12 18 -183z m10828 -187 c17 -16 35 -30 41 -30 6 0 11 -17 11 -38
0 -39 19 -92 33 -92 4 0 7 -34 7 -75 0 -74 8 -99 43 -139 10 -12 17 -36 17
-63 0 -24 5 -43 10 -43 6 0 10 -7 10 -15 0 -8 3 -15 8 -15 9 0 32 -49 32 -70
0 -9 9 -25 20 -35 11 -10 20 -28 20 -40 0 -12 9 -30 20 -40 11 -10 20 -23 20
-29 0 -6 14 -24 30 -39 17 -17 30 -39 30 -53 0 -13 5 -24 10 -24 6 0 10 -5 10
-10 0 -6 9 -20 20 -32 11 -12 20 -30 20 -40 0 -10 9 -23 20 -30 11 -7 20 -18
20 -23 0 -17 24 -65 33 -65 4 0 7 -9 7 -19 0 -11 5 -23 10 -26 6 -3 10 -34 10
-69 0 -50 4 -67 20 -81 15 -14 20 -31 20 -72 0 -29 5 -53 10 -53 6 0 10 -13
10 -30 0 -19 7 -33 20 -40 13 -7 20 -21 20 -40 0 -19 7 -34 20 -42 11 -7 20
-18 20 -23 0 -17 24 -65 33 -65 4 0 7 -8 7 -18 0 -10 14 -31 30 -47 17 -16 30
-35 30 -42 0 -7 5 -13 10 -13 6 0 10 -8 10 -18 0 -9 18 -37 40 -61 22 -24 40
-46 40 -48 0 -3 27 -31 60 -63 33 -32 60 -63 60 -69 0 -6 5 -11 11 -11 13 0
69 -55 69 -67 0 -5 13 -24 30 -43 16 -19 29 -40 30 -45 0 -6 14 -21 30 -35 17
-14 30 -30 30 -36 0 -7 9 -14 20 -17 11 -3 20 -12 20 -20 0 -8 8 -17 18 -19
10 -3 26 -21 35 -40 9 -19 23 -41 32 -48 8 -7 15 -20 15 -29 0 -9 9 -27 20
-41 11 -14 20 -31 20 -37 0 -7 5 -13 10 -13 6 0 10 -8 10 -18 0 -11 9 -27 20
-37 11 -10 20 -27 20 -37 0 -16 50 -101 69 -118 3 -3 13 -18 21 -35 8 -16 44
-59 80 -95 60 -60 86 -79 133 -94 9 -3 17 -12 17 -21 0 -8 4 -15 10 -15 5 0
37 -27 69 -60 33 -33 64 -60 69 -60 5 0 17 -9 27 -20 10 -11 23 -20 30 -20 7
0 20 -9 30 -20 10 -11 23 -20 29 -20 20 0 136 -124 136 -146 0 -11 9 -29 20
-39 11 -10 20 -22 20 -27 0 -5 23 -31 50 -59 61 -61 65 -91 18 -136 -18 -16
-41 -33 -50 -36 -10 -4 -18 -13 -18 -21 0 -7 -9 -16 -20 -19 -11 -3 -20 -11
-20 -19 0 -23 -52 -38 -137 -38 -49 0 -83 -4 -83 -10 0 -5 -14 -10 -30 -10
-17 0 -39 -6 -50 -12 -15 -10 -22 -10 -32 0 -6 6 -22 12 -35 12 -13 0 -23 5
-23 10 0 6 -6 10 -13 10 -7 0 -35 23 -62 50 -27 28 -57 50 -67 50 -10 0 -18 5
-18 10 0 6 -6 10 -12 10 -17 1 -78 56 -78 71 0 18 -56 92 -109 144 -37 36 -51
57 -51 77 0 17 -8 33 -20 40 -11 7 -20 21 -20 31 0 24 -19 55 -62 101 -21 21
-38 45 -38 53 0 7 -4 13 -10 13 -5 0 -10 9 -10 20 0 27 -17 47 -148 178 -105
104 -116 112 -152 112 -21 0 -42 5 -45 10 -3 6 -14 10 -23 10 -10 0 -23 9 -30
20 -11 19 -23 20 -176 20 -163 0 -164 0 -221 -30 -36 -19 -72 -30 -99 -30 -25
0 -51 -8 -66 -20 -14 -11 -35 -20 -47 -20 -13 0 -23 -4 -23 -10 0 -5 -9 -10
-20 -10 -12 0 -30 -9 -42 -20 -17 -16 -36 -20 -88 -20 -54 0 -70 -4 -85 -20
-15 -17 -31 -20 -95 -20 -64 0 -80 3 -95 20 -10 11 -26 20 -37 20 -10 0 -18 3
-18 8 0 8 -49 32 -67 32 -7 0 -13 5 -13 10 0 6 -31 10 -74 10 -41 0 -78 -4
-81 -10 -3 -5 -14 -10 -24 -10 -9 0 -27 -9 -39 -20 -12 -11 -28 -20 -37 -20
-9 0 -43 -27 -76 -60 -32 -33 -63 -60 -68 -60 -4 0 -19 -19 -31 -43 -22 -42
-22 -44 -5 -70 l17 -27 138 0 c140 0 180 -9 210 -45 7 -8 24 -15 39 -15 15 0
31 -8 39 -20 7 -11 21 -20 32 -20 11 0 20 -3 20 -8 0 -4 15 -14 33 -21 70 -32
77 -52 77 -228 -1 -156 -7 -183 -47 -183 -11 0 -28 -9 -38 -20 -10 -11 -22
-20 -27 -20 -5 0 -23 -13 -40 -30 -28 -28 -34 -30 -108 -30 -43 0 -82 5 -85
10 -3 6 -19 10 -36 10 -16 0 -29 5 -29 10 0 6 -17 10 -38 10 -41 0 -92 20
-112 45 -7 8 -18 15 -25 15 -6 0 -20 9 -30 20 -17 18 -31 20 -175 20 -144 0
-158 -2 -175 -20 -10 -11 -26 -20 -37 -20 -21 0 -52 -16 -82 -42 -11 -10 -28
-18 -39 -18 -10 0 -49 -31 -87 -70 l-68 -70 -309 0 -310 0 -22 24 c-26 28 -29
50 -37 259 -3 70 -9 127 -15 127 -5 0 -9 8 -9 18 0 11 -9 27 -20 37 -11 10
-20 28 -20 40 0 12 -9 30 -20 40 -14 13 -20 31 -20 60 0 29 -6 47 -20 60 -11
10 -20 25 -20 33 0 8 -12 27 -27 41 -16 15 -39 48 -52 74 -13 26 -28 47 -33
47 -4 0 -8 5 -8 12 0 7 -55 69 -122 138 -138 141 -158 164 -158 185 0 7 -4 17
-10 20 -6 4 -10 56 -10 124 0 92 3 121 15 131 26 22 45 72 45 119 0 35 5 49
20 59 12 7 20 23 20 41 0 15 9 36 20 46 11 10 20 26 20 37 0 10 5 18 10 18 6
0 10 11 10 25 0 14 5 25 10 25 6 0 10 7 10 15 0 8 5 15 10 15 6 0 10 8 10 18
0 24 26 76 45 92 8 7 15 22 15 35 0 12 9 30 20 40 11 10 20 29 20 43 0 13 8
36 18 50 10 15 24 41 32 57 8 17 35 51 61 77 25 25 49 54 52 62 4 9 13 16 21
16 7 0 16 9 19 20 3 11 12 20 20 20 8 0 17 9 20 20 3 13 14 20 30 20 14 0 29
5 32 10 3 6 23 10 44 10 25 0 44 7 56 20 14 15 31 20 72 20 29 0 53 5 53 10 0
6 7 10 15 10 8 0 15 3 15 8 0 9 49 32 70 32 9 0 25 9 35 20 10 11 27 20 37 20
11 0 39 14 63 30 44 30 88 39 100 20 3 -5 14 -10 23 -10 10 0 23 -9 30 -20 8
-13 23 -20 42 -20 19 0 33 -7 40 -20 10 -18 21 -20 109 -20 85 0 100 3 116 20
10 11 28 20 39 20 13 0 52 31 101 80 l80 79 93 1 c86 0 95 -2 120 -25 15 -14
43 -33 62 -43 19 -9 44 -24 54 -34 11 -10 28 -18 38 -18 10 0 18 -4 18 -10 0
-6 30 -10 70 -10 40 0 70 4 70 10 0 6 9 10 19 10 11 0 23 5 26 10 3 6 38 10
76 10 56 0 74 4 91 20 12 11 32 20 45 20 13 0 23 5 23 10 0 6 7 10 15 10 12 0
15 17 15 93 l0 92 -40 35 c-22 19 -40 40 -40 45 0 16 80 89 115 105 17 8 44
26 60 41 18 16 44 29 65 31 l35 3 3 77 c3 69 1 77 -18 83 -14 4 -20 15 -20 36
0 18 -7 33 -20 41 -11 7 -20 20 -20 30 0 9 -4 20 -10 23 -5 3 -10 22 -10 41 0
19 -4 34 -10 34 -5 0 -10 9 -10 19 0 11 -4 23 -10 26 -15 9 -13 208 3 236 23
45 28 49 57 49 18 0 39 -11 58 -30z m-8793 -79 c18 -18 212 -22 1285 -29 591
-4 1076 -8 1078 -10 1 -1 2 -16 2 -33 0 -17 8 -43 18 -57 10 -15 24 -41 31
-58 7 -18 26 -44 42 -60 16 -15 29 -33 29 -39 0 -18 67 -65 92 -65 7 0 19 -9
26 -20 11 -18 23 -20 100 -20 71 0 92 4 112 20 14 11 35 20 48 20 24 0 55 15
86 43 11 9 28 17 39 17 10 0 24 6 32 13 38 36 58 47 85 47 16 0 32 5 35 10 16
26 25 4 25 -64 0 -86 0 -86 -101 -86 -38 0 -69 -3 -69 -7 0 -9 -49 -33 -67
-33 -7 0 -13 -4 -13 -10 0 -6 -28 -10 -65 -10 -54 0 -67 -3 -77 -20 -7 -11
-21 -20 -30 -20 -10 0 -18 -4 -18 -9 0 -5 -9 -13 -20 -16 -11 -3 -20 -15 -20
-25 0 -11 -6 -23 -14 -27 -8 -4 -35 -34 -60 -65 l-46 -57 0 -92 c0 -87 2 -95
27 -121 15 -15 35 -28 45 -28 10 0 18 -3 18 -7 0 -15 55 -33 100 -33 45 0 100
18 100 33 0 4 9 7 19 7 11 0 23 5 26 10 3 6 28 10 56 10 27 0 49 5 49 10 0 6
7 10 15 10 8 0 20 9 27 20 7 11 18 20 25 20 7 0 13 5 13 10 0 6 7 10 15 10 8
0 15 5 15 10 0 6 13 10 28 10 16 0 37 9 47 20 11 13 31 20 52 20 26 0 36 -5
40 -20 4 -15 14 -20 39 -20 18 0 37 -6 41 -14 14 -23 102 -86 122 -86 10 0 24
-7 31 -15 17 -20 68 -45 94 -45 12 0 32 -9 46 -20 20 -15 41 -20 102 -20 67 0
79 3 88 20 9 18 21 20 100 20 79 0 91 2 102 20 9 14 24 20 50 20 20 0 40 5 43
10 4 6 113 10 296 10 186 0 289 -4 289 -10 0 -5 7 -10 15 -10 8 0 30 -9 50
-20 22 -13 54 -20 86 -20 36 0 56 -6 71 -20 13 -12 36 -20 56 -20 25 0 35 -5
39 -20 3 -11 12 -20 19 -20 8 0 14 -4 14 -10 0 -5 11 -10 24 -10 14 0 38 -13
54 -30 17 -16 35 -30 41 -30 6 0 11 -7 11 -16 0 -9 9 -18 20 -21 11 -3 20 -12
20 -19 0 -8 7 -17 15 -20 16 -6 45 -58 45 -81 0 -7 3 -13 8 -13 20 0 32 -62
32 -167 0 -69 4 -113 10 -113 6 0 10 -8 10 -18 0 -11 9 -27 20 -37 16 -14 20
-31 20 -75 0 -54 17 -110 33 -110 4 0 7 -15 7 -33 0 -22 10 -44 30 -67 19 -23
29 -46 30 -67 0 -18 5 -33 10 -33 6 0 10 -9 10 -19 0 -11 5 -23 10 -26 6 -3
10 -19 10 -36 0 -16 5 -29 10 -29 6 0 10 -79 10 -218 0 -209 8 -272 33 -272 4
0 7 -33 7 -74 0 -66 2 -75 20 -81 12 -4 20 -15 20 -29 0 -31 24 -77 55 -106
14 -13 25 -28 25 -32 0 -5 15 -30 33 -55 40 -57 76 -113 83 -133 20 -49 35
-79 49 -90 9 -7 15 -29 15 -51 0 -21 5 -41 10 -44 6 -3 10 -14 10 -24 0 -9 9
-27 20 -39 18 -19 20 -35 20 -142 0 -73 -4 -120 -10 -120 -5 0 -10 -5 -10 -12
0 -7 -14 -27 -32 -45 l-32 -33 -101 0 c-89 0 -104 -3 -120 -20 -15 -17 -31
-20 -106 -20 -86 0 -135 -15 -173 -51 -6 -5 -21 -9 -33 -9 -23 0 -103 -68
-103 -87 0 -16 -42 -35 -53 -24 -8 8 -200 11 -634 11 -612 0 -623 0 -635 -20
-11 -17 -24 -20 -86 -20 -62 0 -103 -10 -122 -30 -3 -3 -18 -11 -33 -18 -35
-15 -413 -17 -422 -2 -4 6 -60 10 -135 10 -75 0 -131 -4 -135 -10 -4 -6 -70
-10 -163 -10 -140 0 -160 -3 -182 -20 -14 -11 -33 -20 -42 -20 -10 0 -18 -4
-18 -10 0 -5 -24 -10 -53 -10 -63 0 -90 -21 -85 -67 l3 -28 1530 -5 c842 -3
1542 -10 1557 -14 15 -4 35 -17 44 -27 14 -15 31 -19 84 -19 52 0 71 -4 88
-20 15 -15 35 -20 72 -20 27 0 50 -4 50 -10 0 -5 6 -10 13 -10 14 0 64 -47 56
-53 -35 -24 -74 -27 -314 -30 l-260 -2 -3 -22 c-2 -13 -8 -23 -13 -23 -5 0 -9
-13 -9 -30 0 -16 5 -30 10 -30 6 0 10 -7 10 -15 0 -8 7 -15 15 -15 8 0 15 -4
15 -9 0 -6 21 -11 46 -13 58 -4 75 -24 54 -64 -8 -14 -21 -28 -30 -31 -8 -2
-23 -9 -32 -14 -10 -5 -27 -9 -37 -9 -11 0 -23 -4 -26 -10 -4 -6 -95 -10 -240
-10 -145 0 -236 -4 -240 -10 -4 -6 -85 -10 -211 -10 -129 0 -204 -4 -204 -10
0 -6 -82 -10 -225 -10 -217 0 -227 -1 -255 -22 -17 -12 -30 -28 -30 -35 0 -7
-4 -13 -10 -13 -5 0 -10 -8 -10 -18 0 -23 50 -72 73 -72 9 0 17 -4 17 -10 0
-6 54 -10 143 -10 l142 0 24 -50 c13 -28 29 -50 37 -50 8 0 14 -3 14 -7 0 -16
57 -33 111 -33 66 0 92 -18 65 -45 -9 -9 -16 -21 -16 -26 0 -5 -9 -9 -19 -9
-10 0 -21 -6 -24 -14 -7 -18 14 -66 29 -66 16 0 64 -24 64 -32 0 -5 8 -8 18
-8 19 0 42 -18 42 -32 0 -4 -588 -8 -1307 -8 l-1307 0 -33 32 c-18 18 -33 38
-33 45 0 7 -4 13 -10 13 -5 0 -10 8 -10 18 0 11 -9 27 -20 37 -11 10 -20 22
-20 27 0 23 -134 128 -163 128 -8 0 -20 7 -27 15 -34 41 -63 45 -340 45 -254
0 -268 1 -285 20 -10 11 -28 20 -40 20 -12 0 -30 9 -40 20 -10 11 -26 20 -37
20 -10 0 -18 5 -18 10 0 6 -11 10 -25 10 -28 0 -32 12 -10 30 10 8 56 11 149
11 83 -1 137 2 141 9 3 6 46 10 99 10 50 0 96 4 102 10 5 5 93 11 199 12 l190
3 0 45 c0 39 -3 45 -22 48 -13 2 -23 8 -23 13 0 5 -157 9 -393 9 -381 0 -394
1 -412 20 -11 12 -31 20 -51 20 -18 0 -36 5 -39 10 -3 6 -17 10 -30 10 -13 0
-35 11 -48 24 -23 23 -24 26 -8 40 11 10 36 16 64 16 26 0 56 5 67 12 15 9 24
9 43 -1 35 -19 297 -1 297 20 0 5 215 9 512 9 462 0 513 2 530 17 22 20 23 61
1 85 -15 17 -41 18 -395 18 -232 0 -378 4 -378 9 0 10 -118 16 -496 27 -174 4
-193 7 -209 24 -10 11 -26 20 -37 20 -10 0 -18 5 -18 10 0 6 -11 10 -24 10
-27 0 -79 45 -73 63 3 9 84 13 335 15 210 1 332 6 332 12 0 6 6 10 13 10 24 0
49 37 45 67 l-3 28 -115 3 c-63 1 -119 7 -124 12 -6 6 -72 10 -147 10 -81 0
-140 4 -144 10 -3 6 -30 10 -58 10 -47 1 -87 16 -87 34 0 3 11 6 25 6 14 0 25
5 25 10 0 6 6 10 13 10 6 0 23 9 37 20 14 11 34 20 46 20 11 0 29 9 39 20 11
12 31 20 49 20 17 0 42 9 56 20 14 11 33 20 42 20 9 0 20 5 23 10 3 6 15 10
26 10 11 0 29 9 41 20 22 20 36 20 1365 20 889 0 1343 3 1343 10 0 6 8 10 17
10 9 0 30 12 45 27 21 20 28 36 28 64 0 39 -12 50 -82 73 -10 3 -18 12 -18 21
0 10 -10 15 -33 15 -34 0 -87 20 -87 33 0 4 -6 7 -14 7 -8 0 -40 14 -71 30
-31 17 -65 30 -75 30 -11 0 -22 5 -25 10 -3 6 -15 10 -26 10 -10 0 -19 3 -19
8 0 13 -53 32 -90 32 -24 0 -43 7 -55 20 -17 19 -31 20 -282 20 -144 0 -263
-3 -263 -7 0 -19 -60 -33 -136 -33 -81 0 -89 -2 -186 -51 -10 -5 -46 -9 -81
-9 -38 0 -77 -6 -96 -16 -17 -9 -37 -13 -44 -10 -51 26 -72 45 -75 69 -2 15
-8 27 -13 27 -5 0 -9 5 -9 10 0 6 -9 20 -20 32 -11 12 -26 34 -32 50 -7 15
-16 28 -20 28 -5 0 -8 8 -8 19 0 10 -7 24 -15 31 -19 16 -45 68 -45 92 0 12 7
18 24 18 38 0 90 56 112 123 4 9 10 17 15 17 5 0 9 11 9 25 0 14 6 25 13 25 7
0 26 14 42 30 16 17 32 30 37 30 16 0 48 35 48 52 0 10 5 18 10 18 6 0 10 7
10 15 0 8 4 15 9 15 6 0 43 31 83 70 54 51 80 70 101 70 15 0 27 -4 27 -10 0
-5 7 -10 15 -10 8 0 15 -4 15 -10 0 -5 23 -10 50 -10 28 0 50 5 50 10 0 6 5
10 10 10 11 0 60 45 60 55 0 3 18 22 40 44 22 21 40 43 40 48 0 6 9 18 20 28
16 14 20 31 20 82 0 35 -4 63 -10 63 -5 0 -10 5 -10 10 0 6 -9 20 -20 32 -11
12 -20 28 -20 35 0 7 -4 13 -10 13 -5 0 -10 9 -10 19 0 11 -4 23 -10 26 -5 3
-10 27 -10 53 0 31 -7 55 -20 72 -11 14 -20 35 -20 48 0 12 -4 22 -10 22 -5 0
-10 8 -10 18 0 11 -9 27 -20 37 -29 26 -29 120 0 135 29 16 29 104 0 120 -11
6 -20 20 -20 31 0 30 -88 109 -121 109 -15 0 -31 5 -34 10 -3 6 -14 10 -24 10
-10 0 -26 9 -36 20 -10 11 -30 20 -45 20 -14 0 -36 9 -48 20 -14 13 -35 20
-60 20 -26 0 -45 -7 -57 -20 -10 -11 -28 -20 -39 -20 -12 0 -27 9 -34 20 -7
11 -19 20 -27 20 -7 0 -20 9 -28 21 -12 16 -23 20 -58 17 -40 -3 -44 -6 -47
-32 -2 -16 1 -33 7 -39 15 -15 14 -47 -2 -47 -7 0 -18 9 -25 20 -7 12 -23 20
-40 20 -15 0 -35 9 -45 20 -12 14 -29 20 -62 20 -34 0 -47 -5 -55 -20 -7 -13
-21 -20 -40 -20 -19 0 -33 7 -40 20 -7 13 -21 20 -43 20 -21 1 -44 11 -67 30
-19 17 -43 30 -54 30 -27 0 -56 -29 -56 -55 0 -38 -19 -45 -124 -45 l-100 0
-38 -37 c-22 -22 -38 -47 -38 -60 0 -30 -31 -61 -67 -65 -25 -3 -28 -7 -31
-45 -3 -41 -2 -43 37 -60 23 -10 41 -21 41 -25 0 -5 -94 -8 -210 -8 -133 0
-210 4 -210 10 0 6 -7 10 -15 10 -8 0 -15 5 -15 10 0 6 -11 10 -24 10 -14 0
-28 5 -31 10 -3 6 -17 10 -31 10 -14 0 -34 9 -46 20 -21 19 -36 20 -504 20
-413 0 -483 -2 -494 -15 -14 -17 -67 -45 -87 -45 -7 0 -13 -4 -13 -8 0 -5 -16
-14 -35 -22 -19 -8 -35 -17 -35 -22 0 -4 -8 -8 -18 -8 -11 0 -27 -9 -37 -20
-10 -11 -23 -20 -29 -20 -6 0 -27 -18 -46 -40 -19 -22 -41 -40 -47 -40 -7 0
-13 -7 -13 -15 0 -8 -4 -15 -10 -15 -5 0 -10 -9 -10 -20 0 -11 -9 -35 -19 -54
-18 -32 -20 -58 -22 -307 -1 -197 1 -274 10 -277 6 -2 11 -9 11 -16 0 -18 24
-66 33 -66 4 0 7 -7 7 -15 0 -8 5 -15 11 -15 14 0 69 -55 69 -69 0 -6 9 -11
21 -11 11 0 34 -9 50 -21 42 -29 41 -90 -2 -142 -17 -20 -37 -37 -44 -37 -8 0
-26 -11 -40 -25 -24 -25 -25 -32 -25 -132 0 -150 10 -143 -209 -143 -159 0
-178 -2 -201 -20 -14 -11 -31 -20 -37 -20 -7 0 -13 -4 -13 -10 0 -6 -38 -10
-93 -10 -81 0 -96 -3 -112 -20 -17 -18 -31 -20 -170 -20 -142 0 -205 10 -205
33 0 4 -16 7 -35 7 -19 0 -35 5 -35 10 0 6 -6 10 -14 10 -7 0 -19 7 -26 15 -7
9 -28 23 -46 31 -19 9 -34 20 -34 25 0 5 -11 9 -24 9 -14 0 -28 5 -31 10 -3 6
-14 10 -23 10 -9 0 -28 9 -42 20 -21 17 -41 20 -137 20 -63 0 -114 4 -118 10
-8 13 -165 13 -165 0 0 -7 -60 -10 -172 -8 l-173 3 -3 41 c-2 26 -11 49 -23
59 -15 15 -19 31 -19 91 0 40 -4 76 -10 79 -5 3 -10 17 -10 31 0 13 -4 24 -10
24 -5 0 -10 9 -10 19 0 11 -4 23 -10 26 -6 3 -10 50 -10 105 0 55 4 102 10
105 6 3 10 15 10 26 0 10 3 19 8 19 15 0 32 56 32 107 0 29 3 53 8 53 9 0 32
49 32 70 0 9 9 25 20 35 11 10 20 26 20 37 0 10 5 18 10 18 6 0 10 10 10 23 0
13 9 33 20 45 11 12 20 32 20 46 0 33 20 78 42 94 14 10 18 27 18 70 0 41 6
64 20 82 18 23 20 42 20 192 0 100 4 169 10 173 6 4 10 73 10 176 0 106 -4
169 -10 169 -6 0 -10 120 -10 341 l0 340 42 62 c46 69 91 117 107 117 6 0 11
5 11 10 0 20 98 109 121 111 49 4 59 0 59 -26 0 -14 5 -25 10 -25 6 0 10 -7
10 -15 0 -8 5 -15 11 -15 16 0 69 -57 69 -74 0 -10 12 -19 30 -23 17 -3 33
-10 36 -14 3 -5 13 -9 22 -9 10 0 23 -9 30 -20 10 -16 23 -20 65 -20 47 0 53
-3 65 -27 18 -39 15 -71 -8 -91 -17 -14 -47 -18 -168 -22 l-147 -5 -3 -51 c-2
-40 1 -54 18 -69 11 -10 20 -28 20 -39 0 -12 17 -39 38 -62 20 -23 44 -54 52
-70 30 -60 38 -64 118 -64 86 0 112 14 112 62 0 21 6 31 20 35 11 3 20 10 20
17 0 6 9 22 20 36 11 14 20 30 20 36 0 17 56 74 72 74 8 0 18 4 23 8 18 16 92
32 143 32 60 0 82 7 82 26 0 8 5 14 11 14 22 0 109 103 109 130 0 24 99 130
122 130 19 0 65 26 83 47 6 6 19 13 30 15 14 2 21 12 23 35 3 25 -3 36 -31 57
-19 14 -42 26 -53 26 -10 0 -30 9 -44 20 -15 12 -41 20 -66 20 -40 0 -94 -18
-94 -32 0 -5 -18 -8 -40 -8 -51 0 -89 38 -90 88 l0 32 773 0 c465 0 777 -4
782 -9z m4300 -171 c10 -11 26 -20 36 -20 10 0 23 -9 29 -20 6 -11 19 -20 29
-20 16 0 47 -29 171 -158 18 -18 40 -60 40 -75 0 -6 9 -20 19 -31 14 -15 20
-38 21 -81 4 -105 16 -96 -117 -93 l-118 3 -3 35 c-2 20 -12 40 -23 48 -10 7
-19 19 -19 27 0 21 -68 85 -90 85 -11 0 -24 9 -30 20 -9 16 -21 20 -63 20 -39
0 -59 5 -75 20 -12 11 -32 20 -45 20 -12 0 -27 4 -32 9 -6 5 -28 11 -49 13
-54 4 -83 42 -64 84 19 42 37 53 89 54 31 0 52 6 67 20 15 14 35 20 69 20 32
0 56 7 73 20 32 25 62 25 85 0z m375 0 c18 -14 41 -20 83 -20 31 0 57 -4 57
-10 0 -6 26 -10 59 -10 33 0 63 -4 66 -10 3 -5 46 -10 94 -10 95 0 111 -7 111
-51 0 -35 -52 -89 -86 -89 -13 0 -24 -4 -24 -10 0 -5 -6 -10 -14 -10 -17 0
-136 -110 -136 -126 0 -20 -46 -55 -63 -48 -14 5 -17 21 -17 85 0 68 -3 80
-20 89 -11 6 -20 18 -20 26 0 8 -13 35 -30 59 -16 24 -30 48 -30 52 0 5 -18
22 -39 39 -22 16 -44 37 -50 47 -9 14 -8 17 11 17 13 0 34 -9 48 -20z m730
-95 c7 -9 27 -22 44 -30 45 -21 61 -62 40 -103 -8 -18 -23 -32 -33 -32 -10 0
-26 -9 -36 -20 -10 -11 -23 -20 -29 -20 -17 0 -46 -38 -46 -60 0 -10 -4 -22
-10 -25 -31 -19 18 -133 74 -171 19 -13 43 -24 54 -24 10 0 27 -9 37 -20 16
-17 31 -20 114 -20 128 -1 131 -3 131 -113 0 -47 5 -89 10 -92 6 -3 10 -23 10
-44 0 -25 7 -44 20 -56 12 -11 20 -31 20 -51 0 -23 6 -38 20 -46 12 -8 20 -24
20 -40 0 -15 5 -30 10 -33 6 -3 10 -44 10 -90 0 -73 -3 -87 -23 -110 -21 -25
-24 -25 -49 -12 -39 20 -108 80 -108 93 0 15 -53 115 -80 154 -11 15 -20 33
-20 39 0 6 -4 11 -10 11 -5 0 -10 8 -10 19 0 10 -7 24 -15 31 -9 7 -24 32 -35
54 -10 23 -35 57 -54 75 -20 19 -36 41 -36 48 0 7 -4 13 -10 13 -5 0 -10 6
-10 13 0 7 -9 18 -20 25 -11 7 -20 17 -20 24 0 18 -31 48 -51 48 -10 0 -23 9
-29 20 -6 11 -17 20 -24 20 -7 0 -21 9 -31 20 -10 11 -26 20 -37 20 -10 0 -18
5 -18 10 0 6 -17 10 -38 10 -47 0 -103 26 -109 51 -3 11 -9 19 -14 19 -5 0 -9
9 -9 20 0 11 5 20 10 20 6 0 10 7 10 15 0 8 6 15 13 15 8 0 22 9 32 20 10 11
28 20 40 20 12 0 34 14 50 30 16 17 35 30 42 30 7 0 13 5 13 10 0 6 7 10 15
10 8 0 15 7 15 15 0 8 5 15 10 15 6 0 10 6 10 13 0 7 14 26 30 42 25 24 30 37
30 75 0 26 3 50 7 53 12 13 60 7 73 -8z m891 -316 c16 -17 29 -35 29 -40 0 -5
14 -22 31 -39 30 -28 38 -30 104 -30 52 0 76 -4 85 -15 10 -12 9 -16 -6 -22
-11 -4 -28 -15 -38 -25 -11 -10 -30 -18 -43 -18 -13 0 -23 -4 -23 -10 0 -5 -6
-10 -13 -10 -18 0 -67 -24 -67 -32 0 -5 -7 -8 -15 -8 -8 0 -15 -7 -15 -15 0
-9 -8 -19 -17 -22 -26 -10 -51 -31 -123 -103 -73 -73 -100 -106 -100 -120 0
-6 -4 -10 -10 -10 -5 0 -10 -10 -10 -22 0 -29 -39 -79 -47 -60 -2 6 -10 12
-16 12 -18 0 -37 49 -37 95 0 29 -6 45 -20 55 -18 13 -20 26 -20 134 l0 119
42 39 c23 21 51 38 65 38 12 0 23 5 23 10 0 6 7 10 15 10 8 0 15 5 15 10 0 6
7 10 15 10 8 0 15 4 15 9 0 5 10 11 23 13 14 2 23 11 25 26 2 12 8 22 13 22 5
0 9 7 9 15 0 11 11 15 41 15 33 0 47 -6 70 -31z m739 22 c0 -17 45 -25 165
-30 l120 -6 3 -28 c3 -23 -10 -40 -77 -106 -45 -44 -81 -84 -81 -90 0 -6 -7
-11 -16 -11 -9 0 -18 -9 -21 -20 -3 -11 -10 -20 -15 -20 -6 0 -28 -18 -49 -40
-22 -22 -44 -40 -49 -40 -17 0 -54 -24 -81 -52 -14 -16 -30 -28 -35 -28 -16 0
-64 -24 -64 -32 0 -5 -70 -8 -155 -8 -158 0 -174 -3 -219 -42 -13 -12 -36 -18
-71 -18 -39 0 -56 -5 -70 -20 -10 -11 -24 -20 -32 -20 -7 0 -13 -4 -13 -10 0
-16 -20 -12 -27 6 -7 20 153 184 179 184 10 0 18 3 18 8 0 8 48 32 66 32 7 0
14 4 16 8 2 4 28 20 59 35 32 15 76 48 100 75 48 52 79 90 79 95 0 2 18 23 40
46 22 23 40 51 40 62 0 11 12 33 28 49 24 26 33 29 95 30 37 0 67 -4 67 -9z
m-7600 -1421 c12 -7 12 -12 2 -22 -6 -6 -12 -24 -12 -38 0 -14 -9 -36 -20 -48
-18 -19 -20 -35 -20 -174 0 -136 3 -156 20 -178 31 -40 25 -110 -10 -110 -25
0 -50 43 -50 85 0 22 -8 44 -20 57 -11 12 -20 28 -20 35 0 7 -4 13 -10 13 -6
0 -10 37 -10 90 0 53 4 90 10 90 6 0 10 11 10 23 0 13 9 32 20 42 12 11 20 31
20 51 0 23 9 41 31 63 33 34 37 35 59 21z m721 -726 c18 -19 52 -44 75 -54 22
-11 47 -26 54 -35 7 -8 27 -15 44 -15 20 0 43 -11 66 -30 23 -20 46 -30 68
-30 19 0 42 -8 54 -20 20 -18 36 -20 180 -20 147 0 159 1 170 20 15 24 63 27
72 5 3 -8 -3 -31 -14 -50 -11 -20 -20 -44 -20 -55 0 -10 -4 -22 -10 -25 -5 -3
-10 -14 -10 -23 0 -9 -9 -28 -20 -42 -14 -18 -20 -41 -20 -82 0 -51 -5 -64
-36 -105 -42 -57 -72 -82 -96 -83 -10 0 -23 -9 -30 -20 -7 -11 -23 -20 -34
-20 -12 0 -48 -13 -79 -30 -31 -16 -66 -30 -76 -30 -10 0 -19 -4 -19 -10 0 -5
-7 -10 -15 -10 -8 0 -15 -4 -15 -10 0 -5 -7 -10 -15 -10 -8 0 -15 -4 -15 -10
0 -6 -29 -10 -68 -10 -56 0 -72 -4 -87 -20 -15 -16 -31 -20 -84 -20 -55 0 -69
3 -81 20 -11 15 -26 20 -65 20 -49 0 -105 17 -105 33 0 4 -7 7 -15 7 -8 0 -23
4 -33 9 -9 5 -29 14 -44 22 -21 9 -28 20 -28 40 0 15 -14 53 -31 85 -23 45
-29 68 -26 94 10 66 20 95 39 108 11 8 18 25 18 46 0 20 8 40 20 51 11 10 20
26 20 35 0 21 23 70 33 70 4 0 7 7 7 15 0 8 5 15 10 15 6 0 10 10 10 23 0 13
8 32 18 43 24 28 42 61 42 79 0 8 9 19 20 25 11 6 20 17 20 25 0 12 14 15 58
15 54 0 61 -3 93 -36z m1247 -230 c3 -52 7 -63 40 -96 36 -37 37 -38 114 -38
67 0 79 -3 88 -20 6 -11 17 -20 24 -20 7 0 31 -20 54 -44 30 -32 42 -53 42
-75 0 -20 7 -34 20 -41 11 -6 20 -17 20 -25 0 -7 9 -17 20 -20 11 -3 20 -13
20 -21 0 -17 18 -51 44 -81 16 -18 17 -25 6 -38 -14 -17 -70 -21 -70 -5 0 6
-56 10 -148 10 -134 0 -150 2 -170 20 -14 13 -35 20 -61 20 -22 0 -43 5 -46
10 -3 6 -19 10 -36 10 -16 0 -29 3 -29 8 0 19 -61 32 -148 32 -106 0 -121 8
-122 67 0 22 9 40 30 60 17 15 30 33 30 40 0 6 9 15 20 18 11 4 20 15 20 27 0
11 8 22 18 24 17 5 42 46 42 70 0 16 152 174 165 170 6 -1 11 -29 13 -62z
m8402 -150 c0 -9 8 -18 18 -20 17 -5 42 -47 42 -72 0 -8 14 -28 30 -44 17 -15
30 -33 30 -38 0 -6 3 -10 8 -10 9 0 32 -49 32 -70 0 -21 193 -210 214 -210 9
0 16 -4 16 -10 0 -5 11 -10 24 -10 30 0 92 -60 74 -72 -7 -4 -101 -8 -209 -8
l-197 0 -7 37 c-4 21 -6 105 -4 188 3 168 -9 235 -41 235 -10 0 -22 9 -25 20
-3 11 -11 20 -16 20 -5 0 -9 6 -9 14 0 8 -5 16 -11 18 -16 5 -1 48 17 48 8 0
14 -7 14 -16z m-10280 -174 l0 -90 -60 0 -60 0 0 38 c0 26 7 45 20 57 11 10
20 28 20 40 0 29 19 45 52 45 l28 0 0 -90z m9817 -72 c60 -60 68 -77 65 -124
-2 -25 -69 -94 -92 -94 -8 0 -38 -17 -66 -38 -83 -61 -86 -62 -206 -62 -113 0
-113 0 -125 27 -17 36 -16 188 1 238 7 22 23 44 35 50 11 5 21 13 21 17 0 5
14 8 30 8 17 0 40 9 52 20 19 17 36 20 123 20 l101 0 61 -62z m-599 -64 c2
-32 10 -56 24 -71 11 -12 21 -33 21 -46 0 -25 -29 -77 -44 -77 -4 0 -20 -11
-34 -26 -14 -14 -30 -22 -35 -19 -6 3 -10 41 -10 84 0 63 4 81 20 99 13 14 20
35 20 60 0 73 33 70 38 -4z m939 24 c13 -12 23 -32 23 -46 0 -13 9 -37 21 -53
18 -25 19 -32 7 -47 -30 -39 -67 -72 -80 -72 -8 0 -27 -13 -43 -30 -26 -28
-34 -30 -96 -30 -37 0 -71 4 -74 10 -6 10 46 70 62 70 22 0 63 57 63 88 0 18
4 32 8 32 5 0 15 12 23 28 40 79 49 85 86 50z m-10317 -368 c0 -5 7 -10 15
-10 8 0 15 -4 15 -10 0 -5 8 -10 18 -10 24 0 76 -26 92 -45 7 -8 27 -15 45
-15 19 0 39 -8 50 -20 10 -11 31 -20 47 -20 15 0 28 -3 28 -8 0 -4 10 -12 23
-17 12 -6 23 -20 25 -32 l3 -23 -475 0 c-306 0 -477 -4 -481 -10 -4 -6 -64
-10 -149 -10 -78 0 -146 -4 -152 -9 -15 -15 -121 -22 -377 -27 -261 -5 -267
-4 -267 54 0 16 -9 37 -20 47 -11 10 -20 24 -20 32 0 7 -4 13 -10 13 -5 0 -10
8 -10 18 0 11 -9 27 -20 37 -23 20 -26 45 -8 63 16 16 1628 18 1628 2z m218
-410 c18 -17 35 -20 112 -20 50 0 98 -4 108 -9 81 -41 108 -51 132 -51 20 0
35 -9 50 -30 12 -16 18 -34 15 -40 -4 -6 -164 -10 -452 -10 -401 0 -448 -2
-465 -17 -21 -19 -23 -60 -4 -85 12 -17 45 -18 445 -18 243 0 431 -4 431 -9 0
-13 38 -24 105 -30 46 -5 61 -10 63 -23 3 -15 -5 -18 -52 -18 -45 0 -58 -4
-68 -20 -7 -11 -20 -20 -30 -20 -9 0 -20 -4 -23 -10 -3 -5 -31 -10 -61 -10
-30 0 -54 -4 -54 -10 0 -5 -7 -10 -15 -10 -8 0 -15 -4 -15 -10 0 -7 -286 -10
-837 -10 l-838 0 -34 28 c-95 76 -111 94 -111 128 0 18 -4 36 -10 39 -5 3 -10
17 -10 30 0 14 -9 29 -20 35 -17 9 -20 21 -20 80 0 38 -4 72 -10 75 -14 8 -13
38 2 53 9 9 207 12 828 12 802 0 817 0 838 -20z m9727 -30 c3 -5 14 -10 23
-10 9 0 28 -9 42 -20 15 -12 41 -20 66 -20 28 0 47 -6 59 -20 12 -13 31 -20
57 -20 21 0 38 -3 38 -7 0 -9 49 -33 67 -33 7 0 13 -4 13 -10 0 -5 17 -10 38
-10 22 0 63 -13 97 -30 37 -18 76 -29 102 -30 32 0 45 -5 53 -20 9 -16 21 -20
64 -20 40 0 57 -5 71 -20 10 -11 26 -20 37 -20 10 0 18 -4 18 -10 0 -5 6 -10
13 -10 8 0 22 -9 32 -20 10 -11 24 -20 32 -20 7 0 13 -3 13 -7 0 -5 18 -21 40
-37 22 -17 40 -36 40 -43 0 -7 7 -13 16 -13 9 0 18 -9 21 -19 3 -11 13 -21 24
-24 10 -3 19 -13 19 -23 0 -24 69 -94 92 -94 10 0 21 -8 24 -17 15 -44 29 -73
36 -73 5 0 8 -13 8 -30 0 -19 7 -34 20 -42 13 -9 20 -24 20 -45 0 -17 5 -35
10 -38 6 -3 10 -13 10 -21 0 -8 9 -24 20 -36 11 -12 20 -32 20 -45 0 -13 5
-23 10 -23 6 0 10 -5 10 -10 0 -6 9 -20 20 -32 22 -24 26 -38 10 -38 -5 0 -10
-7 -10 -15 0 -22 -53 -19 -75 5 -10 11 -26 20 -37 20 -10 0 -18 5 -18 10 0 6
-6 10 -13 10 -7 0 -44 32 -82 70 -38 39 -77 70 -85 70 -21 0 -70 23 -70 33 0
4 -7 7 -15 7 -9 0 -18 7 -22 16 -14 38 -80 86 -145 108 -10 3 -18 12 -18 21 0
8 -7 15 -15 15 -8 0 -19 9 -25 20 -6 11 -19 20 -30 20 -10 0 -22 5 -25 10 -3
6 -14 10 -24 10 -10 0 -26 9 -36 20 -18 20 -31 20 -751 20 l-732 0 -30 30
c-18 17 -41 30 -56 30 -16 0 -27 7 -31 20 -3 11 -14 20 -24 20 -10 0 -26 9
-36 20 -10 11 -26 20 -37 20 -10 0 -18 5 -18 10 0 6 -6 10 -13 10 -8 0 -22 9
-32 20 -10 11 -28 20 -41 20 -13 0 -26 5 -29 10 -3 6 -15 10 -26 10 -10 0 -19
5 -19 10 0 6 -11 10 -25 10 -14 0 -25 -4 -25 -9 0 -5 -9 -11 -20 -14 -14 -4
-20 -14 -20 -36 0 -24 14 -44 64 -96 34 -36 68 -65 75 -65 6 0 11 -3 11 -8 0
-7 29 -21 73 -36 9 -3 17 -12 17 -21 0 -8 7 -15 16 -15 9 0 18 -9 21 -20 3
-11 12 -20 19 -20 8 0 17 -7 21 -16 7 -18 50 -64 61 -64 4 0 13 -9 20 -20 11
-18 23 -20 136 -20 73 0 127 -4 131 -10 3 -5 17 -10 30 -10 13 0 27 -4 30 -10
4 -6 199 -10 552 -10 l546 0 26 -27 c30 -32 64 -53 86 -53 8 0 15 -4 15 -10 0
-5 6 -10 13 -10 19 0 157 -143 157 -163 0 -9 5 -17 11 -17 14 0 69 -55 69 -70
0 -6 26 -41 58 -77 85 -97 480 -493 492 -493 5 0 10 -9 10 -20 0 -13 7 -20 20
-20 11 0 20 -5 20 -11 0 -6 14 -24 30 -41 26 -25 30 -37 30 -83 0 -36 -7 -67
-20 -90 -11 -20 -20 -44 -20 -53 0 -55 -96 -85 -135 -42 -16 18 -31 20 -141
20 -71 0 -125 4 -129 10 -3 6 -18 10 -33 10 -15 0 -38 9 -52 20 -22 17 -41 20
-156 20 -118 0 -133 2 -149 20 -15 17 -31 20 -97 20 -45 0 -78 4 -78 10 0 6
-6 10 -13 10 -8 0 -22 9 -32 20 -17 19 -31 20 -217 20 -139 0 -204 -4 -218
-12 -15 -10 -22 -10 -32 0 -6 6 -29 12 -51 12 -26 0 -52 9 -82 30 l-44 30
-175 0 c-106 0 -177 -4 -181 -10 -3 -5 -15 -10 -26 -10 -11 0 -29 -9 -41 -20
-12 -11 -36 -20 -53 -20 -19 0 -39 -8 -50 -20 -10 -11 -26 -20 -36 -20 -10 0
-21 -4 -24 -10 -3 -5 -45 -10 -92 -10 -66 0 -91 4 -111 18 -15 10 -44 26 -64
35 -45 21 -108 79 -108 99 0 8 -9 23 -20 33 -11 10 -20 24 -20 31 0 8 -9 19
-20 26 -11 7 -20 18 -20 25 0 7 -4 13 -10 13 -5 0 -10 11 -10 25 0 14 -4 25
-10 25 -5 0 -10 7 -10 15 0 8 -3 15 -7 15 -9 0 -33 49 -33 67 0 7 -4 13 -10
13 -5 0 -10 5 -10 11 0 6 -21 33 -47 60 -26 27 -60 76 -75 109 -16 33 -36 60
-44 60 -8 0 -14 7 -14 16 0 9 -9 18 -20 21 -11 3 -20 12 -20 20 0 8 -9 17 -20
20 -11 3 -20 10 -20 15 0 12 -97 108 -110 108 -5 0 -10 7 -10 15 0 9 -10 19
-23 24 -13 5 -29 16 -36 25 -8 9 -29 16 -50 16 -38 0 -91 19 -91 33 0 4 -7 7
-15 7 -8 0 -15 5 -15 10 0 6 -30 10 -70 10 -40 0 -70 -4 -70 -10 0 -5 -6 -10
-13 -10 -18 0 -67 -24 -67 -32 0 -5 -25 -8 -55 -8 -30 0 -55 -4 -55 -10 0 -5
-7 -10 -15 -10 -8 0 -15 -4 -15 -10 0 -7 -327 -10 -960 -10 -528 0 -960 3
-960 8 0 16 -58 32 -120 32 l-67 0 -92 90 c-51 49 -90 94 -86 100 3 5 31 10
61 10 l56 0 -4 48 -3 47 56 3 c41 2 62 8 74 22 17 19 32 20 226 20 128 0 210
4 214 10 3 6 22 10 41 10 32 0 72 15 84 32 3 4 87 9 185 10 159 3 180 5 183
20 2 9 -5 26 -15 37 -14 17 -29 21 -85 21 -38 0 -68 3 -68 8 0 4 -10 12 -22
17 -15 7 -23 19 -23 35 0 16 8 28 23 35 12 5 22 13 22 17 0 5 42 8 93 8 86 0
147 13 147 33 0 4 8 7 18 7 10 0 31 14 47 30 l29 30 378 0 378 0 30 27 c34 30
39 66 13 95 -9 10 -24 18 -35 18 -10 0 -18 5 -18 10 0 6 -105 10 -294 10 -186
0 -297 4 -301 10 -3 6 -16 10 -27 10 -35 0 -68 39 -68 79 0 41 32 81 66 81 13
0 26 5 29 10 4 7 523 10 1525 10 1002 0 1521 -3 1525 -10z m1780 1 c6 -5 24
-11 40 -13 l30 -3 3 -192 c1 -111 -1 -193 -7 -193 -17 0 -25 -47 -31 -185 l-5
-140 -37 -3 c-30 -3 -38 0 -38 13 0 9 -8 29 -18 43 -10 15 -31 53 -46 85 -16
32 -34 61 -42 64 -8 3 -14 13 -14 23 0 9 -9 25 -20 35 -11 10 -20 28 -20 40 0
12 -13 34 -30 50 -16 16 -30 35 -30 42 0 7 -4 13 -10 13 -5 0 -10 6 -10 14 0
21 -109 136 -129 136 -9 0 -27 9 -41 20 -14 11 -41 20 -62 20 -27 0 -40 6 -48
20 -9 17 -21 20 -70 20 -33 0 -60 4 -60 10 0 6 -6 10 -13 10 -18 0 -67 24 -67
33 0 4 -15 7 -33 7 -42 0 -52 9 -29 26 13 11 103 13 422 14 235 0 410 -4 415
-9z m1168 -3 c39 -23 67 -51 67 -69 0 -10 5 -21 10 -24 6 -3 10 -17 10 -30 0
-13 -4 -27 -10 -30 -5 -3 -10 -16 -10 -29 0 -13 -9 -31 -20 -41 -11 -10 -20
-26 -20 -37 0 -10 -3 -18 -7 -18 -9 0 -33 -49 -33 -67 0 -7 -4 -13 -10 -13 -5
0 -10 -6 -10 -12 0 -7 -9 -24 -20 -38 -11 -14 -20 -32 -20 -41 0 -8 -13 -28
-30 -44 -16 -16 -30 -38 -30 -49 0 -11 -30 -52 -67 -91 -82 -87 -93 -101 -93
-115 0 -5 -3 -10 -8 -10 -7 0 -21 -29 -36 -72 -3 -10 -12 -18 -20 -18 -7 0
-16 -9 -19 -20 -3 -11 -12 -20 -21 -20 -9 0 -16 -7 -16 -16 0 -9 -8 -18 -17
-20 -22 -6 -63 -67 -63 -93 0 -11 -9 -23 -20 -26 -11 -3 -20 -11 -20 -16 0
-24 -59 -69 -89 -69 l-31 0 0 95 c0 52 3 95 8 95 25 0 32 64 32 287 0 149 4
233 10 233 6 0 10 11 10 24 0 14 5 28 10 31 6 3 10 46 10 96 0 53 4 89 10 89
6 0 10 8 10 17 0 10 15 48 33 85 23 49 37 68 52 68 11 0 27 5 35 10 23 15 405
13 433 -2z m-13328 -564 c127 -3 234 -9 240 -15 5 -5 35 -9 66 -9 32 0 61 -4
64 -10 4 -6 198 -10 549 -10 534 0 596 -3 596 -32 0 -5 26 -8 58 -8 46 0 63
-4 77 -20 10 -11 26 -20 37 -20 10 0 18 -4 18 -10 0 -5 11 -10 25 -10 14 0 25
-4 25 -10 0 -5 7 -10 15 -10 8 0 15 -4 15 -10 0 -5 11 -10 23 -10 35 0 107
-70 107 -104 0 -16 -7 -29 -17 -32 -44 -15 -73 -29 -73 -36 0 -5 -7 -8 -15 -8
-15 0 -55 -19 -65 -31 -3 -3 -22 -12 -42 -20 -21 -7 -38 -17 -38 -21 0 -4 -6
-8 -13 -8 -18 0 -67 -24 -67 -32 0 -5 -15 -8 -34 -8 -25 0 -35 -5 -39 -20 -5
-18 -14 -20 -86 -20 -47 0 -81 4 -81 10 0 6 -7 10 -15 10 -8 0 -15 5 -15 10 0
6 -7 10 -15 10 -8 0 -15 3 -15 8 0 8 -49 32 -67 32 -7 0 -13 5 -13 10 0 6 -24
10 -54 10 -30 0 -58 5 -61 10 -3 6 -15 10 -26 10 -10 0 -19 5 -19 10 0 6 -66
10 -179 10 -109 0 -182 -4 -186 -10 -3 -5 -15 -10 -26 -10 -10 0 -19 -4 -19
-10 0 -6 -34 -10 -83 -10 -79 0 -83 -1 -107 -30 -22 -27 -31 -30 -81 -30 -43
0 -60 -5 -74 -20 -10 -11 -24 -20 -31 -20 -8 0 -19 -9 -26 -20 -7 -11 -18 -20
-23 -20 -17 0 -65 -24 -65 -32 0 -5 -9 -8 -19 -8 -11 0 -23 -4 -26 -10 -3 -5
-23 -10 -43 -10 -21 0 -48 -9 -62 -20 -14 -11 -31 -20 -37 -20 -7 0 -13 -4
-13 -10 0 -6 -31 -10 -72 -10 -81 1 -118 20 -118 60 0 12 -14 39 -30 59 -48
57 -50 60 -50 71 0 17 -23 54 -52 81 -16 14 -28 30 -28 36 0 6 -9 13 -20 16
-15 4 -20 14 -20 40 0 27 -5 37 -20 42 -11 3 -20 10 -20 15 0 9 -47 60 -56 60
-2 0 -35 31 -73 68 -75 75 -89 106 -64 135 16 17 32 18 233 12 118 -3 319 -8
445 -11z m3985 -653 c0 -4 11 -13 25 -19 24 -11 25 -15 25 -106 0 -58 -4 -97
-11 -102 -20 -12 -109 48 -109 74 0 6 -9 14 -20 17 -11 3 -20 11 -20 16 0 5
-6 9 -13 9 -18 0 -67 24 -67 33 0 4 -98 7 -217 7 -201 0 -220 2 -243 20 -14
11 -30 20 -37 20 -16 0 -26 17 -18 30 8 12 705 13 705 1z m4050 -6 c0 -8 9
-19 20 -25 30 -16 25 -30 -30 -85 -27 -27 -49 -56 -50 -62 0 -7 -4 -13 -10
-13 -5 0 -10 -4 -10 -9 0 -10 -55 -71 -64 -71 -12 0 -56 -44 -56 -56 0 -7 -9
-16 -20 -19 -11 -3 -20 -14 -20 -23 0 -9 -46 -63 -102 -121 -157 -162 -158
-162 -158 -251 l0 -74 67 -68 c41 -42 76 -68 89 -68 11 0 29 -9 39 -20 12 -14
31 -20 59 -20 30 0 44 5 54 20 7 11 18 20 26 20 7 0 19 7 26 15 22 26 72 45
121 45 26 0 51 5 54 10 3 6 21 10 40 10 19 0 37 5 40 10 10 16 109 12 145 -6
18 -9 35 -25 37 -35 3 -11 9 -19 14 -19 5 0 9 -6 9 -14 0 -7 9 -16 20 -19 17
-4 20 -14 20 -59 0 -52 17 -108 33 -108 4 0 7 -15 7 -34 0 -19 5 -38 10 -41 6
-3 10 -33 10 -66 0 -32 3 -59 8 -59 19 0 32 -61 32 -147 0 -55 4 -93 10 -93 6
0 10 -7 10 -15 0 -8 3 -15 8 -15 15 0 32 -56 32 -107 0 -29 5 -53 10 -53 6 0
10 -7 10 -15 0 -8 5 -15 10 -15 6 0 10 -16 10 -35 0 -19 9 -50 20 -70 11 -20
20 -44 20 -55 0 -10 5 -22 10 -25 6 -3 10 -41 10 -83 0 -61 5 -82 20 -102 15
-19 20 -41 20 -97 0 -42 4 -73 10 -73 6 0 10 -8 10 -18 0 -11 9 -27 20 -37 11
-10 20 -28 20 -40 0 -12 9 -30 20 -40 12 -11 20 -31 20 -51 0 -23 6 -38 20
-46 11 -7 20 -20 20 -30 0 -9 5 -20 10 -23 6 -4 10 -55 10 -121 0 -63 4 -114
8 -114 4 0 13 -15 20 -33 15 -41 17 -333 2 -342 -5 -3 -10 -15 -10 -26 0 -10
-4 -19 -10 -19 -5 0 -10 -15 -10 -34 0 -38 -6 -44 -60 -63 -48 -17 -413 -18
-440 -1 -15 9 -24 9 -43 -1 -17 -9 -39 -11 -68 -6 -49 8 -384 8 -732 0 -244
-6 -257 -4 -257 44 0 12 -4 21 -10 21 -5 0 -10 8 -10 18 0 10 -18 36 -40 57
l-40 39 0 118 c0 108 2 118 18 118 11 0 27 -9 37 -20 10 -11 26 -20 37 -20 10
0 18 -4 18 -10 0 -5 6 -10 13 -10 6 -1 28 -14 47 -30 23 -21 45 -30 68 -30 25
0 35 -5 39 -20 3 -11 12 -20 20 -20 8 0 17 -9 20 -20 3 -10 14 -22 24 -25 10
-4 19 -12 19 -20 0 -7 10 -32 22 -54 l22 -41 161 0 161 0 34 35 c36 37 82 65
107 65 7 0 31 17 53 38 32 30 40 44 40 73 0 42 -11 49 -70 49 -21 0 -42 5 -45
10 -3 6 -14 10 -24 10 -24 0 -65 45 -58 64 4 9 13 16 22 16 11 0 15 11 15 44
0 43 -1 45 -47 68 -47 22 -48 24 -51 73 -2 37 -10 59 -33 87 -23 29 -29 47
-29 84 0 42 -5 53 -37 86 -20 21 -45 38 -54 38 -9 0 -19 6 -22 14 -3 8 -23 22
-44 32 -21 10 -40 21 -43 24 -3 4 -13 9 -22 13 -10 3 -18 13 -18 22 0 8 -9 15
-20 15 -11 0 -20 5 -20 10 0 6 -22 10 -48 10 -36 0 -54 5 -67 20 -12 13 -31
20 -56 20 -45 0 -89 17 -107 42 -10 14 -28 18 -78 18 -51 0 -69 4 -86 20 -20
19 -36 20 -240 20 -126 0 -227 4 -238 10 -11 6 -29 15 -40 20 -11 6 -33 10
-49 10 -17 0 -33 5 -36 10 -4 6 -60 10 -135 10 -111 0 -135 3 -165 20 -32 18
-54 20 -215 20 -161 0 -183 -2 -215 -20 -20 -11 -48 -20 -63 -20 -16 0 -42
-12 -62 -30 -20 -16 -47 -29 -62 -30 -17 0 -31 -8 -38 -20 -6 -11 -17 -20 -25
-20 -8 0 -15 -7 -15 -16 0 -9 -9 -18 -20 -21 -11 -3 -20 -9 -20 -14 0 -5 -9
-9 -20 -9 -20 0 -63 -33 -103 -77 -12 -13 -26 -23 -33 -23 -7 0 -16 -9 -19
-20 -3 -11 -11 -20 -16 -20 -5 0 -9 -7 -9 -15 0 -8 -4 -15 -10 -15 -13 0 -13
-205 0 -231 7 -11 21 -19 37 -19 31 0 52 -25 53 -61 0 -14 9 -34 20 -44 15
-14 20 -31 20 -72 0 -29 -3 -53 -7 -53 -9 0 -33 -48 -33 -66 0 -7 -9 -16 -20
-19 -16 -5 -20 -15 -20 -54 0 -33 6 -53 20 -69 11 -12 20 -27 20 -34 0 -8 23
-36 50 -63 28 -27 50 -55 50 -62 0 -7 5 -13 10 -13 6 0 10 -9 10 -19 0 -11 5
-23 10 -26 36 -22 -29 -45 -126 -45 -46 0 -86 5 -89 10 -3 6 -27 10 -51 10
-37 0 -51 6 -75 29 -27 27 -29 35 -29 99 0 39 -3 72 -7 74 -18 8 -53 93 -53
129 0 21 -4 39 -10 39 -5 0 -10 7 -10 15 0 8 -4 15 -10 15 -5 0 -10 11 -10 25
0 14 -4 25 -10 25 -5 0 -10 8 -10 18 0 11 -9 27 -20 37 -13 11 -20 31 -20 52
0 26 -5 36 -20 40 -14 4 -20 14 -20 34 0 18 -14 47 -36 76 -20 26 -40 57 -44
68 -4 11 -24 42 -44 68 -20 26 -36 55 -36 66 0 10 -9 26 -20 36 -11 10 -20 26
-20 36 0 9 -3 19 -7 21 -18 8 -53 93 -53 129 0 21 -4 39 -10 39 -5 0 -10 7
-10 15 0 8 -4 15 -10 15 -5 0 -10 11 -10 25 0 14 -4 25 -10 25 -5 0 -10 9 -10
19 0 11 5 23 10 26 6 3 10 14 10 24 0 10 9 26 20 36 17 15 20 31 20 92 0 42 4
73 10 73 6 0 10 7 10 15 0 8 9 30 20 50 14 25 20 54 20 98 0 51 3 64 20 75 16
10 20 23 20 64 l0 51 100 103 c55 56 100 111 100 121 0 21 78 103 98 103 6 0
17 9 24 20 7 11 23 20 35 20 12 0 46 14 76 30 40 22 68 30 104 30 37 0 55 5
68 20 10 11 24 20 32 20 7 0 13 5 13 10 0 6 24 10 54 10 45 0 54 3 59 20 5 18
14 20 76 20 60 0 73 3 83 20 9 14 24 20 50 20 20 0 40 5 43 10 3 6 22 10 41
10 19 0 34 5 34 10 0 6 7 10 15 10 8 0 15 5 15 10 0 6 15 10 33 10 21 0 41 8
52 20 10 11 24 20 32 20 7 0 13 5 13 10 0 6 22 10 50 10 39 0 53 4 62 20 7 11
18 20 24 20 12 0 54 74 54 96 0 8 3 14 8 14 31 0 45 159 15 192 -22 24 -103
26 -103 2 0 -9 -9 -18 -20 -21 -11 -3 -20 -11 -20 -17 0 -7 -18 -25 -40 -42
-22 -16 -40 -35 -40 -42 0 -8 -9 -16 -19 -19 -11 -3 -21 -13 -24 -24 -5 -17
-15 -19 -105 -19 -86 0 -101 -3 -117 -20 -14 -16 -31 -20 -77 -20 -59 0 -138
-19 -138 -32 0 -5 -9 -8 -20 -8 -11 0 -20 -4 -20 -10 0 -6 -33 -10 -79 -10
-62 0 -88 -5 -123 -22 -23 -13 -44 -26 -46 -30 -2 -5 -45 -8 -95 -8 -81 0 -94
-2 -105 -20 -7 -11 -22 -20 -33 -20 -13 0 -51 -31 -99 -80 -43 -44 -83 -80
-89 -80 -6 0 -11 -8 -11 -18 0 -10 -40 -57 -88 -105 -49 -48 -95 -99 -103
-114 -7 -16 -25 -39 -39 -53 -30 -30 -50 -64 -50 -85 0 -8 -4 -15 -10 -15 -5
0 -10 -8 -10 -18 0 -22 -27 -79 -41 -88 -5 -3 -16 0 -24 6 -17 14 -20 86 -5
95 6 3 10 19 10 36 0 16 5 29 10 29 6 0 10 64 10 172 l0 171 53 57 c63 68 87
98 87 108 0 18 26 62 37 62 6 0 15 9 18 20 3 11 11 20 16 20 14 0 49 38 49 54
0 8 9 18 20 21 11 3 20 10 20 15 0 12 97 110 109 110 6 0 11 4 11 9 0 5 9 13
20 16 11 3 20 15 20 25 0 10 9 21 19 25 11 3 23 15 26 26 4 10 13 19 21 19 7
0 19 9 26 20 7 11 17 20 23 20 15 0 85 78 85 95 0 8 4 15 8 15 5 0 22 11 38
25 16 14 39 25 52 25 12 0 22 5 22 10 0 6 6 10 13 10 7 0 31 18 52 40 21 22
45 40 52 40 7 0 13 5 13 10 0 6 7 10 15 10 16 0 56 20 66 32 3 4 466 10 1030
12 978 3 1112 6 1134 27 5 5 112 9 237 9 194 0 228 -2 228 -15z m-3043 -40 c8
-21 -23 -53 -73 -75 -22 -11 -47 -26 -54 -35 -7 -8 -18 -15 -24 -15 -6 0 -22
-13 -36 -30 -14 -16 -30 -30 -36 -30 -7 0 -14 -9 -17 -20 -4 -15 -14 -20 -39
-20 -35 0 -88 -19 -88 -32 0 -5 -8 -8 -18 -8 -10 0 -31 -13 -47 -30 -16 -16
-35 -30 -42 -30 -7 0 -13 -4 -13 -10 0 -5 -8 -10 -18 -10 -11 0 -27 -9 -37
-20 -10 -11 -26 -20 -37 -20 -10 0 -18 -5 -18 -11 0 -6 -21 -32 -47 -58 -51
-49 -73 -81 -73 -106 0 -17 -36 -39 -50 -30 -6 3 -10 21 -10 40 0 19 -4 37
-10 40 -5 3 -10 15 -10 26 0 10 -3 19 -7 19 -20 0 -33 61 -33 144 1 86 2 93
30 126 27 31 30 41 30 101 0 62 2 69 28 88 26 20 40 20 385 21 313 0 358 -2
364 -15z m5761 -863 c13 -2 29 -13 35 -23 8 -12 23 -19 44 -19 18 0 33 -3 33
-7 0 -13 53 -33 87 -33 18 0 33 -4 33 -10 0 -5 6 -10 13 -10 8 0 22 -9 32 -20
14 -15 31 -20 70 -20 35 0 58 -6 71 -17 40 -36 65 -43 142 -43 66 0 82 -3 97
-20 15 -17 31 -20 100 -20 69 0 85 -3 100 -20 13 -15 31 -20 66 -20 26 0 51
-4 54 -10 3 -5 15 -10 26 -10 10 0 19 -7 19 -15 0 -8 5 -15 10 -15 19 0 11
-66 -10 -85 -11 -10 -20 -26 -20 -37 0 -10 -4 -18 -10 -18 -6 0 -10 -26 -10
-59 0 -37 -7 -73 -19 -98 -19 -39 -41 -120 -41 -152 0 -10 -9 -26 -20 -36 -13
-12 -20 -31 -20 -55 0 -37 -19 -90 -32 -90 -5 0 -8 -25 -8 -55 0 -30 -4 -55
-10 -55 -5 0 -10 -11 -10 -25 0 -14 -4 -25 -10 -25 -5 0 -10 -4 -10 -10 0 -5
-27 -37 -60 -69 -45 -45 -60 -67 -60 -88 0 -21 -12 -41 -46 -73 -25 -25 -54
-63 -64 -86 -11 -22 -26 -47 -35 -54 -8 -7 -15 -21 -15 -31 0 -11 -3 -19 -7
-19 -10 0 -33 -49 -33 -70 0 -9 -9 -25 -20 -35 -11 -10 -20 -26 -20 -37 0 -10
-4 -18 -10 -18 -6 0 -10 -31 -10 -74 0 -41 -4 -78 -10 -81 -5 -3 -10 -28 -10
-55 0 -27 5 -52 10 -55 6 -3 10 -34 10 -69 0 -68 16 -113 42 -120 15 -3 18
-15 18 -64 0 -47 4 -63 20 -77 17 -16 20 -29 18 -74 l-3 -56 -40 -3 c-22 -2
-44 -8 -50 -13 -13 -13 -422 -12 -430 1 -8 14 -111 13 -151 -2 -55 -20 -64 -1
-64 141 0 74 -4 121 -10 121 -5 0 -10 9 -10 19 0 11 -4 23 -10 26 -5 3 -10 19
-10 36 0 16 5 29 10 29 6 0 10 9 10 19 0 11 5 23 10 26 6 3 10 52 10 110 0 58
4 107 10 110 6 3 10 15 10 26 0 10 3 19 8 19 10 0 32 50 32 75 0 12 9 31 20
43 17 18 20 35 20 111 0 80 -2 92 -20 101 -15 8 -20 21 -20 48 0 24 -7 46 -20
60 -11 12 -20 30 -20 41 0 11 -4 23 -10 26 -5 3 -10 37 -10 76 0 39 4 69 10
69 6 0 10 7 10 15 0 8 9 30 20 50 13 23 20 54 20 86 0 43 3 50 18 47 15 -3 17
-17 20 -103 2 -66 -1 -108 -10 -123 -9 -18 -9 -27 0 -42 7 -11 12 -28 12 -38
0 -11 9 -27 20 -37 14 -13 20 -31 20 -60 0 -29 6 -47 20 -60 19 -17 20 -31 20
-325 0 -255 3 -312 15 -337 21 -42 39 -55 72 -51 26 3 28 6 31 56 2 28 7 52
13 52 5 0 9 7 9 15 0 8 5 15 10 15 6 0 10 7 10 15 0 8 5 15 10 15 6 0 10 15
10 33 0 34 20 87 33 87 4 0 7 9 7 19 0 11 5 23 10 26 6 3 10 46 10 95 0 49 -4
92 -10 95 -5 3 -10 17 -10 30 0 14 -9 40 -20 60 -11 20 -20 44 -20 54 0 10 -9
26 -20 36 -11 10 -20 24 -20 32 0 7 -4 13 -10 13 -5 0 -10 24 -10 53 0 36 -6
60 -20 77 -17 21 -20 41 -20 138 0 68 4 112 10 112 6 0 10 11 10 24 0 14 5 28
10 31 6 4 10 110 10 284 0 265 -1 279 -20 296 -13 12 -20 31 -20 54 0 20 -9
47 -20 61 -11 14 -20 33 -20 43 0 9 -4 17 -10 17 -5 0 -10 6 -10 13 0 8 -9 22
-20 32 -11 10 -20 25 -20 33 0 7 -9 27 -21 44 -12 16 -20 30 -18 31 2 1 13 7
24 14 11 6 27 9 35 6 8 -3 25 -8 38 -11z m-815 -1056 c9 -7 17 -23 17 -34 0
-11 5 -24 10 -27 6 -3 10 -17 10 -31 0 -13 5 -24 10 -24 6 0 10 -9 10 -19 0
-11 5 -23 10 -26 6 -3 10 -14 10 -24 0 -26 28 -78 45 -85 8 -3 15 -14 15 -24
0 -10 9 -27 20 -37 11 -10 20 -30 20 -45 0 -14 9 -36 20 -48 11 -12 20 -27 20
-35 0 -7 14 -26 30 -40 17 -15 30 -34 30 -43 0 -16 38 -76 52 -82 13 -6 9
-225 -4 -255 -7 -15 -16 -27 -20 -27 -5 0 -8 -11 -8 -25 0 -14 -4 -25 -10 -25
-6 0 -10 -28 -10 -65 0 -56 -10 -95 -30 -115 -11 -11 -30 -51 -30 -62 0 -7 -9
-19 -20 -26 -14 -8 -20 -23 -20 -46 0 -20 -8 -40 -19 -50 -11 -10 -21 -28 -23
-40 -2 -15 -11 -22 -33 -24 -16 -2 -34 -8 -39 -13 -6 -5 -130 -9 -285 -8 -244
0 -279 2 -306 18 l-30 18 -3 316 c-2 301 -1 318 18 352 21 38 27 85 10 85 -5
0 -10 9 -10 19 0 11 -4 23 -10 26 -6 4 -10 78 -10 189 0 188 6 224 45 256 8 7
15 18 15 24 0 19 52 36 111 36 32 0 61 5 64 10 3 6 40 10 82 10 55 0 82 5 101
18 55 35 68 41 97 41 17 0 38 -6 48 -13z m-823 -370 c0 -8 9 -16 20 -19 19 -5
20 -14 20 -181 0 -167 6 -206 32 -226 4 -3 8 -126 9 -273 1 -260 1 -269 -20
-291 -12 -12 -21 -28 -21 -34 0 -7 -4 -12 -8 -12 -21 0 -32 29 -32 85 0 49 -4
66 -20 80 -19 17 -20 31 -20 252 0 149 4 233 10 233 6 0 10 75 10 206 0 134 3
203 10 199 6 -3 10 -12 10 -19z m-3147 -708 c15 -7 27 -16 27 -20 0 -5 65 -8
144 -8 86 0 147 -4 151 -10 3 -5 40 -10 81 -10 43 0 74 4 74 10 0 6 50 10 129
10 120 0 131 2 144 21 12 16 23 20 63 17 l49 -3 3 -49 c2 -30 -1 -52 -8 -56
-17 -10 -18 -132 -2 -138 17 -5 16 -79 -2 -89 -8 -4 -68 -5 -133 0 -254 16
-385 19 -396 8 -14 -14 -134 -14 -142 -1 -3 6 -20 10 -37 10 -21 0 -31 6 -35
19 -3 11 -13 21 -24 24 -10 3 -19 12 -19 21 0 9 -7 16 -15 16 -8 0 -15 5 -15
10 0 6 -11 10 -23 10 -14 0 -42 17 -65 38 -41 38 -42 41 -42 104 0 35 3 68 7
71 10 11 57 8 86 -5z m-678 -544 c15 -9 25 -26 25 -39 0 -12 6 -27 13 -33 30
-24 90 -52 112 -52 14 0 25 -4 25 -10 0 -6 55 -10 145 -10 90 0 145 -4 145
-10 0 -5 -17 -10 -38 -10 -36 0 -112 -31 -147 -60 -21 -17 -21 -100 0 -100 8
0 15 -4 15 -10 0 -6 48 -10 124 -10 73 0 127 -4 131 -10 3 -5 37 -10 76 -10
38 0 69 -4 69 -9 0 -5 24 -11 53 -14 74 -8 117 -18 117 -28 0 -5 -15 -9 -34
-9 -19 0 -38 -4 -41 -10 -3 -5 -15 -10 -26 -10 -10 0 -19 -4 -19 -10 0 -5 -7
-10 -15 -10 -9 0 -19 -10 -24 -23 -12 -30 -2 -77 15 -77 8 0 14 -4 14 -10 0
-5 22 -10 49 -10 28 0 53 -4 56 -10 4 -6 148 -10 401 -10 226 0 394 -4 394 -9
0 -17 95 -23 414 -27 211 -3 323 -1 330 6 5 5 27 10 48 10 21 0 38 5 38 10 0
6 35 10 85 10 130 0 175 26 175 100 0 77 -10 80 -254 80 -126 0 -207 4 -211
10 -4 6 -67 10 -156 10 -93 0 -149 4 -149 10 0 6 -48 10 -124 10 -73 0 -127 4
-131 10 -3 6 -20 10 -36 10 -18 0 -28 4 -24 10 4 6 152 10 410 10 258 0 406 4
410 10 3 6 19 10 35 10 16 0 32 5 35 10 3 6 17 10 30 10 13 0 27 5 30 10 4 6
75 10 180 10 163 0 174 1 180 19 3 11 16 21 28 23 22 3 39 48 18 48 -6 0 -11
7 -11 15 0 9 -9 15 -22 15 -13 0 -34 9 -48 20 -24 19 -47 20 -838 20 -769 0
-813 1 -810 18 3 14 16 17 84 20 66 2 85 7 99 22 14 15 31 20 75 20 54 0 110
17 110 33 0 4 9 7 19 7 11 0 23 5 26 10 4 7 305 10 869 10 952 0 889 4 956
-65 29 -30 40 -35 81 -35 35 0 49 -4 53 -17 4 -9 3 -19 -2 -22 -5 -3 -11 -14
-15 -23 -3 -10 -13 -18 -20 -18 -21 0 -39 -42 -35 -81 l3 -34 58 -3 c44 -2 60
-8 70 -23 6 -10 17 -19 24 -19 7 0 13 -4 13 -10 0 -5 8 -10 18 -10 27 0 72
-23 72 -38 0 -7 7 -15 15 -18 25 -10 6 -24 -31 -24 -19 0 -34 -4 -34 -10 0 -5
-6 -10 -13 -10 -18 0 -67 -24 -67 -32 0 -5 -16 -8 -35 -8 -30 0 -35 -3 -35
-24 0 -14 -4 -28 -10 -31 -14 -8 -13 -46 3 -78 12 -26 14 -27 108 -27 83 0 98
-3 114 -20 10 -11 27 -20 37 -20 27 0 34 -27 13 -50 -22 -25 -72 -50 -97 -50
-10 0 -18 -4 -18 -10 0 -5 -7 -10 -15 -10 -12 0 -15 -13 -15 -59 0 -51 3 -61
20 -66 23 -7 26 -25 8 -43 -9 -9 -154 -12 -589 -12 l-577 0 -56 -29 c-31 -17
-75 -31 -98 -33 -39 -3 -43 -6 -46 -31 -2 -17 4 -37 14 -48 17 -18 41 -19 770
-19 491 0 755 -3 759 -10 3 -5 18 -10 33 -10 40 0 122 -42 122 -62 0 -10 -7
-18 -15 -18 -8 0 -19 -9 -25 -20 -7 -14 -21 -20 -45 -20 -18 0 -35 -3 -37 -7
-1 -5 -29 -21 -60 -38 -47 -24 -58 -34 -58 -54 0 -13 7 -33 17 -43 15 -17 63
-18 1103 -18 757 0 1089 3 1097 11 6 6 28 9 49 7 31 -2 42 -9 52 -31 8 -16 20
-31 28 -34 16 -6 20 -63 4 -63 -5 0 -10 -11 -10 -24 0 -14 -5 -28 -10 -31 -5
-3 -10 -30 -10 -59 0 -47 -3 -55 -40 -91 -22 -21 -40 -47 -40 -57 0 -10 -4
-18 -10 -18 -5 0 -10 -11 -10 -25 0 -18 -5 -25 -18 -25 -34 0 -76 -28 -142
-95 -39 -39 -73 -65 -86 -65 -11 0 -29 -9 -39 -20 -15 -17 -31 -20 -95 -20
-64 0 -80 3 -95 20 -12 14 -31 20 -57 20 -31 0 -41 4 -45 20 -5 18 -14 20
-108 20 -89 0 -104 -2 -120 -20 -12 -13 -31 -20 -55 -20 -37 0 -90 -19 -90
-32 0 -5 -65 -8 -144 -8 -86 0 -147 -4 -151 -10 -3 -5 -14 -10 -23 -10 -9 0
-28 -9 -42 -20 -17 -13 -41 -20 -72 -20 -27 0 -48 -4 -48 -10 0 -5 -7 -10 -15
-10 -8 0 -15 -3 -15 -7 0 -5 -11 -13 -25 -20 -14 -6 -25 -7 -25 -2 0 5 -7 9
-15 9 -8 0 -15 5 -15 10 0 6 -7 10 -15 10 -8 0 -15 5 -15 10 0 6 -24 10 -53
10 -57 0 -117 -23 -117 -44 0 -7 -13 -25 -30 -41 -16 -16 -30 -35 -30 -42 0
-7 -4 -13 -10 -13 -5 0 -10 -6 -10 -14 0 -27 -47 -46 -114 -46 -36 0 -68 5
-71 10 -3 6 -15 10 -26 10 -10 0 -19 5 -19 10 0 6 -30 10 -70 10 -40 0 -70 -4
-70 -10 0 -5 -7 -10 -15 -10 -8 0 -15 -4 -15 -10 0 -5 -6 -10 -13 -10 -7 0
-39 -27 -72 -60 -33 -33 -65 -60 -72 -60 -7 0 -13 -4 -13 -9 0 -15 -59 -23
-192 -28 -71 -2 -128 -8 -128 -14 0 -5 -6 -9 -13 -9 -18 0 -67 -24 -67 -32 0
-5 -8 -8 -17 -8 -10 0 -40 -23 -68 -50 -27 -28 -55 -50 -62 -50 -7 0 -13 -4
-13 -10 0 -5 -8 -10 -17 -10 -9 0 -25 -7 -35 -17 -15 -13 -18 -31 -18 -101 0
-120 3 -122 146 -122 95 0 119 3 149 20 46 26 87 26 103 0 8 -13 23 -20 42
-20 17 0 30 -3 30 -7 0 -5 12 -14 27 -20 33 -16 249 -18 258 -3 8 13 62 13 70
0 4 -6 77 -10 187 -10 171 0 180 -1 185 -20 3 -11 11 -20 18 -20 15 0 45 -54
45 -82 0 -10 9 -26 20 -35 11 -10 20 -25 20 -35 0 -10 5 -18 10 -18 6 0 10
-13 10 -30 0 -19 7 -34 20 -42 16 -10 20 -24 20 -64 0 -43 3 -53 20 -57 19 -5
20 -14 20 -326 0 -207 -4 -321 -10 -321 -5 0 -10 -7 -10 -15 0 -8 -4 -15 -10
-15 -6 0 -10 -28 -10 -63 0 -49 -4 -68 -20 -85 -11 -12 -20 -30 -20 -41 0 -11
-4 -23 -10 -26 -5 -3 -10 -14 -10 -24 0 -10 -9 -26 -20 -36 -11 -10 -20 -28
-20 -40 0 -12 -9 -30 -20 -40 -11 -10 -20 -24 -20 -32 0 -7 -4 -13 -10 -13 -5
0 -10 -16 -10 -36 0 -27 -5 -37 -20 -41 -11 -3 -20 -12 -20 -20 0 -8 -9 -17
-20 -20 -11 -3 -20 -11 -20 -18 0 -8 -9 -17 -20 -20 -11 -3 -20 -13 -20 -21 0
-8 -4 -14 -10 -14 -5 0 -10 -8 -10 -18 0 -24 -26 -76 -45 -92 -12 -10 -15 -39
-15 -131 0 -66 -3 -119 -7 -119 -23 0 -33 -63 -33 -206 0 -91 -4 -155 -10
-159 -5 -3 -10 -15 -10 -26 0 -10 -4 -19 -10 -19 -5 0 -10 -7 -10 -15 0 -8 -4
-15 -10 -15 -5 0 -10 -15 -10 -33 0 -21 -8 -41 -20 -52 -11 -10 -20 -28 -20
-41 0 -13 -4 -26 -10 -29 -5 -3 -10 -15 -10 -25 0 -10 -9 -22 -20 -25 -15 -5
-20 -15 -20 -42 0 -26 -5 -36 -20 -40 -11 -3 -20 -10 -20 -15 0 -5 -54 -63
-121 -129 l-120 -119 -268 0 c-194 0 -270 3 -279 12 -9 9 -12 69 -12 208 0
184 1 198 20 215 11 10 20 31 20 47 0 15 5 28 10 28 6 0 10 7 10 15 0 8 5 15
10 15 6 0 10 7 10 15 0 8 3 15 8 15 8 0 32 49 32 67 0 7 4 13 8 13 4 0 13 15
20 33 19 52 -2 154 -39 192 -16 17 -29 36 -29 43 0 6 -9 17 -20 24 -11 7 -20
20 -20 29 0 9 -9 24 -20 34 -28 25 -28 129 0 165 28 36 28 130 0 155 -19 17
-20 31 -20 232 0 117 3 213 8 213 26 0 32 64 32 330 0 266 -6 330 -32 330 -5
0 -8 21 -8 46 0 34 -7 56 -30 89 -16 24 -30 48 -30 54 0 6 -4 11 -10 11 -5 0
-10 6 -10 13 0 18 -24 67 -32 67 -5 0 -8 6 -8 13 0 18 -24 67 -32 67 -5 0 -8
6 -8 14 0 8 -9 18 -20 21 -11 3 -20 10 -20 15 0 12 -85 96 -105 103 -8 4 -15
13 -15 22 0 8 -7 15 -16 15 -9 0 -18 9 -21 20 -3 13 -14 20 -29 20 -13 0 -24
5 -24 10 0 6 -6 10 -14 10 -17 0 -176 153 -176 169 0 12 -39 83 -49 91 -4 3
-15 22 -25 43 -10 21 -24 41 -32 44 -8 3 -14 13 -14 23 0 9 -9 25 -20 35 -11
10 -20 28 -20 40 0 13 -7 28 -15 35 -18 15 -45 68 -45 88 0 8 -13 28 -30 44
-16 15 -30 33 -30 38 0 6 -3 10 -7 10 -14 0 -33 53 -33 90 0 24 -7 43 -20 55
-11 10 -20 26 -20 35 0 21 -23 70 -32 70 -5 0 -8 9 -8 19 0 11 -4 23 -10 26
-5 3 -10 24 -10 47 0 25 -8 49 -20 65 -18 23 -20 41 -20 199 0 104 -4 175 -10
179 -5 3 -10 16 -10 28 0 12 -9 33 -20 47 -14 18 -20 41 -20 83 0 31 -3 57 -7
57 -9 0 -33 48 -33 66 0 7 -4 14 -8 16 -4 2 -18 17 -30 35 -20 28 -22 43 -22
166 0 80 4 138 10 142 14 9 13 48 -2 63 -18 18 -83 14 -123 -8 -30 -17 -54
-20 -155 -20 -73 0 -120 -4 -120 -10 0 -5 -6 -10 -13 -10 -18 0 -67 -24 -67
-32 0 -5 -8 -8 -18 -8 -10 0 -24 -9 -32 -20 -8 -11 -26 -20 -40 -20 -16 0 -38
-12 -55 -30 -16 -16 -38 -30 -49 -30 -11 0 -37 -17 -58 -37 -30 -29 -38 -45
-38 -72 0 -38 24 -71 52 -71 10 0 18 -4 18 -10 0 -6 35 -10 84 -10 47 0 88 -4
91 -10 3 -5 25 -10 48 -10 26 0 51 -8 67 -20 14 -11 40 -20 57 -20 47 0 117
-42 123 -74 3 -14 13 -35 23 -46 9 -11 17 -31 17 -45 0 -13 5 -27 10 -30 6 -4
10 -168 10 -461 0 -296 3 -454 10 -454 6 0 10 -20 10 -44 0 -25 5 -48 10 -51
6 -4 10 -57 10 -126 0 -73 4 -119 10 -119 6 0 10 -6 10 -14 0 -7 9 -16 20 -19
15 -4 20 -14 20 -40 0 -27 5 -37 20 -42 18 -6 20 -15 20 -86 0 -46 -4 -79 -10
-79 -5 0 -10 -7 -10 -15 0 -8 -4 -15 -10 -15 -5 0 -10 -28 -12 -62 -3 -54 -6
-64 -25 -73 -13 -5 -23 -13 -23 -17 0 -5 -43 -8 -96 -8 -83 0 -100 3 -127 22
-18 12 -33 26 -35 30 -2 4 -28 8 -59 8 -53 0 -103 -22 -125 -55 -5 -7 -14 -6
-28 3 -24 14 -106 16 -115 2 -3 -5 -22 -10 -40 -10 -24 0 -38 -6 -45 -20 -6
-11 -17 -20 -24 -20 -8 0 -16 -9 -19 -20 -3 -11 -12 -20 -21 -20 -9 0 -16 -8
-16 -19 0 -11 -4 -23 -10 -26 -5 -3 -10 -16 -10 -29 0 -25 -17 -46 -37 -46 -8
0 -25 -12 -38 -27 -21 -24 -24 -38 -25 -100 0 -42 4 -73 10 -73 6 0 10 -11 10
-24 0 -14 -4 -28 -10 -31 -6 -3 -10 -51 -10 -108 0 -91 -2 -104 -20 -115 -11
-7 -20 -18 -20 -24 0 -19 -182 -198 -201 -198 -24 0 -80 -30 -86 -46 -7 -20
-68 -18 -84 3 -11 13 -11 17 -1 20 6 3 12 11 12 19 0 8 5 14 10 14 6 0 10 10
10 23 0 12 9 33 20 47 11 14 20 30 20 36 0 17 29 71 45 84 9 7 15 29 15 51 0
29 5 39 20 44 15 5 20 15 20 41 0 19 3 34 8 34 8 0 32 49 32 67 0 7 5 13 10
13 6 0 10 8 10 18 0 10 13 44 30 77 16 33 30 70 30 82 0 13 8 24 20 28 15 5
20 15 20 40 0 24 6 38 20 45 16 8 20 21 20 60 0 28 5 50 10 50 6 0 10 5 10 12
0 7 14 27 32 45 30 31 36 33 102 33 55 0 77 5 96 20 14 11 33 20 42 20 9 0 20
5 23 10 3 6 17 10 31 10 13 0 24 4 24 9 0 5 8 11 18 15 31 10 86 45 94 61 5 8
16 15 23 15 8 0 15 5 15 11 0 14 55 69 69 69 6 0 11 9 11 20 0 11 5 20 10 20
15 0 12 133 -3 161 -7 13 -24 36 -38 52 -24 25 -33 27 -100 27 -82 1 -98 9
-120 58 -7 17 -17 32 -21 32 -5 0 -8 11 -8 25 0 32 -16 60 -60 108 -33 36 -36
37 -105 37 -69 0 -73 1 -113 38 -23 22 -42 45 -42 52 0 7 -7 22 -17 32 -29 32
-233 20 -233 -14 0 -5 -51 -8 -113 -8 l-114 0 -41 44 c-23 25 -42 51 -42 59 0
7 -18 23 -41 35 -37 20 -55 22 -206 22 -146 0 -167 2 -179 18 -7 9 -14 27 -14
40 0 12 -6 22 -13 22 -7 0 -23 14 -37 30 -18 21 -34 30 -55 30 -17 0 -36 5
-43 12 -20 20 -15 91 8 116 11 12 20 26 20 32 0 5 5 10 10 10 6 0 10 18 10 40
0 22 9 55 20 75 11 20 20 53 20 75 0 21 5 42 10 45 6 3 10 15 10 25 0 10 9 22
20 25 15 5 20 15 20 42 0 26 5 36 20 40 16 4 20 14 20 49 0 23 5 46 10 49 6 3
10 14 10 24 0 10 9 26 20 36 12 11 20 31 20 52 0 18 5 33 10 33 6 0 10 7 10
15 0 8 5 15 10 15 6 0 10 15 10 34 0 19 5 38 10 41 6 3 10 16 10 29 0 13 9 31
20 41 16 14 20 31 20 76 0 49 3 59 20 64 19 6 20 15 20 186 0 98 -3 179 -7
179 -10 0 -33 49 -33 70 0 9 -9 25 -20 35 -11 10 -20 28 -20 40 0 13 -7 28
-15 35 -19 16 -45 68 -45 92 0 10 -4 18 -10 18 -5 0 -10 6 -10 14 0 7 -9 16
-20 19 -18 4 -20 14 -20 75 0 61 3 72 23 85 30 21 120 22 152 1z m5958 4 c26
-13 27 -15 27 -99 0 -55 5 -96 15 -115 8 -16 66 -81 130 -144 63 -63 115 -120
115 -127 0 -7 5 -13 10 -13 6 0 10 -7 10 -15 0 -8 5 -15 10 -15 6 0 10 -11 10
-25 0 -14 5 -25 10 -25 20 0 9 -59 -20 -115 -29 -55 -30 -61 -30 -195 0 -82
-4 -141 -10 -145 -5 -3 -10 -15 -10 -25 0 -11 -9 -35 -20 -55 -11 -20 -20 -47
-20 -60 0 -14 -4 -25 -9 -25 -5 0 -16 -6 -23 -12 -32 -29 -62 -38 -130 -38
-57 0 -78 5 -98 20 -14 11 -31 20 -37 20 -7 0 -13 5 -13 10 0 6 -95 10 -264
10 -166 0 -267 4 -271 10 -3 6 -19 10 -34 10 -15 0 -31 4 -37 9 -5 5 -27 11
-49 15 -178 25 -138 36 133 36 141 0 222 4 222 10 0 6 8 10 18 10 11 0 27 9
37 20 15 16 31 20 88 20 52 0 75 4 89 17 39 35 11 103 -44 103 -15 0 -28 5
-28 10 0 6 -11 10 -24 10 -14 0 -28 5 -31 10 -4 6 -103 10 -266 10 -166 0
-259 4 -259 10 0 6 -11 10 -24 10 -14 0 -28 5 -31 10 -3 6 -24 10 -45 10 -21
0 -42 5 -45 10 -3 6 -26 10 -51 10 -62 0 -78 16 -52 53 17 24 26 27 74 27 30
0 54 5 54 10 0 6 9 10 19 10 11 0 23 5 26 10 4 6 102 10 261 10 150 0 254 4
254 9 0 5 10 11 23 13 18 2 23 10 25 45 3 37 0 42 -29 57 -18 9 -38 16 -46 16
-7 0 -13 3 -13 8 0 13 -53 32 -89 32 -20 0 -47 9 -61 20 -23 18 -42 20 -302
20 -173 0 -279 4 -283 10 -3 6 -17 10 -30 10 -13 0 -27 5 -30 10 -3 6 -17 10
-31 10 -27 0 -74 27 -74 42 0 5 12 20 26 33 27 25 28 25 230 25 129 0 204 4
204 10 0 6 9 10 19 10 11 0 23 5 26 10 3 6 17 10 31 10 13 0 24 5 24 10 0 6
28 10 65 10 51 0 65 3 65 15 0 8 3 15 8 15 9 0 32 49 32 70 0 21 -23 70 -32
70 -5 0 -8 7 -8 15 0 12 -13 15 -55 15 -30 0 -55 5 -55 10 0 6 -28 10 -64 10
-36 0 -68 5 -71 10 -8 13 -61 13 -87 -1 -11 -6 -31 -8 -44 -5 -32 8 -33 47 -1
62 34 17 954 18 990 2z m-1137 -2980 c4 -7 -2 -18 -14 -26 -12 -8 -22 -22 -22
-31 0 -10 -9 -27 -20 -39 -11 -12 -20 -26 -20 -32 0 -5 -3 -10 -7 -10 -9 0
-33 -48 -33 -66 0 -6 -11 -19 -24 -27 -22 -15 -25 -15 -30 -1 -3 9 -6 28 -6
43 0 15 -9 36 -20 46 -11 10 -20 24 -20 32 0 7 -4 13 -10 13 -14 0 -12 32 4
53 14 18 56 24 56 7 0 -27 86 3 94 32 5 21 60 25 72 6z m-4404 -260 c29 -17
47 -39 48 -59 0 -20 -23 -69 -32 -69 -5 0 -8 -6 -8 -13 0 -18 -24 -67 -32 -67
-5 0 -8 -16 -8 -35 0 -19 -3 -35 -7 -35 -9 0 -33 -49 -33 -67 0 -7 -4 -13 -9
-13 -5 0 -12 -11 -15 -25 -4 -14 -10 -25 -14 -25 -21 1 -82 76 -82 100 0 6 -9
20 -20 32 -14 16 -20 36 -20 70 0 26 5 48 10 48 6 0 10 7 10 15 0 8 3 15 8 15
12 0 32 52 32 85 0 17 5 36 12 43 16 16 132 16 160 0z m1239 -371 c-14 -14
-15 -367 -1 -367 6 0 10 -9 10 -19 0 -11 5 -23 10 -26 6 -3 10 -35 10 -70 0
-35 5 -67 10 -70 6 -3 10 -15 10 -26 0 -10 3 -19 8 -19 4 0 13 -12 20 -27 15
-34 18 -1142 2 -1173 -5 -11 -14 -29 -20 -40 -5 -11 -10 -31 -10 -45 0 -14 -4
-25 -10 -25 -5 0 -10 -24 -10 -54 0 -30 -4 -58 -10 -61 -5 -3 -10 -15 -10 -26
0 -10 -4 -19 -10 -19 -5 0 -10 -24 -10 -54 0 -30 -4 -58 -10 -61 -5 -3 -10
-14 -10 -23 0 -10 -9 -23 -20 -30 -13 -8 -20 -23 -20 -45 0 -34 -19 -57 -67
-84 -17 -10 -93 -13 -283 -13 l-261 0 -94 91 c-63 61 -95 99 -95 114 0 12 -9
30 -20 40 -11 10 -20 22 -20 28 0 5 -18 27 -40 48 -22 22 -40 43 -40 47 0 15
-25 62 -32 62 -5 0 -8 5 -8 10 0 6 -9 20 -20 32 -13 14 -20 36 -20 60 0 27 -6
41 -20 50 -13 9 -20 24 -20 46 0 28 -14 66 -30 82 -18 18 -30 56 -30 93 0 31
-6 49 -20 62 -17 15 -20 31 -20 92 0 42 -4 73 -10 73 -5 0 -10 6 -10 13 0 18
-24 67 -32 67 -5 0 -8 34 -8 75 0 41 -3 75 -7 75 -21 0 -33 62 -33 165 l0 111
35 14 c20 8 43 22 52 32 9 10 21 18 27 18 6 0 22 14 36 30 17 20 34 30 52 30
17 0 33 8 40 20 7 11 20 20 29 20 9 0 24 9 34 20 10 11 26 20 36 20 27 0 147
117 169 165 10 23 26 48 35 55 8 7 15 21 15 32 0 11 9 22 20 25 11 3 20 12 20
20 0 8 9 17 20 20 12 3 20 14 20 25 0 11 9 33 21 49 18 25 27 29 69 29 27 0
52 -4 55 -10 3 -5 19 -10 35 -10 16 0 32 5 35 10 3 6 20 10 36 10 37 0 69 16
69 35 0 7 9 16 19 20 14 4 21 17 23 43 3 32 7 37 32 40 15 2 44 12 62 23 19
10 41 19 49 19 8 0 15 5 15 10 0 6 15 10 33 10 23 0 41 8 58 26 35 38 63 47
67 22 2 -11 -1 -25 -7 -31z m403 -427 c14 -22 26 -49 26 -60 0 -11 5 -20 10
-20 6 0 10 -40 10 -100 0 -89 2 -101 20 -112 19 -12 20 -24 20 -200 0 -178 -1
-187 -20 -193 -18 -6 -20 -15 -20 -85 0 -70 2 -79 20 -85 14 -4 20 -15 20 -36
0 -18 7 -33 20 -41 16 -10 20 -24 20 -66 0 -52 10 -78 43 -116 15 -18 17 -45
17 -242 0 -138 4 -225 10 -229 6 -3 10 -19 10 -36 0 -16 3 -29 8 -29 11 0 32
-51 32 -80 0 -14 -13 -41 -30 -60 -24 -29 -29 -44 -30 -86 0 -27 -5 -55 -12
-62 -8 -8 -62 -12 -177 -12 -155 0 -166 1 -188 22 -13 12 -23 27 -23 35 0 7
-4 13 -10 13 -5 0 -10 9 -10 19 0 11 -4 23 -10 26 -18 11 -10 39 20 75 l30 34
0 297 c0 283 1 297 20 314 16 14 20 31 20 80 0 49 4 66 20 80 11 10 20 26 20
37 0 10 5 18 10 18 6 0 10 108 10 304 0 193 4 307 10 311 6 4 10 53 10 116 0
66 4 109 10 109 6 0 10 20 10 43 0 70 16 75 54 17z m296 -385 c8 -19 17 -35
22 -35 4 0 8 -13 8 -29 0 -17 5 -33 10 -36 6 -3 10 -16 10 -29 0 -12 9 -32 20
-44 14 -14 20 -35 20 -64 0 -34 7 -52 30 -78 24 -29 29 -44 30 -87 0 -42 4
-54 20 -63 15 -8 20 -21 20 -54 0 -45 20 -95 45 -116 11 -9 15 -36 15 -111 0
-80 4 -105 20 -134 17 -31 20 -54 20 -175 0 -87 4 -140 10 -140 6 0 10 -6 10
-13 0 -18 24 -67 33 -67 4 0 7 -60 7 -132 l0 -133 -27 -12 c-60 -28 -153 -7
-153 35 0 12 -4 22 -10 22 -6 0 -10 26 -10 58 0 46 -4 63 -20 77 -18 16 -20
31 -20 120 0 87 -3 104 -19 119 -12 11 -21 37 -25 74 -10 101 -18 130 -37 148
-18 16 -19 35 -19 306 0 185 -4 288 -10 288 -5 0 -10 9 -10 20 0 11 -3 20 -7
20 -5 0 -14 12 -20 27 -17 36 -18 244 -1 261 18 18 23 15 38 -23z"/>
</g>
</svg>
