<?xml version="1.0" standalone="no"?>
<!DOCTYPE svg PUBLIC "-//W3C//DTD SVG 20010904//EN"
 "http://www.w3.org/TR/2001/REC-SVG-20010904/DTD/svg10.dtd">
<svg version="1.0" xmlns="http://www.w3.org/2000/svg"
 width="600.000000pt" height="600.000000pt" viewBox="0 0 600.000000 600.000000"
 preserveAspectRatio="xMidYMid meet">
<metadata>
Created by potrace 1.16, written by Peter Selinger 2001-2019
</metadata>
<g transform="translate(0.000000,600.000000) scale(0.100000,-0.100000)"
fill="#000000" stroke="none">
<path d="M3510 5723 c-515 -67 -975 -340 -1273 -754 -80 -112 -204 -357 -246
-487 -34 -103 -67 -249 -59 -257 2 -3 31 0 64 7 88 18 401 14 504 -5 47 -9 87
-13 91 -9 3 4 18 43 34 87 131 379 459 664 865 751 112 24 353 24 458 0 227
-51 406 -145 570 -299 190 -180 318 -432 352 -689 8 -65 100 -3502 100 -3750
l0 -58 331 0 331 0 -6 148 c-4 81 -24 894 -46 1807 -21 913 -44 1730 -50 1815
-17 255 -69 457 -175 675 -93 193 -240 394 -391 534 -242 226 -570 395 -899
462 -77 16 -148 21 -310 24 -115 2 -226 1 -245 -2z"/>
<path d="M1977 4089 c-299 -52 -571 -194 -786 -410 -145 -144 -250 -303 -330
-497 l-30 -72 1400 0 1400 0 -6 23 c-4 12 -31 73 -60 134 -213 448 -624 753
-1115 828 -132 20 -340 18 -473 -6z"/>
<path d="M780 2968 c-46 -13 -98 -63 -112 -109 -21 -73 14 -154 81 -189 40
-20 46 -20 1495 -18 l1455 3 28 21 c102 76 99 216 -7 278 -35 21 -42 21 -1470
23 -925 1 -1447 -2 -1470 -9z"/>
<path d="M1310 2393 c-101 -102 -142 -176 -148 -264 -11 -152 98 -271 249
-271 110 0 203 70 235 178 33 116 -12 231 -142 362 -45 45 -88 82 -96 82 -7 0
-51 -39 -98 -87z"/>
<path d="M2120 2393 c-101 -102 -142 -176 -148 -264 -11 -152 98 -271 247
-271 144 0 247 108 245 259 -1 92 -46 176 -150 281 -45 45 -88 82 -96 82 -7 0
-51 -39 -98 -87z"/>
<path d="M2930 2393 c-113 -115 -145 -178 -145 -283 0 -54 5 -86 19 -113 101
-204 399 -178 462 39 34 117 -11 231 -142 362 -46 45 -89 82 -96 82 -7 0 -51
-39 -98 -87z"/>
<path d="M910 1593 c-112 -115 -145 -179 -145 -283 0 -89 22 -139 85 -192 119
-103 308 -65 383 76 34 65 31 172 -8 251 -31 64 -188 235 -215 235 -8 0 -53
-39 -100 -87z"/>
<path d="M1720 1593 c-112 -115 -145 -179 -145 -283 0 -89 22 -139 85 -192 93
-80 232 -79 325 4 58 51 80 101 80 188 0 104 -33 168 -145 283 -47 48 -92 87
-100 87 -8 0 -53 -39 -100 -87z"/>
<path d="M2530 1593 c-112 -115 -145 -179 -145 -283 0 -89 22 -139 85 -192
119 -103 308 -65 383 76 33 62 31 172 -5 246 -41 84 -185 240 -221 240 -6 0
-50 -39 -97 -87z"/>
<path d="M3350 1604 c-135 -131 -184 -257 -145 -374 34 -103 127 -170 236
-170 95 0 177 50 222 134 33 63 31 173 -5 246 -40 82 -185 240 -220 240 -6 0
-45 -34 -88 -76z"/>
<path d="M525 809 c-130 -125 -179 -237 -155 -354 50 -241 387 -263 475 -31
48 125 -28 297 -189 429 l-46 38 -85 -82z"/>
<path d="M1335 809 c-112 -107 -160 -198 -159 -299 1 -185 185 -304 349 -226
60 28 97 66 124 126 57 125 -8 291 -167 428 l-61 53 -86 -82z"/>
<path d="M2950 803 c-113 -113 -154 -192 -154 -293 0 -53 5 -75 29 -119 130
-238 484 -129 463 143 -9 103 -84 223 -202 320 l-47 38 -89 -89z"/>
<path d="M3760 803 c-113 -113 -154 -192 -154 -293 0 -53 5 -75 29 -119 130
-238 484 -129 463 143 -9 103 -84 223 -202 320 l-47 38 -89 -89z"/>
<path d="M2138 803 c-105 -102 -152 -193 -152 -292 0 -185 183 -305 349 -227
140 65 184 225 104 377 -37 70 -176 219 -205 219 -9 0 -52 -35 -96 -77z"/>
</g>
</svg>
