<?xml version="1.0" standalone="no"?>
<!DOCTYPE svg PUBLIC "-//W3C//DTD SVG 20010904//EN"
 "http://www.w3.org/TR/2001/REC-SVG-20010904/DTD/svg10.dtd">
<svg version="1.0" xmlns="http://www.w3.org/2000/svg"
 width="600.000000pt" height="600.000000pt" viewBox="0 0 600.000000 600.000000"
 preserveAspectRatio="xMidYMid meet">
<metadata>
Created by potrace 1.16, written by Peter Selinger 2001-2019
</metadata>
<g transform="translate(0.000000,600.000000) scale(0.100000,-0.100000)"
fill="#000000" stroke="none">
<path d="M3245 5814 c-256 -70 -432 -238 -514 -493 -20 -61 -21 -87 -21 -478
l0 -413 290 0 290 0 0 359 c0 356 0 358 23 392 64 95 185 63 204 -54 4 -25 16
-50 31 -64 25 -23 28 -23 262 -23 225 0 239 1 264 21 24 19 26 26 26 106 0
256 -180 512 -430 611 -99 40 -167 52 -273 51 -56 -1 -124 -8 -152 -15z"/>
<path d="M1744 4804 c-50 -25 -55 -43 -52 -214 l3 -155 293 -3 292 -2 0 164
c0 160 -1 166 -24 193 l-24 28 -229 3 c-190 2 -233 0 -259 -14z"/>
<path d="M3783 4813 c-13 -2 -32 -17 -43 -33 -18 -25 -20 -44 -20 -189 l0
-161 293 2 292 3 3 155 c2 105 -1 162 -9 177 -25 47 -61 53 -286 52 -114 -1
-218 -4 -230 -6z"/>
<path d="M199 4181 l-29 -29 0 -239 c0 -236 0 -240 23 -260 12 -11 32 -26 44
-32 16 -8 751 -11 2758 -11 2954 0 2781 -3 2819 51 14 20 16 57 16 257 l0 234
-31 29 -31 29 -2770 0 -2770 0 -29 -29z"/>
<path d="M380 3359 c0 -65 26 -220 57 -334 125 -473 412 -868 823 -1132 130
-83 292 -161 425 -203 39 -13 79 -26 90 -30 11 -5 54 -15 95 -24 41 -8 102
-21 135 -28 46 -10 271 -13 990 -13 998 0 983 -1 1175 52 30 8 69 18 85 23
181 48 463 192 625 320 302 238 534 564 644 905 38 116 54 176 66 250 6 39 15
92 21 118 5 27 9 68 9 93 l0 44 -2620 0 -2620 0 0 -41z"/>
<path d="M2500 1208 c0 -175 4 -190 57 -217 15 -8 152 -11 443 -11 291 0 428
3 443 11 53 27 57 42 57 217 l0 162 -500 0 -500 0 0 -162z"/>
<path d="M2710 575 c0 -213 8 -241 86 -320 142 -142 386 -95 473 90 19 40 21
63 21 230 l0 185 -290 0 -290 0 0 -185z"/>
</g>
</svg>
