<?xml version="1.0" standalone="no"?>
<!DOCTYPE svg PUBLIC "-//W3C//DTD SVG 20010904//EN"
 "http://www.w3.org/TR/2001/REC-SVG-20010904/DTD/svg10.dtd">
<svg version="1.0" xmlns="http://www.w3.org/2000/svg"
 width="600.000000pt" height="600.000000pt" viewBox="0 0 600.000000 600.000000"
 preserveAspectRatio="xMidYMid meet">
<metadata>
Created by potrace 1.16, written by Peter Selinger 2001-2019
</metadata>
<g transform="translate(0.000000,600.000000) scale(0.100000,-0.100000)"
fill="#000000" stroke="none">
<path d="M4270 5500 c-8 -5 -37 -19 -64 -30 -56 -25 -142 -109 -170 -166 -10
-22 -23 -48 -30 -59 -8 -15 -12 -304 -14 -1055 -3 -1136 -5 -1096 56 -1137 65
-43 61 -43 419 -43 323 0 346 1 383 20 42 21 71 57 88 109 16 46 17 1965 1
2043 -18 90 -39 133 -100 202 -35 38 -70 65 -123 90 l-73 36 -179 -1 c-99 0
-186 -4 -194 -9z"/>
<path d="M1173 3304 c-46 -20 -83 -82 -83 -139 0 -39 5 -50 43 -90 l44 -45
1296 2 1296 3 28 27 c36 35 61 113 45 139 -7 10 -12 25 -12 32 0 14 -42 55
-77 75 -36 19 -2535 16 -2580 -4z"/>
<path d="M1205 2843 c-16 -2 -44 -11 -62 -19 -40 -18 -103 -83 -103 -106 0 -9
-4 -20 -10 -23 -24 -15 -6 -144 29 -213 5 -9 15 -30 22 -47 22 -49 108 -184
142 -224 115 -132 267 -263 407 -351 30 -19 57 -37 60 -40 10 -10 199 -106
305 -155 33 -15 68 -31 77 -36 10 -5 26 -9 36 -9 10 0 22 -4 28 -9 5 -4 34
-16 64 -26 30 -10 64 -21 75 -25 67 -24 138 -45 210 -60 116 -25 110 -21 108
-70 -2 -49 -13 -111 -38 -210 -9 -36 -20 -85 -25 -110 -13 -66 -27 -126 -45
-200 -21 -84 -35 -154 -42 -211 -6 -58 18 -111 70 -153 l39 -31 301 -7 c166
-4 543 -10 838 -14 512 -7 536 -6 565 12 83 53 115 143 81 224 -14 31 -156
173 -367 366 -36 32 -113 107 -172 165 -104 102 -108 108 -108 149 0 31 7 53
26 77 14 18 29 33 35 33 18 0 164 73 229 115 200 128 377 347 460 570 53 143
62 186 92 436 12 96 19 183 15 192 -6 16 -115 17 -1659 16 -909 -1 -1666 -4
-1683 -6z"/>
</g>
</svg>
