solid exported
	facet normal 0.9972037664287374 0.07473050394812093 -1.6593505225009005e-17
		outer loop
			vertex 2.6500000953674316 1.0513812022024409e-14 50
			vertex 2.6500000953674316 -1.1690648470478722e-14 -50
			vertex 2.620401620864868 0.3949620127678023 50
		endloop
	endfacet
	facet normal 0.9972037664287375 0.07473050394812092 -1.6593505225009002e-17
		outer loop
			vertex 2.6500000953674316 -1.1690648470478722e-14 -50
			vertex 2.620401620864868 0.3949620127677801 -50
			vertex 2.620401620864868 0.3949620127678023 50
		endloop
	endfacet
	facet normal 0.9749280120223381 0.22252049652598743 -4.940947573883468e-17
		outer loop
			vertex 2.620401620864868 0.3949620127678023 50
			vertex 2.620401620864868 0.3949620127677801 -50
			vertex 2.5322680473327637 0.7811012268066512 50
		endloop
	endfacet
	facet normal 0.9749280120223381 0.22252049652598743 -4.940947573883468e-17
		outer loop
			vertex 2.620401620864868 0.3949620127677801 -50
			vertex 2.5322680473327637 0.781101226806629 -50
			vertex 2.5322680473327637 0.7811012268066512 50
		endloop
	endfacet
	facet normal 0.9308736808296377 0.36534119715504587 -8.112204178513013e-17
		outer loop
			vertex 2.5322680473327637 0.7811012268066512 50
			vertex 2.5322680473327637 0.781101226806629 -50
			vertex 2.387567520141602 1.1497919559478866 50
		endloop
	endfacet
	facet normal 0.9308736808296377 0.36534119715504587 -8.112204178513013e-17
		outer loop
			vertex 2.5322680473327637 0.781101226806629 -50
			vertex 2.387567520141602 1.1497919559478644 -50
			vertex 2.387567520141602 1.1497919559478866 50
		endloop
	endfacet
	facet normal 0.8660253920941595 0.5000000202481569 -1.1102230695850966e-16
		outer loop
			vertex 2.387567520141602 1.1497919559478866 50
			vertex 2.387567520141602 1.1497919559478644 -50
			vertex 2.1895327568054204 1.4927982091903793 50
		endloop
	endfacet
	facet normal 0.8660253920941595 0.5000000202481569 -1.1102230695850966e-16
		outer loop
			vertex 2.387567520141602 1.1497919559478644 -50
			vertex 2.1895327568054204 1.492798209190357 -50
			vertex 2.1895327568054204 1.4927982091903793 50
		endloop
	endfacet
	facet normal 0.7818315179904783 0.6234897573149895 -1.3844253683781048e-16
		outer loop
			vertex 2.1895327568054204 1.4927982091903793 50
			vertex 2.1895327568054204 1.492798209190357 -50
			vertex 1.9425874948501591 1.8024578094482528 50
		endloop
	endfacet
	facet normal 0.7818315179904783 0.6234897573149895 -1.3844253683781048e-16
		outer loop
			vertex 2.1895327568054204 1.492798209190357 -50
			vertex 1.9425874948501591 1.8024578094482306 -50
			vertex 1.9425874948501591 1.8024578094482528 50
		endloop
	endfacet
	facet normal 0.6801726438513351 0.7330519589744542 -1.6277023262000294e-16
		outer loop
			vertex 1.9425874948501591 1.8024578094482528 50
			vertex 1.9425874948501591 1.8024578094482306 -50
			vertex 1.6522480249404912 2.071853399276744 50
		endloop
	endfacet
	facet normal 0.6801726438513351 0.7330519589744542 -1.6277023262000294e-16
		outer loop
			vertex 1.9425874948501591 1.8024578094482306 -50
			vertex 1.6522480249404912 2.071853399276722 -50
			vertex 1.6522480249404912 2.071853399276744 50
		endloop
	endfacet
	facet normal 0.5633202659210391 0.8262386326011694 -1.8346183074972474e-16
		outer loop
			vertex 1.6522480249404912 2.071853399276744 50
			vertex 1.6522480249404912 2.071853399276722 -50
			vertex 1.3250000476837163 2.294967412948619 50
		endloop
	endfacet
	facet normal 0.5633202659210391 0.8262386326011694 -1.8346183074972474e-16
		outer loop
			vertex 1.6522480249404912 2.071853399276722 -50
			vertex 1.3250000476837163 2.294967412948597 -50
			vertex 1.3250000476837163 2.294967412948619 50
		endloop
	endfacet
	facet normal 0.43388357952271245 0.9009689447592288 -2.0005529338878532e-16
		outer loop
			vertex 1.3250000476837163 2.294967412948619 50
			vertex 1.3250000476837163 2.294967412948597 -50
			vertex 0.9681537151336675 2.466815471649181 50
		endloop
	endfacet
	facet normal 0.43388357952271234 0.9009689447592287 -2.000552933887853e-16
		outer loop
			vertex 1.3250000476837163 2.294967412948597 -50
			vertex 0.9681537151336675 2.466815471649159 -50
			vertex 0.9681537151336675 2.466815471649181 50
		endloop
	endfacet
	facet normal 0.29475525873727554 0.9555727797748961 -2.1217978036223075e-16
		outer loop
			vertex 0.9681537151336675 2.466815471649181 50
			vertex 0.9681537151336675 2.466815471649159 -50
			vertex 0.5896804928779608 2.583559036254894 50
		endloop
	endfacet
	facet normal 0.29475525873727554 0.9555727797748961 -2.1217978036223075e-16
		outer loop
			vertex 0.9681537151336675 2.466815471649159 -50
			vertex 0.5896804928779608 2.5835590362548717 -50
			vertex 0.5896804928779608 2.583559036254894 50
		endloop
	endfacet
	facet normal 0.14904204841911986 0.988830859046699 -2.195645574347036e-16
		outer loop
			vertex 0.5896804928779608 2.583559036254894 50
			vertex 0.5896804928779608 2.5835590362548717 -50
			vertex 0.19803474843502103 2.642590045928966 50
		endloop
	endfacet
	facet normal 0.14904204841911986 0.988830859046699 -2.195645574347036e-16
		outer loop
			vertex 0.5896804928779608 2.5835590362548717 -50
			vertex 0.19803474843502103 2.642590045928944 -50
			vertex 0.19803474843502103 2.642590045928966 50
		endloop
	endfacet
	facet normal 0 1 -2.220446049250313e-16
		outer loop
			vertex 0.19803474843502103 2.642590045928966 50
			vertex 0.19803474843502103 2.642590045928944 -50
			vertex -0.19803474843501986 2.642590045928966 50
		endloop
	endfacet
	facet normal 0 1 -2.220446049250313e-16
		outer loop
			vertex 0.19803474843502103 2.642590045928944 -50
			vertex -0.19803474843501986 2.642590045928944 -50
			vertex -0.19803474843501986 2.642590045928966 50
		endloop
	endfacet
	facet normal -0.14904204841911986 0.988830859046699 -2.195645574347036e-16
		outer loop
			vertex -0.19803474843501986 2.642590045928966 50
			vertex -0.19803474843501986 2.642590045928944 -50
			vertex -0.5896804928779596 2.583559036254894 50
		endloop
	endfacet
	facet normal -0.14904204841911986 0.988830859046699 -2.195645574347036e-16
		outer loop
			vertex -0.19803474843501986 2.642590045928944 -50
			vertex -0.5896804928779596 2.5835590362548717 -50
			vertex -0.5896804928779596 2.583559036254894 50
		endloop
	endfacet
	facet normal -0.29475525873727554 0.9555727797748961 -2.1217978036223075e-16
		outer loop
			vertex -0.5896804928779596 2.583559036254894 50
			vertex -0.5896804928779596 2.5835590362548717 -50
			vertex -0.9681537151336664 2.466815471649181 50
		endloop
	endfacet
	facet normal -0.29475525873727554 0.9555727797748961 -2.1217978036223075e-16
		outer loop
			vertex -0.5896804928779596 2.5835590362548717 -50
			vertex -0.9681537151336664 2.466815471649159 -50
			vertex -0.9681537151336664 2.466815471649181 50
		endloop
	endfacet
	facet normal -0.4338835795227103 0.9009689447592298 -2.0005529338878555e-16
		outer loop
			vertex -0.9681537151336664 2.466815471649181 50
			vertex -0.9681537151336664 2.466815471649159 -50
			vertex -1.3250000476837154 2.29496741294862 50
		endloop
	endfacet
	facet normal -0.4338835795227103 0.9009689447592297 -2.0005529338878552e-16
		outer loop
			vertex -0.9681537151336664 2.466815471649159 -50
			vertex -1.3250000476837154 2.2949674129485977 -50
			vertex -1.3250000476837154 2.29496741294862 50
		endloop
	endfacet
	facet normal -0.5633202659210391 0.8262386326011694 -1.8346183074972474e-16
		outer loop
			vertex -1.3250000476837154 2.29496741294862 50
			vertex -1.3250000476837154 2.2949674129485977 -50
			vertex -1.6522480249404903 2.071853399276745 50
		endloop
	endfacet
	facet normal -0.5633202659210391 0.8262386326011694 -1.8346183074972474e-16
		outer loop
			vertex -1.3250000476837154 2.2949674129485977 -50
			vertex -1.6522480249404903 2.0718533992767227 -50
			vertex -1.6522480249404903 2.071853399276745 50
		endloop
	endfacet
	facet normal -0.6801726438513351 0.7330519589744542 -1.6277023262000294e-16
		outer loop
			vertex -1.6522480249404903 2.071853399276745 50
			vertex -1.6522480249404903 2.0718533992767227 -50
			vertex -1.9425874948501582 1.8024578094482537 50
		endloop
	endfacet
	facet normal -0.6801726438513351 0.7330519589744542 -1.6277023262000294e-16
		outer loop
			vertex -1.6522480249404903 2.0718533992767227 -50
			vertex -1.9425874948501582 1.8024578094482315 -50
			vertex -1.9425874948501582 1.8024578094482537 50
		endloop
	endfacet
	facet normal -0.7818315179904783 0.6234897573149895 -1.3844253683781048e-16
		outer loop
			vertex -1.9425874948501582 1.8024578094482537 50
			vertex -1.9425874948501582 1.8024578094482315 -50
			vertex -2.1895327568054195 1.4927982091903802 50
		endloop
	endfacet
	facet normal -0.7818315179904783 0.6234897573149895 -1.3844253683781048e-16
		outer loop
			vertex -1.9425874948501582 1.8024578094482315 -50
			vertex -2.1895327568054195 1.492798209190358 -50
			vertex -2.1895327568054195 1.4927982091903802 50
		endloop
	endfacet
	facet normal -0.8660253920941595 0.5000000202481569 -1.1102230695850966e-16
		outer loop
			vertex -2.1895327568054195 1.4927982091903802 50
			vertex -2.1895327568054195 1.492798209190358 -50
			vertex -2.387567520141601 1.1497919559478875 50
		endloop
	endfacet
	facet normal -0.8660253920941595 0.5000000202481569 -1.1102230695850966e-16
		outer loop
			vertex -2.1895327568054195 1.492798209190358 -50
			vertex -2.387567520141601 1.1497919559478653 -50
			vertex -2.387567520141601 1.1497919559478875 50
		endloop
	endfacet
	facet normal -0.9308736808296366 0.365341197155048 -8.11220417851306e-17
		outer loop
			vertex -2.387567520141601 1.1497919559478875 50
			vertex -2.387567520141601 1.1497919559478653 -50
			vertex -2.5322680473327637 0.7811012268066523 50
		endloop
	endfacet
	facet normal -0.9308736808296366 0.365341197155048 -8.11220417851306e-17
		outer loop
			vertex -2.387567520141601 1.1497919559478653 -50
			vertex -2.5322680473327637 0.7811012268066301 -50
			vertex -2.5322680473327637 0.7811012268066523 50
		endloop
	endfacet
	facet normal -0.9749280120223381 0.22252049652598743 -4.940947573883468e-17
		outer loop
			vertex -2.5322680473327637 0.7811012268066523 50
			vertex -2.5322680473327637 0.7811012268066301 -50
			vertex -2.620401620864868 0.3949620127678034 50
		endloop
	endfacet
	facet normal -0.9749280120223381 0.22252049652598743 -4.940947573883468e-17
		outer loop
			vertex -2.5322680473327637 0.7811012268066301 -50
			vertex -2.620401620864868 0.3949620127677812 -50
			vertex -2.620401620864868 0.3949620127678034 50
		endloop
	endfacet
	facet normal -0.9972037664287374 0.07473050394812097 -1.6593505225009014e-17
		outer loop
			vertex -2.620401620864868 0.3949620127678034 50
			vertex -2.620401620864868 0.3949620127677812 -50
			vertex -2.6500000953674316 1.2015179879796347e-14 50
		endloop
	endfacet
	facet normal -0.9972037664287375 0.074730503948121 -1.659350522500902e-17
		outer loop
			vertex -2.620401620864868 0.3949620127677812 -50
			vertex -2.6500000953674316 -1.0189280612706784e-14 -50
			vertex -2.6500000953674316 1.2015179879796347e-14 50
		endloop
	endfacet
	facet normal -0.9972037664287375 -0.07473050394812088 1.6593505225008993e-17
		outer loop
			vertex -2.6500000953674316 1.2015179879796347e-14 50
			vertex -2.6500000953674316 -1.0189280612706784e-14 -50
			vertex -2.620401620864868 -0.3949620127677801 50
		endloop
	endfacet
	facet normal -0.9972037664287374 -0.07473050394812086 1.659350522500899e-17
		outer loop
			vertex -2.6500000953674316 -1.0189280612706784e-14 -50
			vertex -2.620401620864868 -0.3949620127678023 -50
			vertex -2.620401620864868 -0.3949620127677801 50
		endloop
	endfacet
	facet normal -0.9749280120223381 -0.22252049652598743 4.940947573883468e-17
		outer loop
			vertex -2.620401620864868 -0.3949620127677801 50
			vertex -2.620401620864868 -0.3949620127678023 -50
			vertex -2.5322680473327637 -0.781101226806629 50
		endloop
	endfacet
	facet normal -0.9749280120223381 -0.22252049652598743 4.940947573883468e-17
		outer loop
			vertex -2.620401620864868 -0.3949620127678023 -50
			vertex -2.5322680473327637 -0.7811012268066512 -50
			vertex -2.5322680473327637 -0.781101226806629 50
		endloop
	endfacet
	facet normal -0.9308736808296377 -0.36534119715504587 8.112204178513013e-17
		outer loop
			vertex -2.5322680473327637 -0.781101226806629 50
			vertex -2.5322680473327637 -0.7811012268066512 -50
			vertex -2.387567520141602 -1.1497919559478644 50
		endloop
	endfacet
	facet normal -0.9308736808296377 -0.36534119715504587 8.112204178513013e-17
		outer loop
			vertex -2.5322680473327637 -0.7811012268066512 -50
			vertex -2.387567520141602 -1.1497919559478866 -50
			vertex -2.387567520141602 -1.1497919559478644 50
		endloop
	endfacet
	facet normal -0.8660253920941595 -0.5000000202481569 1.1102230695850966e-16
		outer loop
			vertex -2.387567520141602 -1.1497919559478644 50
			vertex -2.387567520141602 -1.1497919559478866 -50
			vertex -2.1895327568054204 -1.492798209190357 50
		endloop
	endfacet
	facet normal -0.8660253920941595 -0.5000000202481569 1.1102230695850966e-16
		outer loop
			vertex -2.387567520141602 -1.1497919559478866 -50
			vertex -2.1895327568054204 -1.4927982091903793 -50
			vertex -2.1895327568054204 -1.492798209190357 50
		endloop
	endfacet
	facet normal -0.7818315179904783 -0.6234897573149895 1.3844253683781048e-16
		outer loop
			vertex -2.1895327568054204 -1.492798209190357 50
			vertex -2.1895327568054204 -1.4927982091903793 -50
			vertex -1.9425874948501591 -1.8024578094482306 50
		endloop
	endfacet
	facet normal -0.7818315179904783 -0.6234897573149895 1.3844253683781048e-16
		outer loop
			vertex -2.1895327568054204 -1.4927982091903793 -50
			vertex -1.9425874948501591 -1.8024578094482528 -50
			vertex -1.9425874948501591 -1.8024578094482306 50
		endloop
	endfacet
	facet normal -0.6801726438513351 -0.7330519589744542 1.6277023262000294e-16
		outer loop
			vertex -1.9425874948501591 -1.8024578094482306 50
			vertex -1.9425874948501591 -1.8024578094482528 -50
			vertex -1.6522480249404912 -2.071853399276722 50
		endloop
	endfacet
	facet normal -0.6801726438513351 -0.7330519589744542 1.6277023262000294e-16
		outer loop
			vertex -1.9425874948501591 -1.8024578094482528 -50
			vertex -1.6522480249404912 -2.071853399276744 -50
			vertex -1.6522480249404912 -2.071853399276722 50
		endloop
	endfacet
	facet normal -0.5633202659210391 -0.8262386326011694 1.8346183074972474e-16
		outer loop
			vertex -1.6522480249404912 -2.071853399276722 50
			vertex -1.6522480249404912 -2.071853399276744 -50
			vertex -1.3250000476837163 -2.294967412948597 50
		endloop
	endfacet
	facet normal -0.5633202659210391 -0.8262386326011694 1.8346183074972474e-16
		outer loop
			vertex -1.6522480249404912 -2.071853399276744 -50
			vertex -1.3250000476837163 -2.294967412948619 -50
			vertex -1.3250000476837163 -2.294967412948597 50
		endloop
	endfacet
	facet normal -0.43388357952271245 -0.9009689447592288 2.0005529338878532e-16
		outer loop
			vertex -1.3250000476837163 -2.294967412948597 50
			vertex -1.3250000476837163 -2.294967412948619 -50
			vertex -0.9681537151336675 -2.466815471649159 50
		endloop
	endfacet
	facet normal -0.43388357952271234 -0.9009689447592287 2.000552933887853e-16
		outer loop
			vertex -1.3250000476837163 -2.294967412948619 -50
			vertex -0.9681537151336675 -2.466815471649181 -50
			vertex -0.9681537151336675 -2.466815471649159 50
		endloop
	endfacet
	facet normal -0.29475525873727554 -0.9555727797748961 2.1217978036223075e-16
		outer loop
			vertex -0.9681537151336675 -2.466815471649159 50
			vertex -0.9681537151336675 -2.466815471649181 -50
			vertex -0.5896804928779608 -2.5835590362548717 50
		endloop
	endfacet
	facet normal -0.29475525873727554 -0.9555727797748961 2.1217978036223075e-16
		outer loop
			vertex -0.9681537151336675 -2.466815471649181 -50
			vertex -0.5896804928779608 -2.583559036254894 -50
			vertex -0.5896804928779608 -2.5835590362548717 50
		endloop
	endfacet
	facet normal -0.14904204841911986 -0.988830859046699 2.195645574347036e-16
		outer loop
			vertex -0.5896804928779608 -2.5835590362548717 50
			vertex -0.5896804928779608 -2.583559036254894 -50
			vertex -0.19803474843502103 -2.642590045928944 50
		endloop
	endfacet
	facet normal -0.14904204841911986 -0.988830859046699 2.195645574347036e-16
		outer loop
			vertex -0.5896804928779608 -2.583559036254894 -50
			vertex -0.19803474843502103 -2.642590045928966 -50
			vertex -0.19803474843502103 -2.642590045928944 50
		endloop
	endfacet
	facet normal 0 -1 2.220446049250313e-16
		outer loop
			vertex -0.19803474843502103 -2.642590045928944 50
			vertex -0.19803474843502103 -2.642590045928966 -50
			vertex 0.19803474843501986 -2.642590045928944 50
		endloop
	endfacet
	facet normal 0 -1 2.220446049250313e-16
		outer loop
			vertex -0.19803474843502103 -2.642590045928966 -50
			vertex 0.19803474843501986 -2.642590045928966 -50
			vertex 0.19803474843501986 -2.642590045928944 50
		endloop
	endfacet
	facet normal 0.14904204841911986 -0.988830859046699 2.195645574347036e-16
		outer loop
			vertex 0.19803474843501986 -2.642590045928944 50
			vertex 0.19803474843501986 -2.642590045928966 -50
			vertex 0.5896804928779596 -2.5835590362548717 50
		endloop
	endfacet
	facet normal 0.14904204841911986 -0.988830859046699 2.195645574347036e-16
		outer loop
			vertex 0.19803474843501986 -2.642590045928966 -50
			vertex 0.5896804928779596 -2.583559036254894 -50
			vertex 0.5896804928779596 -2.5835590362548717 50
		endloop
	endfacet
	facet normal 0.29475525873727554 -0.9555727797748961 2.1217978036223075e-16
		outer loop
			vertex 0.5896804928779596 -2.5835590362548717 50
			vertex 0.5896804928779596 -2.583559036254894 -50
			vertex 0.9681537151336664 -2.466815471649159 50
		endloop
	endfacet
	facet normal 0.29475525873727554 -0.9555727797748961 2.1217978036223075e-16
		outer loop
			vertex 0.5896804928779596 -2.583559036254894 -50
			vertex 0.9681537151336664 -2.466815471649181 -50
			vertex 0.9681537151336664 -2.466815471649159 50
		endloop
	endfacet
	facet normal 0.4338835795227103 -0.9009689447592298 2.0005529338878555e-16
		outer loop
			vertex 0.9681537151336664 -2.466815471649159 50
			vertex 0.9681537151336664 -2.466815471649181 -50
			vertex 1.3250000476837154 -2.2949674129485977 50
		endloop
	endfacet
	facet normal 0.4338835795227103 -0.9009689447592297 2.0005529338878552e-16
		outer loop
			vertex 0.9681537151336664 -2.466815471649181 -50
			vertex 1.3250000476837154 -2.29496741294862 -50
			vertex 1.3250000476837154 -2.2949674129485977 50
		endloop
	endfacet
	facet normal 0.5633202659210391 -0.8262386326011694 1.8346183074972474e-16
		outer loop
			vertex 1.3250000476837154 -2.2949674129485977 50
			vertex 1.3250000476837154 -2.29496741294862 -50
			vertex 1.6522480249404903 -2.0718533992767227 50
		endloop
	endfacet
	facet normal 0.5633202659210391 -0.8262386326011694 1.8346183074972474e-16
		outer loop
			vertex 1.3250000476837154 -2.29496741294862 -50
			vertex 1.6522480249404903 -2.071853399276745 -50
			vertex 1.6522480249404903 -2.0718533992767227 50
		endloop
	endfacet
	facet normal 0.6801726438513351 -0.7330519589744542 1.6277023262000294e-16
		outer loop
			vertex 1.6522480249404903 -2.0718533992767227 50
			vertex 1.6522480249404903 -2.071853399276745 -50
			vertex 1.9425874948501582 -1.8024578094482315 50
		endloop
	endfacet
	facet normal 0.6801726438513351 -0.7330519589744542 1.6277023262000294e-16
		outer loop
			vertex 1.6522480249404903 -2.071853399276745 -50
			vertex 1.9425874948501582 -1.8024578094482537 -50
			vertex 1.9425874948501582 -1.8024578094482315 50
		endloop
	endfacet
	facet normal 0.7818315179904783 -0.6234897573149895 1.3844253683781048e-16
		outer loop
			vertex 1.9425874948501582 -1.8024578094482315 50
			vertex 1.9425874948501582 -1.8024578094482537 -50
			vertex 2.1895327568054195 -1.492798209190358 50
		endloop
	endfacet
	facet normal 0.7818315179904783 -0.6234897573149895 1.3844253683781048e-16
		outer loop
			vertex 1.9425874948501582 -1.8024578094482537 -50
			vertex 2.1895327568054195 -1.4927982091903802 -50
			vertex 2.1895327568054195 -1.492798209190358 50
		endloop
	endfacet
	facet normal 0.8660253920941595 -0.5000000202481569 1.1102230695850966e-16
		outer loop
			vertex 2.1895327568054195 -1.492798209190358 50
			vertex 2.1895327568054195 -1.4927982091903802 -50
			vertex 2.387567520141601 -1.1497919559478653 50
		endloop
	endfacet
	facet normal 0.8660253920941595 -0.5000000202481569 1.1102230695850966e-16
		outer loop
			vertex 2.1895327568054195 -1.4927982091903802 -50
			vertex 2.387567520141601 -1.1497919559478875 -50
			vertex 2.387567520141601 -1.1497919559478653 50
		endloop
	endfacet
	facet normal 0.9308736808296366 -0.365341197155048 8.11220417851306e-17
		outer loop
			vertex 2.387567520141601 -1.1497919559478653 50
			vertex 2.387567520141601 -1.1497919559478875 -50
			vertex 2.5322680473327637 -0.7811012268066301 50
		endloop
	endfacet
	facet normal 0.9308736808296366 -0.365341197155048 8.11220417851306e-17
		outer loop
			vertex 2.387567520141601 -1.1497919559478875 -50
			vertex 2.5322680473327637 -0.7811012268066523 -50
			vertex 2.5322680473327637 -0.7811012268066301 50
		endloop
	endfacet
	facet normal 0.9749280120223381 -0.22252049652598743 4.940947573883468e-17
		outer loop
			vertex 2.5322680473327637 -0.7811012268066301 50
			vertex 2.5322680473327637 -0.7811012268066523 -50
			vertex 2.620401620864868 -0.3949620127677812 50
		endloop
	endfacet
	facet normal 0.9749280120223381 -0.22252049652598743 4.940947573883468e-17
		outer loop
			vertex 2.5322680473327637 -0.7811012268066523 -50
			vertex 2.620401620864868 -0.3949620127678034 -50
			vertex 2.620401620864868 -0.3949620127677812 50
		endloop
	endfacet
	facet normal 0.9972037664287374 -0.07473050394812106 1.6593505225009033e-17
		outer loop
			vertex 2.620401620864868 -0.3949620127677812 50
			vertex 2.620401620864868 -0.3949620127678034 -50
			vertex 2.6500000953674316 9.86474920338916e-15 50
		endloop
	endfacet
	facet normal 0.9972037664287375 -0.07473050394812106 1.6593505225009033e-17
		outer loop
			vertex 2.620401620864868 -0.3949620127678034 -50
			vertex 2.6500000953674316 -1.2339711289113971e-14 -50
			vertex 2.6500000953674316 9.86474920338916e-15 50
		endloop
	endfacet
	facet normal 0 0 1
		outer loop
			vertex 2.6500000953674316 1.0513812022024409e-14 50
			vertex 2.620401620864868 0.3949620127678023 50
			vertex 0 1.1102230246251565e-14 50
		endloop
	endfacet
	facet normal 0 0 1
		outer loop
			vertex 2.620401620864868 0.3949620127678023 50
			vertex 2.5322680473327637 0.7811012268066512 50
			vertex 0 1.1102230246251565e-14 50
		endloop
	endfacet
	facet normal 0 0 1
		outer loop
			vertex 2.5322680473327637 0.7811012268066512 50
			vertex 2.387567520141602 1.1497919559478866 50
			vertex 0 1.1102230246251565e-14 50
		endloop
	endfacet
	facet normal 0 0 1
		outer loop
			vertex 2.387567520141602 1.1497919559478866 50
			vertex 2.1895327568054204 1.4927982091903793 50
			vertex 0 1.1102230246251565e-14 50
		endloop
	endfacet
	facet normal 0 0 1
		outer loop
			vertex 2.1895327568054204 1.4927982091903793 50
			vertex 1.9425874948501591 1.8024578094482528 50
			vertex 0 1.1102230246251565e-14 50
		endloop
	endfacet
	facet normal 0 0 1
		outer loop
			vertex 1.9425874948501591 1.8024578094482528 50
			vertex 1.6522480249404912 2.071853399276744 50
			vertex 0 1.1102230246251565e-14 50
		endloop
	endfacet
	facet normal 0 0 1
		outer loop
			vertex 1.6522480249404912 2.071853399276744 50
			vertex 1.3250000476837163 2.294967412948619 50
			vertex 0 1.1102230246251565e-14 50
		endloop
	endfacet
	facet normal 0 0 1
		outer loop
			vertex 1.3250000476837163 2.294967412948619 50
			vertex 0.9681537151336675 2.466815471649181 50
			vertex 0 1.1102230246251565e-14 50
		endloop
	endfacet
	facet normal 0 0 1
		outer loop
			vertex 0.9681537151336675 2.466815471649181 50
			vertex 0.5896804928779608 2.583559036254894 50
			vertex 0 1.1102230246251565e-14 50
		endloop
	endfacet
	facet normal 0 0 1
		outer loop
			vertex 0.5896804928779608 2.583559036254894 50
			vertex 0.19803474843502103 2.642590045928966 50
			vertex 0 1.1102230246251565e-14 50
		endloop
	endfacet
	facet normal 0 0 1
		outer loop
			vertex 0.19803474843502103 2.642590045928966 50
			vertex -0.19803474843501986 2.642590045928966 50
			vertex 0 1.1102230246251565e-14 50
		endloop
	endfacet
	facet normal 0 0 1
		outer loop
			vertex -0.19803474843501986 2.642590045928966 50
			vertex -0.5896804928779596 2.583559036254894 50
			vertex 0 1.1102230246251565e-14 50
		endloop
	endfacet
	facet normal 0 0 1
		outer loop
			vertex -0.5896804928779596 2.583559036254894 50
			vertex -0.9681537151336664 2.466815471649181 50
			vertex 0 1.1102230246251565e-14 50
		endloop
	endfacet
	facet normal 0 0 1
		outer loop
			vertex -0.9681537151336664 2.466815471649181 50
			vertex -1.3250000476837154 2.29496741294862 50
			vertex 0 1.1102230246251565e-14 50
		endloop
	endfacet
	facet normal 0 0 1
		outer loop
			vertex -1.3250000476837154 2.29496741294862 50
			vertex -1.6522480249404903 2.071853399276745 50
			vertex 0 1.1102230246251565e-14 50
		endloop
	endfacet
	facet normal 0 0 1
		outer loop
			vertex -1.6522480249404903 2.071853399276745 50
			vertex -1.9425874948501582 1.8024578094482537 50
			vertex 0 1.1102230246251565e-14 50
		endloop
	endfacet
	facet normal 0 0 1
		outer loop
			vertex -1.9425874948501582 1.8024578094482537 50
			vertex -2.1895327568054195 1.4927982091903802 50
			vertex 0 1.1102230246251565e-14 50
		endloop
	endfacet
	facet normal 0 0 1
		outer loop
			vertex -2.1895327568054195 1.4927982091903802 50
			vertex -2.387567520141601 1.1497919559478875 50
			vertex 0 1.1102230246251565e-14 50
		endloop
	endfacet
	facet normal 0 0 1
		outer loop
			vertex -2.387567520141601 1.1497919559478875 50
			vertex -2.5322680473327637 0.7811012268066523 50
			vertex 0 1.1102230246251565e-14 50
		endloop
	endfacet
	facet normal 0 0 1
		outer loop
			vertex -2.5322680473327637 0.7811012268066523 50
			vertex -2.620401620864868 0.3949620127678034 50
			vertex 0 1.1102230246251565e-14 50
		endloop
	endfacet
	facet normal 0 0 1
		outer loop
			vertex -2.620401620864868 0.3949620127678034 50
			vertex -2.6500000953674316 1.2015179879796347e-14 50
			vertex 0 1.1102230246251565e-14 50
		endloop
	endfacet
	facet normal 0 0 1
		outer loop
			vertex -2.6500000953674316 1.2015179879796347e-14 50
			vertex -2.620401620864868 -0.3949620127677801 50
			vertex 0 1.1102230246251565e-14 50
		endloop
	endfacet
	facet normal 0 0 1
		outer loop
			vertex -2.620401620864868 -0.3949620127677801 50
			vertex -2.5322680473327637 -0.781101226806629 50
			vertex 0 1.1102230246251565e-14 50
		endloop
	endfacet
	facet normal 0 0 1
		outer loop
			vertex -2.5322680473327637 -0.781101226806629 50
			vertex -2.387567520141602 -1.1497919559478644 50
			vertex 0 1.1102230246251565e-14 50
		endloop
	endfacet
	facet normal 0 0 1
		outer loop
			vertex -2.387567520141602 -1.1497919559478644 50
			vertex -2.1895327568054204 -1.492798209190357 50
			vertex 0 1.1102230246251565e-14 50
		endloop
	endfacet
	facet normal 0 0 1
		outer loop
			vertex -2.1895327568054204 -1.492798209190357 50
			vertex -1.9425874948501591 -1.8024578094482306 50
			vertex 0 1.1102230246251565e-14 50
		endloop
	endfacet
	facet normal 0 0 1
		outer loop
			vertex -1.9425874948501591 -1.8024578094482306 50
			vertex -1.6522480249404912 -2.071853399276722 50
			vertex 0 1.1102230246251565e-14 50
		endloop
	endfacet
	facet normal 0 0 1
		outer loop
			vertex -1.6522480249404912 -2.071853399276722 50
			vertex -1.3250000476837163 -2.294967412948597 50
			vertex 0 1.1102230246251565e-14 50
		endloop
	endfacet
	facet normal 0 0 1
		outer loop
			vertex -1.3250000476837163 -2.294967412948597 50
			vertex -0.9681537151336675 -2.466815471649159 50
			vertex 0 1.1102230246251565e-14 50
		endloop
	endfacet
	facet normal 0 0 1
		outer loop
			vertex -0.9681537151336675 -2.466815471649159 50
			vertex -0.5896804928779608 -2.5835590362548717 50
			vertex 0 1.1102230246251565e-14 50
		endloop
	endfacet
	facet normal 0 0 1
		outer loop
			vertex -0.5896804928779608 -2.5835590362548717 50
			vertex -0.19803474843502103 -2.642590045928944 50
			vertex 0 1.1102230246251565e-14 50
		endloop
	endfacet
	facet normal 0 0 1
		outer loop
			vertex -0.19803474843502103 -2.642590045928944 50
			vertex 0.19803474843501986 -2.642590045928944 50
			vertex 0 1.1102230246251565e-14 50
		endloop
	endfacet
	facet normal 0 0 1
		outer loop
			vertex 0.19803474843501986 -2.642590045928944 50
			vertex 0.5896804928779596 -2.5835590362548717 50
			vertex 0 1.1102230246251565e-14 50
		endloop
	endfacet
	facet normal 0 0 1
		outer loop
			vertex 0.5896804928779596 -2.5835590362548717 50
			vertex 0.9681537151336664 -2.466815471649159 50
			vertex 0 1.1102230246251565e-14 50
		endloop
	endfacet
	facet normal 0 0 1
		outer loop
			vertex 0.9681537151336664 -2.466815471649159 50
			vertex 1.3250000476837154 -2.2949674129485977 50
			vertex 0 1.1102230246251565e-14 50
		endloop
	endfacet
	facet normal 0 0 1
		outer loop
			vertex 1.3250000476837154 -2.2949674129485977 50
			vertex 1.6522480249404903 -2.0718533992767227 50
			vertex 0 1.1102230246251565e-14 50
		endloop
	endfacet
	facet normal 0 0 1
		outer loop
			vertex 1.6522480249404903 -2.0718533992767227 50
			vertex 1.9425874948501582 -1.8024578094482315 50
			vertex 0 1.1102230246251565e-14 50
		endloop
	endfacet
	facet normal 0 0 1
		outer loop
			vertex 1.9425874948501582 -1.8024578094482315 50
			vertex 2.1895327568054195 -1.492798209190358 50
			vertex 0 1.1102230246251565e-14 50
		endloop
	endfacet
	facet normal 0 0 1
		outer loop
			vertex 2.1895327568054195 -1.492798209190358 50
			vertex 2.387567520141601 -1.1497919559478653 50
			vertex 0 1.1102230246251565e-14 50
		endloop
	endfacet
	facet normal 0 0 1
		outer loop
			vertex 2.387567520141601 -1.1497919559478653 50
			vertex 2.5322680473327637 -0.7811012268066301 50
			vertex 0 1.1102230246251565e-14 50
		endloop
	endfacet
	facet normal 0 0 1
		outer loop
			vertex 2.5322680473327637 -0.7811012268066301 50
			vertex 2.620401620864868 -0.3949620127677812 50
			vertex 0 1.1102230246251565e-14 50
		endloop
	endfacet
	facet normal 0 0 1
		outer loop
			vertex 2.620401620864868 -0.3949620127677812 50
			vertex 2.6500000953674316 9.86474920338916e-15 50
			vertex 0 1.1102230246251565e-14 50
		endloop
	endfacet
	facet normal 0 0 -1
		outer loop
			vertex 2.620401620864868 0.3949620127677801 -50
			vertex 2.6500000953674316 -1.1690648470478722e-14 -50
			vertex 0 -1.1102230246251565e-14 -50
		endloop
	endfacet
	facet normal 0 0 -1
		outer loop
			vertex 2.5322680473327637 0.781101226806629 -50
			vertex 2.620401620864868 0.3949620127677801 -50
			vertex 0 -1.1102230246251565e-14 -50
		endloop
	endfacet
	facet normal 0 0 -1
		outer loop
			vertex 2.387567520141602 1.1497919559478644 -50
			vertex 2.5322680473327637 0.781101226806629 -50
			vertex 0 -1.1102230246251565e-14 -50
		endloop
	endfacet
	facet normal 0 0 -1
		outer loop
			vertex 2.1895327568054204 1.492798209190357 -50
			vertex 2.387567520141602 1.1497919559478644 -50
			vertex 0 -1.1102230246251565e-14 -50
		endloop
	endfacet
	facet normal 0 0 -1
		outer loop
			vertex 1.9425874948501591 1.8024578094482306 -50
			vertex 2.1895327568054204 1.492798209190357 -50
			vertex 0 -1.1102230246251565e-14 -50
		endloop
	endfacet
	facet normal 0 0 -1
		outer loop
			vertex 1.6522480249404912 2.071853399276722 -50
			vertex 1.9425874948501591 1.8024578094482306 -50
			vertex 0 -1.1102230246251565e-14 -50
		endloop
	endfacet
	facet normal 0 0 -1
		outer loop
			vertex 1.3250000476837163 2.294967412948597 -50
			vertex 1.6522480249404912 2.071853399276722 -50
			vertex 0 -1.1102230246251565e-14 -50
		endloop
	endfacet
	facet normal 0 0 -1
		outer loop
			vertex 0.9681537151336675 2.466815471649159 -50
			vertex 1.3250000476837163 2.294967412948597 -50
			vertex 0 -1.1102230246251565e-14 -50
		endloop
	endfacet
	facet normal 0 0 -1
		outer loop
			vertex 0.5896804928779608 2.5835590362548717 -50
			vertex 0.9681537151336675 2.466815471649159 -50
			vertex 0 -1.1102230246251565e-14 -50
		endloop
	endfacet
	facet normal 0 0 -1
		outer loop
			vertex 0.19803474843502103 2.642590045928944 -50
			vertex 0.5896804928779608 2.5835590362548717 -50
			vertex 0 -1.1102230246251565e-14 -50
		endloop
	endfacet
	facet normal 0 0 -1
		outer loop
			vertex -0.19803474843501986 2.642590045928944 -50
			vertex 0.19803474843502103 2.642590045928944 -50
			vertex 0 -1.1102230246251565e-14 -50
		endloop
	endfacet
	facet normal 0 0 -1
		outer loop
			vertex -0.5896804928779596 2.5835590362548717 -50
			vertex -0.19803474843501986 2.642590045928944 -50
			vertex 0 -1.1102230246251565e-14 -50
		endloop
	endfacet
	facet normal 0 0 -1
		outer loop
			vertex -0.9681537151336664 2.466815471649159 -50
			vertex -0.5896804928779596 2.5835590362548717 -50
			vertex 0 -1.1102230246251565e-14 -50
		endloop
	endfacet
	facet normal 0 0 -1
		outer loop
			vertex -1.3250000476837154 2.2949674129485977 -50
			vertex -0.9681537151336664 2.466815471649159 -50
			vertex 0 -1.1102230246251565e-14 -50
		endloop
	endfacet
	facet normal 0 0 -1
		outer loop
			vertex -1.6522480249404903 2.0718533992767227 -50
			vertex -1.3250000476837154 2.2949674129485977 -50
			vertex 0 -1.1102230246251565e-14 -50
		endloop
	endfacet
	facet normal 0 0 -1
		outer loop
			vertex -1.9425874948501582 1.8024578094482315 -50
			vertex -1.6522480249404903 2.0718533992767227 -50
			vertex 0 -1.1102230246251565e-14 -50
		endloop
	endfacet
	facet normal 0 0 -1
		outer loop
			vertex -2.1895327568054195 1.492798209190358 -50
			vertex -1.9425874948501582 1.8024578094482315 -50
			vertex 0 -1.1102230246251565e-14 -50
		endloop
	endfacet
	facet normal 0 0 -1
		outer loop
			vertex -2.387567520141601 1.1497919559478653 -50
			vertex -2.1895327568054195 1.492798209190358 -50
			vertex 0 -1.1102230246251565e-14 -50
		endloop
	endfacet
	facet normal 0 0 -1
		outer loop
			vertex -2.5322680473327637 0.7811012268066301 -50
			vertex -2.387567520141601 1.1497919559478653 -50
			vertex 0 -1.1102230246251565e-14 -50
		endloop
	endfacet
	facet normal 0 0 -1
		outer loop
			vertex -2.620401620864868 0.3949620127677812 -50
			vertex -2.5322680473327637 0.7811012268066301 -50
			vertex 0 -1.1102230246251565e-14 -50
		endloop
	endfacet
	facet normal 0 0 -1
		outer loop
			vertex -2.6500000953674316 -1.0189280612706784e-14 -50
			vertex -2.620401620864868 0.3949620127677812 -50
			vertex 0 -1.1102230246251565e-14 -50
		endloop
	endfacet
	facet normal 0 0 -1
		outer loop
			vertex -2.620401620864868 -0.3949620127678023 -50
			vertex -2.6500000953674316 -1.0189280612706784e-14 -50
			vertex 0 -1.1102230246251565e-14 -50
		endloop
	endfacet
	facet normal 0 0 -1
		outer loop
			vertex -2.5322680473327637 -0.7811012268066512 -50
			vertex -2.620401620864868 -0.3949620127678023 -50
			vertex 0 -1.1102230246251565e-14 -50
		endloop
	endfacet
	facet normal 0 0 -1
		outer loop
			vertex -2.387567520141602 -1.1497919559478866 -50
			vertex -2.5322680473327637 -0.7811012268066512 -50
			vertex 0 -1.1102230246251565e-14 -50
		endloop
	endfacet
	facet normal 0 0 -1
		outer loop
			vertex -2.1895327568054204 -1.4927982091903793 -50
			vertex -2.387567520141602 -1.1497919559478866 -50
			vertex 0 -1.1102230246251565e-14 -50
		endloop
	endfacet
	facet normal 0 0 -1
		outer loop
			vertex -1.9425874948501591 -1.8024578094482528 -50
			vertex -2.1895327568054204 -1.4927982091903793 -50
			vertex 0 -1.1102230246251565e-14 -50
		endloop
	endfacet
	facet normal 0 0 -1
		outer loop
			vertex -1.6522480249404912 -2.071853399276744 -50
			vertex -1.9425874948501591 -1.8024578094482528 -50
			vertex 0 -1.1102230246251565e-14 -50
		endloop
	endfacet
	facet normal 0 0 -1
		outer loop
			vertex -1.3250000476837163 -2.294967412948619 -50
			vertex -1.6522480249404912 -2.071853399276744 -50
			vertex 0 -1.1102230246251565e-14 -50
		endloop
	endfacet
	facet normal 0 0 -1
		outer loop
			vertex -0.9681537151336675 -2.466815471649181 -50
			vertex -1.3250000476837163 -2.294967412948619 -50
			vertex 0 -1.1102230246251565e-14 -50
		endloop
	endfacet
	facet normal 0 0 -1
		outer loop
			vertex -0.5896804928779608 -2.583559036254894 -50
			vertex -0.9681537151336675 -2.466815471649181 -50
			vertex 0 -1.1102230246251565e-14 -50
		endloop
	endfacet
	facet normal 0 0 -1
		outer loop
			vertex -0.19803474843502103 -2.642590045928966 -50
			vertex -0.5896804928779608 -2.583559036254894 -50
			vertex 0 -1.1102230246251565e-14 -50
		endloop
	endfacet
	facet normal 0 0 -1
		outer loop
			vertex 0.19803474843501986 -2.642590045928966 -50
			vertex -0.19803474843502103 -2.642590045928966 -50
			vertex 0 -1.1102230246251565e-14 -50
		endloop
	endfacet
	facet normal 0 0 -1
		outer loop
			vertex 0.5896804928779596 -2.583559036254894 -50
			vertex 0.19803474843501986 -2.642590045928966 -50
			vertex 0 -1.1102230246251565e-14 -50
		endloop
	endfacet
	facet normal 0 0 -1
		outer loop
			vertex 0.9681537151336664 -2.466815471649181 -50
			vertex 0.5896804928779596 -2.583559036254894 -50
			vertex 0 -1.1102230246251565e-14 -50
		endloop
	endfacet
	facet normal 0 0 -1
		outer loop
			vertex 1.3250000476837154 -2.29496741294862 -50
			vertex 0.9681537151336664 -2.466815471649181 -50
			vertex 0 -1.1102230246251565e-14 -50
		endloop
	endfacet
	facet normal 0 0 -1
		outer loop
			vertex 1.6522480249404903 -2.071853399276745 -50
			vertex 1.3250000476837154 -2.29496741294862 -50
			vertex 0 -1.1102230246251565e-14 -50
		endloop
	endfacet
	facet normal 0 0 -1
		outer loop
			vertex 1.9425874948501582 -1.8024578094482537 -50
			vertex 1.6522480249404903 -2.071853399276745 -50
			vertex 0 -1.1102230246251565e-14 -50
		endloop
	endfacet
	facet normal 0 0 -1
		outer loop
			vertex 2.1895327568054195 -1.4927982091903802 -50
			vertex 1.9425874948501582 -1.8024578094482537 -50
			vertex 0 -1.1102230246251565e-14 -50
		endloop
	endfacet
	facet normal 0 0 -1
		outer loop
			vertex 2.387567520141601 -1.1497919559478875 -50
			vertex 2.1895327568054195 -1.4927982091903802 -50
			vertex 0 -1.1102230246251565e-14 -50
		endloop
	endfacet
	facet normal 0 0 -1
		outer loop
			vertex 2.5322680473327637 -0.7811012268066523 -50
			vertex 2.387567520141601 -1.1497919559478875 -50
			vertex 0 -1.1102230246251565e-14 -50
		endloop
	endfacet
	facet normal 0 0 -1
		outer loop
			vertex 2.620401620864868 -0.3949620127678034 -50
			vertex 2.5322680473327637 -0.7811012268066523 -50
			vertex 0 -1.1102230246251565e-14 -50
		endloop
	endfacet
	facet normal 0 0 -1
		outer loop
			vertex 2.6500000953674316 -1.2339711289113971e-14 -50
			vertex 2.620401620864868 -0.3949620127678034 -50
			vertex 0 -1.1102230246251565e-14 -50
		endloop
	endfacet
endsolid exported
