solid exported
	facet normal 0.9972037664287375 0.07473050394812093 -1.6593505225009005e-17
		outer loop
			vertex 2.6500000953674316 3.271827251452754e-14 150
			vertex 2.6500000953674316 -3.389510896298185e-14 -150
			vertex 2.620401620864868 0.3949620127678245 150
		endloop
	endfacet
	facet normal 0.9972037664287375 0.07473050394812093 -1.6593505225009005e-17
		outer loop
			vertex 2.6500000953674316 -3.389510896298185e-14 -150
			vertex 2.620401620864868 0.3949620127677579 -150
			vertex 2.620401620864868 0.3949620127678245 150
		endloop
	endfacet
	facet normal 0.9749280120223381 0.22252049652598743 -4.940947573883468e-17
		outer loop
			vertex 2.620401620864868 0.3949620127678245 150
			vertex 2.620401620864868 0.3949620127677579 -150
			vertex 2.5322680473327637 0.7811012268066734 150
		endloop
	endfacet
	facet normal 0.9749280120223381 0.22252049652598743 -4.940947573883468e-17
		outer loop
			vertex 2.620401620864868 0.3949620127677579 -150
			vertex 2.5322680473327637 0.7811012268066068 -150
			vertex 2.5322680473327637 0.7811012268066734 150
		endloop
	endfacet
	facet normal 0.9308736808296376 0.3653411971550458 -8.112204178513012e-17
		outer loop
			vertex 2.5322680473327637 0.7811012268066734 150
			vertex 2.5322680473327637 0.7811012268066068 -150
			vertex 2.387567520141602 1.1497919559479088 150
		endloop
	endfacet
	facet normal 0.9308736808296377 0.36534119715504587 -8.112204178513013e-17
		outer loop
			vertex 2.5322680473327637 0.7811012268066068 -150
			vertex 2.387567520141602 1.1497919559478422 -150
			vertex 2.387567520141602 1.1497919559479088 150
		endloop
	endfacet
	facet normal 0.8660253920941595 0.5000000202481569 -1.1102230695850966e-16
		outer loop
			vertex 2.387567520141602 1.1497919559479088 150
			vertex 2.387567520141602 1.1497919559478422 -150
			vertex 2.1895327568054204 1.4927982091904015 150
		endloop
	endfacet
	facet normal 0.8660253920941595 0.5000000202481569 -1.1102230695850966e-16
		outer loop
			vertex 2.387567520141602 1.1497919559478422 -150
			vertex 2.1895327568054204 1.492798209190335 -150
			vertex 2.1895327568054204 1.4927982091904015 150
		endloop
	endfacet
	facet normal 0.7818315179904783 0.6234897573149895 -1.3844253683781048e-16
		outer loop
			vertex 2.1895327568054204 1.4927982091904015 150
			vertex 2.1895327568054204 1.492798209190335 -150
			vertex 1.9425874948501591 1.802457809448275 150
		endloop
	endfacet
	facet normal 0.7818315179904783 0.6234897573149895 -1.3844253683781048e-16
		outer loop
			vertex 2.1895327568054204 1.492798209190335 -150
			vertex 1.9425874948501591 1.8024578094482084 -150
			vertex 1.9425874948501591 1.802457809448275 150
		endloop
	endfacet
	facet normal 0.6801726438513351 0.7330519589744541 -1.6277023262000291e-16
		outer loop
			vertex 1.9425874948501591 1.802457809448275 150
			vertex 1.9425874948501591 1.8024578094482084 -150
			vertex 1.6522480249404912 2.0718533992767663 150
		endloop
	endfacet
	facet normal 0.6801726438513351 0.7330519589744541 -1.6277023262000291e-16
		outer loop
			vertex 1.9425874948501591 1.8024578094482084 -150
			vertex 1.6522480249404912 2.0718533992766996 -150
			vertex 1.6522480249404912 2.0718533992767663 150
		endloop
	endfacet
	facet normal 0.5633202659210391 0.8262386326011694 -1.8346183074972474e-16
		outer loop
			vertex 1.6522480249404912 2.0718533992767663 150
			vertex 1.6522480249404912 2.0718533992766996 -150
			vertex 1.3250000476837163 2.2949674129486413 150
		endloop
	endfacet
	facet normal 0.5633202659210391 0.8262386326011694 -1.8346183074972474e-16
		outer loop
			vertex 1.6522480249404912 2.0718533992766996 -150
			vertex 1.3250000476837163 2.2949674129485746 -150
			vertex 1.3250000476837163 2.2949674129486413 150
		endloop
	endfacet
	facet normal 0.43388357952271234 0.9009689447592288 -2.0005529338878532e-16
		outer loop
			vertex 1.3250000476837163 2.2949674129486413 150
			vertex 1.3250000476837163 2.2949674129485746 -150
			vertex 0.9681537151336675 2.4668154716492032 150
		endloop
	endfacet
	facet normal 0.4338835795227124 0.9009689447592288 -2.0005529338878532e-16
		outer loop
			vertex 1.3250000476837163 2.2949674129485746 -150
			vertex 0.9681537151336675 2.4668154716491366 -150
			vertex 0.9681537151336675 2.4668154716492032 150
		endloop
	endfacet
	facet normal 0.29475525873727554 0.9555727797748961 -2.1217978036223075e-16
		outer loop
			vertex 0.9681537151336675 2.4668154716492032 150
			vertex 0.9681537151336675 2.4668154716491366 -150
			vertex 0.5896804928779608 2.583559036254916 150
		endloop
	endfacet
	facet normal 0.29475525873727554 0.9555727797748961 -2.1217978036223075e-16
		outer loop
			vertex 0.9681537151336675 2.4668154716491366 -150
			vertex 0.5896804928779608 2.5835590362548495 -150
			vertex 0.5896804928779608 2.583559036254916 150
		endloop
	endfacet
	facet normal 0.1490420484191199 0.988830859046699 -2.195645574347036e-16
		outer loop
			vertex 0.5896804928779608 2.583559036254916 150
			vertex 0.5896804928779608 2.5835590362548495 -150
			vertex 0.19803474843502103 2.6425900459289884 150
		endloop
	endfacet
	facet normal 0.1490420484191199 0.988830859046699 -2.195645574347036e-16
		outer loop
			vertex 0.5896804928779608 2.5835590362548495 -150
			vertex 0.19803474843502103 2.6425900459289218 -150
			vertex 0.19803474843502103 2.6425900459289884 150
		endloop
	endfacet
	facet normal 0 1 -2.220446049250313e-16
		outer loop
			vertex 0.19803474843502103 2.6425900459289884 150
			vertex 0.19803474843502103 2.6425900459289218 -150
			vertex -0.19803474843501986 2.6425900459289884 150
		endloop
	endfacet
	facet normal 0 1 -2.220446049250313e-16
		outer loop
			vertex 0.19803474843502103 2.6425900459289218 -150
			vertex -0.19803474843501986 2.6425900459289218 -150
			vertex -0.19803474843501986 2.6425900459289884 150
		endloop
	endfacet
	facet normal -0.1490420484191199 0.988830859046699 -2.195645574347036e-16
		outer loop
			vertex -0.19803474843501986 2.6425900459289884 150
			vertex -0.19803474843501986 2.6425900459289218 -150
			vertex -0.5896804928779596 2.583559036254916 150
		endloop
	endfacet
	facet normal -0.1490420484191199 0.988830859046699 -2.195645574347036e-16
		outer loop
			vertex -0.19803474843501986 2.6425900459289218 -150
			vertex -0.5896804928779596 2.5835590362548495 -150
			vertex -0.5896804928779596 2.583559036254916 150
		endloop
	endfacet
	facet normal -0.29475525873727554 0.9555727797748961 -2.1217978036223075e-16
		outer loop
			vertex -0.5896804928779596 2.583559036254916 150
			vertex -0.5896804928779596 2.5835590362548495 -150
			vertex -0.9681537151336664 2.4668154716492032 150
		endloop
	endfacet
	facet normal -0.29475525873727554 0.9555727797748961 -2.1217978036223075e-16
		outer loop
			vertex -0.5896804928779596 2.5835590362548495 -150
			vertex -0.9681537151336664 2.4668154716491366 -150
			vertex -0.9681537151336664 2.4668154716492032 150
		endloop
	endfacet
	facet normal -0.43388357952271034 0.9009689447592297 -2.0005529338878552e-16
		outer loop
			vertex -0.9681537151336664 2.4668154716492032 150
			vertex -0.9681537151336664 2.4668154716491366 -150
			vertex -1.3250000476837154 2.294967412948642 150
		endloop
	endfacet
	facet normal -0.4338835795227103 0.9009689447592297 -2.0005529338878552e-16
		outer loop
			vertex -0.9681537151336664 2.4668154716491366 -150
			vertex -1.3250000476837154 2.2949674129485755 -150
			vertex -1.3250000476837154 2.294967412948642 150
		endloop
	endfacet
	facet normal -0.5633202659210391 0.8262386326011694 -1.8346183074972474e-16
		outer loop
			vertex -1.3250000476837154 2.294967412948642 150
			vertex -1.3250000476837154 2.2949674129485755 -150
			vertex -1.6522480249404903 2.071853399276767 150
		endloop
	endfacet
	facet normal -0.5633202659210391 0.8262386326011694 -1.8346183074972474e-16
		outer loop
			vertex -1.3250000476837154 2.2949674129485755 -150
			vertex -1.6522480249404903 2.0718533992767005 -150
			vertex -1.6522480249404903 2.071853399276767 150
		endloop
	endfacet
	facet normal -0.6801726438513351 0.7330519589744541 -1.6277023262000291e-16
		outer loop
			vertex -1.6522480249404903 2.071853399276767 150
			vertex -1.6522480249404903 2.0718533992767005 -150
			vertex -1.9425874948501582 1.802457809448276 150
		endloop
	endfacet
	facet normal -0.6801726438513351 0.7330519589744541 -1.6277023262000291e-16
		outer loop
			vertex -1.6522480249404903 2.0718533992767005 -150
			vertex -1.9425874948501582 1.8024578094482093 -150
			vertex -1.9425874948501582 1.802457809448276 150
		endloop
	endfacet
	facet normal -0.7818315179904783 0.6234897573149895 -1.3844253683781048e-16
		outer loop
			vertex -1.9425874948501582 1.802457809448276 150
			vertex -1.9425874948501582 1.8024578094482093 -150
			vertex -2.1895327568054195 1.4927982091904024 150
		endloop
	endfacet
	facet normal -0.7818315179904783 0.6234897573149895 -1.3844253683781048e-16
		outer loop
			vertex -1.9425874948501582 1.8024578094482093 -150
			vertex -2.1895327568054195 1.4927982091903358 -150
			vertex -2.1895327568054195 1.4927982091904024 150
		endloop
	endfacet
	facet normal -0.8660253920941595 0.5000000202481569 -1.1102230695850966e-16
		outer loop
			vertex -2.1895327568054195 1.4927982091904024 150
			vertex -2.1895327568054195 1.4927982091903358 -150
			vertex -2.387567520141601 1.1497919559479097 150
		endloop
	endfacet
	facet normal -0.8660253920941595 0.5000000202481569 -1.1102230695850966e-16
		outer loop
			vertex -2.1895327568054195 1.4927982091903358 -150
			vertex -2.387567520141601 1.1497919559478431 -150
			vertex -2.387567520141601 1.1497919559479097 150
		endloop
	endfacet
	facet normal -0.9308736808296367 0.36534119715504804 -8.112204178513061e-17
		outer loop
			vertex -2.387567520141601 1.1497919559479097 150
			vertex -2.387567520141601 1.1497919559478431 -150
			vertex -2.5322680473327637 0.7811012268066745 150
		endloop
	endfacet
	facet normal -0.9308736808296368 0.365341197155048 -8.11220417851306e-17
		outer loop
			vertex -2.387567520141601 1.1497919559478431 -150
			vertex -2.5322680473327637 0.7811012268066079 -150
			vertex -2.5322680473327637 0.7811012268066745 150
		endloop
	endfacet
	facet normal -0.9749280120223381 0.22252049652598743 -4.940947573883468e-17
		outer loop
			vertex -2.5322680473327637 0.7811012268066745 150
			vertex -2.5322680473327637 0.7811012268066079 -150
			vertex -2.620401620864868 0.3949620127678256 150
		endloop
	endfacet
	facet normal -0.9749280120223381 0.22252049652598743 -4.940947573883468e-17
		outer loop
			vertex -2.5322680473327637 0.7811012268066079 -150
			vertex -2.620401620864868 0.394962012767759 -150
			vertex -2.620401620864868 0.3949620127678256 150
		endloop
	endfacet
	facet normal -0.9972037664287374 0.07473050394812099 -1.6593505225009017e-17
		outer loop
			vertex -2.620401620864868 0.3949620127678256 150
			vertex -2.620401620864868 0.394962012767759 -150
			vertex -2.6500000953674316 3.421964037229948e-14 150
		endloop
	endfacet
	facet normal -0.9972037664287374 0.07473050394812099 -1.6593505225009017e-17
		outer loop
			vertex -2.620401620864868 0.394962012767759 -150
			vertex -2.6500000953674316 -3.2393741105209915e-14 -150
			vertex -2.6500000953674316 3.421964037229948e-14 150
		endloop
	endfacet
	facet normal -0.9972037664287374 -0.07473050394812086 1.659350522500899e-17
		outer loop
			vertex -2.6500000953674316 3.421964037229948e-14 150
			vertex -2.6500000953674316 -3.2393741105209915e-14 -150
			vertex -2.620401620864868 -0.3949620127677579 150
		endloop
	endfacet
	facet normal -0.9972037664287374 -0.07473050394812086 1.659350522500899e-17
		outer loop
			vertex -2.6500000953674316 -3.2393741105209915e-14 -150
			vertex -2.620401620864868 -0.3949620127678245 -150
			vertex -2.620401620864868 -0.3949620127677579 150
		endloop
	endfacet
	facet normal -0.9749280120223381 -0.22252049652598743 4.940947573883468e-17
		outer loop
			vertex -2.620401620864868 -0.3949620127677579 150
			vertex -2.620401620864868 -0.3949620127678245 -150
			vertex -2.5322680473327637 -0.7811012268066068 150
		endloop
	endfacet
	facet normal -0.9749280120223381 -0.22252049652598743 4.940947573883468e-17
		outer loop
			vertex -2.620401620864868 -0.3949620127678245 -150
			vertex -2.5322680473327637 -0.7811012268066734 -150
			vertex -2.5322680473327637 -0.7811012268066068 150
		endloop
	endfacet
	facet normal -0.9308736808296377 -0.36534119715504587 8.112204178513013e-17
		outer loop
			vertex -2.5322680473327637 -0.7811012268066068 150
			vertex -2.5322680473327637 -0.7811012268066734 -150
			vertex -2.387567520141602 -1.1497919559478422 150
		endloop
	endfacet
	facet normal -0.9308736808296377 -0.36534119715504587 8.112204178513013e-17
		outer loop
			vertex -2.5322680473327637 -0.7811012268066734 -150
			vertex -2.387567520141602 -1.1497919559479088 -150
			vertex -2.387567520141602 -1.1497919559478422 150
		endloop
	endfacet
	facet normal -0.8660253920941595 -0.5000000202481569 1.1102230695850966e-16
		outer loop
			vertex -2.387567520141602 -1.1497919559478422 150
			vertex -2.387567520141602 -1.1497919559479088 -150
			vertex -2.1895327568054204 -1.492798209190335 150
		endloop
	endfacet
	facet normal -0.8660253920941595 -0.5000000202481569 1.1102230695850966e-16
		outer loop
			vertex -2.387567520141602 -1.1497919559479088 -150
			vertex -2.1895327568054204 -1.4927982091904015 -150
			vertex -2.1895327568054204 -1.492798209190335 150
		endloop
	endfacet
	facet normal -0.7818315179904783 -0.6234897573149895 1.3844253683781048e-16
		outer loop
			vertex -2.1895327568054204 -1.492798209190335 150
			vertex -2.1895327568054204 -1.4927982091904015 -150
			vertex -1.9425874948501591 -1.8024578094482084 150
		endloop
	endfacet
	facet normal -0.7818315179904783 -0.6234897573149895 1.3844253683781048e-16
		outer loop
			vertex -2.1895327568054204 -1.4927982091904015 -150
			vertex -1.9425874948501591 -1.802457809448275 -150
			vertex -1.9425874948501591 -1.8024578094482084 150
		endloop
	endfacet
	facet normal -0.6801726438513351 -0.7330519589744541 1.6277023262000291e-16
		outer loop
			vertex -1.9425874948501591 -1.8024578094482084 150
			vertex -1.9425874948501591 -1.802457809448275 -150
			vertex -1.6522480249404912 -2.0718533992766996 150
		endloop
	endfacet
	facet normal -0.6801726438513351 -0.7330519589744541 1.6277023262000291e-16
		outer loop
			vertex -1.9425874948501591 -1.802457809448275 -150
			vertex -1.6522480249404912 -2.0718533992767663 -150
			vertex -1.6522480249404912 -2.0718533992766996 150
		endloop
	endfacet
	facet normal -0.5633202659210391 -0.8262386326011694 1.8346183074972474e-16
		outer loop
			vertex -1.6522480249404912 -2.0718533992766996 150
			vertex -1.6522480249404912 -2.0718533992767663 -150
			vertex -1.3250000476837163 -2.2949674129485746 150
		endloop
	endfacet
	facet normal -0.5633202659210391 -0.8262386326011694 1.8346183074972474e-16
		outer loop
			vertex -1.6522480249404912 -2.0718533992767663 -150
			vertex -1.3250000476837163 -2.2949674129486413 -150
			vertex -1.3250000476837163 -2.2949674129485746 150
		endloop
	endfacet
	facet normal -0.43388357952271234 -0.9009689447592288 2.0005529338878532e-16
		outer loop
			vertex -1.3250000476837163 -2.2949674129485746 150
			vertex -1.3250000476837163 -2.2949674129486413 -150
			vertex -0.9681537151336675 -2.4668154716491366 150
		endloop
	endfacet
	facet normal -0.4338835795227124 -0.9009689447592288 2.0005529338878532e-16
		outer loop
			vertex -1.3250000476837163 -2.2949674129486413 -150
			vertex -0.9681537151336675 -2.4668154716492032 -150
			vertex -0.9681537151336675 -2.4668154716491366 150
		endloop
	endfacet
	facet normal -0.29475525873727554 -0.9555727797748961 2.1217978036223075e-16
		outer loop
			vertex -0.9681537151336675 -2.4668154716491366 150
			vertex -0.9681537151336675 -2.4668154716492032 -150
			vertex -0.5896804928779608 -2.5835590362548495 150
		endloop
	endfacet
	facet normal -0.29475525873727554 -0.9555727797748961 2.1217978036223075e-16
		outer loop
			vertex -0.9681537151336675 -2.4668154716492032 -150
			vertex -0.5896804928779608 -2.583559036254916 -150
			vertex -0.5896804928779608 -2.5835590362548495 150
		endloop
	endfacet
	facet normal -0.1490420484191199 -0.988830859046699 2.195645574347036e-16
		outer loop
			vertex -0.5896804928779608 -2.5835590362548495 150
			vertex -0.5896804928779608 -2.583559036254916 -150
			vertex -0.19803474843502103 -2.6425900459289218 150
		endloop
	endfacet
	facet normal -0.1490420484191199 -0.988830859046699 2.195645574347036e-16
		outer loop
			vertex -0.5896804928779608 -2.583559036254916 -150
			vertex -0.19803474843502103 -2.6425900459289884 -150
			vertex -0.19803474843502103 -2.6425900459289218 150
		endloop
	endfacet
	facet normal 0 -1 2.220446049250313e-16
		outer loop
			vertex -0.19803474843502103 -2.6425900459289218 150
			vertex -0.19803474843502103 -2.6425900459289884 -150
			vertex 0.19803474843501986 -2.6425900459289218 150
		endloop
	endfacet
	facet normal 0 -1 2.220446049250313e-16
		outer loop
			vertex -0.19803474843502103 -2.6425900459289884 -150
			vertex 0.19803474843501986 -2.6425900459289884 -150
			vertex 0.19803474843501986 -2.6425900459289218 150
		endloop
	endfacet
	facet normal 0.1490420484191199 -0.988830859046699 2.195645574347036e-16
		outer loop
			vertex 0.19803474843501986 -2.6425900459289218 150
			vertex 0.19803474843501986 -2.6425900459289884 -150
			vertex 0.5896804928779596 -2.5835590362548495 150
		endloop
	endfacet
	facet normal 0.1490420484191199 -0.988830859046699 2.195645574347036e-16
		outer loop
			vertex 0.19803474843501986 -2.6425900459289884 -150
			vertex 0.5896804928779596 -2.583559036254916 -150
			vertex 0.5896804928779596 -2.5835590362548495 150
		endloop
	endfacet
	facet normal 0.29475525873727554 -0.9555727797748961 2.1217978036223075e-16
		outer loop
			vertex 0.5896804928779596 -2.5835590362548495 150
			vertex 0.5896804928779596 -2.583559036254916 -150
			vertex 0.9681537151336664 -2.4668154716491366 150
		endloop
	endfacet
	facet normal 0.29475525873727554 -0.9555727797748961 2.1217978036223075e-16
		outer loop
			vertex 0.5896804928779596 -2.583559036254916 -150
			vertex 0.9681537151336664 -2.4668154716492032 -150
			vertex 0.9681537151336664 -2.4668154716491366 150
		endloop
	endfacet
	facet normal 0.43388357952271034 -0.9009689447592297 2.0005529338878552e-16
		outer loop
			vertex 0.9681537151336664 -2.4668154716491366 150
			vertex 0.9681537151336664 -2.4668154716492032 -150
			vertex 1.3250000476837154 -2.2949674129485755 150
		endloop
	endfacet
	facet normal 0.4338835795227103 -0.9009689447592297 2.0005529338878552e-16
		outer loop
			vertex 0.9681537151336664 -2.4668154716492032 -150
			vertex 1.3250000476837154 -2.294967412948642 -150
			vertex 1.3250000476837154 -2.2949674129485755 150
		endloop
	endfacet
	facet normal 0.5633202659210391 -0.8262386326011694 1.8346183074972474e-16
		outer loop
			vertex 1.3250000476837154 -2.2949674129485755 150
			vertex 1.3250000476837154 -2.294967412948642 -150
			vertex 1.6522480249404903 -2.0718533992767005 150
		endloop
	endfacet
	facet normal 0.5633202659210391 -0.8262386326011694 1.8346183074972474e-16
		outer loop
			vertex 1.3250000476837154 -2.294967412948642 -150
			vertex 1.6522480249404903 -2.071853399276767 -150
			vertex 1.6522480249404903 -2.0718533992767005 150
		endloop
	endfacet
	facet normal 0.6801726438513351 -0.7330519589744541 1.6277023262000291e-16
		outer loop
			vertex 1.6522480249404903 -2.0718533992767005 150
			vertex 1.6522480249404903 -2.071853399276767 -150
			vertex 1.9425874948501582 -1.8024578094482093 150
		endloop
	endfacet
	facet normal 0.6801726438513351 -0.7330519589744541 1.6277023262000291e-16
		outer loop
			vertex 1.6522480249404903 -2.071853399276767 -150
			vertex 1.9425874948501582 -1.802457809448276 -150
			vertex 1.9425874948501582 -1.8024578094482093 150
		endloop
	endfacet
	facet normal 0.7818315179904783 -0.6234897573149895 1.3844253683781048e-16
		outer loop
			vertex 1.9425874948501582 -1.8024578094482093 150
			vertex 1.9425874948501582 -1.802457809448276 -150
			vertex 2.1895327568054195 -1.4927982091903358 150
		endloop
	endfacet
	facet normal 0.7818315179904783 -0.6234897573149895 1.3844253683781048e-16
		outer loop
			vertex 1.9425874948501582 -1.802457809448276 -150
			vertex 2.1895327568054195 -1.4927982091904024 -150
			vertex 2.1895327568054195 -1.4927982091903358 150
		endloop
	endfacet
	facet normal 0.8660253920941595 -0.5000000202481569 1.1102230695850966e-16
		outer loop
			vertex 2.1895327568054195 -1.4927982091903358 150
			vertex 2.1895327568054195 -1.4927982091904024 -150
			vertex 2.387567520141601 -1.1497919559478431 150
		endloop
	endfacet
	facet normal 0.8660253920941595 -0.5000000202481569 1.1102230695850966e-16
		outer loop
			vertex 2.1895327568054195 -1.4927982091904024 -150
			vertex 2.387567520141601 -1.1497919559479097 -150
			vertex 2.387567520141601 -1.1497919559478431 150
		endloop
	endfacet
	facet normal 0.9308736808296368 -0.365341197155048 8.11220417851306e-17
		outer loop
			vertex 2.387567520141601 -1.1497919559478431 150
			vertex 2.387567520141601 -1.1497919559479097 -150
			vertex 2.5322680473327637 -0.7811012268066079 150
		endloop
	endfacet
	facet normal 0.9308736808296368 -0.365341197155048 8.11220417851306e-17
		outer loop
			vertex 2.387567520141601 -1.1497919559479097 -150
			vertex 2.5322680473327637 -0.7811012268066745 -150
			vertex 2.5322680473327637 -0.7811012268066079 150
		endloop
	endfacet
	facet normal 0.9749280120223381 -0.22252049652598743 4.940947573883468e-17
		outer loop
			vertex 2.5322680473327637 -0.7811012268066079 150
			vertex 2.5322680473327637 -0.7811012268066745 -150
			vertex 2.620401620864868 -0.394962012767759 150
		endloop
	endfacet
	facet normal 0.9749280120223381 -0.22252049652598743 4.940947573883468e-17
		outer loop
			vertex 2.5322680473327637 -0.7811012268066745 -150
			vertex 2.620401620864868 -0.3949620127678256 -150
			vertex 2.620401620864868 -0.394962012767759 150
		endloop
	endfacet
	facet normal 0.9972037664287374 -0.07473050394812106 1.6593505225009033e-17
		outer loop
			vertex 2.620401620864868 -0.394962012767759 150
			vertex 2.620401620864868 -0.3949620127678256 -150
			vertex 2.6500000953674316 3.206920969589229e-14 150
		endloop
	endfacet
	facet normal 0.9972037664287374 -0.07473050394812106 1.6593505225009033e-17
		outer loop
			vertex 2.620401620864868 -0.3949620127678256 -150
			vertex 2.6500000953674316 -3.45441717816171e-14 -150
			vertex 2.6500000953674316 3.206920969589229e-14 150
		endloop
	endfacet
	facet normal 0 0 1
		outer loop
			vertex 2.6500000953674316 3.271827251452754e-14 150
			vertex 2.620401620864868 0.3949620127678245 150
			vertex 0 3.3306690738754696e-14 150
		endloop
	endfacet
	facet normal 0 0 1
		outer loop
			vertex 2.620401620864868 0.3949620127678245 150
			vertex 2.5322680473327637 0.7811012268066734 150
			vertex 0 3.3306690738754696e-14 150
		endloop
	endfacet
	facet normal 0 0 1
		outer loop
			vertex 2.5322680473327637 0.7811012268066734 150
			vertex 2.387567520141602 1.1497919559479088 150
			vertex 0 3.3306690738754696e-14 150
		endloop
	endfacet
	facet normal 0 0 1
		outer loop
			vertex 2.387567520141602 1.1497919559479088 150
			vertex 2.1895327568054204 1.4927982091904015 150
			vertex 0 3.3306690738754696e-14 150
		endloop
	endfacet
	facet normal 0 0 1
		outer loop
			vertex 2.1895327568054204 1.4927982091904015 150
			vertex 1.9425874948501591 1.802457809448275 150
			vertex 0 3.3306690738754696e-14 150
		endloop
	endfacet
	facet normal 0 0 1
		outer loop
			vertex 1.9425874948501591 1.802457809448275 150
			vertex 1.6522480249404912 2.0718533992767663 150
			vertex 0 3.3306690738754696e-14 150
		endloop
	endfacet
	facet normal 0 0 1
		outer loop
			vertex 1.6522480249404912 2.0718533992767663 150
			vertex 1.3250000476837163 2.2949674129486413 150
			vertex 0 3.3306690738754696e-14 150
		endloop
	endfacet
	facet normal 0 0 1
		outer loop
			vertex 1.3250000476837163 2.2949674129486413 150
			vertex 0.9681537151336675 2.4668154716492032 150
			vertex 0 3.3306690738754696e-14 150
		endloop
	endfacet
	facet normal 0 0 1
		outer loop
			vertex 0.9681537151336675 2.4668154716492032 150
			vertex 0.5896804928779608 2.583559036254916 150
			vertex 0 3.3306690738754696e-14 150
		endloop
	endfacet
	facet normal 0 0 1
		outer loop
			vertex 0.5896804928779608 2.583559036254916 150
			vertex 0.19803474843502103 2.6425900459289884 150
			vertex 0 3.3306690738754696e-14 150
		endloop
	endfacet
	facet normal 0 0 1
		outer loop
			vertex 0.19803474843502103 2.6425900459289884 150
			vertex -0.19803474843501986 2.6425900459289884 150
			vertex 0 3.3306690738754696e-14 150
		endloop
	endfacet
	facet normal 0 0 1
		outer loop
			vertex -0.19803474843501986 2.6425900459289884 150
			vertex -0.5896804928779596 2.583559036254916 150
			vertex 0 3.3306690738754696e-14 150
		endloop
	endfacet
	facet normal 0 0 1
		outer loop
			vertex -0.5896804928779596 2.583559036254916 150
			vertex -0.9681537151336664 2.4668154716492032 150
			vertex 0 3.3306690738754696e-14 150
		endloop
	endfacet
	facet normal 0 0 1
		outer loop
			vertex -0.9681537151336664 2.4668154716492032 150
			vertex -1.3250000476837154 2.294967412948642 150
			vertex 0 3.3306690738754696e-14 150
		endloop
	endfacet
	facet normal 0 0 1
		outer loop
			vertex -1.3250000476837154 2.294967412948642 150
			vertex -1.6522480249404903 2.071853399276767 150
			vertex 0 3.3306690738754696e-14 150
		endloop
	endfacet
	facet normal 0 0 1
		outer loop
			vertex -1.6522480249404903 2.071853399276767 150
			vertex -1.9425874948501582 1.802457809448276 150
			vertex 0 3.3306690738754696e-14 150
		endloop
	endfacet
	facet normal 0 0 1
		outer loop
			vertex -1.9425874948501582 1.802457809448276 150
			vertex -2.1895327568054195 1.4927982091904024 150
			vertex 0 3.3306690738754696e-14 150
		endloop
	endfacet
	facet normal 0 0 1
		outer loop
			vertex -2.1895327568054195 1.4927982091904024 150
			vertex -2.387567520141601 1.1497919559479097 150
			vertex 0 3.3306690738754696e-14 150
		endloop
	endfacet
	facet normal 0 0 1
		outer loop
			vertex -2.387567520141601 1.1497919559479097 150
			vertex -2.5322680473327637 0.7811012268066745 150
			vertex 0 3.3306690738754696e-14 150
		endloop
	endfacet
	facet normal 0 0 1
		outer loop
			vertex -2.5322680473327637 0.7811012268066745 150
			vertex -2.620401620864868 0.3949620127678256 150
			vertex 0 3.3306690738754696e-14 150
		endloop
	endfacet
	facet normal 0 0 1
		outer loop
			vertex -2.620401620864868 0.3949620127678256 150
			vertex -2.6500000953674316 3.421964037229948e-14 150
			vertex 0 3.3306690738754696e-14 150
		endloop
	endfacet
	facet normal 0 0 1
		outer loop
			vertex -2.6500000953674316 3.421964037229948e-14 150
			vertex -2.620401620864868 -0.3949620127677579 150
			vertex 0 3.3306690738754696e-14 150
		endloop
	endfacet
	facet normal 0 0 1
		outer loop
			vertex -2.620401620864868 -0.3949620127677579 150
			vertex -2.5322680473327637 -0.7811012268066068 150
			vertex 0 3.3306690738754696e-14 150
		endloop
	endfacet
	facet normal 0 0 1
		outer loop
			vertex -2.5322680473327637 -0.7811012268066068 150
			vertex -2.387567520141602 -1.1497919559478422 150
			vertex 0 3.3306690738754696e-14 150
		endloop
	endfacet
	facet normal 0 0 1
		outer loop
			vertex -2.387567520141602 -1.1497919559478422 150
			vertex -2.1895327568054204 -1.492798209190335 150
			vertex 0 3.3306690738754696e-14 150
		endloop
	endfacet
	facet normal 0 0 1
		outer loop
			vertex -2.1895327568054204 -1.492798209190335 150
			vertex -1.9425874948501591 -1.8024578094482084 150
			vertex 0 3.3306690738754696e-14 150
		endloop
	endfacet
	facet normal 0 0 1
		outer loop
			vertex -1.9425874948501591 -1.8024578094482084 150
			vertex -1.6522480249404912 -2.0718533992766996 150
			vertex 0 3.3306690738754696e-14 150
		endloop
	endfacet
	facet normal 0 0 1
		outer loop
			vertex -1.6522480249404912 -2.0718533992766996 150
			vertex -1.3250000476837163 -2.2949674129485746 150
			vertex 0 3.3306690738754696e-14 150
		endloop
	endfacet
	facet normal 0 0 1
		outer loop
			vertex -1.3250000476837163 -2.2949674129485746 150
			vertex -0.9681537151336675 -2.4668154716491366 150
			vertex 0 3.3306690738754696e-14 150
		endloop
	endfacet
	facet normal 0 0 1
		outer loop
			vertex -0.9681537151336675 -2.4668154716491366 150
			vertex -0.5896804928779608 -2.5835590362548495 150
			vertex 0 3.3306690738754696e-14 150
		endloop
	endfacet
	facet normal 0 0 1
		outer loop
			vertex -0.5896804928779608 -2.5835590362548495 150
			vertex -0.19803474843502103 -2.6425900459289218 150
			vertex 0 3.3306690738754696e-14 150
		endloop
	endfacet
	facet normal 0 0 1
		outer loop
			vertex -0.19803474843502103 -2.6425900459289218 150
			vertex 0.19803474843501986 -2.6425900459289218 150
			vertex 0 3.3306690738754696e-14 150
		endloop
	endfacet
	facet normal 0 0 1
		outer loop
			vertex 0.19803474843501986 -2.6425900459289218 150
			vertex 0.5896804928779596 -2.5835590362548495 150
			vertex 0 3.3306690738754696e-14 150
		endloop
	endfacet
	facet normal 0 0 1
		outer loop
			vertex 0.5896804928779596 -2.5835590362548495 150
			vertex 0.9681537151336664 -2.4668154716491366 150
			vertex 0 3.3306690738754696e-14 150
		endloop
	endfacet
	facet normal 0 0 1
		outer loop
			vertex 0.9681537151336664 -2.4668154716491366 150
			vertex 1.3250000476837154 -2.2949674129485755 150
			vertex 0 3.3306690738754696e-14 150
		endloop
	endfacet
	facet normal 0 0 1
		outer loop
			vertex 1.3250000476837154 -2.2949674129485755 150
			vertex 1.6522480249404903 -2.0718533992767005 150
			vertex 0 3.3306690738754696e-14 150
		endloop
	endfacet
	facet normal 0 0 1
		outer loop
			vertex 1.6522480249404903 -2.0718533992767005 150
			vertex 1.9425874948501582 -1.8024578094482093 150
			vertex 0 3.3306690738754696e-14 150
		endloop
	endfacet
	facet normal 0 0 1
		outer loop
			vertex 1.9425874948501582 -1.8024578094482093 150
			vertex 2.1895327568054195 -1.4927982091903358 150
			vertex 0 3.3306690738754696e-14 150
		endloop
	endfacet
	facet normal 0 0 1
		outer loop
			vertex 2.1895327568054195 -1.4927982091903358 150
			vertex 2.387567520141601 -1.1497919559478431 150
			vertex 0 3.3306690738754696e-14 150
		endloop
	endfacet
	facet normal 0 0 1
		outer loop
			vertex 2.387567520141601 -1.1497919559478431 150
			vertex 2.5322680473327637 -0.7811012268066079 150
			vertex 0 3.3306690738754696e-14 150
		endloop
	endfacet
	facet normal 0 0 1
		outer loop
			vertex 2.5322680473327637 -0.7811012268066079 150
			vertex 2.620401620864868 -0.394962012767759 150
			vertex 0 3.3306690738754696e-14 150
		endloop
	endfacet
	facet normal 0 0 1
		outer loop
			vertex 2.620401620864868 -0.394962012767759 150
			vertex 2.6500000953674316 3.206920969589229e-14 150
			vertex 0 3.3306690738754696e-14 150
		endloop
	endfacet
	facet normal 0 0 -1
		outer loop
			vertex 2.620401620864868 0.3949620127677579 -150
			vertex 2.6500000953674316 -3.389510896298185e-14 -150
			vertex 0 -3.3306690738754696e-14 -150
		endloop
	endfacet
	facet normal 0 0 -1
		outer loop
			vertex 2.5322680473327637 0.7811012268066068 -150
			vertex 2.620401620864868 0.3949620127677579 -150
			vertex 0 -3.3306690738754696e-14 -150
		endloop
	endfacet
	facet normal 0 0 -1
		outer loop
			vertex 2.387567520141602 1.1497919559478422 -150
			vertex 2.5322680473327637 0.7811012268066068 -150
			vertex 0 -3.3306690738754696e-14 -150
		endloop
	endfacet
	facet normal 0 0 -1
		outer loop
			vertex 2.1895327568054204 1.492798209190335 -150
			vertex 2.387567520141602 1.1497919559478422 -150
			vertex 0 -3.3306690738754696e-14 -150
		endloop
	endfacet
	facet normal 0 0 -1
		outer loop
			vertex 1.9425874948501591 1.8024578094482084 -150
			vertex 2.1895327568054204 1.492798209190335 -150
			vertex 0 -3.3306690738754696e-14 -150
		endloop
	endfacet
	facet normal 0 0 -1
		outer loop
			vertex 1.6522480249404912 2.0718533992766996 -150
			vertex 1.9425874948501591 1.8024578094482084 -150
			vertex 0 -3.3306690738754696e-14 -150
		endloop
	endfacet
	facet normal 0 0 -1
		outer loop
			vertex 1.3250000476837163 2.2949674129485746 -150
			vertex 1.6522480249404912 2.0718533992766996 -150
			vertex 0 -3.3306690738754696e-14 -150
		endloop
	endfacet
	facet normal 0 0 -1
		outer loop
			vertex 0.9681537151336675 2.4668154716491366 -150
			vertex 1.3250000476837163 2.2949674129485746 -150
			vertex 0 -3.3306690738754696e-14 -150
		endloop
	endfacet
	facet normal 0 0 -1
		outer loop
			vertex 0.5896804928779608 2.5835590362548495 -150
			vertex 0.9681537151336675 2.4668154716491366 -150
			vertex 0 -3.3306690738754696e-14 -150
		endloop
	endfacet
	facet normal 0 0 -1
		outer loop
			vertex 0.19803474843502103 2.6425900459289218 -150
			vertex 0.5896804928779608 2.5835590362548495 -150
			vertex 0 -3.3306690738754696e-14 -150
		endloop
	endfacet
	facet normal 0 0 -1
		outer loop
			vertex -0.19803474843501986 2.6425900459289218 -150
			vertex 0.19803474843502103 2.6425900459289218 -150
			vertex 0 -3.3306690738754696e-14 -150
		endloop
	endfacet
	facet normal 0 0 -1
		outer loop
			vertex -0.5896804928779596 2.5835590362548495 -150
			vertex -0.19803474843501986 2.6425900459289218 -150
			vertex 0 -3.3306690738754696e-14 -150
		endloop
	endfacet
	facet normal 0 0 -1
		outer loop
			vertex -0.9681537151336664 2.4668154716491366 -150
			vertex -0.5896804928779596 2.5835590362548495 -150
			vertex 0 -3.3306690738754696e-14 -150
		endloop
	endfacet
	facet normal 0 0 -1
		outer loop
			vertex -1.3250000476837154 2.2949674129485755 -150
			vertex -0.9681537151336664 2.4668154716491366 -150
			vertex 0 -3.3306690738754696e-14 -150
		endloop
	endfacet
	facet normal 0 0 -1
		outer loop
			vertex -1.6522480249404903 2.0718533992767005 -150
			vertex -1.3250000476837154 2.2949674129485755 -150
			vertex 0 -3.3306690738754696e-14 -150
		endloop
	endfacet
	facet normal 0 0 -1
		outer loop
			vertex -1.9425874948501582 1.8024578094482093 -150
			vertex -1.6522480249404903 2.0718533992767005 -150
			vertex 0 -3.3306690738754696e-14 -150
		endloop
	endfacet
	facet normal 0 0 -1
		outer loop
			vertex -2.1895327568054195 1.4927982091903358 -150
			vertex -1.9425874948501582 1.8024578094482093 -150
			vertex 0 -3.3306690738754696e-14 -150
		endloop
	endfacet
	facet normal 0 0 -1
		outer loop
			vertex -2.387567520141601 1.1497919559478431 -150
			vertex -2.1895327568054195 1.4927982091903358 -150
			vertex 0 -3.3306690738754696e-14 -150
		endloop
	endfacet
	facet normal 0 0 -1
		outer loop
			vertex -2.5322680473327637 0.7811012268066079 -150
			vertex -2.387567520141601 1.1497919559478431 -150
			vertex 0 -3.3306690738754696e-14 -150
		endloop
	endfacet
	facet normal 0 0 -1
		outer loop
			vertex -2.620401620864868 0.394962012767759 -150
			vertex -2.5322680473327637 0.7811012268066079 -150
			vertex 0 -3.3306690738754696e-14 -150
		endloop
	endfacet
	facet normal 0 0 -1
		outer loop
			vertex -2.6500000953674316 -3.2393741105209915e-14 -150
			vertex -2.620401620864868 0.394962012767759 -150
			vertex 0 -3.3306690738754696e-14 -150
		endloop
	endfacet
	facet normal 0 0 -1
		outer loop
			vertex -2.620401620864868 -0.3949620127678245 -150
			vertex -2.6500000953674316 -3.2393741105209915e-14 -150
			vertex 0 -3.3306690738754696e-14 -150
		endloop
	endfacet
	facet normal 0 0 -1
		outer loop
			vertex -2.5322680473327637 -0.7811012268066734 -150
			vertex -2.620401620864868 -0.3949620127678245 -150
			vertex 0 -3.3306690738754696e-14 -150
		endloop
	endfacet
	facet normal 0 0 -1
		outer loop
			vertex -2.387567520141602 -1.1497919559479088 -150
			vertex -2.5322680473327637 -0.7811012268066734 -150
			vertex 0 -3.3306690738754696e-14 -150
		endloop
	endfacet
	facet normal 0 0 -1
		outer loop
			vertex -2.1895327568054204 -1.4927982091904015 -150
			vertex -2.387567520141602 -1.1497919559479088 -150
			vertex 0 -3.3306690738754696e-14 -150
		endloop
	endfacet
	facet normal 0 0 -1
		outer loop
			vertex -1.9425874948501591 -1.802457809448275 -150
			vertex -2.1895327568054204 -1.4927982091904015 -150
			vertex 0 -3.3306690738754696e-14 -150
		endloop
	endfacet
	facet normal 0 0 -1
		outer loop
			vertex -1.6522480249404912 -2.0718533992767663 -150
			vertex -1.9425874948501591 -1.802457809448275 -150
			vertex 0 -3.3306690738754696e-14 -150
		endloop
	endfacet
	facet normal 0 0 -1
		outer loop
			vertex -1.3250000476837163 -2.2949674129486413 -150
			vertex -1.6522480249404912 -2.0718533992767663 -150
			vertex 0 -3.3306690738754696e-14 -150
		endloop
	endfacet
	facet normal 0 0 -1
		outer loop
			vertex -0.9681537151336675 -2.4668154716492032 -150
			vertex -1.3250000476837163 -2.2949674129486413 -150
			vertex 0 -3.3306690738754696e-14 -150
		endloop
	endfacet
	facet normal 0 0 -1
		outer loop
			vertex -0.5896804928779608 -2.583559036254916 -150
			vertex -0.9681537151336675 -2.4668154716492032 -150
			vertex 0 -3.3306690738754696e-14 -150
		endloop
	endfacet
	facet normal 0 0 -1
		outer loop
			vertex -0.19803474843502103 -2.6425900459289884 -150
			vertex -0.5896804928779608 -2.583559036254916 -150
			vertex 0 -3.3306690738754696e-14 -150
		endloop
	endfacet
	facet normal 0 0 -1
		outer loop
			vertex 0.19803474843501986 -2.6425900459289884 -150
			vertex -0.19803474843502103 -2.6425900459289884 -150
			vertex 0 -3.3306690738754696e-14 -150
		endloop
	endfacet
	facet normal 0 0 -1
		outer loop
			vertex 0.5896804928779596 -2.583559036254916 -150
			vertex 0.19803474843501986 -2.6425900459289884 -150
			vertex 0 -3.3306690738754696e-14 -150
		endloop
	endfacet
	facet normal 0 0 -1
		outer loop
			vertex 0.9681537151336664 -2.4668154716492032 -150
			vertex 0.5896804928779596 -2.583559036254916 -150
			vertex 0 -3.3306690738754696e-14 -150
		endloop
	endfacet
	facet normal 0 0 -1
		outer loop
			vertex 1.3250000476837154 -2.294967412948642 -150
			vertex 0.9681537151336664 -2.4668154716492032 -150
			vertex 0 -3.3306690738754696e-14 -150
		endloop
	endfacet
	facet normal 0 0 -1
		outer loop
			vertex 1.6522480249404903 -2.071853399276767 -150
			vertex 1.3250000476837154 -2.294967412948642 -150
			vertex 0 -3.3306690738754696e-14 -150
		endloop
	endfacet
	facet normal 0 0 -1
		outer loop
			vertex 1.9425874948501582 -1.802457809448276 -150
			vertex 1.6522480249404903 -2.071853399276767 -150
			vertex 0 -3.3306690738754696e-14 -150
		endloop
	endfacet
	facet normal 0 0 -1
		outer loop
			vertex 2.1895327568054195 -1.4927982091904024 -150
			vertex 1.9425874948501582 -1.802457809448276 -150
			vertex 0 -3.3306690738754696e-14 -150
		endloop
	endfacet
	facet normal 0 0 -1
		outer loop
			vertex 2.387567520141601 -1.1497919559479097 -150
			vertex 2.1895327568054195 -1.4927982091904024 -150
			vertex 0 -3.3306690738754696e-14 -150
		endloop
	endfacet
	facet normal 0 0 -1
		outer loop
			vertex 2.5322680473327637 -0.7811012268066745 -150
			vertex 2.387567520141601 -1.1497919559479097 -150
			vertex 0 -3.3306690738754696e-14 -150
		endloop
	endfacet
	facet normal 0 0 -1
		outer loop
			vertex 2.620401620864868 -0.3949620127678256 -150
			vertex 2.5322680473327637 -0.7811012268066745 -150
			vertex 0 -3.3306690738754696e-14 -150
		endloop
	endfacet
	facet normal 0 0 -1
		outer loop
			vertex 2.6500000953674316 -3.45441717816171e-14 -150
			vertex 2.620401620864868 -0.3949620127678256 -150
			vertex 0 -3.3306690738754696e-14 -150
		endloop
	endfacet
endsolid exported
