solid exported
	facet normal 0.9972037664287375 0.07473050394812092 -1.6593505225009002e-17
		outer loop
			vertex 2.6500000953674316 2.1616042268275974e-14 100
			vertex 2.6500000953674316 -2.2792878716730287e-14 -100
			vertex 2.620401620864868 0.3949620127678134 100
		endloop
	endfacet
	facet normal 0.9972037664287375 0.07473050394812092 -1.6593505225009002e-17
		outer loop
			vertex 2.6500000953674316 -2.2792878716730287e-14 -100
			vertex 2.620401620864868 0.394962012767769 -100
			vertex 2.620401620864868 0.3949620127678134 100
		endloop
	endfacet
	facet normal 0.9749280120223381 0.22252049652598743 -4.940947573883468e-17
		outer loop
			vertex 2.620401620864868 0.3949620127678134 100
			vertex 2.620401620864868 0.394962012767769 -100
			vertex 2.5322680473327637 0.7811012268066623 100
		endloop
	endfacet
	facet normal 0.9749280120223381 0.22252049652598743 -4.940947573883468e-17
		outer loop
			vertex 2.620401620864868 0.394962012767769 -100
			vertex 2.5322680473327637 0.7811012268066179 -100
			vertex 2.5322680473327637 0.7811012268066623 100
		endloop
	endfacet
	facet normal 0.9308736808296377 0.36534119715504587 -8.112204178513013e-17
		outer loop
			vertex 2.5322680473327637 0.7811012268066623 100
			vertex 2.5322680473327637 0.7811012268066179 -100
			vertex 2.387567520141602 1.1497919559478977 100
		endloop
	endfacet
	facet normal 0.9308736808296377 0.36534119715504587 -8.112204178513013e-17
		outer loop
			vertex 2.5322680473327637 0.7811012268066179 -100
			vertex 2.387567520141602 1.1497919559478533 -100
			vertex 2.387567520141602 1.1497919559478977 100
		endloop
	endfacet
	facet normal 0.8660253920941595 0.5000000202481569 -1.1102230695850966e-16
		outer loop
			vertex 2.387567520141602 1.1497919559478977 100
			vertex 2.387567520141602 1.1497919559478533 -100
			vertex 2.1895327568054204 1.4927982091903904 100
		endloop
	endfacet
	facet normal 0.8660253920941595 0.5000000202481569 -1.1102230695850966e-16
		outer loop
			vertex 2.387567520141602 1.1497919559478533 -100
			vertex 2.1895327568054204 1.492798209190346 -100
			vertex 2.1895327568054204 1.4927982091903904 100
		endloop
	endfacet
	facet normal 0.7818315179904783 0.6234897573149895 -1.3844253683781048e-16
		outer loop
			vertex 2.1895327568054204 1.4927982091903904 100
			vertex 2.1895327568054204 1.492798209190346 -100
			vertex 1.9425874948501591 1.802457809448264 100
		endloop
	endfacet
	facet normal 0.7818315179904783 0.6234897573149895 -1.3844253683781048e-16
		outer loop
			vertex 2.1895327568054204 1.492798209190346 -100
			vertex 1.9425874948501591 1.8024578094482195 -100
			vertex 1.9425874948501591 1.802457809448264 100
		endloop
	endfacet
	facet normal 0.6801726438513351 0.7330519589744542 -1.6277023262000294e-16
		outer loop
			vertex 1.9425874948501591 1.802457809448264 100
			vertex 1.9425874948501591 1.8024578094482195 -100
			vertex 1.6522480249404912 2.071853399276755 100
		endloop
	endfacet
	facet normal 0.6801726438513351 0.7330519589744542 -1.6277023262000294e-16
		outer loop
			vertex 1.9425874948501591 1.8024578094482195 -100
			vertex 1.6522480249404912 2.0718533992767107 -100
			vertex 1.6522480249404912 2.071853399276755 100
		endloop
	endfacet
	facet normal 0.5633202659210391 0.8262386326011694 -1.8346183074972474e-16
		outer loop
			vertex 1.6522480249404912 2.071853399276755 100
			vertex 1.6522480249404912 2.0718533992767107 -100
			vertex 1.3250000476837163 2.29496741294863 100
		endloop
	endfacet
	facet normal 0.5633202659210391 0.8262386326011694 -1.8346183074972474e-16
		outer loop
			vertex 1.6522480249404912 2.0718533992767107 -100
			vertex 1.3250000476837163 2.2949674129485857 -100
			vertex 1.3250000476837163 2.29496741294863 100
		endloop
	endfacet
	facet normal 0.43388357952271234 0.9009689447592287 -2.000552933887853e-16
		outer loop
			vertex 1.3250000476837163 2.29496741294863 100
			vertex 1.3250000476837163 2.2949674129485857 -100
			vertex 0.9681537151336675 2.466815471649192 100
		endloop
	endfacet
	facet normal 0.43388357952271234 0.9009689447592287 -2.000552933887853e-16
		outer loop
			vertex 1.3250000476837163 2.2949674129485857 -100
			vertex 0.9681537151336675 2.4668154716491477 -100
			vertex 0.9681537151336675 2.466815471649192 100
		endloop
	endfacet
	facet normal 0.29475525873727554 0.9555727797748961 -2.1217978036223075e-16
		outer loop
			vertex 0.9681537151336675 2.466815471649192 100
			vertex 0.9681537151336675 2.4668154716491477 -100
			vertex 0.5896804928779608 2.583559036254905 100
		endloop
	endfacet
	facet normal 0.29475525873727554 0.9555727797748961 -2.1217978036223075e-16
		outer loop
			vertex 0.9681537151336675 2.4668154716491477 -100
			vertex 0.5896804928779608 2.5835590362548606 -100
			vertex 0.5896804928779608 2.583559036254905 100
		endloop
	endfacet
	facet normal 0.14904204841911986 0.988830859046699 -2.195645574347036e-16
		outer loop
			vertex 0.5896804928779608 2.583559036254905 100
			vertex 0.5896804928779608 2.5835590362548606 -100
			vertex 0.19803474843502103 2.6425900459289773 100
		endloop
	endfacet
	facet normal 0.14904204841911986 0.988830859046699 -2.195645574347036e-16
		outer loop
			vertex 0.5896804928779608 2.5835590362548606 -100
			vertex 0.19803474843502103 2.642590045928933 -100
			vertex 0.19803474843502103 2.6425900459289773 100
		endloop
	endfacet
	facet normal 0 1 -2.220446049250313e-16
		outer loop
			vertex 0.19803474843502103 2.6425900459289773 100
			vertex 0.19803474843502103 2.642590045928933 -100
			vertex -0.19803474843501986 2.6425900459289773 100
		endloop
	endfacet
	facet normal 0 1 -2.220446049250313e-16
		outer loop
			vertex 0.19803474843502103 2.642590045928933 -100
			vertex -0.19803474843501986 2.642590045928933 -100
			vertex -0.19803474843501986 2.6425900459289773 100
		endloop
	endfacet
	facet normal -0.14904204841911986 0.988830859046699 -2.195645574347036e-16
		outer loop
			vertex -0.19803474843501986 2.6425900459289773 100
			vertex -0.19803474843501986 2.642590045928933 -100
			vertex -0.5896804928779596 2.583559036254905 100
		endloop
	endfacet
	facet normal -0.14904204841911986 0.988830859046699 -2.195645574347036e-16
		outer loop
			vertex -0.19803474843501986 2.642590045928933 -100
			vertex -0.5896804928779596 2.5835590362548606 -100
			vertex -0.5896804928779596 2.583559036254905 100
		endloop
	endfacet
	facet normal -0.29475525873727554 0.9555727797748961 -2.1217978036223075e-16
		outer loop
			vertex -0.5896804928779596 2.583559036254905 100
			vertex -0.5896804928779596 2.5835590362548606 -100
			vertex -0.9681537151336664 2.466815471649192 100
		endloop
	endfacet
	facet normal -0.29475525873727554 0.9555727797748961 -2.1217978036223075e-16
		outer loop
			vertex -0.5896804928779596 2.5835590362548606 -100
			vertex -0.9681537151336664 2.4668154716491477 -100
			vertex -0.9681537151336664 2.466815471649192 100
		endloop
	endfacet
	facet normal -0.4338835795227103 0.9009689447592297 -2.0005529338878552e-16
		outer loop
			vertex -0.9681537151336664 2.466815471649192 100
			vertex -0.9681537151336664 2.4668154716491477 -100
			vertex -1.3250000476837154 2.294967412948631 100
		endloop
	endfacet
	facet normal -0.4338835795227103 0.9009689447592297 -2.0005529338878552e-16
		outer loop
			vertex -0.9681537151336664 2.4668154716491477 -100
			vertex -1.3250000476837154 2.2949674129485866 -100
			vertex -1.3250000476837154 2.294967412948631 100
		endloop
	endfacet
	facet normal -0.5633202659210391 0.8262386326011694 -1.8346183074972474e-16
		outer loop
			vertex -1.3250000476837154 2.294967412948631 100
			vertex -1.3250000476837154 2.2949674129485866 -100
			vertex -1.6522480249404903 2.071853399276756 100
		endloop
	endfacet
	facet normal -0.5633202659210391 0.8262386326011694 -1.8346183074972474e-16
		outer loop
			vertex -1.3250000476837154 2.2949674129485866 -100
			vertex -1.6522480249404903 2.0718533992767116 -100
			vertex -1.6522480249404903 2.071853399276756 100
		endloop
	endfacet
	facet normal -0.6801726438513351 0.7330519589744542 -1.6277023262000294e-16
		outer loop
			vertex -1.6522480249404903 2.071853399276756 100
			vertex -1.6522480249404903 2.0718533992767116 -100
			vertex -1.9425874948501582 1.8024578094482648 100
		endloop
	endfacet
	facet normal -0.6801726438513351 0.7330519589744542 -1.6277023262000294e-16
		outer loop
			vertex -1.6522480249404903 2.0718533992767116 -100
			vertex -1.9425874948501582 1.8024578094482204 -100
			vertex -1.9425874948501582 1.8024578094482648 100
		endloop
	endfacet
	facet normal -0.7818315179904783 0.6234897573149895 -1.3844253683781048e-16
		outer loop
			vertex -1.9425874948501582 1.8024578094482648 100
			vertex -1.9425874948501582 1.8024578094482204 -100
			vertex -2.1895327568054195 1.4927982091903913 100
		endloop
	endfacet
	facet normal -0.7818315179904783 0.6234897573149895 -1.3844253683781048e-16
		outer loop
			vertex -1.9425874948501582 1.8024578094482204 -100
			vertex -2.1895327568054195 1.492798209190347 -100
			vertex -2.1895327568054195 1.4927982091903913 100
		endloop
	endfacet
	facet normal -0.8660253920941595 0.5000000202481569 -1.1102230695850966e-16
		outer loop
			vertex -2.1895327568054195 1.4927982091903913 100
			vertex -2.1895327568054195 1.492798209190347 -100
			vertex -2.387567520141601 1.1497919559478986 100
		endloop
	endfacet
	facet normal -0.8660253920941595 0.5000000202481569 -1.1102230695850966e-16
		outer loop
			vertex -2.1895327568054195 1.492798209190347 -100
			vertex -2.387567520141601 1.1497919559478542 -100
			vertex -2.387567520141601 1.1497919559478986 100
		endloop
	endfacet
	facet normal -0.9308736808296366 0.365341197155048 -8.11220417851306e-17
		outer loop
			vertex -2.387567520141601 1.1497919559478986 100
			vertex -2.387567520141601 1.1497919559478542 -100
			vertex -2.5322680473327637 0.7811012268066634 100
		endloop
	endfacet
	facet normal -0.9308736808296366 0.365341197155048 -8.11220417851306e-17
		outer loop
			vertex -2.387567520141601 1.1497919559478542 -100
			vertex -2.5322680473327637 0.781101226806619 -100
			vertex -2.5322680473327637 0.7811012268066634 100
		endloop
	endfacet
	facet normal -0.9749280120223381 0.22252049652598743 -4.940947573883468e-17
		outer loop
			vertex -2.5322680473327637 0.7811012268066634 100
			vertex -2.5322680473327637 0.781101226806619 -100
			vertex -2.620401620864868 0.3949620127678145 100
		endloop
	endfacet
	facet normal -0.9749280120223381 0.22252049652598743 -4.940947573883468e-17
		outer loop
			vertex -2.5322680473327637 0.781101226806619 -100
			vertex -2.620401620864868 0.3949620127677701 -100
			vertex -2.620401620864868 0.3949620127678145 100
		endloop
	endfacet
	facet normal -0.9972037664287375 0.074730503948121 -1.659350522500902e-17
		outer loop
			vertex -2.620401620864868 0.3949620127678145 100
			vertex -2.620401620864868 0.3949620127677701 -100
			vertex -2.6500000953674316 2.3117410126047912e-14 100
		endloop
	endfacet
	facet normal -0.9972037664287375 0.074730503948121 -1.659350522500902e-17
		outer loop
			vertex -2.620401620864868 0.3949620127677701 -100
			vertex -2.6500000953674316 -2.129151085895835e-14 -100
			vertex -2.6500000953674316 2.3117410126047912e-14 100
		endloop
	endfacet
	facet normal -0.9972037664287374 -0.07473050394812086 1.659350522500899e-17
		outer loop
			vertex -2.6500000953674316 2.3117410126047912e-14 100
			vertex -2.6500000953674316 -2.129151085895835e-14 -100
			vertex -2.620401620864868 -0.394962012767769 100
		endloop
	endfacet
	facet normal -0.9972037664287374 -0.07473050394812086 1.659350522500899e-17
		outer loop
			vertex -2.6500000953674316 -2.129151085895835e-14 -100
			vertex -2.620401620864868 -0.3949620127678134 -100
			vertex -2.620401620864868 -0.394962012767769 100
		endloop
	endfacet
	facet normal -0.9749280120223381 -0.22252049652598743 4.940947573883468e-17
		outer loop
			vertex -2.620401620864868 -0.394962012767769 100
			vertex -2.620401620864868 -0.3949620127678134 -100
			vertex -2.5322680473327637 -0.7811012268066179 100
		endloop
	endfacet
	facet normal -0.9749280120223381 -0.22252049652598743 4.940947573883468e-17
		outer loop
			vertex -2.620401620864868 -0.3949620127678134 -100
			vertex -2.5322680473327637 -0.7811012268066623 -100
			vertex -2.5322680473327637 -0.7811012268066179 100
		endloop
	endfacet
	facet normal -0.9308736808296377 -0.36534119715504587 8.112204178513013e-17
		outer loop
			vertex -2.5322680473327637 -0.7811012268066179 100
			vertex -2.5322680473327637 -0.7811012268066623 -100
			vertex -2.387567520141602 -1.1497919559478533 100
		endloop
	endfacet
	facet normal -0.9308736808296377 -0.36534119715504587 8.112204178513013e-17
		outer loop
			vertex -2.5322680473327637 -0.7811012268066623 -100
			vertex -2.387567520141602 -1.1497919559478977 -100
			vertex -2.387567520141602 -1.1497919559478533 100
		endloop
	endfacet
	facet normal -0.8660253920941595 -0.5000000202481569 1.1102230695850966e-16
		outer loop
			vertex -2.387567520141602 -1.1497919559478533 100
			vertex -2.387567520141602 -1.1497919559478977 -100
			vertex -2.1895327568054204 -1.492798209190346 100
		endloop
	endfacet
	facet normal -0.8660253920941595 -0.5000000202481569 1.1102230695850966e-16
		outer loop
			vertex -2.387567520141602 -1.1497919559478977 -100
			vertex -2.1895327568054204 -1.4927982091903904 -100
			vertex -2.1895327568054204 -1.492798209190346 100
		endloop
	endfacet
	facet normal -0.7818315179904783 -0.6234897573149895 1.3844253683781048e-16
		outer loop
			vertex -2.1895327568054204 -1.492798209190346 100
			vertex -2.1895327568054204 -1.4927982091903904 -100
			vertex -1.9425874948501591 -1.8024578094482195 100
		endloop
	endfacet
	facet normal -0.7818315179904783 -0.6234897573149895 1.3844253683781048e-16
		outer loop
			vertex -2.1895327568054204 -1.4927982091903904 -100
			vertex -1.9425874948501591 -1.802457809448264 -100
			vertex -1.9425874948501591 -1.8024578094482195 100
		endloop
	endfacet
	facet normal -0.6801726438513351 -0.7330519589744542 1.6277023262000294e-16
		outer loop
			vertex -1.9425874948501591 -1.8024578094482195 100
			vertex -1.9425874948501591 -1.802457809448264 -100
			vertex -1.6522480249404912 -2.0718533992767107 100
		endloop
	endfacet
	facet normal -0.6801726438513351 -0.7330519589744542 1.6277023262000294e-16
		outer loop
			vertex -1.9425874948501591 -1.802457809448264 -100
			vertex -1.6522480249404912 -2.071853399276755 -100
			vertex -1.6522480249404912 -2.0718533992767107 100
		endloop
	endfacet
	facet normal -0.5633202659210391 -0.8262386326011694 1.8346183074972474e-16
		outer loop
			vertex -1.6522480249404912 -2.0718533992767107 100
			vertex -1.6522480249404912 -2.071853399276755 -100
			vertex -1.3250000476837163 -2.2949674129485857 100
		endloop
	endfacet
	facet normal -0.5633202659210391 -0.8262386326011694 1.8346183074972474e-16
		outer loop
			vertex -1.6522480249404912 -2.071853399276755 -100
			vertex -1.3250000476837163 -2.29496741294863 -100
			vertex -1.3250000476837163 -2.2949674129485857 100
		endloop
	endfacet
	facet normal -0.43388357952271234 -0.9009689447592287 2.000552933887853e-16
		outer loop
			vertex -1.3250000476837163 -2.2949674129485857 100
			vertex -1.3250000476837163 -2.29496741294863 -100
			vertex -0.9681537151336675 -2.4668154716491477 100
		endloop
	endfacet
	facet normal -0.43388357952271234 -0.9009689447592287 2.000552933887853e-16
		outer loop
			vertex -1.3250000476837163 -2.29496741294863 -100
			vertex -0.9681537151336675 -2.466815471649192 -100
			vertex -0.9681537151336675 -2.4668154716491477 100
		endloop
	endfacet
	facet normal -0.29475525873727554 -0.9555727797748961 2.1217978036223075e-16
		outer loop
			vertex -0.9681537151336675 -2.4668154716491477 100
			vertex -0.9681537151336675 -2.466815471649192 -100
			vertex -0.5896804928779608 -2.5835590362548606 100
		endloop
	endfacet
	facet normal -0.29475525873727554 -0.9555727797748961 2.1217978036223075e-16
		outer loop
			vertex -0.9681537151336675 -2.466815471649192 -100
			vertex -0.5896804928779608 -2.583559036254905 -100
			vertex -0.5896804928779608 -2.5835590362548606 100
		endloop
	endfacet
	facet normal -0.14904204841911986 -0.988830859046699 2.195645574347036e-16
		outer loop
			vertex -0.5896804928779608 -2.5835590362548606 100
			vertex -0.5896804928779608 -2.583559036254905 -100
			vertex -0.19803474843502103 -2.642590045928933 100
		endloop
	endfacet
	facet normal -0.14904204841911986 -0.988830859046699 2.195645574347036e-16
		outer loop
			vertex -0.5896804928779608 -2.583559036254905 -100
			vertex -0.19803474843502103 -2.6425900459289773 -100
			vertex -0.19803474843502103 -2.642590045928933 100
		endloop
	endfacet
	facet normal 0 -1 2.220446049250313e-16
		outer loop
			vertex -0.19803474843502103 -2.642590045928933 100
			vertex -0.19803474843502103 -2.6425900459289773 -100
			vertex 0.19803474843501986 -2.642590045928933 100
		endloop
	endfacet
	facet normal 0 -1 2.220446049250313e-16
		outer loop
			vertex -0.19803474843502103 -2.6425900459289773 -100
			vertex 0.19803474843501986 -2.6425900459289773 -100
			vertex 0.19803474843501986 -2.642590045928933 100
		endloop
	endfacet
	facet normal 0.14904204841911986 -0.988830859046699 2.195645574347036e-16
		outer loop
			vertex 0.19803474843501986 -2.642590045928933 100
			vertex 0.19803474843501986 -2.6425900459289773 -100
			vertex 0.5896804928779596 -2.5835590362548606 100
		endloop
	endfacet
	facet normal 0.14904204841911986 -0.988830859046699 2.195645574347036e-16
		outer loop
			vertex 0.19803474843501986 -2.6425900459289773 -100
			vertex 0.5896804928779596 -2.583559036254905 -100
			vertex 0.5896804928779596 -2.5835590362548606 100
		endloop
	endfacet
	facet normal 0.29475525873727554 -0.9555727797748961 2.1217978036223075e-16
		outer loop
			vertex 0.5896804928779596 -2.5835590362548606 100
			vertex 0.5896804928779596 -2.583559036254905 -100
			vertex 0.9681537151336664 -2.4668154716491477 100
		endloop
	endfacet
	facet normal 0.29475525873727554 -0.9555727797748961 2.1217978036223075e-16
		outer loop
			vertex 0.5896804928779596 -2.583559036254905 -100
			vertex 0.9681537151336664 -2.466815471649192 -100
			vertex 0.9681537151336664 -2.4668154716491477 100
		endloop
	endfacet
	facet normal 0.4338835795227103 -0.9009689447592297 2.0005529338878552e-16
		outer loop
			vertex 0.9681537151336664 -2.4668154716491477 100
			vertex 0.9681537151336664 -2.466815471649192 -100
			vertex 1.3250000476837154 -2.2949674129485866 100
		endloop
	endfacet
	facet normal 0.4338835795227103 -0.9009689447592297 2.0005529338878552e-16
		outer loop
			vertex 0.9681537151336664 -2.466815471649192 -100
			vertex 1.3250000476837154 -2.294967412948631 -100
			vertex 1.3250000476837154 -2.2949674129485866 100
		endloop
	endfacet
	facet normal 0.5633202659210391 -0.8262386326011694 1.8346183074972474e-16
		outer loop
			vertex 1.3250000476837154 -2.2949674129485866 100
			vertex 1.3250000476837154 -2.294967412948631 -100
			vertex 1.6522480249404903 -2.0718533992767116 100
		endloop
	endfacet
	facet normal 0.5633202659210391 -0.8262386326011694 1.8346183074972474e-16
		outer loop
			vertex 1.3250000476837154 -2.294967412948631 -100
			vertex 1.6522480249404903 -2.071853399276756 -100
			vertex 1.6522480249404903 -2.0718533992767116 100
		endloop
	endfacet
	facet normal 0.6801726438513351 -0.7330519589744542 1.6277023262000294e-16
		outer loop
			vertex 1.6522480249404903 -2.0718533992767116 100
			vertex 1.6522480249404903 -2.071853399276756 -100
			vertex 1.9425874948501582 -1.8024578094482204 100
		endloop
	endfacet
	facet normal 0.6801726438513351 -0.7330519589744542 1.6277023262000294e-16
		outer loop
			vertex 1.6522480249404903 -2.071853399276756 -100
			vertex 1.9425874948501582 -1.8024578094482648 -100
			vertex 1.9425874948501582 -1.8024578094482204 100
		endloop
	endfacet
	facet normal 0.7818315179904783 -0.6234897573149895 1.3844253683781048e-16
		outer loop
			vertex 1.9425874948501582 -1.8024578094482204 100
			vertex 1.9425874948501582 -1.8024578094482648 -100
			vertex 2.1895327568054195 -1.492798209190347 100
		endloop
	endfacet
	facet normal 0.7818315179904783 -0.6234897573149895 1.3844253683781048e-16
		outer loop
			vertex 1.9425874948501582 -1.8024578094482648 -100
			vertex 2.1895327568054195 -1.4927982091903913 -100
			vertex 2.1895327568054195 -1.492798209190347 100
		endloop
	endfacet
	facet normal 0.8660253920941595 -0.5000000202481569 1.1102230695850966e-16
		outer loop
			vertex 2.1895327568054195 -1.492798209190347 100
			vertex 2.1895327568054195 -1.4927982091903913 -100
			vertex 2.387567520141601 -1.1497919559478542 100
		endloop
	endfacet
	facet normal 0.8660253920941595 -0.5000000202481569 1.1102230695850966e-16
		outer loop
			vertex 2.1895327568054195 -1.4927982091903913 -100
			vertex 2.387567520141601 -1.1497919559478986 -100
			vertex 2.387567520141601 -1.1497919559478542 100
		endloop
	endfacet
	facet normal 0.9308736808296366 -0.365341197155048 8.11220417851306e-17
		outer loop
			vertex 2.387567520141601 -1.1497919559478542 100
			vertex 2.387567520141601 -1.1497919559478986 -100
			vertex 2.5322680473327637 -0.781101226806619 100
		endloop
	endfacet
	facet normal 0.9308736808296366 -0.365341197155048 8.11220417851306e-17
		outer loop
			vertex 2.387567520141601 -1.1497919559478986 -100
			vertex 2.5322680473327637 -0.7811012268066634 -100
			vertex 2.5322680473327637 -0.781101226806619 100
		endloop
	endfacet
	facet normal 0.9749280120223381 -0.22252049652598743 4.940947573883468e-17
		outer loop
			vertex 2.5322680473327637 -0.781101226806619 100
			vertex 2.5322680473327637 -0.7811012268066634 -100
			vertex 2.620401620864868 -0.3949620127677701 100
		endloop
	endfacet
	facet normal 0.9749280120223381 -0.22252049652598743 4.940947573883468e-17
		outer loop
			vertex 2.5322680473327637 -0.7811012268066634 -100
			vertex 2.620401620864868 -0.3949620127678145 -100
			vertex 2.620401620864868 -0.3949620127677701 100
		endloop
	endfacet
	facet normal 0.9972037664287375 -0.07473050394812106 1.6593505225009033e-17
		outer loop
			vertex 2.620401620864868 -0.3949620127677701 100
			vertex 2.620401620864868 -0.3949620127678145 -100
			vertex 2.6500000953674316 2.0966979449640725e-14 100
		endloop
	endfacet
	facet normal 0.9972037664287375 -0.07473050394812106 1.6593505225009033e-17
		outer loop
			vertex 2.620401620864868 -0.3949620127678145 -100
			vertex 2.6500000953674316 -2.3441941535365537e-14 -100
			vertex 2.6500000953674316 2.0966979449640725e-14 100
		endloop
	endfacet
	facet normal 0 0 1
		outer loop
			vertex 2.6500000953674316 2.1616042268275974e-14 100
			vertex 2.620401620864868 0.3949620127678134 100
			vertex 0 2.220446049250313e-14 100
		endloop
	endfacet
	facet normal 0 0 1
		outer loop
			vertex 2.620401620864868 0.3949620127678134 100
			vertex 2.5322680473327637 0.7811012268066623 100
			vertex 0 2.220446049250313e-14 100
		endloop
	endfacet
	facet normal 0 0 1
		outer loop
			vertex 2.5322680473327637 0.7811012268066623 100
			vertex 2.387567520141602 1.1497919559478977 100
			vertex 0 2.220446049250313e-14 100
		endloop
	endfacet
	facet normal 0 0 1
		outer loop
			vertex 2.387567520141602 1.1497919559478977 100
			vertex 2.1895327568054204 1.4927982091903904 100
			vertex 0 2.220446049250313e-14 100
		endloop
	endfacet
	facet normal 0 0 1
		outer loop
			vertex 2.1895327568054204 1.4927982091903904 100
			vertex 1.9425874948501591 1.802457809448264 100
			vertex 0 2.220446049250313e-14 100
		endloop
	endfacet
	facet normal 0 0 1
		outer loop
			vertex 1.9425874948501591 1.802457809448264 100
			vertex 1.6522480249404912 2.071853399276755 100
			vertex 0 2.220446049250313e-14 100
		endloop
	endfacet
	facet normal 0 0 1
		outer loop
			vertex 1.6522480249404912 2.071853399276755 100
			vertex 1.3250000476837163 2.29496741294863 100
			vertex 0 2.220446049250313e-14 100
		endloop
	endfacet
	facet normal 0 0 1
		outer loop
			vertex 1.3250000476837163 2.29496741294863 100
			vertex 0.9681537151336675 2.466815471649192 100
			vertex 0 2.220446049250313e-14 100
		endloop
	endfacet
	facet normal 0 0 1
		outer loop
			vertex 0.9681537151336675 2.466815471649192 100
			vertex 0.5896804928779608 2.583559036254905 100
			vertex 0 2.220446049250313e-14 100
		endloop
	endfacet
	facet normal 0 0 1
		outer loop
			vertex 0.5896804928779608 2.583559036254905 100
			vertex 0.19803474843502103 2.6425900459289773 100
			vertex 0 2.220446049250313e-14 100
		endloop
	endfacet
	facet normal 0 0 1
		outer loop
			vertex 0.19803474843502103 2.6425900459289773 100
			vertex -0.19803474843501986 2.6425900459289773 100
			vertex 0 2.220446049250313e-14 100
		endloop
	endfacet
	facet normal 0 0 1
		outer loop
			vertex -0.19803474843501986 2.6425900459289773 100
			vertex -0.5896804928779596 2.583559036254905 100
			vertex 0 2.220446049250313e-14 100
		endloop
	endfacet
	facet normal 0 0 1
		outer loop
			vertex -0.5896804928779596 2.583559036254905 100
			vertex -0.9681537151336664 2.466815471649192 100
			vertex 0 2.220446049250313e-14 100
		endloop
	endfacet
	facet normal 0 0 1
		outer loop
			vertex -0.9681537151336664 2.466815471649192 100
			vertex -1.3250000476837154 2.294967412948631 100
			vertex 0 2.220446049250313e-14 100
		endloop
	endfacet
	facet normal 0 0 1
		outer loop
			vertex -1.3250000476837154 2.294967412948631 100
			vertex -1.6522480249404903 2.071853399276756 100
			vertex 0 2.220446049250313e-14 100
		endloop
	endfacet
	facet normal 0 0 1
		outer loop
			vertex -1.6522480249404903 2.071853399276756 100
			vertex -1.9425874948501582 1.8024578094482648 100
			vertex 0 2.220446049250313e-14 100
		endloop
	endfacet
	facet normal 0 0 1
		outer loop
			vertex -1.9425874948501582 1.8024578094482648 100
			vertex -2.1895327568054195 1.4927982091903913 100
			vertex 0 2.220446049250313e-14 100
		endloop
	endfacet
	facet normal 0 0 1
		outer loop
			vertex -2.1895327568054195 1.4927982091903913 100
			vertex -2.387567520141601 1.1497919559478986 100
			vertex 0 2.220446049250313e-14 100
		endloop
	endfacet
	facet normal 0 0 1
		outer loop
			vertex -2.387567520141601 1.1497919559478986 100
			vertex -2.5322680473327637 0.7811012268066634 100
			vertex 0 2.220446049250313e-14 100
		endloop
	endfacet
	facet normal 0 0 1
		outer loop
			vertex -2.5322680473327637 0.7811012268066634 100
			vertex -2.620401620864868 0.3949620127678145 100
			vertex 0 2.220446049250313e-14 100
		endloop
	endfacet
	facet normal 0 0 1
		outer loop
			vertex -2.620401620864868 0.3949620127678145 100
			vertex -2.6500000953674316 2.3117410126047912e-14 100
			vertex 0 2.220446049250313e-14 100
		endloop
	endfacet
	facet normal 0 0 1
		outer loop
			vertex -2.6500000953674316 2.3117410126047912e-14 100
			vertex -2.620401620864868 -0.394962012767769 100
			vertex 0 2.220446049250313e-14 100
		endloop
	endfacet
	facet normal 0 0 1
		outer loop
			vertex -2.620401620864868 -0.394962012767769 100
			vertex -2.5322680473327637 -0.7811012268066179 100
			vertex 0 2.220446049250313e-14 100
		endloop
	endfacet
	facet normal 0 0 1
		outer loop
			vertex -2.5322680473327637 -0.7811012268066179 100
			vertex -2.387567520141602 -1.1497919559478533 100
			vertex 0 2.220446049250313e-14 100
		endloop
	endfacet
	facet normal 0 0 1
		outer loop
			vertex -2.387567520141602 -1.1497919559478533 100
			vertex -2.1895327568054204 -1.492798209190346 100
			vertex 0 2.220446049250313e-14 100
		endloop
	endfacet
	facet normal 0 0 1
		outer loop
			vertex -2.1895327568054204 -1.492798209190346 100
			vertex -1.9425874948501591 -1.8024578094482195 100
			vertex 0 2.220446049250313e-14 100
		endloop
	endfacet
	facet normal 0 0 1
		outer loop
			vertex -1.9425874948501591 -1.8024578094482195 100
			vertex -1.6522480249404912 -2.0718533992767107 100
			vertex 0 2.220446049250313e-14 100
		endloop
	endfacet
	facet normal 0 0 1
		outer loop
			vertex -1.6522480249404912 -2.0718533992767107 100
			vertex -1.3250000476837163 -2.2949674129485857 100
			vertex 0 2.220446049250313e-14 100
		endloop
	endfacet
	facet normal 0 0 1
		outer loop
			vertex -1.3250000476837163 -2.2949674129485857 100
			vertex -0.9681537151336675 -2.4668154716491477 100
			vertex 0 2.220446049250313e-14 100
		endloop
	endfacet
	facet normal 0 0 1
		outer loop
			vertex -0.9681537151336675 -2.4668154716491477 100
			vertex -0.5896804928779608 -2.5835590362548606 100
			vertex 0 2.220446049250313e-14 100
		endloop
	endfacet
	facet normal 0 0 1
		outer loop
			vertex -0.5896804928779608 -2.5835590362548606 100
			vertex -0.19803474843502103 -2.642590045928933 100
			vertex 0 2.220446049250313e-14 100
		endloop
	endfacet
	facet normal 0 0 1
		outer loop
			vertex -0.19803474843502103 -2.642590045928933 100
			vertex 0.19803474843501986 -2.642590045928933 100
			vertex 0 2.220446049250313e-14 100
		endloop
	endfacet
	facet normal 0 0 1
		outer loop
			vertex 0.19803474843501986 -2.642590045928933 100
			vertex 0.5896804928779596 -2.5835590362548606 100
			vertex 0 2.220446049250313e-14 100
		endloop
	endfacet
	facet normal 0 0 1
		outer loop
			vertex 0.5896804928779596 -2.5835590362548606 100
			vertex 0.9681537151336664 -2.4668154716491477 100
			vertex 0 2.220446049250313e-14 100
		endloop
	endfacet
	facet normal 0 0 1
		outer loop
			vertex 0.9681537151336664 -2.4668154716491477 100
			vertex 1.3250000476837154 -2.2949674129485866 100
			vertex 0 2.220446049250313e-14 100
		endloop
	endfacet
	facet normal 0 0 1
		outer loop
			vertex 1.3250000476837154 -2.2949674129485866 100
			vertex 1.6522480249404903 -2.0718533992767116 100
			vertex 0 2.220446049250313e-14 100
		endloop
	endfacet
	facet normal 0 0 1
		outer loop
			vertex 1.6522480249404903 -2.0718533992767116 100
			vertex 1.9425874948501582 -1.8024578094482204 100
			vertex 0 2.220446049250313e-14 100
		endloop
	endfacet
	facet normal 0 0 1
		outer loop
			vertex 1.9425874948501582 -1.8024578094482204 100
			vertex 2.1895327568054195 -1.492798209190347 100
			vertex 0 2.220446049250313e-14 100
		endloop
	endfacet
	facet normal 0 0 1
		outer loop
			vertex 2.1895327568054195 -1.492798209190347 100
			vertex 2.387567520141601 -1.1497919559478542 100
			vertex 0 2.220446049250313e-14 100
		endloop
	endfacet
	facet normal 0 0 1
		outer loop
			vertex 2.387567520141601 -1.1497919559478542 100
			vertex 2.5322680473327637 -0.781101226806619 100
			vertex 0 2.220446049250313e-14 100
		endloop
	endfacet
	facet normal 0 0 1
		outer loop
			vertex 2.5322680473327637 -0.781101226806619 100
			vertex 2.620401620864868 -0.3949620127677701 100
			vertex 0 2.220446049250313e-14 100
		endloop
	endfacet
	facet normal 0 0 1
		outer loop
			vertex 2.620401620864868 -0.3949620127677701 100
			vertex 2.6500000953674316 2.0966979449640725e-14 100
			vertex 0 2.220446049250313e-14 100
		endloop
	endfacet
	facet normal 0 0 -1
		outer loop
			vertex 2.620401620864868 0.394962012767769 -100
			vertex 2.6500000953674316 -2.2792878716730287e-14 -100
			vertex 0 -2.220446049250313e-14 -100
		endloop
	endfacet
	facet normal 0 0 -1
		outer loop
			vertex 2.5322680473327637 0.7811012268066179 -100
			vertex 2.620401620864868 0.394962012767769 -100
			vertex 0 -2.220446049250313e-14 -100
		endloop
	endfacet
	facet normal 0 0 -1
		outer loop
			vertex 2.387567520141602 1.1497919559478533 -100
			vertex 2.5322680473327637 0.7811012268066179 -100
			vertex 0 -2.220446049250313e-14 -100
		endloop
	endfacet
	facet normal 0 0 -1
		outer loop
			vertex 2.1895327568054204 1.492798209190346 -100
			vertex 2.387567520141602 1.1497919559478533 -100
			vertex 0 -2.220446049250313e-14 -100
		endloop
	endfacet
	facet normal 0 0 -1
		outer loop
			vertex 1.9425874948501591 1.8024578094482195 -100
			vertex 2.1895327568054204 1.492798209190346 -100
			vertex 0 -2.220446049250313e-14 -100
		endloop
	endfacet
	facet normal 0 0 -1
		outer loop
			vertex 1.6522480249404912 2.0718533992767107 -100
			vertex 1.9425874948501591 1.8024578094482195 -100
			vertex 0 -2.220446049250313e-14 -100
		endloop
	endfacet
	facet normal 0 0 -1
		outer loop
			vertex 1.3250000476837163 2.2949674129485857 -100
			vertex 1.6522480249404912 2.0718533992767107 -100
			vertex 0 -2.220446049250313e-14 -100
		endloop
	endfacet
	facet normal 0 0 -1
		outer loop
			vertex 0.9681537151336675 2.4668154716491477 -100
			vertex 1.3250000476837163 2.2949674129485857 -100
			vertex 0 -2.220446049250313e-14 -100
		endloop
	endfacet
	facet normal 0 0 -1
		outer loop
			vertex 0.5896804928779608 2.5835590362548606 -100
			vertex 0.9681537151336675 2.4668154716491477 -100
			vertex 0 -2.220446049250313e-14 -100
		endloop
	endfacet
	facet normal 0 0 -1
		outer loop
			vertex 0.19803474843502103 2.642590045928933 -100
			vertex 0.5896804928779608 2.5835590362548606 -100
			vertex 0 -2.220446049250313e-14 -100
		endloop
	endfacet
	facet normal 0 0 -1
		outer loop
			vertex -0.19803474843501986 2.642590045928933 -100
			vertex 0.19803474843502103 2.642590045928933 -100
			vertex 0 -2.220446049250313e-14 -100
		endloop
	endfacet
	facet normal 0 0 -1
		outer loop
			vertex -0.5896804928779596 2.5835590362548606 -100
			vertex -0.19803474843501986 2.642590045928933 -100
			vertex 0 -2.220446049250313e-14 -100
		endloop
	endfacet
	facet normal 0 0 -1
		outer loop
			vertex -0.9681537151336664 2.4668154716491477 -100
			vertex -0.5896804928779596 2.5835590362548606 -100
			vertex 0 -2.220446049250313e-14 -100
		endloop
	endfacet
	facet normal 0 0 -1
		outer loop
			vertex -1.3250000476837154 2.2949674129485866 -100
			vertex -0.9681537151336664 2.4668154716491477 -100
			vertex 0 -2.220446049250313e-14 -100
		endloop
	endfacet
	facet normal 0 0 -1
		outer loop
			vertex -1.6522480249404903 2.0718533992767116 -100
			vertex -1.3250000476837154 2.2949674129485866 -100
			vertex 0 -2.220446049250313e-14 -100
		endloop
	endfacet
	facet normal 0 0 -1
		outer loop
			vertex -1.9425874948501582 1.8024578094482204 -100
			vertex -1.6522480249404903 2.0718533992767116 -100
			vertex 0 -2.220446049250313e-14 -100
		endloop
	endfacet
	facet normal 0 0 -1
		outer loop
			vertex -2.1895327568054195 1.492798209190347 -100
			vertex -1.9425874948501582 1.8024578094482204 -100
			vertex 0 -2.220446049250313e-14 -100
		endloop
	endfacet
	facet normal 0 0 -1
		outer loop
			vertex -2.387567520141601 1.1497919559478542 -100
			vertex -2.1895327568054195 1.492798209190347 -100
			vertex 0 -2.220446049250313e-14 -100
		endloop
	endfacet
	facet normal 0 0 -1
		outer loop
			vertex -2.5322680473327637 0.781101226806619 -100
			vertex -2.387567520141601 1.1497919559478542 -100
			vertex 0 -2.220446049250313e-14 -100
		endloop
	endfacet
	facet normal 0 0 -1
		outer loop
			vertex -2.620401620864868 0.3949620127677701 -100
			vertex -2.5322680473327637 0.781101226806619 -100
			vertex 0 -2.220446049250313e-14 -100
		endloop
	endfacet
	facet normal 0 0 -1
		outer loop
			vertex -2.6500000953674316 -2.129151085895835e-14 -100
			vertex -2.620401620864868 0.3949620127677701 -100
			vertex 0 -2.220446049250313e-14 -100
		endloop
	endfacet
	facet normal 0 0 -1
		outer loop
			vertex -2.620401620864868 -0.3949620127678134 -100
			vertex -2.6500000953674316 -2.129151085895835e-14 -100
			vertex 0 -2.220446049250313e-14 -100
		endloop
	endfacet
	facet normal 0 0 -1
		outer loop
			vertex -2.5322680473327637 -0.7811012268066623 -100
			vertex -2.620401620864868 -0.3949620127678134 -100
			vertex 0 -2.220446049250313e-14 -100
		endloop
	endfacet
	facet normal 0 0 -1
		outer loop
			vertex -2.387567520141602 -1.1497919559478977 -100
			vertex -2.5322680473327637 -0.7811012268066623 -100
			vertex 0 -2.220446049250313e-14 -100
		endloop
	endfacet
	facet normal 0 0 -1
		outer loop
			vertex -2.1895327568054204 -1.4927982091903904 -100
			vertex -2.387567520141602 -1.1497919559478977 -100
			vertex 0 -2.220446049250313e-14 -100
		endloop
	endfacet
	facet normal 0 0 -1
		outer loop
			vertex -1.9425874948501591 -1.802457809448264 -100
			vertex -2.1895327568054204 -1.4927982091903904 -100
			vertex 0 -2.220446049250313e-14 -100
		endloop
	endfacet
	facet normal 0 0 -1
		outer loop
			vertex -1.6522480249404912 -2.071853399276755 -100
			vertex -1.9425874948501591 -1.802457809448264 -100
			vertex 0 -2.220446049250313e-14 -100
		endloop
	endfacet
	facet normal 0 0 -1
		outer loop
			vertex -1.3250000476837163 -2.29496741294863 -100
			vertex -1.6522480249404912 -2.071853399276755 -100
			vertex 0 -2.220446049250313e-14 -100
		endloop
	endfacet
	facet normal 0 0 -1
		outer loop
			vertex -0.9681537151336675 -2.466815471649192 -100
			vertex -1.3250000476837163 -2.29496741294863 -100
			vertex 0 -2.220446049250313e-14 -100
		endloop
	endfacet
	facet normal 0 0 -1
		outer loop
			vertex -0.5896804928779608 -2.583559036254905 -100
			vertex -0.9681537151336675 -2.466815471649192 -100
			vertex 0 -2.220446049250313e-14 -100
		endloop
	endfacet
	facet normal 0 0 -1
		outer loop
			vertex -0.19803474843502103 -2.6425900459289773 -100
			vertex -0.5896804928779608 -2.583559036254905 -100
			vertex 0 -2.220446049250313e-14 -100
		endloop
	endfacet
	facet normal 0 0 -1
		outer loop
			vertex 0.19803474843501986 -2.6425900459289773 -100
			vertex -0.19803474843502103 -2.6425900459289773 -100
			vertex 0 -2.220446049250313e-14 -100
		endloop
	endfacet
	facet normal 0 0 -1
		outer loop
			vertex 0.5896804928779596 -2.583559036254905 -100
			vertex 0.19803474843501986 -2.6425900459289773 -100
			vertex 0 -2.220446049250313e-14 -100
		endloop
	endfacet
	facet normal 0 0 -1
		outer loop
			vertex 0.9681537151336664 -2.466815471649192 -100
			vertex 0.5896804928779596 -2.583559036254905 -100
			vertex 0 -2.220446049250313e-14 -100
		endloop
	endfacet
	facet normal 0 0 -1
		outer loop
			vertex 1.3250000476837154 -2.294967412948631 -100
			vertex 0.9681537151336664 -2.466815471649192 -100
			vertex 0 -2.220446049250313e-14 -100
		endloop
	endfacet
	facet normal 0 0 -1
		outer loop
			vertex 1.6522480249404903 -2.071853399276756 -100
			vertex 1.3250000476837154 -2.294967412948631 -100
			vertex 0 -2.220446049250313e-14 -100
		endloop
	endfacet
	facet normal 0 0 -1
		outer loop
			vertex 1.9425874948501582 -1.8024578094482648 -100
			vertex 1.6522480249404903 -2.071853399276756 -100
			vertex 0 -2.220446049250313e-14 -100
		endloop
	endfacet
	facet normal 0 0 -1
		outer loop
			vertex 2.1895327568054195 -1.4927982091903913 -100
			vertex 1.9425874948501582 -1.8024578094482648 -100
			vertex 0 -2.220446049250313e-14 -100
		endloop
	endfacet
	facet normal 0 0 -1
		outer loop
			vertex 2.387567520141601 -1.1497919559478986 -100
			vertex 2.1895327568054195 -1.4927982091903913 -100
			vertex 0 -2.220446049250313e-14 -100
		endloop
	endfacet
	facet normal 0 0 -1
		outer loop
			vertex 2.5322680473327637 -0.7811012268066634 -100
			vertex 2.387567520141601 -1.1497919559478986 -100
			vertex 0 -2.220446049250313e-14 -100
		endloop
	endfacet
	facet normal 0 0 -1
		outer loop
			vertex 2.620401620864868 -0.3949620127678145 -100
			vertex 2.5322680473327637 -0.7811012268066634 -100
			vertex 0 -2.220446049250313e-14 -100
		endloop
	endfacet
	facet normal 0 0 -1
		outer loop
			vertex 2.6500000953674316 -2.3441941535365537e-14 -100
			vertex 2.620401620864868 -0.3949620127678145 -100
			vertex 0 -2.220446049250313e-14 -100
		endloop
	endfacet
endsolid exported
