<?xml version="1.0" standalone="no"?>
<!DOCTYPE svg PUBLIC "-//W3C//DTD SVG 20010904//EN"
 "http://www.w3.org/TR/2001/REC-SVG-20010904/DTD/svg10.dtd">
<svg version="1.0" xmlns="http://www.w3.org/2000/svg"
 width="625.000000pt" height="500.000000pt" viewBox="0 0 625.000000 500.000000"
 preserveAspectRatio="xMidYMid meet">
<metadata>
Created by potrace 1.16, written by Peter Selinger 2001-2019
</metadata>
<g transform="translate(0.000000,500.000000) scale(0.100000,-0.100000)"
fill="#000000" stroke="none">
<path d="M3999 4786 c-6 -6 -234 -34 -409 -50 -144 -13 -161 -17 -233 -51
l-79 -38 -316 -12 c-279 -11 -326 -16 -387 -35 -87 -28 -186 -77 -203 -101
-31 -44 -170 -144 -229 -165 -34 -12 -75 -31 -91 -43 -41 -29 -79 -26 -131 9
-79 54 -163 53 -289 -4 -73 -33 -124 -48 -203 -61 -19 -3 -62 -23 -95 -44 -32
-21 -76 -44 -97 -50 -21 -7 -59 -31 -85 -52 -26 -22 -67 -56 -91 -77 -25 -20
-67 -54 -94 -74 -70 -52 -175 -153 -227 -218 -25 -31 -77 -118 -115 -194 -39
-77 -81 -150 -95 -162 -60 -56 -131 -114 -139 -114 -18 0 -111 -81 -126 -110
-60 -116 49 -182 184 -110 31 16 81 41 111 55 30 13 67 34 81 45 52 43 171 45
247 6 33 -17 90 -83 115 -131 17 -34 42 -148 52 -240 9 -83 22 -124 56 -167
16 -20 34 -49 41 -65 7 -15 25 -48 42 -72 16 -25 42 -71 57 -102 16 -32 43
-78 61 -102 18 -25 45 -67 59 -93 20 -38 39 -56 80 -79 30 -16 73 -43 96 -61
23 -18 68 -40 99 -49 31 -9 80 -29 108 -45 33 -19 83 -34 143 -45 58 -10 119
-28 165 -50 41 -19 109 -42 153 -50 92 -17 246 -91 336 -161 30 -24 59 -44 63
-44 4 0 35 -19 69 -43 34 -24 73 -48 87 -54 14 -6 45 -27 69 -47 24 -21 56
-43 71 -51 39 -20 106 -97 118 -136 6 -19 16 -65 22 -103 6 -38 24 -101 41
-139 40 -94 52 -182 53 -377 1 -127 -2 -173 -14 -198 -8 -18 -48 -60 -89 -95
-41 -34 -79 -70 -85 -79 -25 -40 -3 -43 362 -46 191 -2 357 0 368 2 57 15 31
73 -67 152 -95 75 -179 201 -204 306 -10 40 -27 93 -38 118 -16 36 -21 78 -27
220 -11 256 -44 418 -93 459 -22 18 -47 103 -47 160 0 74 18 120 68 174 54 57
209 162 265 179 64 19 136 122 137 195 0 22 10 44 29 65 l29 33 219 0 c210 0
220 1 264 24 60 31 88 26 224 -44 121 -62 148 -66 246 -35 114 37 180 51 296
65 93 10 121 18 154 39 47 31 75 82 65 120 -9 38 -47 34 -96 -10 -63 -57 -134
-74 -310 -74 -128 0 -151 2 -170 18 -54 44 24 84 189 97 101 8 123 16 172 59
20 19 47 37 60 41 65 20 74 63 34 173 -14 38 -25 78 -25 88 0 38 45 146 75
181 l31 36 135 8 c210 11 315 27 424 65 69 24 134 38 210 46 136 14 155 28
155 112 0 43 -7 68 -36 123 -20 37 -43 85 -50 106 -7 20 -26 54 -41 73 -15 20
-46 65 -68 99 -92 145 -168 231 -230 262 -16 9 -46 30 -66 48 -36 32 -190 98
-310 131 -54 15 -73 27 -124 79 -33 33 -91 97 -129 142 -80 96 -177 166 -273
198 -37 13 -95 35 -128 49 -33 13 -100 30 -150 37 -107 14 -126 20 -176 60
-56 44 -198 99 -257 99 -27 0 -51 -2 -53 -4z m-2422 -1543 c37 -17 120 -103
223 -232 41 -52 86 -104 100 -116 14 -13 59 -53 101 -89 111 -96 112 -100 120
-356 4 -118 11 -261 15 -318 6 -91 5 -104 -11 -122 -24 -27 -57 -25 -108 4
-23 14 -82 32 -132 41 -60 11 -109 28 -150 50 -33 18 -78 37 -100 41 -22 3
-51 12 -65 20 -39 20 -126 114 -150 164 -13 25 -33 59 -46 75 -12 17 -31 50
-42 75 -11 25 -35 64 -55 87 -27 33 -40 62 -56 130 -11 49 -37 132 -56 186
-52 145 -47 244 15 273 14 7 68 33 120 58 52 25 109 48 125 50 45 6 116 -4
152 -21z m1922 -587 c33 -18 111 -130 111 -161 0 -12 -9 -48 -20 -81 -11 -32
-28 -98 -37 -147 -21 -119 -41 -146 -172 -232 -17 -11 -78 -53 -137 -93 -58
-40 -119 -75 -135 -79 -40 -8 -71 15 -106 79 -48 86 -101 170 -122 192 -36 38
-50 76 -40 105 22 62 389 401 458 421 45 14 170 11 200 -4z m-1141 -66 c29
-11 94 -24 143 -30 50 -5 97 -15 106 -21 38 -32 55 -91 63 -218 5 -69 11 -135
15 -146 19 -50 86 -184 96 -190 10 -7 84 -114 156 -228 18 -28 44 -62 57 -76
35 -37 41 -72 17 -102 -16 -20 -27 -24 -69 -23 -27 1 -60 8 -73 15 -25 13
-112 100 -193 193 -58 67 -81 81 -166 96 -112 20 -143 44 -219 162 -59 92 -71
141 -78 303 -7 162 0 223 28 259 25 31 47 32 117 6z m1901 -34 c46 -42 22 -77
-102 -146 -58 -32 -60 -33 -145 -26 -247 20 -265 27 -260 99 6 79 65 96 319
94 149 -2 169 -4 188 -21z"/>
</g>
</svg>
