<?xml version="1.0" standalone="no"?>
<!DOCTYPE svg PUBLIC "-//W3C//DTD SVG 20010904//EN"
 "http://www.w3.org/TR/2001/REC-SVG-20010904/DTD/svg10.dtd">
<svg version="1.0" xmlns="http://www.w3.org/2000/svg"
 width="700.000000pt" height="450.000000pt" viewBox="0 0 700.000000 450.000000"
 preserveAspectRatio="xMidYMid meet">
<metadata>
Created by potrace 1.16, written by Peter Selinger 2001-2019
</metadata>
<g transform="translate(0.000000,450.000000) scale(0.100000,-0.100000)"
fill="#000000" stroke="none">
<path d="M3500 4286 c-42 -12 -89 -29 -105 -38 -134 -71 -122 -68 -236 -68
-89 0 -122 5 -186 26 -43 14 -114 28 -159 31 -71 5 -91 2 -155 -20 -41 -14
-103 -30 -139 -37 -88 -16 -142 -46 -238 -135 l-33 -30 -262 -6 -262 -5 -75
-33 c-72 -32 -83 -34 -250 -43 l-175 -9 -78 -47 c-105 -63 -186 -131 -194
-160 -9 -37 17 -79 72 -115 40 -26 51 -38 53 -64 7 -72 -46 -105 -203 -123
-55 -6 -140 -22 -190 -35 -49 -13 -112 -27 -140 -31 -27 -3 -62 -12 -76 -20
-39 -20 -99 -91 -99 -118 0 -36 44 -82 98 -101 26 -10 60 -22 76 -28 18 -6 34
-23 43 -45 34 -80 -16 -142 -226 -281 -158 -105 -211 -205 -131 -246 53 -28
200 -10 288 34 20 10 53 21 72 25 35 6 294 -7 465 -24 50 -5 196 -14 325 -20
374 -17 426 -23 469 -58 62 -50 174 -110 236 -128 33 -9 86 -31 119 -47 l58
-31 302 -8 c165 -4 319 -10 341 -13 78 -11 81 -15 339 -418 23 -36 42 -82 51
-126 8 -38 26 -95 40 -126 25 -58 38 -126 50 -260 3 -38 20 -112 38 -163 34
-103 34 -99 -8 -372 -8 -52 -15 -142 -15 -200 0 -121 -13 -211 -40 -293 -25
-72 -25 -73 5 -102 23 -24 28 -25 179 -25 85 0 178 5 207 11 38 8 67 8 110 0
69 -14 99 -4 99 33 0 27 -59 85 -113 111 -75 35 -86 85 -76 331 25 571 24 553
58 632 18 40 39 107 47 149 9 48 26 95 48 132 61 101 85 145 115 207 16 33 37
66 46 74 9 7 40 63 70 124 47 98 55 123 65 214 11 87 19 117 55 191 38 77 90
141 115 141 5 0 30 17 57 37 l48 38 135 6 135 6 105 58 c58 31 128 70 155 86
28 16 57 29 65 29 13 0 123 47 220 93 31 15 56 38 81 76 55 82 88 95 234 97
108 1 125 3 170 26 28 14 71 31 95 38 25 6 74 26 110 43 l65 32 305 5 c168 3
313 9 323 14 24 12 107 123 125 169 19 46 6 96 -37 151 -18 22 -33 55 -37 81
-11 78 -28 86 -206 100 -86 7 -162 38 -260 107 -58 41 -62 42 -164 48 -96 7
-109 10 -161 42 -32 20 -76 41 -97 48 -44 14 -165 89 -187 116 -8 10 -46 38
-85 64 -70 46 -74 47 -170 53 -297 17 -507 39 -560 58 -76 25 -105 24 -167 -8
-40 -20 -74 -28 -142 -33 -132 -10 -201 1 -258 41 -46 32 -50 33 -189 41 -79
5 -204 17 -278 28 -170 25 -226 24 -320 -4z m1524 -697 c46 -13 131 -89 140
-125 11 -43 -6 -51 -122 -58 -59 -3 -126 -9 -149 -12 -46 -7 -56 1 -130 94
-37 45 -40 63 -17 83 32 26 207 38 278 18z m-589 -89 c7 -23 -20 -167 -42
-223 -18 -45 -51 -57 -88 -33 -32 21 -40 55 -26 111 6 24 11 55 11 68 0 29 34
75 64 87 39 16 74 11 81 -10z m189 14 c29 -11 96 -105 96 -135 0 -43 -52 -95
-136 -136 -88 -43 -104 -37 -104 36 0 35 11 68 46 136 53 104 62 113 98 99z
m-607 -272 c109 -7 113 -9 170 -47 31 -22 68 -55 80 -74 36 -53 30 -81 -28
-145 -41 -45 -62 -59 -105 -72 -35 -10 -69 -13 -94 -9 -28 5 -62 0 -114 -15
-88 -27 -77 -31 -239 98 -120 95 -156 141 -157 199 -1 86 55 93 487 65z m1111
-2 c20 -19 22 -28 18 -113 -2 -51 -7 -99 -11 -107 -3 -8 -42 -42 -86 -74 -76
-57 -121 -101 -163 -161 -24 -34 -111 -75 -195 -91 -111 -21 -134 2 -130 129
1 45 -1 110 -6 144 -8 62 -8 62 27 95 32 31 56 48 188 135 73 48 125 62 241
62 82 1 98 -2 117 -19z m296 -20 c24 -23 15 -62 -27 -122 -109 -154 -131 -173
-176 -148 -19 9 -21 20 -21 93 0 91 17 137 61 170 52 38 126 41 163 7z m328
20 c41 -12 68 -34 68 -55 0 -8 -16 -30 -35 -49 -42 -42 -129 -66 -170 -48 -54
25 -87 128 -47 151 22 14 137 14 184 1z m-2285 -130 c22 -74 -7 -121 -60 -101
-50 19 -59 124 -14 156 30 21 58 0 74 -55z m-2136 -49 l23 -19 -19 -55 c-24
-73 -11 -121 50 -182 40 -41 58 -49 146 -69 15 -3 30 -13 33 -22 17 -45 -64
-68 -214 -62 -145 6 -165 18 -165 104 0 53 -4 65 -38 111 -66 90 -42 165 64
198 61 19 93 18 120 -4z m3040 -281 c22 -12 25 -53 6 -88 -7 -13 -42 -48 -78
-79 -91 -79 -144 -154 -164 -232 -9 -36 -26 -83 -37 -104 -11 -22 -29 -82 -39
-134 -21 -103 -28 -120 -95 -208 -24 -33 -57 -80 -72 -104 -15 -24 -37 -56
-50 -72 -12 -15 -34 -53 -48 -85 -14 -32 -34 -70 -44 -84 -10 -14 -26 -51 -35
-83 -17 -59 -44 -88 -74 -80 -28 7 -41 47 -41 123 0 83 27 295 40 321 6 9 42
55 80 101 39 46 96 121 127 168 31 47 65 95 75 106 35 39 109 178 125 234 8
30 28 78 43 105 16 28 33 68 39 91 15 56 34 70 127 93 96 24 91 23 115 11z
m-415 -55 c21 -32 13 -77 -25 -137 -16 -25 -36 -70 -45 -101 -9 -31 -27 -68
-39 -84 -13 -15 -38 -53 -56 -83 -35 -60 -69 -107 -203 -283 -87 -115 -138
-167 -162 -167 -7 0 -21 9 -32 21 -17 19 -20 44 -26 228 -7 217 -15 273 -48
348 -25 58 -27 134 -2 156 19 17 137 34 329 46 116 8 124 10 179 45 70 43 107
46 130 11z m-2036 -21 c25 -7 86 -20 135 -27 110 -17 130 -27 145 -73 17 -50
8 -138 -16 -165 -23 -25 -71 -21 -111 11 -14 11 -45 29 -68 39 -23 10 -61 32
-84 49 -25 18 -66 36 -99 42 -73 15 -102 34 -102 66 0 28 40 71 73 77 28 6 70
-1 127 -19z m969 -73 c25 -16 64 -34 86 -41 22 -7 54 -23 70 -35 17 -12 54
-34 83 -49 61 -31 82 -67 82 -140 0 -108 -53 -129 -103 -40 -29 49 -41 60
-185 157 -116 77 -159 140 -114 166 25 15 31 14 81 -18z m-255 -38 c17 -20 68
-73 114 -118 45 -44 82 -85 82 -91 0 -27 -27 -34 -135 -34 -61 0 -148 5 -194
10 -133 17 -168 45 -158 128 6 59 34 95 83 106 21 5 57 14 79 21 70 23 94 19
129 -22z"/>
</g>
</svg>
