<?xml version="1.0" standalone="no"?>
<!DOCTYPE svg PUBLIC "-//W3C//DTD SVG 20010904//EN"
 "http://www.w3.org/TR/2001/REC-SVG-20010904/DTD/svg10.dtd">
<svg version="1.0" xmlns="http://www.w3.org/2000/svg"
 width="650.000000pt" height="620.000000pt" viewBox="0 0 650.000000 620.000000"
 preserveAspectRatio="xMidYMid meet">
<metadata>
Created by potrace 1.16, written by Peter Selinger 2001-2019
</metadata>
<g transform="translate(0.000000,620.000000) scale(0.100000,-0.100000)"
fill="#000000" stroke="none">
<path d="M2835 5994 c-22 -8 -58 -30 -80 -50 -76 -69 -182 -132 -243 -144
-117 -23 -136 -35 -359 -222 -25 -22 -55 -38 -69 -38 -14 0 -58 16 -97 35
-101 50 -157 49 -246 -4 -36 -21 -84 -44 -106 -51 -22 -7 -60 -23 -85 -35 -58
-29 -158 -49 -210 -42 -29 4 -54 18 -97 56 -91 82 -126 102 -196 114 -91 15
-135 -3 -240 -102 -45 -43 -129 -119 -187 -170 -153 -135 -207 -201 -221 -270
-6 -31 -24 -96 -39 -146 -16 -49 -36 -116 -45 -148 -13 -49 -26 -68 -80 -121
-70 -69 -91 -106 -75 -136 12 -22 188 -112 253 -129 27 -6 67 -23 89 -37 23
-15 72 -35 110 -45 39 -11 93 -31 121 -46 29 -14 81 -34 117 -44 36 -9 84 -23
108 -30 44 -14 45 -14 354 37 48 7 113 26 145 40 79 36 150 37 218 2 28 -14
88 -33 134 -42 61 -11 102 -26 150 -55 36 -21 80 -42 97 -46 17 -3 41 -16 52
-28 23 -25 93 -163 122 -240 42 -111 160 -201 321 -242 81 -21 74 -17 167
-105 93 -89 180 -160 194 -160 33 0 78 -35 93 -73 17 -43 17 -40 -15 -384 -7
-77 -6 -105 11 -173 22 -94 24 -131 7 -148 -22 -22 -47 -12 -76 31 -29 41 -90
101 -169 164 -49 39 -222 121 -285 134 -65 14 -118 56 -152 120 -16 30 -36 62
-44 72 -16 18 -57 23 -67 7 -3 -5 3 -63 15 -127 33 -186 63 -219 217 -234 75
-8 106 -16 134 -34 20 -13 65 -37 100 -53 71 -32 121 -82 204 -202 28 -40 65
-91 84 -114 118 -144 134 -191 134 -411 0 -145 -3 -159 -47 -310 -22 -71 -30
-132 -42 -295 -8 -113 -21 -243 -30 -290 -19 -111 -39 -231 -58 -355 -8 -55
-26 -125 -39 -155 -67 -150 -55 -270 28 -293 11 -4 148 -11 305 -17 157 -6
312 -16 345 -21 134 -22 135 -23 155 -4 34 30 24 55 -48 125 -37 36 -75 82
-85 102 -34 71 -40 213 -42 878 -1 355 -5 661 -10 680 -4 19 -23 64 -43 99
-59 106 -57 240 5 371 15 31 28 79 31 111 4 48 -1 68 -31 135 -42 94 -68 240
-64 360 2 72 -1 84 -24 120 -33 50 -52 108 -44 133 7 22 113 109 166 136 19
10 52 32 74 50 22 18 65 48 95 68 51 33 62 36 160 42 142 9 227 28 291 63 30
17 82 36 117 42 88 16 299 130 414 226 15 12 52 30 82 38 29 9 59 23 66 31 8
9 34 28 59 42 25 14 64 43 86 64 61 57 77 60 186 35 52 -13 124 -35 161 -49
56 -23 81 -27 166 -27 l99 0 74 55 c41 30 99 72 129 93 59 40 173 126 255 193
28 22 73 57 100 78 28 21 71 61 98 89 40 43 47 57 47 91 0 44 -38 102 -129
196 -77 80 -139 85 -257 19 -44 -24 -74 -34 -106 -34 -62 0 -80 16 -86 79 -7
76 -21 83 -152 75 -93 -5 -111 -4 -163 16 -33 12 -70 20 -85 17 -15 -3 -66
-12 -113 -20 -48 -8 -108 -25 -134 -36 -83 -37 -112 -27 -149 47 -16 31 -16
38 -2 96 21 84 20 103 -8 131 -35 35 -120 56 -243 60 -109 3 -277 39 -309 66
-16 13 -94 129 -117 174 -24 47 -189 213 -219 220 -20 5 -46 -1 -94 -24 -36
-17 -106 -38 -155 -48 -84 -16 -91 -16 -145 1 -32 10 -74 33 -98 55 -82 73
-152 112 -243 136 -48 12 -113 32 -143 43 -48 18 -207 67 -250 77 -8 2 -33 -3
-55 -11z m-615 -1559 c15 -18 5 -81 -20 -123 -39 -64 -99 -81 -150 -43 -16 11
-55 28 -86 36 -127 33 -107 74 45 95 47 6 101 20 120 30 44 23 74 25 91 5z
m1322 -47 c26 -8 51 -26 72 -52 17 -21 61 -71 97 -110 110 -119 169 -196 169
-221 0 -31 -108 -166 -193 -244 -68 -62 -150 -109 -244 -142 -59 -20 -194 -97
-272 -154 -53 -39 -92 -34 -190 28 -47 28 -119 84 -160 123 -83 78 -188 150
-230 158 -161 31 -140 17 -218 150 -77 132 -71 222 23 312 30 29 54 57 54 62
0 16 134 24 425 26 l280 1 70 32 c39 17 79 33 90 36 41 10 189 7 227 -5z m833
-38 c5 -7 -36 -72 -69 -109 -22 -25 -139 -83 -203 -100 -80 -22 -169 -8 -203
34 -8 10 -31 28 -51 41 -44 28 -69 85 -48 110 10 12 27 15 73 12 54 -4 424 18
451 26 13 4 44 -5 50 -14z m485 -59 c39 -18 56 -54 46 -95 -9 -36 -136 -118
-219 -141 -47 -13 -87 -36 -166 -96 -58 -43 -116 -81 -130 -84 -14 -4 -62 -24
-106 -45 -44 -21 -107 -44 -140 -50 -33 -7 -90 -28 -128 -48 -58 -30 -71 -34
-92 -24 -47 22 -33 50 83 163 136 133 164 154 235 172 98 26 210 114 253 198
13 26 29 51 36 56 16 10 197 21 253 15 22 -2 56 -12 75 -21z"/>
</g>
</svg>
