<?xml version="1.0" standalone="no"?>
<!DOCTYPE svg PUBLIC "-//W3C//DTD SVG 20010904//EN"
 "http://www.w3.org/TR/2001/REC-SVG-20010904/DTD/svg10.dtd">
<svg version="1.0" xmlns="http://www.w3.org/2000/svg"
 width="500.000000pt" height="630.000000pt" viewBox="0 0 500.000000 630.000000"
 preserveAspectRatio="xMidYMid meet">
<metadata>
Created by potrace 1.16, written by Peter Selinger 2001-2019
</metadata>
<g transform="translate(0.000000,630.000000) scale(0.100000,-0.100000)"
fill="#000000" stroke="none">
<path d="M1690 6130 c-116 -31 -97 -17 -276 -215 -59 -65 -62 -67 -100 -62
-114 16 -145 19 -168 13 -14 -3 -69 -47 -123 -98 -111 -104 -192 -148 -332
-178 -46 -10 -133 -38 -192 -61 -92 -36 -125 -55 -214 -126 -167 -133 -175
-178 -45 -248 41 -22 93 -58 116 -80 35 -33 44 -51 57 -108 26 -115 64 -151
177 -162 100 -10 134 -34 191 -135 58 -103 112 -155 186 -176 31 -9 78 -26
107 -39 61 -27 271 -97 340 -114 27 -6 61 -20 75 -31 37 -26 233 -117 270
-125 17 -4 85 -34 151 -67 87 -43 139 -63 188 -70 134 -21 174 -36 223 -87 39
-41 48 -58 62 -119 9 -39 26 -91 38 -114 18 -34 24 -69 29 -168 8 -139 22
-181 80 -235 54 -51 69 -80 85 -161 17 -91 67 -182 152 -277 33 -37 72 -96 96
-147 39 -80 41 -92 53 -230 10 -126 16 -154 40 -205 28 -58 29 -65 29 -210 l0
-150 -70 -125 -70 -125 -5 -260 c-3 -143 -9 -266 -13 -272 -21 -32 -66 7 -88
75 -6 20 -26 66 -44 102 -18 36 -38 83 -45 105 -7 22 -26 65 -42 96 -15 31
-28 62 -28 68 0 6 -15 44 -34 84 -25 52 -38 97 -46 162 -6 50 -22 126 -35 170
-13 44 -29 120 -35 169 -7 53 -20 107 -34 135 -13 25 -31 71 -41 101 -10 30
-30 80 -46 110 -16 30 -43 88 -60 127 -38 87 -32 103 40 103 55 0 160 46 185
81 25 36 20 90 -12 135 -55 76 -139 142 -248 195 -151 75 -155 93 -45 183 92
74 113 110 119 201 6 98 -15 136 -128 224 -47 36 -116 93 -155 127 -108 94
-120 98 -260 99 -66 0 -158 -2 -205 -5 -75 -4 -97 -1 -185 27 -55 18 -146 44
-201 59 l-102 27 -128 -22 c-71 -13 -190 -26 -264 -30 -108 -6 -143 -12 -177
-29 -73 -38 -115 -122 -93 -187 9 -26 30 -47 85 -86 79 -54 88 -69 99 -163 8
-62 46 -128 88 -154 18 -11 60 -27 92 -37 106 -30 166 -68 256 -162 99 -101
150 -130 365 -203 44 -15 98 -37 121 -49 22 -11 67 -26 100 -32 32 -5 86 -23
119 -39 33 -16 85 -40 115 -53 75 -32 117 -72 182 -169 51 -77 148 -264 148
-286 0 -6 16 -43 35 -83 23 -50 38 -100 44 -154 6 -44 22 -115 36 -158 14 -45
29 -121 34 -182 7 -74 16 -120 35 -162 14 -32 36 -87 50 -123 24 -65 47 -122
94 -235 13 -33 35 -87 47 -120 13 -33 37 -88 54 -122 17 -33 31 -65 31 -72 0
-13 37 -93 138 -301 74 -151 76 -157 76 -230 -1 -57 -7 -92 -27 -144 -33 -83
-35 -153 -7 -188 32 -41 71 -52 171 -45 111 7 157 27 183 81 l19 39 -27 91
-26 92 1 485 c0 266 4 547 8 624 8 135 10 143 48 225 27 56 61 107 100 150 70
76 115 142 131 189 7 18 33 69 58 111 49 84 181 222 228 240 30 11 484 -3 660
-20 218 -22 267 -10 355 86 76 83 79 137 12 207 -46 49 -74 63 -166 87 -132
34 -176 64 -278 193 -101 128 -107 137 -107 174 0 38 24 57 85 68 67 12 110
40 149 99 51 77 68 122 70 183 2 101 -30 112 -344 113 -157 0 -229 4 -265 15
-178 51 -228 70 -295 112 -132 81 -153 90 -234 102 -90 13 -96 15 -96 41 0 45
32 51 317 60 287 9 309 13 424 71 75 37 99 69 99 129 0 56 -23 82 -93 106 -56
19 -65 30 -43 52 15 15 60 18 379 22 339 5 364 6 395 25 44 26 132 168 139
224 5 39 3 44 -41 84 -26 25 -46 52 -46 64 0 11 14 37 30 58 17 21 33 49 36
62 7 27 -10 75 -35 97 -27 25 -173 85 -232 96 -64 12 -228 -2 -339 -29 -112
-28 -150 -32 -210 -21 -165 30 -258 34 -373 17 -61 -9 -137 -19 -167 -23 -69
-8 -147 -38 -258 -102 -92 -53 -186 -91 -198 -80 -3 4 6 29 21 55 16 26 41 72
57 101 46 81 60 86 279 88 205 2 317 23 375 69 28 22 29 27 32 117 5 122 10
128 115 128 44 0 119 -5 166 -12 101 -13 150 -6 188 27 25 21 28 30 30 97 1
40 6 89 12 108 27 87 -2 147 -84 170 -72 20 -136 9 -228 -41 l-82 -44 -125 0
c-100 0 -132 4 -158 18 -18 10 -125 102 -238 205 -113 103 -220 196 -237 207
-26 16 -58 20 -206 26 -97 4 -200 13 -230 18 -127 25 -265 1 -401 -69 -67 -35
-165 -33 -245 4 -79 37 -225 86 -250 85 -11 -1 -67 -14 -125 -29z m271 -1295
c27 -14 82 -37 122 -52 97 -35 146 -70 185 -136 33 -55 34 -57 44 -236 5 -100
8 -188 4 -196 -11 -29 -44 -15 -88 36 -102 120 -136 154 -185 186 -37 23 -67
55 -99 104 -85 128 -129 162 -157 118 -11 -18 -6 -30 78 -184 21 -38 58 -92
82 -119 78 -88 58 -94 -109 -32 -51 19 -111 39 -133 45 -22 6 -65 25 -95 43
-88 53 -174 88 -255 103 -42 8 -107 28 -143 44 -37 16 -94 32 -127 36 -87 10
-118 29 -190 113 -68 79 -80 113 -46 132 32 16 164 11 253 -10 110 -26 232
-25 428 5 85 12 206 23 268 24 102 1 117 -1 163 -24z m622 -377 c37 -75 34
-231 -5 -270 -20 -20 -21 -20 -39 -1 -32 32 -54 274 -27 301 22 22 52 9 71
-30z m253 -355 c21 -15 62 -42 89 -61 59 -40 93 -70 106 -94 19 -34 -55 -138
-98 -138 -30 0 -153 115 -177 165 -29 60 -15 155 22 155 11 0 37 -12 58 -27z
m-104 -432 c31 -36 85 -188 108 -303 18 -93 53 -164 125 -258 94 -123 95 -169
2 -107 -59 38 -135 141 -162 216 -8 23 -27 61 -43 84 -114 167 -139 257 -105
380 7 27 48 21 75 -12z m436 -214 c68 -51 97 -94 122 -178 11 -37 29 -78 41
-93 50 -64 -6 -114 -69 -61 -58 49 -142 186 -167 274 -36 123 -25 132 73 58z
m334 -894 c32 -29 22 -62 -35 -120 -54 -54 -83 -65 -93 -38 -9 22 34 153 54
164 25 15 53 13 74 -6z"/>
</g>
</svg>
