<?xml version="1.0" standalone="no"?>
<!DOCTYPE svg PUBLIC "-//W3C//DTD SVG 20010904//EN"
 "http://www.w3.org/TR/2001/REC-SVG-20010904/DTD/svg10.dtd">
<svg version="1.0" xmlns="http://www.w3.org/2000/svg"
 width="630.000000pt" height="600.000000pt" viewBox="0 0 630.000000 600.000000"
 preserveAspectRatio="xMidYMid meet">
<metadata>
Created by potrace 1.16, written by Peter Selinger 2001-2019
</metadata>
<g transform="translate(0.000000,600.000000) scale(0.100000,-0.100000)"
fill="#000000" stroke="none">
<path d="M3230 5756 c-70 -26 -146 -70 -196 -112 -71 -61 -146 -92 -275 -116
-151 -27 -298 -79 -389 -138 -52 -34 -103 -56 -165 -74 -82 -23 -285 -118
-458 -216 -45 -24 -86 -37 -174 -52 -64 -10 -134 -28 -157 -40 -22 -11 -95
-76 -161 -143 -67 -67 -139 -134 -160 -148 -24 -16 -83 -36 -148 -51 -60 -14
-127 -37 -151 -51 -72 -42 -167 -136 -223 -220 -96 -144 -157 -229 -226 -315
-83 -104 -121 -177 -111 -214 18 -71 118 -75 224 -9 36 23 104 57 152 77 152
63 180 47 159 -89 -31 -208 -5 -274 144 -374 62 -41 90 -53 172 -71 63 -14
134 -39 198 -70 65 -31 130 -54 185 -65 47 -9 130 -37 185 -60 55 -24 132 -49
170 -55 39 -6 97 -16 130 -22 33 -5 104 -30 158 -55 70 -32 128 -50 205 -64
128 -23 209 -60 287 -131 55 -50 94 -118 175 -305 22 -50 92 -125 217 -233 77
-66 78 -162 2 -244 -55 -61 -76 -116 -84 -221 -10 -140 7 -243 56 -339 23 -45
58 -126 77 -181 34 -96 35 -106 37 -250 2 -140 4 -157 35 -250 28 -84 34 -119
37 -220 5 -113 4 -122 -19 -155 -15 -22 -45 -46 -84 -65 -34 -16 -69 -36 -78
-44 -22 -19 -20 -54 5 -77 19 -17 35 -19 185 -16 123 2 183 8 237 22 92 25
136 25 217 0 211 -64 244 43 101 330 -32 63 -64 131 -71 150 -7 19 -37 69 -65
110 -29 41 -57 90 -63 109 -32 92 4 344 69 501 80 192 85 342 13 432 -128 160
-149 193 -149 234 0 70 92 158 215 205 81 31 257 156 309 218 21 25 51 69 67
96 37 65 192 220 272 273 42 27 78 43 110 47 145 17 189 27 222 49 39 26 149
133 223 217 56 64 236 244 325 325 35 32 98 77 140 99 65 34 85 52 129 110 69
93 98 107 238 116 122 7 142 15 220 79 27 23 62 48 77 56 33 17 48 43 48 82 0
37 -75 190 -131 267 -24 33 -57 79 -72 102 -15 24 -66 87 -114 140 -68 77 -96
118 -133 198 -51 107 -98 163 -161 189 -21 9 -97 19 -175 25 -148 11 -189 21
-275 69 -30 17 -96 42 -146 56 -51 13 -126 42 -165 64 -40 22 -108 50 -151 62
-43 12 -115 39 -161 61 -59 29 -119 47 -210 65 -76 15 -164 41 -220 64 -51 21
-137 50 -190 64 -98 24 -111 31 -225 118 -104 79 -206 105 -291 74z m-1930
-1604 c48 -24 77 -72 86 -140 3 -31 19 -97 35 -147 44 -141 59 -209 59 -265 0
-44 -4 -56 -31 -82 -28 -28 -34 -30 -83 -25 -105 11 -214 47 -292 98 -114 75
-116 81 -111 280 7 262 33 296 222 298 58 1 90 -4 115 -17z m3742 -313 c30
-16 61 -94 54 -134 -7 -38 -56 -85 -87 -85 -30 0 -84 25 -108 51 -15 17 -21
36 -21 72 0 40 5 53 29 78 23 23 38 29 71 29 23 0 50 -5 62 -11z m-368 -74
c38 -18 132 -138 152 -192 16 -45 18 -163 4 -215 -11 -38 -22 -49 -165 -164
-95 -77 -135 -93 -259 -104 -63 -5 -119 -16 -138 -26 -76 -39 -182 -130 -315
-271 -112 -117 -166 -165 -249 -221 -97 -66 -110 -72 -157 -72 -88 0 -109 44
-61 126 35 59 30 118 -15 177 -48 63 -58 93 -75 215 -11 79 -13 125 -7 154 20
88 85 107 166 49 62 -45 103 -53 199 -40 82 11 403 76 513 105 65 17 201 94
242 137 33 36 30 89 -8 166 -48 94 -38 160 29 184 31 11 113 6 144 -8z m-2924
-67 c170 -121 269 -189 384 -263 25 -16 55 -21 161 -26 73 -3 142 -11 157 -19
36 -17 55 -63 39 -96 -20 -44 -65 -55 -184 -44 -131 11 -146 15 -231 58 -45
22 -111 43 -184 58 -123 25 -183 53 -226 105 -40 47 -56 94 -56 163 0 114 41
133 140 64z m1015 -62 c8 -12 21 -52 29 -90 17 -83 38 -113 100 -147 40 -22
65 -27 145 -31 180 -9 209 -39 221 -238 8 -138 7 -132 89 -285 50 -92 36 -151
-62 -267 -51 -61 -82 -78 -143 -78 -61 0 -97 23 -163 105 -63 77 -76 112 -91
231 -15 122 -23 149 -70 227 -22 37 -55 104 -72 149 -17 46 -46 104 -65 129
-61 86 -80 189 -48 265 25 59 100 77 130 30z m509 -1596 c19 -17 49 -53 67
-81 41 -64 42 -123 6 -235 -14 -43 -31 -106 -38 -138 -20 -94 -66 -134 -121
-105 -30 16 -46 66 -64 201 -22 170 -2 311 51 364 32 32 57 30 99 -6z"/>
</g>
</svg>
