<?xml version="1.0" standalone="no"?>
<!DOCTYPE svg PUBLIC "-//W3C//DTD SVG 20010904//EN"
 "http://www.w3.org/TR/2001/REC-SVG-20010904/DTD/svg10.dtd">
<svg version="1.0" xmlns="http://www.w3.org/2000/svg"
 width="140.000000pt" height="264.000000pt" viewBox="0 0 140.000000 264.000000"
 preserveAspectRatio="xMidYMid meet">
<metadata>
Created by potrace 1.16, written by Peter Selinger 2001-2019
</metadata>
<g transform="translate(0.000000,264.000000) scale(0.100000,-0.100000)"
fill="#000000" stroke="none">
<path d="M80 2567 c-22 -11 -25 -19 -23 -61 1 -26 8 -58 17 -71 13 -20 16 -60
16 -236 0 -210 3 -238 38 -319 26 -60 35 -102 42 -210 5 -58 11 -121 15 -140
9 -45 126 -284 147 -300 3 -3 30 -37 59 -75 57 -77 79 -122 79 -159 0 -14 5
-28 10 -31 6 -3 10 -33 10 -66 0 -65 -34 -151 -84 -212 -148 -183 -147 -181
-173 -336 -7 -45 24 -152 60 -204 32 -47 132 -97 193 -97 24 0 106 40 121 59
46 60 42 150 -9 190 -43 34 -79 36 -110 7 -50 -48 -45 -92 12 -98 22 -3 25 1
25 27 0 39 33 41 54 3 14 -24 13 -29 -4 -61 -34 -64 -83 -74 -182 -37 -33 12
-83 74 -83 103 0 10 -5 26 -12 37 -9 15 -9 36 1 97 13 80 30 112 109 203 18
21 53 78 77 126 45 88 45 89 45 194 0 114 6 130 49 130 22 0 124 -28 194 -53
37 -13 61 -60 52 -101 -4 -17 -8 -89 -9 -161 l-1 -130 30 -15 c17 -9 42 -23
56 -33 14 -10 32 -15 40 -12 19 7 31 -4 51 -48 23 -48 38 -47 38 2 0 44 -32
83 -107 132 -26 18 -42 37 -46 55 -6 30 9 144 23 179 23 55 33 106 34 171 1
77 -17 114 -56 114 -10 0 -18 5 -18 10 0 6 -5 10 -10 10 -16 0 -90 49 -90 59
0 10 30 22 120 52 l55 18 45 -50 c57 -63 80 -95 103 -141 27 -54 68 -53 127 2
24 22 47 40 51 40 4 0 7 12 6 27 -2 26 1 28 41 31 34 3 43 7 40 20 -2 11 -15
18 -37 20 -52 5 -72 -4 -124 -55 l-49 -48 -24 30 c-13 17 -24 36 -24 42 0 24
-81 181 -105 203 -22 20 -31 22 -82 16 -32 -4 -62 -11 -67 -16 -6 -6 -20 -10
-32 -10 -13 0 -26 -4 -29 -10 -3 -5 -24 -10 -45 -10 -21 0 -41 -4 -44 -9 -7
-11 -56 -20 -73 -14 -20 8 -34 39 -48 107 -21 99 0 117 133 115 98 -1 78 -9
239 95 40 25 76 46 80 46 5 0 26 14 46 31 29 24 41 29 50 20 15 -15 27 -14 27
3 0 23 38 30 65 12 14 -9 25 -21 25 -26 0 -6 5 -10 10 -10 6 0 10 13 10 30 0
39 -40 60 -115 60 -42 0 -65 -6 -95 -25 -22 -14 -40 -29 -40 -33 0 -5 -17 -16
-37 -26 -21 -10 -68 -36 -106 -58 l-67 -41 -58 19 c-33 11 -85 19 -124 19 -75
0 -96 16 -57 46 19 14 21 22 15 80 -9 78 -28 118 -72 149 -60 41 -145 10 -197
-71 -11 -16 -23 -29 -29 -29 -5 0 -18 19 -29 43 -12 23 -31 62 -45 87 -19 36
-24 60 -24 122 0 42 -7 109 -15 149 -9 40 -13 79 -10 87 2 7 0 34 -5 59 -12
53 4 103 32 103 12 0 18 8 18 25 0 41 -58 58 -110 32z"/>
</g>
</svg>
