<?xml version="1.0" standalone="no"?>
<!DOCTYPE svg PUBLIC "-//W3C//DTD SVG 20010904//EN"
 "http://www.w3.org/TR/2001/REC-SVG-20010904/DTD/svg10.dtd">
<svg version="1.0" xmlns="http://www.w3.org/2000/svg"
 width="162.000000pt" height="188.000000pt" viewBox="0 0 162.000000 188.000000"
 preserveAspectRatio="xMidYMid meet">
<metadata>
Created by potrace 1.16, written by Peter Selinger 2001-2019
</metadata>
<g transform="translate(0.000000,188.000000) scale(0.100000,-0.100000)"
fill="#000000" stroke="none">
<path d="M352 1804 c-77 -38 -101 -98 -67 -164 13 -25 22 -30 51 -30 45 0 74
16 74 40 0 23 -4 24 -30 10 -20 -11 -50 10 -50 34 0 26 49 58 95 64 41 4 50 1
76 -24 68 -65 14 -151 -141 -220 -188 -84 -248 -139 -290 -264 -22 -66 -26
-145 -9 -187 29 -71 40 -91 52 -102 26 -21 130 -51 177 -51 25 0 54 -6 65 -13
17 -13 17 -16 0 -60 -22 -58 -14 -157 20 -231 12 -28 25 -68 28 -88 5 -34 1
-44 -46 -100 -28 -35 -81 -95 -119 -134 -100 -106 -92 -145 33 -165 41 -6 98
-19 128 -30 55 -19 71 -18 71 5 0 27 -32 45 -157 89 -41 15 -41 29 -3 59 70
53 185 160 202 188 10 17 18 39 18 50 0 10 7 25 15 34 13 13 21 12 72 -10 92
-40 103 -64 106 -244 1 -36 -2 -92 -7 -125 -8 -58 -7 -61 15 -71 13 -6 40 -9
59 -7 19 2 68 7 109 11 93 9 79 25 -55 61 -41 11 -60 33 -48 52 3 6 10 47 14
92 5 45 12 107 16 139 6 49 3 63 -19 109 -15 28 -24 56 -21 60 9 15 180 11
193 -4 6 -8 9 -16 6 -19 -3 -2 -12 -38 -20 -80 -14 -68 -14 -79 0 -119 30 -84
45 -150 45 -204 0 -67 10 -71 109 -50 40 8 87 15 104 15 30 1 31 1 13 15 -13
10 -43 15 -85 15 -36 0 -72 4 -80 9 -10 6 -15 40 -18 120 -4 91 -1 118 13 151
29 65 49 54 71 -37 15 -66 27 -90 78 -157 76 -101 117 -131 165 -120 19 4 61
8 93 8 31 1 57 4 57 7 0 15 -83 39 -128 38 -27 -1 -58 3 -69 9 -32 18 -116
171 -115 212 1 19 2 80 4 134 l3 100 33 19 c24 14 57 21 120 23 117 5 148 18
143 62 -1 6 5 12 13 12 8 0 17 9 21 19 9 30 -33 142 -68 179 -27 28 -37 32
-83 32 -40 0 -59 -6 -81 -23 -15 -12 -45 -31 -65 -42 -32 -17 -42 -18 -71 -7
-18 7 -50 12 -70 12 -20 0 -46 4 -59 9 -59 25 -308 100 -350 106 -48 7 -185
-11 -202 -27 -6 -4 -67 -8 -136 -8 -140 0 -170 9 -214 60 -52 63 -38 211 28
284 26 29 99 75 166 106 8 4 25 12 37 18 13 7 30 12 39 12 19 0 78 34 112 64
34 29 72 109 72 148 0 49 -33 94 -89 123 -63 31 -102 31 -169 -1z"/>
</g>
</svg>
