<?xml version="1.0" standalone="no"?>
<!DOCTYPE svg PUBLIC "-//W3C//DTD SVG 20010904//EN"
 "http://www.w3.org/TR/2001/REC-SVG-20010904/DTD/svg10.dtd">
<svg version="1.0" xmlns="http://www.w3.org/2000/svg"
 width="142.000000pt" height="122.000000pt" viewBox="0 0 142.000000 122.000000"
 preserveAspectRatio="xMidYMid meet">
<metadata>
Created by potrace 1.16, written by Peter Selinger 2001-2019
</metadata>
<g transform="translate(0.000000,122.000000) scale(0.100000,-0.100000)"
fill="#000000" stroke="none">
<path d="M843 1156 c-62 -35 -93 -84 -93 -149 0 -64 -17 -90 -140 -212 -108
-107 -140 -150 -140 -186 0 -10 -4 -20 -9 -23 -11 -7 -21 -45 -32 -131 -20
-144 -21 -176 -9 -206 12 -28 11 -32 -21 -65 -33 -34 -62 -43 -74 -24 -3 6
-16 10 -27 10 -27 0 -108 81 -108 108 0 11 -4 24 -10 27 -5 3 -10 30 -10 60 0
58 35 137 105 233 19 27 35 53 35 57 0 5 8 17 17 27 9 10 23 36 30 56 17 48
17 205 1 235 -37 65 -88 97 -152 96 -43 0 -95 -25 -106 -49 -4 -8 -12 -25 -18
-37 -16 -31 -15 -64 4 -101 15 -30 18 -32 73 -32 67 0 91 18 91 68 0 25 -4 32
-19 32 -12 0 -21 -8 -23 -21 -8 -54 -90 -49 -96 5 -5 43 50 96 99 96 30 0 43
-7 78 -45 41 -44 41 -45 41 -124 0 -68 -4 -88 -26 -128 -15 -26 -36 -58 -47
-70 -11 -12 -25 -31 -31 -42 -6 -10 -26 -40 -43 -66 -18 -25 -33 -50 -33 -56
0 -5 -4 -17 -9 -27 -32 -64 -38 -121 -17 -197 27 -104 85 -171 164 -192 67
-17 95 -16 140 8 39 21 40 21 68 3 62 -41 143 -55 175 -31 21 16 59 82 59 102
0 8 3 15 8 15 9 0 30 46 38 88 8 40 20 41 27 2 4 -19 0 -43 -12 -67 -70 -140
-68 -147 45 -151 43 -2 88 2 99 7 11 6 36 12 55 13 38 3 50 30 15 36 -11 2
-29 7 -40 12 -11 5 -42 11 -70 12 -45 3 -50 5 -48 26 2 12 15 41 30 65 85 131
108 206 90 290 -7 33 -6 37 13 37 11 0 28 4 38 9 120 62 157 75 208 74 30 -1
56 3 59 8 4 5 16 9 29 9 26 0 64 25 53 36 -4 4 -19 1 -33 -6 -20 -11 -29 -12
-44 -2 -35 21 -98 14 -157 -18 -30 -16 -66 -30 -79 -30 -14 0 -34 -5 -44 -10
-13 -7 -21 -7 -25 1 -8 12 42 69 60 69 7 0 20 9 30 20 13 14 31 20 60 20 26 0
48 6 55 16 19 22 80 45 103 38 14 -4 18 -2 15 7 -6 17 -96 25 -111 10 -6 -6
-18 -11 -26 -11 -13 0 -146 -59 -203 -90 -28 -16 -40 12 -35 85 4 72 13 85 59
85 54 0 77 106 38 175 -11 20 -20 44 -20 53 0 10 -13 30 -28 45 -22 22 -37 27
-73 26 -24 -1 -54 -7 -66 -13z"/>
</g>
</svg>
