<?xml version="1.0" standalone="no"?>
<!DOCTYPE svg PUBLIC "-//W3C//DTD SVG 20010904//EN"
 "http://www.w3.org/TR/2001/REC-SVG-20010904/DTD/svg10.dtd">
<svg version="1.0" xmlns="http://www.w3.org/2000/svg"
 width="164.000000pt" height="124.000000pt" viewBox="0 0 164.000000 124.000000"
 preserveAspectRatio="xMidYMid meet">
<metadata>
Created by potrace 1.16, written by Peter Selinger 2001-2019
</metadata>
<g transform="translate(0.000000,124.000000) scale(0.100000,-0.100000)"
fill="#000000" stroke="none">
<path d="M363 1173 c-12 -2 -38 -22 -57 -44 -30 -32 -36 -47 -36 -82 0 -59 24
-81 90 -81 56 0 90 23 90 61 0 28 -11 30 -28 3 -9 -14 -23 -20 -50 -20 -69 0
-81 38 -29 88 27 26 41 32 78 32 40 0 50 -5 89 -45 48 -49 48 -35 1 -134 -9
-18 -27 -41 -39 -50 -13 -9 -40 -30 -60 -47 -21 -17 -53 -39 -72 -49 -93 -48
-211 -159 -244 -230 -43 -92 -46 -106 -46 -186 0 -94 29 -166 77 -188 15 -7
36 -18 46 -23 11 -5 55 -8 100 -7 45 2 82 -1 84 -6 23 -67 74 -99 156 -97 31
1 61 3 66 6 4 3 22 35 40 70 34 70 47 84 63 68 6 -6 6 -12 -1 -16 -6 -4 -11
-14 -11 -22 0 -8 -9 -28 -21 -43 -11 -16 -19 -39 -17 -52 3 -21 9 -24 52 -27
27 -2 54 2 59 7 6 6 25 11 42 11 17 0 35 4 41 9 5 6 34 11 64 13 41 2 55 7 55
18 0 8 -9 16 -20 18 -11 2 -30 8 -42 14 -12 6 -44 8 -72 6 -64 -6 -65 5 -10
66 22 24 50 62 61 83 25 48 47 73 64 73 25 0 70 -34 108 -82 27 -35 58 -59
100 -80 67 -32 102 -56 156 -106 31 -29 40 -32 97 -32 35 0 63 4 63 8 0 10
-45 32 -66 32 -8 0 -29 7 -47 16 -30 16 -48 30 -165 131 -29 25 -42 43 -40 57
4 25 42 25 69 0 10 -9 39 -27 65 -40 l48 -24 35 33 c36 33 65 55 125 90 l30
19 23 -29 c13 -15 23 -35 23 -43 0 -11 6 -9 22 7 19 19 20 25 9 45 -38 70 -66
80 -113 40 -36 -32 -117 -75 -159 -85 -21 -5 -34 2 -80 49 -43 43 -51 57 -39
64 8 5 19 6 25 2 5 -4 22 -7 37 -8 31 -2 63 26 109 94 58 86 27 202 -56 202
-17 0 -36 5 -41 10 -12 12 -71 -6 -137 -44 -41 -22 -59 -25 -194 -30 -160 -5
-230 -13 -239 -27 -3 -5 -13 -9 -24 -9 -33 0 -103 -44 -172 -109 -37 -35 -68
-69 -68 -76 0 -7 -6 -18 -14 -24 -7 -6 -21 -33 -31 -59 -10 -26 -36 -66 -58
-89 -37 -38 -46 -43 -86 -43 -40 0 -51 5 -88 42 l-43 42 0 87 c0 49 4 91 10
94 5 3 10 14 10 24 0 55 126 188 221 234 32 15 62 34 69 42 7 8 18 15 24 15
18 0 113 96 130 132 9 18 16 57 16 93 0 54 -3 64 -27 87 -16 14 -37 30 -48 36
-24 12 -121 22 -152 15z"/>
</g>
</svg>
