<?xml version="1.0" standalone="no"?>
<!DOCTYPE svg PUBLIC "-//W3C//DTD SVG 20010904//EN"
 "http://www.w3.org/TR/2001/REC-SVG-20010904/DTD/svg10.dtd">
<svg version="1.0" xmlns="http://www.w3.org/2000/svg"
 width="134.000000pt" height="246.000000pt" viewBox="0 0 134.000000 246.000000"
 preserveAspectRatio="xMidYMid meet">
<metadata>
Created by potrace 1.16, written by Peter Selinger 2001-2019
</metadata>
<g transform="translate(0.000000,246.000000) scale(0.100000,-0.100000)"
fill="#000000" stroke="none">
<path d="M730 2368 c-25 -42 -27 -101 -3 -96 9 2 21 18 25 36 11 41 44 44 60
5 22 -55 47 -747 28 -767 -3 -2 -38 -12 -78 -20 -45 -9 -85 -25 -107 -42 -40
-30 -65 -26 -65 10 0 14 -4 27 -9 30 -11 7 -21 70 -24 155 -2 52 -6 66 -23 78
-19 12 -28 12 -73 -3 -28 -9 -60 -14 -71 -11 -11 3 -23 1 -26 -4 -3 -5 -16 -9
-30 -9 -16 0 -23 -4 -18 -11 12 -20 -19 -29 -38 -12 -23 21 -34 10 -20 -21 10
-22 15 -24 73 -20 35 2 78 9 97 15 27 9 37 8 47 -2 16 -18 48 -206 47 -278 -2
-64 -14 -83 -50 -74 -43 10 -138 70 -156 98 -23 35 -63 33 -104 -5 -18 -16
-41 -30 -52 -30 -10 0 -20 -6 -23 -14 -4 -10 -17 -14 -41 -11 -42 4 -45 -3
-13 -33 29 -27 79 -29 115 -3 65 45 66 45 126 -5 31 -25 56 -42 56 -39 0 8 49
-26 110 -76 25 -20 53 -39 63 -42 22 -8 58 6 115 44 54 36 66 28 57 -41 -9
-72 -9 -113 3 -150 25 -80 34 -129 28 -153 -3 -14 -40 -62 -82 -107 -70 -73
-77 -86 -81 -128 -3 -26 3 -85 12 -132 33 -160 32 -193 -5 -203 -11 -3 -20
-12 -20 -21 0 -23 -37 -20 -43 4 -8 30 -27 24 -27 -9 0 -41 22 -55 76 -48 63
7 108 49 99 92 -4 17 -8 75 -9 130 -1 55 -5 114 -10 132 -7 31 -5 34 46 66 29
19 62 45 73 57 30 34 73 52 105 45 25 -6 28 -10 32 -62 3 -30 1 -74 -3 -97
-16 -81 -10 -148 15 -191 14 -22 35 -63 49 -91 13 -27 41 -74 61 -103 35 -49
36 -54 22 -70 -26 -28 -94 -47 -117 -33 -25 16 -29 15 -29 -7 0 -26 19 -31
109 -31 114 0 126 23 66 136 -19 36 -35 72 -35 80 0 7 -11 47 -25 88 -43 129
-27 283 19 181 3 -5 12 -2 20 9 15 19 25 18 61 -8 33 -23 59 -4 94 68 22 46
31 79 31 115 0 48 -17 81 -42 81 -6 0 -50 41 -98 91 -100 105 -103 112 -120
309 -6 63 -16 131 -22 150 -19 62 -41 110 -55 121 -9 8 -13 42 -13 123 0 144
-18 492 -30 576 -5 36 -12 86 -15 112 -12 99 -93 144 -135 76z"/>
</g>
</svg>
