<?xml version="1.0" standalone="no"?>
<!DOCTYPE svg PUBLIC "-//W3C//DTD SVG 20010904//EN"
 "http://www.w3.org/TR/2001/REC-SVG-20010904/DTD/svg10.dtd">
<svg version="1.0" xmlns="http://www.w3.org/2000/svg"
 width="720.000000pt" height="140.000000pt" viewBox="0 0 720.000000 140.000000"
 preserveAspectRatio="xMidYMid meet">
<metadata>
Created by potrace 1.16, written by Peter Selinger 2001-2019
</metadata>
<g transform="translate(0.000000,140.000000) scale(0.100000,-0.100000)"
fill="#000000" stroke="none">
<path d="M2960 1317 c0 -1 12 -36 26 -77 14 -41 29 -89 33 -106 5 -18 12 -38
17 -45 4 -7 11 -31 15 -54 4 -22 15 -71 24 -110 9 -38 19 -87 22 -107 4 -34 3
-38 -16 -38 -12 0 -21 5 -21 11 0 10 -44 102 -71 148 -40 70 -138 201 -150
201 -14 0 -12 -7 29 -83 21 -40 41 -81 44 -92 4 -11 16 -45 28 -75 12 -30 28
-82 36 -115 8 -33 21 -86 29 -117 8 -32 15 -66 15 -75 0 -18 -103 -133 -118
-133 -5 0 -17 9 -27 20 -14 16 -15 23 -6 34 17 20 6 35 -19 29 -33 -9 -150 78
-150 111 0 10 14 41 30 68 17 26 30 51 30 55 0 3 7 15 17 25 53 59 -58 5 -121
-59 -48 -49 -113 -143 -121 -176 -10 -37 -29 -51 -45 -32 -9 11 -9 27 4 78 9
35 16 74 16 87 0 13 4 37 9 54 5 17 16 60 25 96 20 83 52 200 61 223 4 9 3 17
-3 17 -28 0 -165 -251 -202 -372 -30 -95 -43 -116 -65 -98 -8 7 -15 25 -15 41
0 16 -6 46 -14 66 -7 21 -19 56 -26 78 -17 56 -78 182 -112 232 -15 23 -28 45
-28 48 0 18 -156 192 -165 184 -3 -4 7 -33 23 -65 59 -118 86 -190 107 -286
10 -43 15 -85 11 -93 -10 -27 -33 -16 -49 23 -8 21 -22 44 -31 51 -9 8 -16 18
-16 23 0 15 -80 118 -91 118 -6 0 -9 -6 -6 -12 78 -183 101 -278 66 -266 -9 3
-60 85 -86 139 -28 56 -216 255 -232 245 -7 -4 4 -29 28 -64 39 -58 143 -266
155 -312 4 -14 14 -50 22 -80 9 -30 20 -77 25 -105 5 -27 13 -70 18 -94 15
-73 -12 -98 -46 -43 -9 15 -48 60 -86 99 l-69 73 2 137 c2 171 3 167 -19 113
-30 -71 -50 -159 -57 -242 -3 -43 -9 -78 -12 -78 -9 0 -52 63 -52 76 0 16 -56
144 -69 157 -6 6 -11 18 -11 26 -1 9 -12 34 -25 56 -14 22 -28 47 -31 55 -12
27 -133 208 -144 215 -12 8 -13 -17 -1 -30 8 -9 64 -139 96 -225 7 -19 18 -57
25 -85 6 -27 15 -66 20 -85 14 -56 40 -266 40 -327 0 -92 -21 -231 -37 -245
-23 -18 -29 1 -43 132 -10 92 -10 138 -1 207 6 49 11 102 11 118 0 25 -2 27
-14 15 -20 -22 -46 -108 -46 -154 0 -39 -14 -76 -23 -66 -3 3 -17 30 -32 59
-26 52 -27 62 -26 180 1 112 11 221 22 260 2 7 -1 15 -6 17 -11 4 -75 -144
-75 -174 0 -27 -29 -62 -50 -62 -22 0 -38 29 -64 110 -9 30 -30 82 -46 115
-24 51 -28 56 -29 32 -1 -16 4 -38 11 -50 12 -22 16 -46 38 -217 16 -123 3
-330 -20 -330 -14 0 -31 82 -37 180 -4 64 -10 99 -17 97 -10 -3 -41 -48 -52
-77 -3 -8 -12 -30 -20 -48 -8 -18 -14 -43 -14 -57 0 -30 -10 -55 -21 -55 -9 0
-19 19 -68 133 -23 51 -22 100 4 167 7 19 21 64 30 100 9 36 21 75 26 88 5 13
9 31 9 40 -1 29 -38 -24 -91 -130 -31 -62 -56 -99 -69 -103 -17 -5 -19 -12
-14 -46 4 -22 2 -44 -4 -51 -5 -7 -15 -32 -21 -55 -13 -48 -28 -55 -37 -18 -8
33 2 621 12 659 5 21 4 28 -6 24 -22 -7 -48 -109 -70 -273 -21 -152 -35 -210
-52 -213 -13 -2 -18 6 -23 35 -8 53 -36 146 -46 158 -5 5 -9 15 -9 23 0 52
-198 363 -252 396 -33 20 -29 -3 11 -64 55 -82 147 -272 165 -340 8 -30 19
-68 25 -85 31 -96 41 -171 41 -312 0 -147 -5 -193 -20 -193 -11 0 -30 57 -30
90 0 14 -6 46 -14 71 -7 24 -19 69 -26 99 -33 149 -174 450 -210 450 -10 0 13
-68 36 -105 6 -11 24 -58 39 -105 15 -47 34 -103 41 -125 19 -56 38 -184 30
-193 -8 -7 -32 19 -81 90 -42 60 -155 177 -187 194 -25 13 -28 13 -28 -1 0 -9
11 -26 25 -38 26 -23 132 -225 166 -317 11 -30 24 -59 28 -65 14 -17 23 -115
11 -115 -5 0 -10 7 -10 16 0 9 -10 29 -22 44 -20 24 -58 82 -95 143 -23 41
-97 111 -101 98 -2 -7 0 -16 6 -20 6 -3 22 -38 37 -77 21 -57 24 -75 15 -98
-12 -32 -25 -27 -44 17 -13 29 -14 13 -15 -160 l-1 -193 3600 0 3600 0 0 175
c0 96 -3 175 -7 175 -5 0 -21 21 -37 46 l-29 46 22 43 c12 23 28 48 36 55 16
14 21 60 6 60 -5 0 -34 -23 -65 -51 -59 -53 -77 -57 -110 -20 -17 18 -16 21 8
60 14 22 26 43 26 47 0 13 95 160 122 189 35 39 38 59 5 42 -71 -37 -308 -282
-342 -354 -10 -21 -23 -33 -35 -33 -24 0 -25 16 -6 67 7 21 19 58 26 83 14 48
62 181 99 274 7 16 9 31 6 35 -15 15 -138 -152 -151 -205 -3 -13 -12 -28 -20
-35 -8 -6 -14 -18 -14 -25 0 -8 -5 -14 -11 -14 -13 0 -3 178 12 218 5 13 9 39
9 58 0 32 12 86 45 209 7 28 17 66 20 85 l7 35 -22 -20 c-12 -11 -31 -40 -42
-65 -11 -25 -31 -68 -44 -97 -13 -28 -24 -61 -24 -72 0 -11 -6 -35 -14 -53 -8
-18 -22 -60 -31 -93 -24 -88 -24 -87 -38 -83 -6 3 -15 24 -18 49 -7 50 -24 99
-63 179 -48 98 -78 143 -135 202 -25 27 -49 48 -53 48 -13 0 -9 -32 6 -49 31
-36 133 -321 140 -391 2 -14 5 -32 9 -40 15 -37 37 -126 37 -149 0 -14 -5 -33
-10 -41 -8 -13 -11 -13 -23 0 -8 8 -27 45 -42 83 -26 63 -27 68 -12 85 24 26
21 32 -12 26 -26 -5 -32 -2 -54 33 -13 21 -32 44 -41 52 -9 7 -16 19 -16 25 0
16 -98 111 -106 103 -4 -3 3 -25 15 -47 16 -32 19 -45 11 -60 -6 -11 -15 -20
-21 -20 -19 0 -128 -112 -166 -171 -21 -32 -41 -59 -46 -59 -10 0 2 133 19
210 27 119 66 246 89 290 23 44 18 56 -11 29 -37 -34 -117 -156 -160 -245 -21
-41 -42 -77 -46 -80 -10 -7 -48 24 -48 39 0 5 -13 29 -30 54 -16 24 -30 47
-30 52 0 4 -11 18 -25 31 -14 13 -25 29 -25 35 0 6 -46 57 -101 113 -125 126
-196 169 -156 95 8 -15 38 -72 66 -127 28 -54 55 -104 59 -110 5 -6 24 -47 42
-91 18 -44 37 -84 41 -90 4 -5 21 -46 39 -90 17 -44 38 -96 46 -115 8 -19 21
-64 30 -100 9 -36 20 -69 25 -75 5 -5 9 -28 9 -51 0 -24 5 -46 10 -49 12 -7
14 -55 3 -55 -10 0 -63 96 -63 113 0 17 -95 205 -115 227 -8 9 -15 20 -15 24
0 23 -159 196 -229 250 -67 51 -111 78 -121 74 -5 -2 20 -37 56 -78 104 -121
214 -294 214 -335 0 -23 -5 -20 -57 36 -26 28 -59 57 -73 64 -16 9 -44 50 -79
117 -53 100 -109 183 -119 173 -3 -2 5 -28 16 -57 11 -29 25 -73 30 -98 6 -25
18 -77 27 -117 l17 -72 -111 -111 c-61 -61 -111 -116 -111 -121 0 -6 -13 -29
-28 -52 -15 -23 -40 -73 -56 -112 -52 -132 -82 -154 -71 -52 6 56 18 88 73
207 18 39 71 122 120 189 18 24 30 46 27 49 -12 12 -163 -77 -199 -117 -11
-12 -26 -21 -34 -21 -25 0 -12 69 58 285 23 72 55 158 72 192 35 70 32 89 -8
52 -34 -31 -114 -135 -114 -147 0 -5 -6 -15 -14 -21 -8 -7 -26 -38 -41 -69
-29 -59 -61 -102 -78 -102 -5 0 -4 7 3 15 7 8 9 22 6 31 -3 9 3 55 14 102 11
48 26 110 32 137 6 28 23 91 39 141 34 108 35 112 9 89 -38 -34 -160 -265
-160 -303 0 -27 -25 -56 -43 -49 -8 3 -18 21 -22 39 -29 129 -101 277 -172
350 -50 51 -72 54 -48 8 8 -16 15 -37 15 -47 0 -10 7 -27 15 -37 8 -11 15 -29
15 -40 0 -11 4 -33 9 -50 35 -114 61 -253 61 -324 0 -50 -24 -70 -53 -45 -21
20 -48 36 -112 67 -36 17 -59 38 -82 74 -43 66 -48 93 -30 150 8 26 18 61 21
77 4 17 9 38 12 48 11 36 -16 15 -48 -38 -18 -30 -39 -55 -48 -55 -8 1 -30 22
-48 48 -18 26 -39 56 -46 67 -8 11 -17 17 -20 14 -6 -5 9 -44 65 -166 24 -53
24 -51 -11 -125 -43 -93 -110 -284 -110 -317 0 -31 -19 -54 -36 -43 -11 7 -33
65 -54 142 -7 25 -24 69 -37 99 -20 45 -22 59 -14 79 14 29 7 42 -24 42 -12 0
-25 6 -28 14 -3 8 -23 38 -43 66 -39 55 -59 52 -31 -4 52 -105 59 -166 24
-217 -13 -19 -26 -41 -29 -50 -4 -9 -24 -29 -45 -45 -58 -42 -183 -165 -199
-197 -15 -27 -54 -38 -54 -14 0 32 104 318 147 402 14 28 29 60 34 73 8 20 7
21 -10 12 -38 -20 -185 -191 -229 -265 -24 -41 -48 -75 -53 -75 -13 0 -2 140
15 205 57 211 80 279 131 377 31 60 31 71 3 63 -23 -7 -138 -113 -138 -127 0
-4 -13 -26 -29 -50 -37 -55 -92 -178 -105 -238 -4 -14 -13 -34 -22 -45 -15
-20 -15 -20 -30 -1 -8 11 -14 32 -14 48 0 15 -6 45 -14 65 -7 21 -19 58 -26
83 -7 25 -18 59 -25 75 -37 84 -45 104 -45 109 0 11 -64 111 -98 154 -28 35
-52 53 -52 39z m3328 -495 c11 -15 23 -44 27 -64 7 -35 5 -37 -67 -97 -40 -34
-80 -74 -89 -89 -19 -33 -59 -43 -59 -15 0 11 4 23 8 28 4 6 16 34 26 63 31
89 99 201 123 202 6 0 21 -13 31 -28z m-3565 -252 c30 -35 26 -64 -12 -87 -14
-9 -47 -37 -73 -61 -78 -75 -79 -46 -3 116 34 71 51 77 88 32z m2625 -125 c4
-141 -23 -312 -52 -327 -19 -10 -121 -7 -132 5 -12 12 29 204 47 222 5 5 9 15
9 22 0 13 55 134 78 171 8 13 22 22 31 20 13 -3 17 -22 19 -113z m163 63 c11
-13 39 -61 61 -108 100 -204 104 -290 12 -290 -49 0 -74 29 -74 87 0 46 -14
174 -28 264 -12 71 -3 84 29 47z m-1595 -13 c6 -15 -22 -313 -32 -347 -7 -22
-20 -23 -28 -2 -14 36 -6 245 12 304 16 58 36 76 48 45z m3102 -7 c18 -18 15
-42 -10 -73 -32 -41 -78 -133 -78 -156 0 -11 -7 -31 -16 -45 -9 -13 -14 -28
-10 -31 8 -9 -34 -53 -50 -53 -22 0 -26 20 -10 45 9 13 16 31 16 39 0 8 6 27
14 43 8 15 18 39 24 53 5 14 19 48 32 75 52 118 62 129 88 103z m-3973 -40
c10 -33 15 -268 6 -268 -13 0 -81 143 -81 171 0 31 44 109 62 109 5 0 10 -6
13 -12z m-1238 -83 c47 -129 67 -215 54 -228 -10 -9 -17 -6 -34 15 -20 25 -37
72 -66 184 -31 118 5 141 46 29z m1007 33 c23 -33 20 -71 -13 -141 -15 -34
-36 -79 -44 -99 -18 -41 -28 -46 -47 -23 -32 38 38 285 80 285 5 0 16 -10 24
-22z"/>
</g>
</svg>
