<?xml version="1.0" standalone="no"?>
<!DOCTYPE svg PUBLIC "-//W3C//DTD SVG 20010904//EN"
 "http://www.w3.org/TR/2001/REC-SVG-20010904/DTD/svg10.dtd">
<svg version="1.0" xmlns="http://www.w3.org/2000/svg"
 width="275.000000pt" height="600.000000pt" viewBox="0 0 275.000000 600.000000"
 preserveAspectRatio="xMidYMid meet">
<metadata>
Created by potrace 1.16, written by Peter Selinger 2001-2019
</metadata>
<g transform="translate(0.000000,600.000000) scale(0.100000,-0.100000)"
fill="#000000" stroke="none">
<path d="M334 5838 c-5 -7 -10 -148 -12 -313 -3 -317 -8 -360 -54 -411 -10
-11 -18 -26 -18 -32 0 -6 -9 -26 -20 -44 -23 -38 -25 -64 -6 -75 7 -4 18 -18
25 -30 6 -13 17 -23 24 -23 7 0 18 -9 25 -20 7 -11 21 -20 32 -20 10 0 24 -8
29 -19 6 -10 23 -21 38 -24 30 -6 49 -20 145 -109 33 -32 64 -58 67 -58 3 0
11 -10 17 -23 6 -12 23 -43 37 -69 26 -45 33 -115 15 -134 -15 -14 -57 8 -109
56 -72 67 -96 79 -160 78 -30 -1 -71 6 -93 16 -46 19 -66 20 -101 4 -40 -18
-31 -51 42 -161 90 -133 119 -152 226 -150 51 2 86 -2 95 -10 8 -7 29 -16 46
-22 25 -8 32 -17 39 -50 12 -54 15 -934 5 -1060 -5 -55 -20 -165 -34 -245 -38
-218 -28 -282 74 -473 45 -85 50 -99 55 -182 4 -49 16 -121 27 -159 54 -188
70 -370 70 -791 0 -192 -5 -413 -10 -491 -13 -207 -71 -420 -140 -517 -21 -29
-42 -65 -45 -80 -6 -24 -3 -27 36 -37 52 -14 120 -8 152 13 21 13 25 26 30 98
6 69 12 89 38 131 l32 50 8 301 c4 166 10 309 13 317 12 33 48 365 57 530 5
96 14 200 19 230 5 30 9 112 9 181 l1 126 41 18 c39 18 42 18 96 0 31 -11 62
-25 69 -33 19 -19 18 -231 -1 -492 -12 -154 -13 -221 -5 -283 6 -45 18 -138
27 -207 22 -167 25 -745 4 -803 -7 -21 -33 -61 -58 -89 -59 -66 -50 -78 62
-78 111 0 115 5 126 152 5 67 3 199 -3 323 -12 230 -5 769 12 930 12 119 57
356 70 369 10 10 109 -138 156 -233 61 -127 69 -163 69 -321 0 -148 -3 -168
-85 -610 -10 -58 -24 -140 -30 -184 -15 -103 -30 -143 -76 -202 -70 -92 -93
-173 -55 -194 11 -5 48 -10 83 -10 83 0 108 17 108 71 0 57 25 108 74 154 43
40 43 41 56 139 9 80 9 115 -1 179 -14 88 -10 117 50 343 17 61 37 163 45 225
9 66 26 141 41 178 14 36 25 78 25 93 0 31 -3 39 -116 280 -76 163 -105 261
-88 297 5 11 31 35 59 53 27 18 59 47 70 65 11 18 23 32 28 33 4 0 15 -19 24
-43 9 -23 53 -112 96 -197 44 -85 107 -209 141 -276 114 -222 161 -423 223
-954 10 -85 18 -225 18 -310 l0 -155 -32 -63 c-51 -97 -49 -102 46 -102 71 0
82 2 95 22 9 12 16 30 16 40 0 10 10 38 22 63 l22 45 -28 112 c-26 102 -28
123 -22 214 7 98 6 107 -27 212 -46 143 -62 228 -88 457 -14 128 -19 215 -14
266 7 81 -2 117 -67 274 -42 101 -51 203 -37 420 8 124 9 269 2 465 l-9 285
-30 65 c-62 130 -197 281 -313 350 -110 65 -308 103 -424 81 -31 -6 -88 -24
-126 -41 -48 -21 -85 -30 -121 -30 -46 0 -56 4 -86 34 -33 33 -34 37 -34 112
-1 44 -5 178 -10 299 -10 241 -7 295 19 295 9 0 31 9 48 20 26 15 48 19 105
18 110 -4 137 14 225 142 79 115 89 150 48 168 -35 16 -59 15 -103 -4 -20 -9
-61 -16 -91 -16 -70 0 -84 -6 -156 -73 -60 -55 -99 -75 -115 -59 -5 5 -10 27
-11 49 -3 68 64 167 182 265 16 14 39 33 50 43 11 10 35 25 53 32 18 8 38 21
46 29 7 9 21 16 31 16 10 0 23 9 29 20 6 11 17 20 26 20 8 0 17 8 21 18 3 9
15 27 26 40 l21 22 -35 66 c-91 176 -82 123 -83 459 -1 203 -5 306 -12 319
-11 19 -12 19 -17 0 -22 -72 -57 -441 -57 -589 0 -102 2 -114 30 -169 17 -32
30 -62 30 -66 0 -9 -79 -60 -95 -60 -7 0 -18 -7 -25 -15 -7 -8 -17 -15 -22
-15 -6 0 -23 -12 -39 -27 -58 -56 -81 -74 -105 -83 -13 -5 -29 -21 -34 -34 -5
-14 -23 -32 -40 -41 -16 -8 -30 -22 -30 -30 0 -8 -13 -26 -29 -40 -15 -14 -33
-42 -39 -63 -38 -125 -162 -120 -201 8 -6 22 -20 45 -31 53 -10 7 -24 25 -30
39 -7 14 -23 31 -36 37 -14 6 -29 22 -34 36 -5 14 -22 30 -37 36 -16 5 -37 19
-48 29 -78 73 -128 110 -149 110 -8 0 -21 6 -28 13 -7 8 -23 19 -36 26 -27 14
-28 38 -2 71 11 14 20 33 20 42 0 9 4 20 10 23 23 14 4 354 -34 623 -14 97
-19 111 -32 90z"/>
</g>
</svg>
