<?xml version="1.0" standalone="no"?>
<!DOCTYPE svg PUBLIC "-//W3C//DTD SVG 20010904//EN"
 "http://www.w3.org/TR/2001/REC-SVG-20010904/DTD/svg10.dtd">
<svg version="1.0" xmlns="http://www.w3.org/2000/svg"
 width="450.000000pt" height="650.000000pt" viewBox="0 0 450.000000 650.000000"
 preserveAspectRatio="xMidYMid meet">
<metadata>
Created by potrace 1.16, written by Peter Selinger 2001-2019
</metadata>
<g transform="translate(0.000000,650.000000) scale(0.100000,-0.100000)"
fill="#000000" stroke="none">
<path d="M2476 6248 c-57 -119 -77 -206 -83 -353 -5 -150 17 -388 38 -401 5
-3 9 -13 9 -23 0 -47 85 -123 162 -145 35 -9 71 -22 82 -27 18 -10 118 -31
166 -34 50 -3 235 -65 275 -92 11 -7 30 -13 43 -13 25 0 73 -29 109 -67 12
-13 31 -23 43 -23 11 0 20 -4 20 -9 0 -5 16 -28 35 -51 19 -23 35 -48 35 -55
0 -7 8 -23 19 -36 10 -13 22 -35 26 -49 4 -13 16 -36 26 -50 10 -14 21 -39 25
-56 5 -27 3 -32 -19 -38 -50 -12 -138 18 -252 88 -33 20 -91 46 -130 57 -38
12 -105 39 -148 61 -43 21 -83 38 -88 36 -5 -2 17 -47 50 -100 32 -54 80 -135
105 -181 25 -46 51 -89 58 -95 8 -6 56 -21 108 -34 l95 -24 3 -51 c2 -38 -4
-68 -23 -114 -15 -34 -33 -101 -40 -148 -8 -47 -22 -111 -31 -141 -35 -122
-123 -239 -221 -297 -87 -51 -122 -54 -401 -42 -291 14 -379 6 -502 -42 -41
-16 -113 -37 -159 -46 -80 -16 -96 -16 -275 1 -105 10 -292 20 -416 23 -264 6
-268 5 -512 -92 -190 -77 -232 -100 -282 -156 -59 -65 -83 -129 -90 -241 -3
-54 -11 -121 -17 -150 -13 -60 -6 -157 15 -196 13 -23 15 -24 16 -7 0 11 7 31
14 44 l13 24 6 -34 c16 -86 30 -290 31 -454 2 -276 -37 -430 -162 -647 -85
-147 -94 -182 -77 -275 21 -108 9 -703 -15 -803 -43 -175 -35 -298 28 -445 44
-101 72 -125 147 -125 72 0 75 9 32 96 -34 68 -39 89 -47 188 -20 240 -9 574
26 766 22 123 31 128 39 24 11 -123 0 -400 -20 -513 -16 -89 -16 -101 1 -205
14 -88 25 -126 56 -184 21 -40 38 -79 38 -87 0 -7 15 -30 34 -49 32 -35 36
-36 102 -36 99 0 104 6 63 76 -18 33 -49 91 -69 130 l-36 71 2 359 c3 395 6
452 35 599 35 178 95 277 287 472 125 128 203 220 287 343 32 47 69 99 82 117
l23 32 83 -28 c202 -68 336 -73 537 -18 74 20 161 45 194 57 72 24 212 46 247
37 26 -7 26 -7 33 -144 4 -76 13 -187 22 -248 30 -227 34 -266 54 -514 26
-328 26 -551 0 -746 -11 -82 -20 -163 -20 -180 0 -16 20 -73 45 -125 24 -52
47 -114 51 -138 9 -59 34 -74 116 -70 55 3 63 6 66 24 2 12 -17 50 -45 90 -26
38 -53 85 -60 104 -19 55 -18 673 3 832 9 67 19 129 24 137 5 9 14 -7 28 -50
25 -77 37 -147 52 -299 12 -124 16 -482 6 -499 -15 -23 14 -89 52 -117 47 -36
56 -47 88 -114 15 -30 31 -58 37 -62 21 -13 122 -19 150 -9 40 16 34 42 -27
108 -58 64 -69 89 -110 268 -67 290 -77 423 -70 918 5 405 12 524 40 717 19
133 37 183 86 242 21 26 51 79 67 117 47 116 86 165 225 288 218 192 273 262
365 469 57 127 73 174 106 301 14 51 32 107 42 125 9 18 19 51 22 73 6 40 6
40 53 43 25 2 94 -4 151 -12 58 -9 135 -16 171 -16 71 0 66 -3 132 73 20 23
37 109 28 148 -6 30 -34 59 -79 82 -42 21 -145 117 -179 166 -18 25 -33 67
-42 113 -18 95 -18 94 12 121 53 44 62 59 84 145 13 48 31 106 42 130 20 48
23 72 9 72 -6 0 -46 -28 -91 -62 -112 -86 -120 -91 -125 -86 -6 6 32 106 51
132 8 11 14 29 14 38 0 21 39 96 93 181 62 97 86 200 54 239 -16 20 -90 48
-129 48 -17 0 -45 4 -62 9 -17 5 -51 15 -76 22 -25 7 -52 19 -61 26 -8 7 -18
13 -22 13 -6 0 -34 28 -124 124 -24 24 -43 50 -43 56 0 7 -11 25 -25 42 -14
16 -25 38 -25 49 0 11 -11 68 -24 127 -14 59 -34 156 -46 217 -39 199 -54 174
-46 -76 5 -174 12 -247 28 -265 5 -7 11 -23 13 -35 4 -23 15 -51 36 -91 5 -10
9 -24 9 -32 0 -8 11 -27 25 -42 14 -15 25 -35 25 -44 0 -10 7 -23 16 -31 8 -7
22 -25 30 -41 8 -15 19 -28 25 -28 6 0 33 -18 59 -40 26 -22 53 -40 60 -40 6
0 24 -6 38 -14 15 -7 54 -22 87 -32 33 -9 63 -19 67 -21 12 -6 -16 -74 -34
-84 -10 -5 -18 -18 -18 -29 0 -11 -9 -24 -20 -30 -11 -6 -20 -17 -20 -25 0 -7
-7 -21 -16 -30 -10 -9 -18 -28 -20 -42 -1 -13 -10 -33 -19 -43 -9 -10 -17 -24
-18 -32 -2 -7 -8 -26 -14 -43 -14 -37 -27 -87 -25 -97 1 -5 -3 -8 -9 -8 -5 0
-15 -14 -21 -30 l-10 -31 -34 33 c-19 18 -34 42 -34 54 0 11 -7 29 -15 40 -8
10 -15 29 -15 41 0 13 -11 30 -24 38 -14 9 -29 29 -34 45 -6 16 -20 33 -31 40
-12 6 -21 16 -21 23 0 7 -12 24 -27 38 -16 14 -51 51 -80 82 -28 32 -58 57
-66 57 -8 0 -34 16 -57 35 -25 21 -53 35 -68 35 -15 0 -45 11 -67 25 -22 13
-56 25 -75 25 -20 0 -46 7 -59 16 -13 9 -51 21 -85 25 -33 5 -86 13 -116 19
-30 7 -77 13 -105 14 -54 3 -91 19 -133 59 -39 37 -49 51 -56 78 -4 13 -11 33
-16 44 -40 95 -43 114 -48 266 -4 129 0 181 18 294 12 75 19 139 17 142 -3 3
-21 -28 -41 -69z"/>
</g>
</svg>
