<?xml version="1.0" standalone="no"?>
<!DOCTYPE svg PUBLIC "-//W3C//DTD SVG 20010904//EN"
 "http://www.w3.org/TR/2001/REC-SVG-20010904/DTD/svg10.dtd">
<svg version="1.0" xmlns="http://www.w3.org/2000/svg"
 width="600.000000pt" height="500.000000pt" viewBox="0 0 600.000000 500.000000"
 preserveAspectRatio="xMidYMid meet">
<metadata>
Created by potrace 1.16, written by Peter Selinger 2001-2019
</metadata>
<g transform="translate(0.000000,500.000000) scale(0.100000,-0.100000)"
fill="#000000" stroke="none">
<path d="M1400 4755 c-1 -141 -18 -312 -34 -342 -26 -49 -151 -163 -178 -163
-8 0 -19 -5 -25 -11 -17 -17 -113 -48 -148 -49 -16 0 -39 -7 -49 -15 -11 -8
-32 -15 -46 -15 -57 0 -133 -57 -192 -145 -20 -30 -29 -58 -34 -110 -3 -38
-13 -80 -20 -92 -8 -12 -14 -36 -14 -53 0 -17 -11 -51 -25 -74 -14 -23 -34
-69 -45 -101 -11 -32 -29 -74 -40 -93 -32 -53 -179 -231 -246 -297 -88 -87
-120 -161 -92 -215 18 -33 94 -90 122 -90 13 0 49 18 82 40 52 35 76 43 209
69 83 17 171 38 198 47 28 10 58 13 74 9 45 -11 121 -74 180 -149 64 -80 220
-253 303 -334 72 -70 179 -140 317 -208 124 -61 128 -64 193 -197 l43 -88 -5
-92 c-4 -66 -13 -112 -32 -161 -32 -85 -99 -216 -138 -274 -45 -66 -104 -191
-118 -252 -19 -81 -97 -314 -132 -395 -109 -248 -173 -358 -293 -505 -55 -67
-109 -133 -120 -147 l-20 -25 20 -15 c26 -19 144 -13 179 10 14 10 31 37 41
68 18 53 65 108 154 179 42 34 43 36 51 111 6 62 15 90 48 150 22 41 59 121
81 179 40 105 65 155 178 366 71 132 84 151 155 209 42 34 69 70 118 157 108
192 212 336 256 357 34 15 186 14 206 -2 56 -45 198 -354 273 -592 20 -66 64
-176 97 -245 109 -229 201 -481 217 -595 17 -118 -6 -229 -63 -304 -44 -59
-37 -68 53 -76 44 -4 89 -4 100 0 34 11 51 54 44 116 -4 46 -1 66 22 120 42
100 42 101 -23 239 -65 134 -114 263 -156 402 -30 98 -81 311 -91 378 -19 122
-94 440 -144 608 -9 31 -8 33 24 46 71 30 143 38 293 31 135 -6 157 -5 272 19
69 15 161 38 205 52 44 14 85 27 92 29 7 2 18 -17 27 -48 17 -59 54 -121 141
-236 99 -131 266 -381 303 -455 44 -88 64 -199 50 -275 -15 -82 -76 -228 -208
-496 -131 -268 -170 -331 -259 -430 -84 -92 -82 -109 16 -113 93 -4 109 5 116
63 3 34 11 51 28 63 13 8 42 35 64 58 177 188 170 177 184 267 7 52 23 91 64
165 30 53 77 144 104 202 28 58 71 137 96 175 24 39 64 106 87 150 52 99 50
127 -11 215 -176 250 -260 433 -245 534 4 25 11 48 15 50 4 3 21 -14 38 -37
21 -31 48 -52 96 -75 37 -17 92 -55 124 -84 32 -30 138 -113 235 -186 97 -73
195 -153 217 -178 64 -73 138 -191 201 -319 55 -114 82 -181 163 -410 72 -203
94 -252 147 -330 54 -82 131 -180 159 -203 44 -36 95 16 95 98 0 53 -22 91
-70 121 -65 40 -102 125 -109 254 -5 69 -6 71 -53 115 -54 51 -61 66 -130 285
-64 202 -100 344 -117 464 -17 115 -41 151 -134 198 -151 77 -239 149 -316
258 -101 142 -114 199 -83 369 15 87 22 161 22 266 0 131 -3 152 -26 217 -31
83 -73 149 -138 212 -149 146 -331 198 -680 194 -374 -4 -1231 -46 -1480 -74
-120 -13 -169 -28 -302 -96 -123 -63 -257 -103 -343 -103 -91 0 -199 33 -276
85 -79 54 -271 246 -413 414 l-104 124 -4 81 c-3 66 -9 94 -35 149 -33 69 -54
87 -82 70 -30 -18 -77 -99 -90 -156 -7 -31 -17 -57 -22 -57 -24 0 -22 117 4
165 22 42 91 95 125 95 8 0 23 6 31 13 18 15 68 36 151 62 30 10 59 22 65 26
5 5 16 9 25 9 18 0 138 113 164 154 28 44 68 229 69 321 2 82 -19 205 -34 205
-5 0 -9 -8 -9 -17 0 -15 -2 -14 -15 3 -13 17 -14 12 -15 -61z"/>
</g>
</svg>
