<?xml version="1.0" standalone="no"?>
<!DOCTYPE svg PUBLIC "-//W3C//DTD SVG 20010904//EN"
 "http://www.w3.org/TR/2001/REC-SVG-20010904/DTD/svg10.dtd">
<svg version="1.0" xmlns="http://www.w3.org/2000/svg"
 width="500.000000pt" height="600.000000pt" viewBox="0 0 500.000000 600.000000"
 preserveAspectRatio="xMidYMid meet">
<metadata>
Created by potrace 1.16, written by Peter Selinger 2001-2019
</metadata>
<g transform="translate(0.000000,600.000000) scale(0.100000,-0.100000)"
fill="#000000" stroke="none">
<path d="M1437 5704 c-2 -13 -1 -27 3 -29 8 -5 21 -92 25 -155 2 -58 -15 -131
-46 -192 -5 -10 -9 -23 -9 -29 0 -6 -13 -31 -30 -56 -16 -24 -30 -48 -30 -54
0 -5 -7 -12 -15 -15 -8 -4 -15 -12 -15 -20 0 -8 -9 -24 -20 -36 -12 -13 -27
-30 -35 -39 -8 -9 -15 -21 -15 -27 0 -6 -8 -17 -19 -24 -10 -7 -21 -23 -25
-35 -4 -13 -12 -23 -17 -23 -5 0 -14 -11 -19 -25 -5 -14 -17 -28 -25 -31 -8
-4 -15 -14 -15 -25 0 -10 -8 -23 -19 -28 -10 -6 -22 -22 -25 -36 -4 -14 -11
-25 -17 -25 -5 0 -15 -13 -20 -30 -6 -16 -15 -30 -20 -30 -5 0 -16 -15 -24
-32 -36 -75 -56 -108 -65 -108 -6 0 -10 -9 -10 -20 0 -11 -9 -37 -20 -57 -11
-21 -20 -43 -20 -49 0 -6 -7 -17 -15 -24 -8 -7 -15 -22 -15 -34 0 -12 -7 -31
-15 -42 -8 -10 -15 -30 -15 -44 0 -14 -7 -35 -15 -47 -8 -12 -13 -28 -10 -35
3 -8 0 -28 -6 -44 -7 -16 -14 -46 -15 -67 -1 -21 -8 -44 -14 -52 -6 -8 -9 -19
-5 -25 9 -15 -4 -50 -20 -50 -8 0 -15 17 -19 43 -3 23 -8 56 -10 72 -15 98
-28 278 -31 440 -1 83 -5 157 -8 165 -3 8 -6 29 -5 45 0 17 -3 48 -6 70 -3 22
-6 51 -6 64 0 13 -4 29 -9 35 -9 12 -21 76 -21 113 0 12 -5 25 -10 28 -6 3
-10 19 -10 35 0 16 -4 32 -10 35 -5 3 -10 16 -10 29 0 12 -5 27 -10 32 -27 27
-24 325 3 397 16 39 16 47 2 47 -19 0 -55 -40 -55 -61 0 -10 -5 -21 -11 -25
-6 -3 -9 -15 -6 -25 3 -10 1 -22 -4 -25 -5 -3 -9 -20 -7 -38 1 -17 -2 -37 -6
-44 -4 -7 -4 -18 0 -24 5 -7 9 -60 11 -118 3 -126 8 -194 16 -207 10 -16 19
-197 22 -421 1 -116 5 -215 8 -218 3 -4 2 -15 -4 -26 -7 -12 -7 -24 -1 -31 5
-7 9 -43 8 -82 -1 -38 1 -83 6 -99 4 -17 3 -34 -2 -41 -6 -7 -6 -15 2 -23 6
-6 8 -21 4 -35 l-6 -24 -122 60 c-68 33 -134 68 -147 78 -33 26 -44 14 -37
-37 12 -90 64 -155 191 -238 94 -61 95 -62 95 -99 1 -18 7 -61 15 -97 17 -81
9 -130 -38 -228 -41 -85 -54 -156 -37 -206 8 -26 22 -40 56 -57 39 -19 56 -21
118 -15 l72 6 11 -112 c19 -184 73 -300 225 -478 85 -100 146 -144 252 -182
108 -39 146 -63 167 -108 60 -128 79 -160 124 -206 27 -27 61 -57 74 -65 21
-13 25 -25 32 -105 12 -138 10 -363 -6 -654 -8 -146 -15 -356 -15 -466 l0
-201 -35 -69 c-19 -38 -61 -101 -94 -141 -73 -89 -101 -134 -101 -162 0 -20 5
-21 84 -21 65 0 88 4 101 17 21 20 35 57 35 90 0 19 16 41 57 79 l58 53 -3
113 c-4 191 17 345 89 658 11 47 22 96 25 109 9 41 25 10 61 -121 67 -245 94
-395 96 -518 1 -150 -15 -204 -84 -285 -73 -85 -101 -130 -97 -157 3 -20 9
-23 58 -26 30 -1 80 1 110 5 l55 8 6 87 c5 80 9 92 44 143 l39 56 -12 142 c-6
78 -21 198 -32 266 -26 160 -40 408 -39 696 1 127 -2 260 -6 297 -9 85 -2 114
33 131 43 22 187 42 307 42 97 -1 117 -4 171 -27 133 -58 339 -64 469 -13 39
15 88 30 110 32 50 6 67 -6 317 -218 205 -175 360 -331 412 -418 40 -65 66
-159 66 -240 0 -82 -94 -480 -142 -601 -29 -73 -48 -100 -141 -194 -71 -73
-99 -117 -83 -134 4 -3 48 -8 99 -10 89 -4 94 -3 125 23 21 17 33 38 37 63 13
80 15 83 60 102 42 18 45 22 45 57 0 21 7 63 15 93 8 30 24 93 36 140 12 47
43 153 70 237 27 83 67 225 90 315 23 89 45 167 50 173 20 20 123 -108 202
-252 71 -128 80 -150 93 -233 8 -51 24 -115 35 -144 46 -121 90 -319 96 -436
l5 -115 -49 -65 c-28 -36 -58 -80 -68 -99 -17 -33 -17 -35 1 -48 19 -14 190
-19 211 -5 8 5 11 41 10 112 -2 96 0 110 26 164 15 32 27 68 27 79 0 12 -13
62 -30 112 -47 144 -98 327 -105 370 -3 22 -16 147 -30 279 -14 131 -29 255
-35 276 -13 49 -40 81 -195 230 -164 158 -177 172 -224 245 -62 94 -67 130
-41 282 12 70 24 132 27 136 3 5 20 -18 37 -51 38 -74 62 -109 69 -102 3 3 1
39 -4 81 -7 59 -6 94 7 160 37 194 30 268 -39 409 -73 148 -207 262 -399 339
-183 73 -311 80 -1238 75 -797 -4 -837 -6 -964 -52 -102 -36 -180 -36 -234 2
-23 15 -48 39 -57 53 -9 13 -29 86 -44 162 -16 76 -45 177 -65 227 -20 48 -36
97 -36 107 0 11 22 41 49 67 101 98 116 191 47 297 -12 18 -25 33 -31 33 -5
-1 -23 -23 -40 -50 -56 -92 -137 -190 -157 -190 -43 0 -56 17 -52 67 7 86 16
128 31 145 8 9 12 22 8 27 -3 6 1 25 9 43 9 17 16 39 16 48 0 9 7 25 15 36 8
10 15 26 15 35 0 9 9 28 20 42 11 14 20 32 20 41 0 9 9 25 20 36 11 11 20 27
20 35 0 8 9 24 20 35 11 11 20 29 20 39 0 11 8 26 18 33 10 7 24 27 31 45 7
17 19 34 27 37 8 3 14 14 14 26 0 11 9 25 20 32 11 7 20 20 20 29 0 9 7 22 16
30 8 7 22 26 31 43 9 17 22 35 29 39 8 4 14 17 14 27 0 10 5 22 10 25 6 4 17
22 25 41 8 19 19 34 24 34 6 0 11 9 11 19 0 11 7 26 15 35 8 8 15 20 15 26 0
7 7 26 16 43 33 63 36 70 41 96 2 14 7 40 10 56 15 83 7 187 -18 237 -5 10 -9
24 -9 31 0 7 -9 20 -20 30 -11 9 -20 23 -20 31 0 7 -11 21 -24 29 -23 15 -24
15 -29 -9z"/>
</g>
</svg>
