<?xml version="1.0" standalone="no"?>
<!DOCTYPE svg PUBLIC "-//W3C//DTD SVG 20010904//EN"
 "http://www.w3.org/TR/2001/REC-SVG-20010904/DTD/svg10.dtd">
<svg version="1.0" xmlns="http://www.w3.org/2000/svg"
 width="585.000000pt" height="700.000000pt" viewBox="0 0 585.000000 700.000000"
 preserveAspectRatio="xMidYMid meet">
<metadata>
Created by potrace 1.16, written by Peter Selinger 2001-2019
</metadata>
<g transform="translate(0.000000,700.000000) scale(0.100000,-0.100000)"
fill="#000000" stroke="none">
<path d="M2120 6733 c-1 -91 -24 -331 -40 -426 -44 -259 -107 -371 -245 -433
-33 -15 -71 -35 -84 -46 -13 -10 -38 -18 -55 -18 -18 0 -47 -11 -66 -25 -22
-16 -41 -23 -56 -19 -13 3 -40 -4 -70 -20 -27 -14 -62 -26 -78 -26 -33 0 -105
-19 -124 -33 -6 -5 -18 -21 -25 -36 -9 -19 -21 -27 -44 -29 -34 -3 -63 -33
-63 -63 0 -10 -16 -32 -35 -50 -24 -23 -35 -42 -35 -61 0 -17 -9 -36 -24 -49
-20 -18 -26 -34 -31 -95 -5 -50 -13 -81 -26 -95 -23 -26 -24 -39 -4 -65 35
-47 8 -127 -73 -217 -26 -29 -64 -82 -85 -118 -24 -41 -57 -80 -85 -101 -83
-62 -318 -217 -345 -227 -14 -6 -33 -20 -41 -33 -24 -37 -48 -117 -41 -138 8
-24 121 -129 152 -141 34 -13 136 -11 298 6 77 8 175 15 217 15 95 0 101 -7
118 -130 7 -47 23 -128 37 -180 13 -52 29 -113 34 -135 46 -189 162 -406 305
-572 91 -104 158 -166 284 -260 93 -69 112 -89 168 -173 68 -104 116 -157 178
-200 35 -25 43 -37 57 -92 32 -122 46 -215 62 -403 17 -203 30 -327 45 -415
32 -185 41 -381 37 -740 -3 -248 -8 -379 -16 -410 -23 -80 -51 -125 -111 -179
-33 -29 -60 -56 -60 -61 0 -5 11 -20 24 -34 21 -24 30 -26 108 -26 87 0 108 8
108 43 0 36 32 85 72 112 80 53 93 129 103 575 10 486 59 1019 116 1270 6 25
12 89 13 142 4 147 -5 142 236 134 107 -3 269 -15 360 -26 218 -27 508 -36
624 -21 104 14 188 50 283 122 35 27 68 49 72 49 4 0 32 -30 62 -67 104 -131
297 -349 361 -409 36 -34 105 -91 152 -129 144 -112 238 -251 272 -399 17 -79
20 -290 5 -406 -12 -89 -13 -313 -1 -390 5 -36 3 -82 -6 -134 -12 -68 -18 -84
-53 -121 -47 -52 -73 -98 -65 -119 12 -30 136 -33 183 -4 10 6 27 28 36 47 9
20 35 59 57 88 39 51 40 53 34 115 -15 163 -17 302 -7 417 17 186 23 231 30
231 15 0 43 -197 42 -299 -4 -359 -9 -479 -18 -501 -6 -14 -41 -54 -77 -90
-36 -35 -66 -70 -66 -76 0 -31 167 -48 204 -21 9 7 21 32 27 56 5 23 24 62 43
86 48 63 70 173 70 345 0 95 -5 158 -18 214 -16 70 -17 92 -6 190 6 61 10 206
8 321 -2 116 1 238 6 272 12 83 -9 137 -83 217 -109 118 -177 227 -222 361
-41 122 -30 331 28 522 9 29 20 50 25 47 13 -8 9 -85 -7 -138 -17 -56 -9 -74
24 -57 33 18 69 73 80 121 5 25 15 97 21 160 6 63 18 144 27 180 56 238 -45
493 -232 587 -98 50 -302 118 -457 154 -129 30 -374 37 -478 15 -262 -57 -474
-80 -750 -80 -252 -1 -405 16 -575 62 -108 29 -153 31 -520 22 -144 -4 -169
-2 -250 19 -166 44 -252 106 -293 214 -10 29 -38 111 -61 182 -106 327 -260
546 -479 681 -43 27 -81 53 -85 58 -4 6 -6 42 -3 79 6 76 41 165 84 211 69 73
239 165 402 219 152 49 213 83 296 160 115 107 194 242 234 397 20 76 21 103
17 250 -5 153 -21 255 -46 282 -4 4 -12 -65 -19 -155 -7 -89 -19 -187 -26
-217 l-14 -55 -1 108 c-1 107 -12 207 -32 300 -11 46 -29 65 -29 30z"/>
</g>
</svg>
