<?xml version="1.0" standalone="no"?>
<!DOCTYPE svg PUBLIC "-//W3C//DTD SVG 20010904//EN"
 "http://www.w3.org/TR/2001/REC-SVG-20010904/DTD/svg10.dtd">
<svg version="1.0" xmlns="http://www.w3.org/2000/svg"
 width="650.000000pt" height="545.000000pt" viewBox="0 0 650.000000 545.000000"
 preserveAspectRatio="xMidYMid meet">
<metadata>
Created by potrace 1.16, written by Peter Selinger 2001-2019
</metadata>
<g transform="translate(0.000000,545.000000) scale(0.100000,-0.100000)"
fill="#000000" stroke="none">
<path d="M1025 5129 c96 -125 144 -244 176 -437 30 -185 30 -265 -1 -326 -32
-63 -163 -202 -261 -277 -110 -83 -193 -178 -241 -276 -35 -71 -42 -94 -47
-169 l-6 -87 -32 49 c-17 27 -69 92 -114 144 -84 98 -129 175 -129 222 0 31
14 66 49 123 132 215 201 375 201 470 0 55 -38 203 -67 258 -29 59 -217 316
-225 311 -5 -3 1 -20 12 -37 74 -110 141 -296 160 -442 19 -148 -33 -305 -139
-418 -58 -63 -111 -152 -125 -211 -4 -16 -7 -58 -7 -92 0 -99 35 -164 173
-325 40 -48 86 -109 101 -136 l26 -50 -20 -39 c-24 -46 -20 -107 13 -213 31
-99 23 -140 -61 -331 -84 -190 -89 -220 -44 -283 38 -54 67 -69 121 -62 85 10
145 48 318 198 81 71 139 107 171 107 10 0 75 -28 143 -61 172 -85 480 -216
570 -244 41 -12 125 -32 185 -44 159 -30 270 -67 311 -103 24 -21 39 -47 50
-86 33 -112 0 -264 -117 -542 -87 -207 -104 -259 -133 -402 -34 -163 -57 -237
-110 -351 -24 -50 -58 -126 -76 -167 -84 -196 -156 -302 -254 -375 -119 -89
-198 -168 -194 -196 3 -23 7 -24 92 -27 92 -3 136 11 136 43 0 27 61 84 160
151 108 73 119 88 144 194 22 93 107 334 146 410 52 104 191 346 264 460 37
58 116 204 176 325 60 121 135 258 167 305 67 99 67 98 245 99 l107 1 39 -57
c84 -123 137 -257 203 -508 29 -111 54 -179 94 -258 106 -210 188 -538 189
-762 1 -190 -28 -282 -139 -432 -19 -25 15 -34 105 -29 115 8 116 9 136 174 5
44 13 60 44 91 63 62 76 167 34 281 -80 220 -169 588 -200 825 -13 105 -31
231 -39 280 -28 171 -65 437 -65 472 0 86 29 99 250 107 288 11 411 33 600
108 59 24 79 27 97 19 13 -6 23 -15 23 -21 0 -23 80 -181 134 -264 69 -107
115 -198 150 -296 15 -41 43 -113 61 -161 40 -99 56 -228 44 -349 -11 -116
-129 -474 -222 -672 -58 -124 -104 -191 -217 -313 -107 -115 -131 -155 -109
-181 11 -14 27 -16 101 -12 104 6 132 21 149 79 15 49 57 86 107 95 49 9 69
28 77 75 4 21 17 53 31 71 79 110 78 105 84 201 6 84 11 102 62 212 71 153
116 256 134 308 8 23 28 62 44 88 17 25 48 88 71 139 52 120 54 166 11 241
-57 101 -157 398 -139 416 18 18 195 -137 477 -417 155 -154 229 -258 337
-470 83 -162 134 -292 219 -548 34 -106 79 -222 99 -257 43 -78 63 -132 75
-204 10 -58 41 -101 72 -101 28 0 72 101 72 166 1 40 -5 60 -28 95 -27 40 -30
52 -30 130 -1 65 -5 92 -17 105 -29 33 -41 66 -49 130 -6 44 -17 75 -38 106
-16 23 -47 79 -69 123 -55 109 -209 572 -222 669 -19 133 -57 191 -155 236
-44 20 -81 49 -132 101 -124 129 -179 217 -216 344 -37 128 -30 352 14 493 5
18 12 31 14 29 3 -2 11 -41 19 -87 8 -46 17 -86 21 -89 31 -31 134 345 134
490 0 197 -85 331 -269 422 -170 85 -582 202 -806 228 -129 15 -629 6 -815
-15 -275 -31 -631 -86 -773 -120 -250 -60 -399 -125 -582 -251 -116 -80 -154
-99 -256 -127 -72 -20 -106 -23 -244 -22 -150 1 -169 3 -300 37 -204 53 -360
112 -373 142 -21 45 -24 97 -12 157 15 68 9 78 -47 78 -52 0 -81 -17 -120 -71
-47 -66 -51 -56 -52 106 l-1 120 184 197 c157 167 187 205 206 255 27 70 28
145 6 264 -35 180 -76 288 -158 406 -48 70 -168 193 -188 193 -5 0 15 -32 45
-71z"/>
</g>
</svg>
