solid exported
	facet normal 0.9428090382011141 0 -0.33333334289610184
		outer loop
			vertex -0.10650840401649475 -1.3639826774597168 1.7593114376068115
			vertex -2.067991018295288 -4.7613701820373535 -3.7885990142822266
			vertex -2.067991018295288 -3.6066691875457764 -3.7885990142822266
		endloop
	endfacet
	facet normal 0 0 1
		outer loop
			vertex -1.7934448719024658 -4.602860927581787 -3.7885990142822266
			vertex -0.7934443950653076 -2.870809316635132 -3.7885990142822266
			vertex -2.067991018295288 -3.6066691875457764 -3.7885990142822266
		endloop
	endfacet
	facet normal 0 0 1
		outer loop
			vertex -1.7934448719024658 -4.602860927581787 -3.7885990142822266
			vertex -2.067991018295288 -3.6066691875457764 -3.7885990142822266
			vertex -2.067991018295288 -4.7613701820373535 -3.7885990142822266
		endloop
	endfacet
	facet normal 0 0 1
		outer loop
			vertex 4.091002464294434 -1.2054734230041504 -3.7885990142822266
			vertex -0.7934443950653076 -2.870809316635132 -3.7885990142822266
			vertex -1.7934448719024658 -4.602860927581787 -3.7885990142822266
		endloop
	endfacet
	facet normal -0.4714049008535052 0.8164964520694659 -0.3333331114805003
		outer loop
			vertex -2.067991018295288 -3.6066691875457764 -3.7885990142822266
			vertex -2.0894715785980225 -3.6190710067749023 -3.7885990142822266
			vertex 0.007160257548093796 -0.012401930056512356 2.080814838409424
		endloop
	endfacet
	facet normal -0.47140448290983517 0.8164965708290468 -0.33333341164203556
		outer loop
			vertex 4.159814357757568 -0.012402046471834183 -3.7919247150421143
			vertex -2.500000238418579 -4.330127239227295 -4.949748516082764
			vertex -2.0894715785980225 -3.6190710067749023 -3.7885990142822266
		endloop
	endfacet
	facet normal 0.4714045090718374 -0.816496583955324 0.3333333424907068
		outer loop
			vertex -3.0894718170166016 -5.3511223793029785 -3.7885990142822266
			vertex -2.067991018295288 -4.7613701820373535 -3.7885990142822266
			vertex 0.34049370884895325 -0.5897523760795593 3.0236241817474365
		endloop
	endfacet
	facet normal 0.4714046258411414 -0.8164967024549966 0.3333328870899033
		outer loop
			vertex 6.178943634033203 1.1183904291556246e-7 -3.7885990142822266
			vertex -2.067991018295288 -4.7613701820373535 -3.7885990142822266
			vertex -2.107928991317749 -4.830544471740723 -3.901560068130493
		endloop
	endfacet
	facet normal 0.4714045855465606 -0.8164967164134338 0.3333329098840324
		outer loop
			vertex -2.067991018295288 -4.7613701820373535 -3.7885990142822266
			vertex -3.0894718170166016 -5.3511223793029785 -3.7885990142822266
			vertex -2.107928991317749 -4.830544471740723 -3.901560068130493
		endloop
	endfacet
	facet normal 0.4714045501160169 -0.8164965823149258 0.3333332884636055
		outer loop
			vertex -3.499999761581421 -6.062177658081055 -4.949747562408447
			vertex 6.999999523162842 1.2227152978994127e-7 -4.949747562408447
			vertex -3.0894718170166016 -5.3511223793029785 -3.7885990142822266
		endloop
	endfacet
	facet normal 0 0 -1
		outer loop
			vertex -3.499999761581421 -6.062177658081055 -4.949747562408447
			vertex -3.5 6.062177658081055 -4.949747562408447
			vertex -2.5 -4.330126762390137 -4.949747562408447
		endloop
	endfacet
	facet normal 0 0 -1
		outer loop
			vertex 5.999999523162842 -0.5773502588272095 -4.949747562408447
			vertex -3.499999761581421 -6.062177658081055 -4.949747562408447
			vertex -2.5 -4.330126762390137 -4.949747562408447
		endloop
	endfacet
	facet normal 0.9428090333173815 -2.4523265640804544e-8 -0.3333333567093822
		outer loop
			vertex 0.007160257548093796 -0.012401930056512356 2.080814838409424
			vertex 0.34049370884895325 -0.5897523760795593 3.0236241817474365
			vertex -0.10650840401649475 -1.3639826774597168 1.7593114376068115
		endloop
	endfacet
	facet normal 0.9428090421675684 -3.1222012233852976e-8 -0.3333333316772736
		outer loop
			vertex 0.007160257548093796 -0.012401930056512356 2.080814838409424
			vertex -0.10650840401649475 -1.3639826774597168 1.7593114376068115
			vertex -2.067991018295288 -3.6066691875457764 -3.7885990142822266
		endloop
	endfacet
	facet normal -0.4714044752056002 -0.8164966008107275 -0.33333334909765655
		outer loop
			vertex 0.34049370884895325 -0.5897523760795593 3.0236241817474365
			vertex 0.007160257548093796 -0.012401930056512356 2.080814838409424
			vertex 4.263458728790283 -0.589752197265625 -2.5242857933044434
		endloop
	endfacet
	facet normal -0.47140401499406265 0.8164967576703652 -0.3333336157084348
		outer loop
			vertex -2.0894715785980225 -3.6190710067749023 -3.7885990142822266
			vertex -0.007160257548093796 -0.012401930056512356 2.101067066192627
			vertex 0.007160257548093796 -0.012401930056512356 2.080814838409424
		endloop
	endfacet
	facet normal 0.47140453984447167 -0.816496575054074 0.3333333207751501
		outer loop
			vertex -0.34049370884895325 -0.5897524356842041 3.9866857528686523
			vertex -3.0894718170166016 -5.3511223793029785 -3.7885990142822266
			vertex 0.34049370884895325 -0.5897523760795593 3.0236241817474365
		endloop
	endfacet
	facet normal 0.4714044586309597 -0.8164966453870344 0.33333326334851654
		outer loop
			vertex 0.3780198395252228 -0.5247552394866943 3.1297640800476074
			vertex -0.34049370884895325 -0.5897524356842041 3.9866857528686523
			vertex 0.34049370884895325 -0.5897523760795593 3.0236241817474365
		endloop
	endfacet
	facet normal 0 0 -1
		outer loop
			vertex -2.5 4.330127239227295 -4.949747562408447
			vertex -2.5 -4.330126762390137 -4.949747562408447
			vertex -3.382352590560913 4.839553356170654 -4.949747562408447
		endloop
	endfacet
	facet normal 0 0 -1
		outer loop
			vertex -3.5 6.062177658081055 -4.949747562408447
			vertex -2.5 4.330127239227295 -4.949747562408447
			vertex -3.382352590560913 4.839553356170654 -4.949747562408447
		endloop
	endfacet
	facet normal -0.4714037323956064 -0.8164968564992762 -0.3333337732818144
		outer loop
			vertex 6.798699892620393e-16 -3.925231145706417e-16 2.12131929397583
			vertex -2.0894720554351807 3.6190712451934814 -3.7885990142822266
			vertex -2.067991018295288 3.6066691875457764 -3.7885990142822266
		endloop
	endfacet
	facet normal 0 0 -1
		outer loop
			vertex -3.5 6.062177658081055 -4.949747562408447
			vertex 4.999999046325684 4.626848237876402e-8 -4.949747562408447
			vertex -2.4999992847442627 4.3301262855529785 -4.949747562408447
		endloop
	endfacet
	facet normal -0.4714045035111228 -0.8164966331186224 -0.3333332299297296
		outer loop
			vertex -2.0894720554351807 3.6190712451934814 -3.7885990142822266
			vertex -2.5 4.330126762390137 -4.949748516082764
			vertex 5.000000476837158 -9.632399411430015e-8 -4.949748516082764
		endloop
	endfacet
	facet normal -0.47140508263993564 -0.8164991951957576 -0.333326135047817
		outer loop
			vertex -2.0894720554351807 3.6190712451934814 -3.7885990142822266
			vertex -2.069166898727417 3.608705759048462 -3.7919247150421143
			vertex -2.067991018295288 3.6066691875457764 -3.7885990142822266
		endloop
	endfacet
	facet normal -0.47140589731423793 -0.8164989129863914 -0.3333256741827719
		outer loop
			vertex -2.069166898727417 3.608705759048462 -3.7919247150421143
			vertex 4.178943157196045 -1.7064056123672344e-7 -3.7885990142822266
			vertex -2.067991018295288 3.6066691875457764 -3.7885990142822266
		endloop
	endfacet
	facet normal 0.47140452534933597 0.8164965908943573 0.3333333024737549
		outer loop
			vertex 6.999999523162842 1.2227152978994127e-7 -4.949747562408447
			vertex -3.5 6.062177658081055 -4.949747562408447
			vertex -3.0894720554351807 5.3511223793029785 -3.7885990142822266
		endloop
	endfacet
	facet normal 0.47140441749626494 0.8164966159160061 0.33333339371073745
		outer loop
			vertex -3.0894720554351807 5.3511223793029785 -3.7885990142822266
			vertex 0.2654414474964142 0.5897523760795593 3.1297640800476074
			vertex -2.067991018295288 4.7613701820373535 -3.7885990142822266
		endloop
	endfacet
	facet normal 0 0 1
		outer loop
			vertex -0.9446242451667786 2.9580929279327393 -3.7885990142822266
			vertex -2.067991018295288 4.7613701820373535 -3.7885990142822266
			vertex -2.067991018295288 3.6066691875457764 -3.7885990142822266
		endloop
	endfacet
	facet normal 0 0 1
		outer loop
			vertex -0.9446242451667786 2.9580929279327393 -3.7885990142822266
			vertex -1.7934448719024658 4.602860927581787 -3.7885990142822266
			vertex -2.067991018295288 4.7613701820373535 -3.7885990142822266
		endloop
	endfacet
	facet normal 0 0 1
		outer loop
			vertex -0.9446242451667786 2.9580929279327393 -3.7885990142822266
			vertex -0.7934443950653076 2.870809316635132 -3.7885990142822266
			vertex -1.7934448719024658 4.602860927581787 -3.7885990142822266
		endloop
	endfacet
	facet normal 0.942809036182397 0 -0.3333333486058959
		outer loop
			vertex 0.0071602570824325085 0.012401929125189781 2.080814838409424
			vertex -2.067991018295288 3.6066691875457764 -3.7885990142822266
			vertex -2.067991018295288 4.7613701820373535 -3.7885990142822266
		endloop
	endfacet
	facet normal 0 0 1
		outer loop
			vertex -1.7934448719024658 4.602860927581787 -3.7885990142822266
			vertex -0.7934443950653076 2.870809316635132 -3.7885990142822266
			vertex 2.88291597366333 0.7482616305351257 -3.7885990142822266
		endloop
	endfacet
	facet normal 0.9428090266596367 -2.5955726986568307e-8 -0.33333337554032555
		outer loop
			vertex -2.0894718170166016 -3.6190712451934814 -3.7885990142822266
			vertex -2.500000238418579 -4.330127239227295 -4.949748516082764
			vertex -2.5 4.330126762390137 -4.949748516082764
		endloop
	endfacet
	facet normal 0.9428030141210451 0 -0.3333503810771377
		outer loop
			vertex -2.0894718170166016 -3.6190712451934814 -3.7885990142822266
			vertex -2.0906476974487305 -3.596303939819336 -3.7919247150421143
			vertex -2.0894718170166016 -3.5942673683166504 -3.7885990142822266
		endloop
	endfacet
	facet normal 0.942809080790598 -8.897415345913646e-9 -0.33333322243483016
		outer loop
			vertex -2.0906476974487305 -3.596303939819336 -3.7919247150421143
			vertex -2.5 4.330126762390137 -4.949748516082764
			vertex -2.0894718170166016 3.6190710067749023 -3.7885990142822266
		endloop
	endfacet
	facet normal 0.9428030141210451 0 -0.3333503810771377
		outer loop
			vertex -2.0906476974487305 -3.596303939819336 -3.7919247150421143
			vertex -2.0894718170166016 3.6190710067749023 -3.7885990142822266
			vertex -2.0894718170166016 -3.5942673683166504 -3.7885990142822266
		endloop
	endfacet
	facet normal 0.9428089369752843 5.016088672317133e-7 -0.33333362920546
		outer loop
			vertex 6.798699892620393e-16 -3.925231145706417e-16 2.12131929397583
			vertex -2.0894718170166016 -3.6190712451934814 -3.7885990142822266
			vertex -0.007160257548093796 0.012401929125189781 2.101067066192627
		endloop
	endfacet
	facet normal 0.9427936534147688 0.0000788935076516081 -0.3333768451117254
		outer loop
			vertex -0.014320515096187592 1.3322676295501878e-15 2.080814838409424
			vertex -0.007160257548093796 0.012401929125189781 2.101067066192627
			vertex -0.014295978471636772 -0.00004249894845997915 2.0808842182159424
		endloop
	endfacet
	facet normal 0.9428090344811861 0 -0.3333333534176468
		outer loop
			vertex -2.0894718170166016 -3.6190712451934814 -3.7885990142822266
			vertex -2.0894718170166016 -3.5942673683166504 -3.7885990142822266
			vertex -0.014295978471636772 -0.00004249894845997915 2.0808842182159424
		endloop
	endfacet
	facet normal 0.9427937506158921 0.00007939857539177016 -0.3333765701057673
		outer loop
			vertex -2.0894718170166016 -3.5942673683166504 -3.7885990142822266
			vertex -0.014320515096187592 1.3322676295501878e-15 2.080814838409424
			vertex -0.014295978471636772 -0.00004249894845997915 2.0808842182159424
		endloop
	endfacet
	facet normal 0.9428090348424845 0 -0.3333333523957411
		outer loop
			vertex -2.0894718170166016 3.5942673683166504 -3.7885990142822266
			vertex -2.0894718170166016 3.6190710067749023 -3.7885990142822266
			vertex -0.014320515096187592 9.124645483638005e-16 2.080814838409424
		endloop
	endfacet
	facet normal 0.942808937307238 -5.033336853448214e-7 -0.33333362826655116
		outer loop
			vertex -2.0894718170166016 3.6190710067749023 -3.7885990142822266
			vertex -0.007160257548093796 0.012401929125189781 2.101067066192627
			vertex -0.014320515096187592 9.124645483638005e-16 2.080814838409424
		endloop
	endfacet
	facet normal -0.9428090000322863 -1.8539804904283887e-8 0.33333345085382615
		outer loop
			vertex -3.5 6.062177658081055 -4.949747562408447
			vertex -3.499999761581421 -6.062177658081055 -4.949747562408447
			vertex -3.0894718170166016 5.3511223793029785 -3.7885990142822266
		endloop
	endfacet
	facet normal -0.9428084922487586 0 0.3333348870784795
		outer loop
			vertex -3.0894718170166016 4.1716179847717285 -3.7885990142822266
			vertex -3.0894718170166016 5.3511223793029785 -3.7885990142822266
			vertex -3.1294097900390625 4.240792274475098 -3.901560068130493
		endloop
	endfacet
	facet normal -0.942809053256981 -2.1022745582192764e-8 0.3333333003116775
		outer loop
			vertex -3.499999761581421 -6.062177658081055 -4.949747562408447
			vertex -3.0894718170166016 -5.3511223793029785 -3.7885990142822266
			vertex -3.1294097900390625 4.240792274475098 -3.901560068130493
		endloop
	endfacet
	facet normal -0.9428084922487585 0 0.33333488707847947
		outer loop
			vertex -3.0894718170166016 -5.3511223793029785 -3.7885990142822266
			vertex -3.0894718170166016 4.1716179847717285 -3.7885990142822266
			vertex -3.1294097900390625 4.240792274475098 -3.901560068130493
		endloop
	endfacet
	facet normal -0.9428090502400086 2.1121400274628667e-9 0.33333330884496526
		outer loop
			vertex -3.0894718170166016 -5.3511223793029785 -3.7885990142822266
			vertex 9.518180167305905e-16 -5.495323709868102e-16 4.949747562408447
			vertex -0.34049373865127563 0.5897524356842041 3.9866857528686523
		endloop
	endfacet
	facet normal -0.9428090287004715 -7.456563238239446e-8 0.333333369767967
		outer loop
			vertex -0.643461287021637 -0.06499717384576797 3.1297640800476074
			vertex -0.34049373865127563 0.5897524356842041 3.9866857528686523
			vertex -0.6809874176979065 1.4432899320127035e-15 3.0236241817474365
		endloop
	endfacet
	facet normal -0.9428090501201873 0 0.33333330918387105
		outer loop
			vertex -3.0894718170166016 -5.3511223793029785 -3.7885990142822266
			vertex -0.643461287021637 -0.06499717384576797 3.1297640800476074
			vertex -3.0894718170166016 -4.1716179847717285 -3.7885990142822266
		endloop
	endfacet
	facet normal -0.9428090325139072 -9.43808243786357e-8 0.3333333589819382
		outer loop
			vertex -0.643461287021637 -0.06499717384576797 3.1297640800476074
			vertex -0.6809874176979065 1.4432899320127035e-15 3.0236241817474365
			vertex -3.0894718170166016 -4.1716179847717285 -3.7885990142822266
		endloop
	endfacet
	facet normal -0.9428090463917357 1.7360845676732344e-8 0.3333333197295248
		outer loop
			vertex -0.34049373865127563 0.5897524356842041 3.9866857528686523
			vertex -3.0894718170166016 5.3511223793029785 -3.7885990142822266
			vertex -0.6809874176979065 1.7763568394002505e-15 3.0236241817474365
		endloop
	endfacet
	facet normal -0.9428090506775108 0 0.33333330760752217
		outer loop
			vertex -3.0894718170166016 5.3511223793029785 -3.7885990142822266
			vertex -3.0894718170166016 4.1716179847717285 -3.7885990142822266
			vertex -0.6809874176979065 1.7763568394002505e-15 3.0236241817474365
		endloop
	endfacet
	facet normal 0.47140454416634503 0.8164965787801791 0.33333330553604107
		outer loop
			vertex -3.0894720554351807 5.3511223793029785 -3.7885990142822266
			vertex 9.518180167305905e-16 -5.495323709868102e-16 4.949747562408447
			vertex 0.6809874176979065 1.615012656941417e-8 3.9866857528686523
		endloop
	endfacet
	facet normal 0.4714045599879225 0.8164965656439249 0.33333331533807015
		outer loop
			vertex 0.2654414474964142 0.5897523760795593 3.1297640800476074
			vertex 0.34049367904663086 0.5897523760795593 3.0236241817474365
			vertex -2.067991018295288 4.7613701820373535 -3.7885990142822266
		endloop
	endfacet
	facet normal 0.9428090424857781 2.478943165572992e-8 -0.333333330777241
		outer loop
			vertex 0.34049367904663086 0.5897523760795593 3.0236241817474365
			vertex 0.0071602570824325085 0.012401929125189781 2.080814838409424
			vertex -2.067991018295288 4.7613701820373535 -3.7885990142822266
		endloop
	endfacet
	facet normal -0.4714049020732783 0.8164962373407879 -0.33333363573095753
		outer loop
			vertex 6.798699892620393e-16 -3.925231145706417e-16 2.12131929397583
			vertex 4.178943634033203 -5.1431268133228514e-8 -3.7885990142822266
			vertex -0.007160257548093796 -0.012401930056512356 2.101067066192627
		endloop
	endfacet
	facet normal -0.4714040385837074 -0.8164967499964172 -0.3333336011449478
		outer loop
			vertex 6.798699892620393e-16 -3.925231145706417e-16 2.12131929397583
			vertex -2.067991018295288 3.6066691875457764 -3.7885990142822266
			vertex 0.014320515096187592 -7.749681452118296e-10 2.101067066192627
		endloop
	endfacet
	facet normal -0.471404926949916 -0.8164962343220414 -0.33333360794445915
		outer loop
			vertex 4.1574625968933105 0.012401836924254894 -3.7885990142822266
			vertex 0.014320515096187592 -7.749681452118296e-10 2.101067066192627
			vertex 0.0071602570824325085 0.012401929125189781 2.080814838409424
		endloop
	endfacet
	facet normal 0.4714045397811249 0.8164965831435247 0.3333333010497079
		outer loop
			vertex 0.2654414474964142 0.5897523760795593 3.1297640800476074
			vertex 0.6809874176979065 1.615012656941417e-8 3.9866857528686523
			vertex 0.34049367904663086 0.5897523760795593 3.0236241817474365
		endloop
	endfacet
	facet normal 0 0 1
		outer loop
			vertex 4.882916450500488 -0.748261570930481 -3.7885990142822266
			vertex 2.882916212081909 -0.7482617497444153 -3.7885990142822266
			vertex 4.091002464294434 -1.2054734230041504 -3.7885990142822266
		endloop
	endfacet
	facet normal 0 0 1
		outer loop
			vertex 2.882916212081909 -0.7482617497444153 -3.7885990142822266
			vertex -0.7934443950653076 -2.870809316635132 -3.7885990142822266
			vertex 4.091002464294434 -1.2054734230041504 -3.7885990142822266
		endloop
	endfacet
	facet normal -0.4714043118262897 -0.8164967651989631 -0.3333331774834477
		outer loop
			vertex 4.263458728790283 -0.589752197265625 -2.5242857933044434
			vertex 0.007160257548093796 -0.012401930056512356 2.080814838409424
			vertex 4.1574625968933105 -0.012401989661157131 -3.7885990142822266
		endloop
	endfacet
	facet normal -0.4714042667045864 -0.8164967858548166 -0.3333331906988337
		outer loop
			vertex 4.263458728790283 -0.589752197265625 -2.5242857933044434
			vertex 4.1574625968933105 -0.012401989661157131 -3.7885990142822266
			vertex 5.157463073730469 -0.5897520780563354 -3.7885990142822266
		endloop
	endfacet
	facet normal 0 0 1
		outer loop
			vertex 2.882916212081909 -0.7482617497444153 -3.7885990142822266
			vertex 4.882916450500488 -0.748261570930481 -3.7885990142822266
			vertex 4.1574625968933105 -0.012401989661157131 -3.7885990142822266
		endloop
	endfacet
	facet normal 0 0 1
		outer loop
			vertex 4.882916450500488 -0.748261570930481 -3.7885990142822266
			vertex 5.157463073730469 -0.5897520780563354 -3.7885990142822266
			vertex 4.1574625968933105 -0.012401989661157131 -3.7885990142822266
		endloop
	endfacet
	facet normal -0.47140086137339215 0.8164997457038472 -0.3333307563996713
		outer loop
			vertex 4.178943634033203 -5.1431268133228514e-8 -3.7885990142822266
			vertex 4.1574625968933105 -0.012401989661157131 -3.7885990142822266
			vertex -0.007160257548093796 -0.012401930056512356 2.101067066192627
		endloop
	endfacet
	facet normal -0.47139930563644855 0.8164875730792192 -0.3333627718457492
		outer loop
			vertex 4.159814357757568 -0.012402046471834183 -3.7919247150421143
			vertex -2.0894715785980225 -3.6190710067749023 -3.7885990142822266
			vertex 4.1574625968933105 -0.012401989661157131 -3.7885990142822266
		endloop
	endfacet
	facet normal -0.4713956576374011 0.8164907324638184 -0.3333601922265158
		outer loop
			vertex 4.178943634033203 -5.1431268133228514e-8 -3.7885990142822266
			vertex 4.159814357757568 -0.012402046471834183 -3.7919247150421143
			vertex 4.1574625968933105 -0.012401989661157131 -3.7885990142822266
		endloop
	endfacet
	facet normal -0.4714044848989955 0.81649657324997 -0.3333334028989133
		outer loop
			vertex 4.178943634033203 -5.1431268133228514e-8 -3.7885990142822266
			vertex 5.000000476837158 -9.632399411430015e-8 -4.949748516082764
			vertex -2.500000238418579 -4.330127239227295 -4.949748516082764
		endloop
	endfacet
	facet normal 0.4714045857282395 -0.8164965363577262 0.33333335067200087
		outer loop
			vertex 6.178943634033203 1.1183904291556246e-7 -3.7885990142822266
			vertex 0.3780198395252228 -0.5247552394866943 3.1297640800476074
			vertex 5.157463073730469 -0.5897520780563354 -3.7885990142822266
		endloop
	endfacet
	facet normal 0.471404548892807 -0.8164965800075996 0.3333332958452586
		outer loop
			vertex 6.999999523162842 1.2227152978994127e-7 -4.949747562408447
			vertex 6.178943634033203 1.1183904291556246e-7 -3.7885990142822266
			vertex -2.107928991317749 -4.830544471740723 -3.901560068130493
		endloop
	endfacet
	facet normal 0 0 -1
		outer loop
			vertex 5.999999523162842 -0.5773502588272095 -4.949747562408447
			vertex 4.2857136726379395 -0.4123930037021637 -4.949747562408447
			vertex 4.999999046325684 4.626848237876402e-8 -4.949747562408447
		endloop
	endfacet
	facet normal 0 0 -1
		outer loop
			vertex 5.999999523162842 -0.5773502588272095 -4.949747562408447
			vertex -2.5 -4.330126762390137 -4.949747562408447
			vertex 4.2857136726379395 -0.4123930037021637 -4.949747562408447
		endloop
	endfacet
	facet normal 0 0 -1
		outer loop
			vertex 6.999999523162842 1.2227152978994127e-7 -4.949747562408447
			vertex 5.999999523162842 -0.5773502588272095 -4.949747562408447
			vertex 4.999999046325684 4.626848237876402e-8 -4.949747562408447
		endloop
	endfacet
	facet normal 0.47140445819639676 -0.8164966455375713 0.33333326359434245
		outer loop
			vertex 0.3780198395252228 -0.5247552394866943 3.1297640800476074
			vertex 0.34049370884895325 -0.5897523760795593 3.0236241817474365
			vertex 5.157463073730469 -0.5897520780563354 -3.7885990142822266
		endloop
	endfacet
	facet normal 0.4714045303754548 -0.8164965876125548 0.3333333034044913
		outer loop
			vertex 6.178943634033203 1.1183904291556246e-7 -3.7885990142822266
			vertex 9.518180167305905e-16 -5.495323709868102e-16 4.949747562408447
			vertex -0.34049370884895325 -0.5897524356842041 3.9866857528686523
		endloop
	endfacet
	facet normal -0.4714044891019701 -0.8164964821318136 -0.333333620147869
		outer loop
			vertex -2.069166898727417 3.608705759048462 -3.7919247150421143
			vertex 5.000000476837158 -9.632399411430015e-8 -4.949748516082764
			vertex 4.178943157196045 -1.7064056123672344e-7 -3.7885990142822266
		endloop
	endfacet
	facet normal -0.47140960226237233 -0.8164921957806468 -0.3333368883339048
		outer loop
			vertex 4.1574625968933105 0.012401836924254894 -3.7885990142822266
			vertex 4.178943157196045 -1.7064056123672344e-7 -3.7885990142822266
			vertex 0.014320515096187592 -7.749681452118296e-10 2.101067066192627
		endloop
	endfacet
	facet normal 0.4714045229905101 0.8164965964498945 0.3333332922014065
		outer loop
			vertex 6.999999523162842 1.2227152978994127e-7 -4.949747562408447
			vertex 5.8880295753479 0.5897522568702698 -4.821776390075684
			vertex 6.178943634033203 1.1183904291556246e-7 -3.7885990142822266
		endloop
	endfacet
	facet normal 0.4714046127672344 0.8164965627828008 0.3333332477051245
		outer loop
			vertex 5.8880295753479 0.5897522568702698 -4.821776390075684
			vertex 5.157463073730469 0.5897523164749146 -3.7885990142822266
			vertex 6.178943634033203 1.1183904291556246e-7 -3.7885990142822266
		endloop
	endfacet
	facet normal 0.47140453430213736 0.8164966307355588 0.3333331922219356
		outer loop
			vertex 5.8880295753479 0.5897522568702698 -4.821776390075684
			vertex -3.0894720554351807 5.3511223793029785 -3.7885990142822266
			vertex 5.157463073730469 0.5897523164749146 -3.7885990142822266
		endloop
	endfacet
	facet normal 0.471404588281554 0.8164965203723675 0.3333333862170344
		outer loop
			vertex 6.178943634033203 1.1183904291556246e-7 -3.7885990142822266
			vertex 5.157463073730469 0.5897523164749146 -3.7885990142822266
			vertex 0.34049367904663086 0.5897523760795593 3.0236241817474365
		endloop
	endfacet
	facet normal 0 0 -1
		outer loop
			vertex -3.5 6.062177658081055 -4.949747562408447
			vertex 6.999999523162842 1.2227152978994127e-7 -4.949747562408447
			vertex 4.999999046325684 4.626848237876402e-8 -4.949747562408447
		endloop
	endfacet
	facet normal 0 0 1
		outer loop
			vertex -1.7934448719024658 4.602860927581787 -3.7885990142822266
			vertex 2.88291597366333 0.7482616305351257 -3.7885990142822266
			vertex 4.8829169273376465 0.7482616305351257 -3.7885990142822266
		endloop
	endfacet
	facet normal 0 0 1
		outer loop
			vertex 3.0340957641601562 0.6609779000282288 -3.7885990142822266
			vertex 4.1574625968933105 0.012401836924254894 -3.7885990142822266
			vertex 5.157463073730469 0.5897523164749146 -3.7885990142822266
		endloop
	endfacet
	facet normal 0 0 1
		outer loop
			vertex 4.8829169273376465 0.7482616305351257 -3.7885990142822266
			vertex 3.0340957641601562 0.6609779000282288 -3.7885990142822266
			vertex 5.157463073730469 0.5897523164749146 -3.7885990142822266
		endloop
	endfacet
	facet normal 0 0 1
		outer loop
			vertex 4.8829169273376465 0.7482616305351257 -3.7885990142822266
			vertex 2.88291597366333 0.7482616305351257 -3.7885990142822266
			vertex 3.0340957641601562 0.6609779000282288 -3.7885990142822266
		endloop
	endfacet
	facet normal -0.47140448338856167 0.8164966079851891 -0.3333333199514325
		outer loop
			vertex 0.0071602570824325085 0.012401929125189781 2.080814838409424
			vertex 5.157463073730469 0.5897523164749146 -3.7885990142822266
			vertex 4.1574625968933105 0.012401836924254894 -3.7885990142822266
		endloop
	endfacet
	facet normal 0.4714045135095384 0.8164965922442693 0.33333331591116294
		outer loop
			vertex 0.6809874176979065 1.615012656941417e-8 3.9866857528686523
			vertex 6.178943634033203 1.1183904291556246e-7 -3.7885990142822266
			vertex 0.34049367904663086 0.5897523760795593 3.0236241817474365
		endloop
	endfacet
	facet normal -0.4714045073625865 0.8164965846171492 -0.333333343286818
		outer loop
			vertex 0.0071602570824325085 0.012401929125189781 2.080814838409424
			vertex 0.34049367904663086 0.5897523760795593 3.0236241817474365
			vertex 5.157463073730469 0.5897523164749146 -3.7885990142822266
		endloop
	endfacet
	facet normal 0 0 1
		outer loop
			vertex -2.0894718170166016 -2.2971153259277344 -3.7885990142822266
			vertex -3.0894718170166016 -4.1716179847717285 -3.7885990142822266
			vertex -2.0894718170166016 -3.5942673683166504 -3.7885990142822266
		endloop
	endfacet
	facet normal 0 0 1
		outer loop
			vertex -2.0894718170166016 -2.2971153259277344 -3.7885990142822266
			vertex -3.0894718170166016 -3.8545989990234375 -3.7885990142822266
			vertex -3.0894718170166016 -4.1716179847717285 -3.7885990142822266
		endloop
	endfacet
	facet normal 0 0 1
		outer loop
			vertex -2.0894718170166016 -2.2971153259277344 -3.7885990142822266
			vertex -2.0894718170166016 -2.1225478649139404 -3.7885990142822266
			vertex -3.0894718170166016 -3.8545989990234375 -3.7885990142822266
		endloop
	endfacet
	facet normal -0.47140475632855205 0.816496497783216 -0.3333332038944834
		outer loop
			vertex -0.014320515096187592 1.2143871660115501e-16 2.080814838409424
			vertex -2.0894718170166016 -3.5942673683166504 -3.7885990142822266
			vertex -3.0894718170166016 -4.1716179847717285 -3.7885990142822266
		endloop
	endfacet
	facet normal -0.4714045416439613 0.8164965582632381 -0.3333333593592657
		outer loop
			vertex -0.6809874176979065 6.42100525446174e-16 3.0236241817474365
			vertex -0.014320515096187592 1.2143871660115501e-16 2.080814838409424
			vertex -3.0894718170166016 -4.1716179847717285 -3.7885990142822266
		endloop
	endfacet
	facet normal 0 0 1
		outer loop
			vertex -3.0894718170166016 -3.8545989990234375 -3.7885990142822266
			vertex -2.0894718170166016 2.1225478649139404 -3.7885990142822266
			vertex -3.0894718170166016 3.8545989990234375 -3.7885990142822266
		endloop
	endfacet
	facet normal 0 0 1
		outer loop
			vertex -3.0894718170166016 -3.8545989990234375 -3.7885990142822266
			vertex -2.0894718170166016 -2.1225478649139404 -3.7885990142822266
			vertex -2.0894718170166016 2.1225478649139404 -3.7885990142822266
		endloop
	endfacet
	facet normal 0 0 1
		outer loop
			vertex -2.0894718170166016 2.2971153259277344 -3.7885990142822266
			vertex -2.0894718170166016 3.5942673683166504 -3.7885990142822266
			vertex -3.0894718170166016 4.1716179847717285 -3.7885990142822266
		endloop
	endfacet
	facet normal 0 0 1
		outer loop
			vertex -3.0894718170166016 3.8545989990234375 -3.7885990142822266
			vertex -2.0894718170166016 2.2971153259277344 -3.7885990142822266
			vertex -3.0894718170166016 4.1716179847717285 -3.7885990142822266
		endloop
	endfacet
	facet normal 0 0 1
		outer loop
			vertex -3.0894718170166016 3.8545989990234375 -3.7885990142822266
			vertex -2.0894718170166016 2.1225478649139404 -3.7885990142822266
			vertex -2.0894718170166016 2.2971153259277344 -3.7885990142822266
		endloop
	endfacet
	facet normal -0.47140475632855205 -0.816496497783216 -0.3333332038944834
		outer loop
			vertex -0.014320515096187592 3.295546323321978e-16 2.080814838409424
			vertex -3.0894718170166016 4.1716179847717285 -3.7885990142822266
			vertex -2.0894718170166016 3.5942673683166504 -3.7885990142822266
		endloop
	endfacet
	facet normal -0.4714045416439618 -0.8164965582632381 -0.33333335935926534
		outer loop
			vertex -0.014320515096187592 3.295546323321978e-16 2.080814838409424
			vertex -0.6809874176979065 6.869301676960815e-16 3.0236241817474365
			vertex -3.0894718170166016 4.1716179847717285 -3.7885990142822266
		endloop
	endfacet
endsolid exported
